<?xml version="1.0" encoding="iso-8859-1"?>
<!-- Generator: Adobe Illustrator 16.0.0, SVG Export Plug-In . SVG Version: 6.00 Build 0)  -->
<!DOCTYPE svg PUBLIC "-//W3C//DTD SVG 1.1//EN" "http://www.w3.org/Graphics/SVG/1.1/DTD/svg11.dtd">
<svg version="1.1" id="Layer_1" xmlns="http://www.w3.org/2000/svg" xmlns:xlink="http://www.w3.org/1999/xlink" x="0px" y="0px"
	 width="1980px" height="1080px" viewBox="0 0 1980 1080" style="enable-background:new 0 0 1980 1080;" xml:space="preserve">
<g>
	<path style="fill-rule:evenodd;clip-rule:evenodd;fill:#1B2233;" d="M1049.931,56.568c7.661,0.45,15.215,1.699,22.747,3.099
		c0.706,0.131,1.409,0.289,2.119,0.384c7.226,0.967,13.18,4.473,18.674,9.069c8.213,6.871,16.405,13.744,23.307,21.998
		c3.43,4.101,7.98,6.839,12.23,9.939c1.159,0.844,2.323,1.681,3.484,2.521c0.004,0.281,0.009,0.563,0.014,0.845
		c-0.527-0.075-1.053-0.149-1.655-0.235c-0.078,0.446-0.178,0.751-0.177,1.057c0.003,0.798,0.077,1.595,0.075,2.393
		c-0.018,7.498-0.055,14.995-0.064,22.493c-0.003,1.668-0.296,3.46,0.203,4.979c0.981,2.993,0.923,5.963,0.634,8.981
		c-0.379,3.944-4.156,7.449-8.03,7.37c-2.378-0.049-4.172,0.998-5.664,2.64c-3.703,4.077-7.441,8.127-10.967,12.355
		c-2.312,2.772-4.274,5.835-6.394,8.768c0.962,0.113,1.642-0.062,2.278-0.335c5.714-2.47,11.381-5.055,17.151-7.384
		c2.031-0.819,4.3-1.371,6.479-1.44c6.305-0.199,12.62-0.172,18.929-0.079c5.347,0.078,10.689,0.37,16.035,0.566
		c2.991,0.11,5.918-0.082,8.514-1.821c0.021,0.233,0.044,0.467,0.066,0.699c-4.531,5.582-9.042,11.179-13.597,16.742
		c-9.724,11.877-19.441,23.76-29.233,35.582c-1.711,2.066-2.56,4.26-2.814,6.925c-1.005,10.501-2.264,20.973-5.673,31.039
		c-0.614,1.813-1.143,3.694-2.042,5.364c-1.144,2.125-1.038,4.155-0.171,6.226c2.372,5.667,4.675,11.368,7.248,16.944
		c1.805,3.91,3.881,7.71,6.06,11.428c4.893,8.346,9.379,16.9,13.573,25.612c4.313,8.959,9.39,17.473,15.544,25.271
		c10.97,13.904,18.64,29.504,24.608,46.076c6.791,18.86,12.746,37.99,18.862,57.069c11.499,35.874,23.007,71.745,34.503,107.621
		c3.782,11.801,7.039,23.745,8.745,36.035c1.098,7.909,1.964,15.863,2.563,23.826c1.225,16.273,1.148,32.592,1.154,48.9
		c0.003,7.596-0.022,15.192-0.16,22.786c-0.164,9.045-1.162,18.028-2.57,26.952c-1.579,10.017-3.378,20-5.079,29.999
		c-0.856,5.03-2.602,9.703-5.556,13.896c-2.22,3.151-4.868,3.367-7.558,0.593c-1.521-1.571-2.597-3.39-3.333-5.475
		c-5.503-15.579-11.007-31.154-15.895-46.947c-4.847-15.654-11.462-30.646-17.819-45.726c-0.744-1.766-1.466-3.541-2.227-5.3
		c-0.305-0.708-0.688-1.385-1.096-2.196c-1.084,0.761-0.746,1.7-0.73,2.482c0.123,6.154,0.271,12.308,0.447,18.46
		c0.332,11.585,0.591,23.173,1.068,34.753c0.304,7.345,0.974,14.675,1.432,22.014c0.713,11.43,0.487,22.845-0.477,34.258
		c-1.377,16.313-4.607,32.241-9.846,47.746c-5.03,14.887-12.712,28.394-21.759,41.166c-1.477,2.084-3.048,4.102-4.575,6.149
		c-0.351-0.238-0.701-0.476-1.05-0.714c2.197-3.429,4.35-6.888,6.6-10.281c7.402-11.172,13.469-23.017,18.094-35.597
		c5.353-14.553,8.644-29.56,10.132-44.986c1.063-11.011,1.193-22.022,0.518-33.057c-0.528-8.618-1.199-17.235-1.404-25.861
		c-0.504-21.179-0.729-42.364-1.161-63.545c-0.174-8.465-0.553-16.928-0.952-25.386c-0.12-2.545-0.814-5.064-0.914-7.609
		c-0.243-6.228-0.422-12.463-0.396-18.693c0.077-18.869,0.269-37.738,0.405-56.606c0.064-8.875-0.057-17.755,0.191-26.624
		c0.471-16.873,0.672-33.724-1.099-50.55c-1.519-14.415-4.05-28.626-8.069-42.555c-6.135-21.259-13.306-42.182-20.588-63.066
		c-3.047-8.74-5.794-17.593-9.94-25.923c-2.451-4.925-4.648-9.978-6.959-14.972c0.028-0.672,0.226-1.39,0.05-2.003
		c-0.394-1.375-1.006-2.685-1.468-4.042c-0.887-2.607-2.138-4.995-4.189-6.871c-1.009-0.922-1.524-2.07-1.655-3.348
		c-0.165-1.593-0.942-2.814-1.839-4.067c-1.342-1.874-2.835-3.72-3.738-5.807c-2.814-6.506-5.372-13.121-8.057-19.683
		c-0.311-0.758-0.782-1.451-1.386-2.55c-2.496,4.22-4.73,7.999-6.964,11.775c-0.183-0.064-0.364-0.129-0.546-0.193
		c0.074-0.564,0.04-1.172,0.243-1.687c0.818-2.074,1.655-4.146,2.588-6.173c3.199-6.958,6.214-13.99,8.453-21.324
		c1.49-4.878,2.594-9.839,2.579-14.987c-0.002-0.709,0.198-1.416,0.235-2.126c0.092-1.75,0.246-3.505,0.177-5.249
		c-0.055-1.375-0.966-1.69-2.136-0.872c-0.652,0.456-1.296,0.929-1.912,1.431c-5.357,4.379-10.713,8.762-16.06,13.155
		c-4.7,3.861-9.797,7.101-15.257,9.769c-0.491,0.24-1.051,0.342-1.578,0.507c2.145-2.196,4.35-4.162,6.822-5.7
		c9.173-5.703,17.696-12.205,25.316-19.873c2.931-2.949,5.986-5.785,8.761-8.874c3.187-3.547,6.129-7.313,9.171-10.99
		c2.484-3.003,4.957-6.017,7.44-9.021c2.837-3.433,5.68-6.861,8.518-10.292c2.028-2.451,4.085-4.878,6.068-7.364
		c2.531-3.171,5.009-6.386,7.491-9.595c0.212-0.273,0.294-0.648,0.545-1.226c-2.463-0.185-4.671-0.502-6.878-0.491
		c-10.854,0.057-21.72-0.413-32.561,0.472c-1.73,0.141-3.568,0.267-5.127,0.934c-3.649,1.567-7.236,3.321-10.708,5.254
		c-3.769,2.098-7.514,4.188-11.656,5.47c-0.672,0.208-1.319,0.561-2.101-0.269c1.271-2.436,2.435-4.974,3.867-7.347
		c3.019-4.997,6.939-9.314,10.792-13.658c3.752-4.231,7.425-8.506,10.731-13.107c3.291-4.581,5.877-9.471,7.514-14.868
		c1.222-4.032,1.619-8.202,0.971-12.3c-0.476-3.01-0.91-5.979-0.759-9.008c0.146-2.936-0.977-5.283-3.047-7.234
		c-1.39-1.31-2.928-2.468-4.267-3.825c-1.957-1.985-3.752-4.13-5.694-6.13c-2.769-2.852-5.526-5.723-8.441-8.422
		c-2.74-2.536-5.676-4.863-8.531-7.277c-2.31-1.951-4.771-3.749-6.913-5.868c-5.516-5.453-12.325-8.078-19.765-9.353
		c-3.75-0.641-7.538-1.089-11.322-1.503c-3.551-0.389-7.119-0.89-10.676-0.863c-8.616,0.064-17.242-0.542-25.85,0.398
		c-4.184,0.457-8.413,0.548-12.579,1.113c-4.082,0.553-8.121,1.448-12.161,2.276c-6.172,1.263-12.227,2.98-18.083,5.298
		c-5.185,2.053-10.289,4.308-15.418,6.5c-3.737,1.598-7.473,3.201-11.181,4.867c-5.621,2.527-10.911,5.639-15.824,9.359
		c-3.869,2.929-7.791,5.807-11.468,8.964c-7.188,6.172-12.378,13.917-16.695,22.257c-4.024,7.775-6.493,16.054-7.624,24.742
		c-0.768,5.899-1.445,11.821-2.519,17.668c-1.749,9.532-3.879,18.989-6.32,28.376c-1.68,6.46-3.265,12.948-4.708,19.465
		c-1.218,5.497-2.25,11.042-3.221,16.589c-0.915,5.233-1.631,10.502-2.46,15.751c-0.485,3.072-1.027,6.143-2.688,8.852
		c-2,3.259-4.029,6.501-6.113,9.708c-0.246,0.377-0.922,0.475-1.398,0.702c0.19-0.516,0.292-1.089,0.585-1.539
		c4.929-7.575,7.74-15.976,9.006-24.814c1.782-12.441,4.544-24.638,7.823-36.753c3.278-12.111,5.468-24.465,7.677-36.808
		c1.632-9.119,3.292-18.233,4.88-27.36c1.8-10.346,6.589-19.266,12.911-27.48c5.503-7.15,11.936-13.321,19.304-18.533
		c19.109-13.517,40.225-22.468,62.966-27.722c9.274-2.143,18.646-3.686,28.155-4.315c1.888-0.167,3.775-0.334,5.664-0.5
		c3.519,0,7.037,0,10.557,0C1045.475,56.232,1047.703,56.4,1049.931,56.568z M1210.381,486.557
		c-1.596-4.221-3.286-7.939-4.416-11.821c-3.647-12.528-7.159-25.097-10.584-37.688c-2.281-8.388-4.927-16.65-7.904-24.809
		c-3.277-8.982-6.647-17.932-9.9-26.924c-3.462-9.568-7.929-18.646-13.455-27.168c-3.55-5.474-7.47-10.708-11.258-16.025
		c-0.419-0.588-1.069-1.011-1.612-1.51c-0.153,0.103-0.307,0.205-0.459,0.308c0.132,0.581,0.214,1.178,0.406,1.738
		c0.672,1.959,1.378,3.908,2.076,5.857c3.795,10.578,7.713,21.113,11.351,31.744c3.225,9.424,6.295,18.908,9.135,28.454
		c1.88,6.317,3.386,12.757,4.781,19.202c1.831,8.455,3.464,16.956,5.031,25.465c0.747,4.052,1.473,8.154,1.641,12.256
		c0.371,9.088,0.465,18.189,0.516,27.286c0.041,6.859-0.133,13.714-0.346,20.575c-0.556,17.723,0.41,35.466-0.54,53.195
		c-0.401,7.486,0.068,14.985-0.397,22.497c-0.399,6.422,0.18,12.908,0.386,19.364c0.07,2.222,0.296,4.44,0.49,6.656
		c0.452,5.141,0.985,10.274,1.375,15.419c0.264,3.491,0.414,6.995,0.48,10.496c0.092,4.773,1.202,9.306,3.084,13.648
		c1.712,3.951,3.587,7.831,5.367,11.753c2.933,6.463,5.916,12.904,8.747,19.411c2.067,4.746,4.2,9.492,5.822,14.399
		c4.154,12.556,8.059,25.193,12.021,37.812c1.694,5.394,3.24,10.834,4.953,16.222c0.546,1.719,0.833,3.584,2.265,4.945
		c1.454,1.384,2.39,1.527,3.949,0.272c2.253-1.811,3.743-4.076,4.21-7.004c0.788-4.936,1.711-9.851,2.489-14.789
		c0.816-5.169,1.6-10.345,2.271-15.534c0.59-4.565,1.002-9.151,1.497-13.729c0.47-4.338,0.957-8.675,1.415-13.015
		c0.206-1.975,0.36-3.955,0.541-5.934c0.296-3.241,0.866-6.482,0.837-9.721c-0.088-9.815,0.336-19.629-0.326-29.454
		c-0.438-6.503-0.451-13.041-1.03-19.549c-0.416-4.67-0.645-9.356-0.973-14.034c-0.312-4.439-0.63-8.878-0.971-13.315
		c-0.298-3.881-0.454-7.782-0.993-11.63c-0.749-5.337-1.64-10.666-2.752-15.939c-2.666-12.648-7.089-24.794-10.894-37.116
		c-2.187-7.08-4.452-14.136-6.747-21.183c-3.551-10.914-7.157-21.809-10.883-33.145
		C1210.805,485.301,1210.688,485.648,1210.381,486.557z"/>
	<path style="fill-rule:evenodd;clip-rule:evenodd;fill:#1B2234;" d="M766.387,923.547c-2.733-1.255-5.603-1.11-8.461-0.723
		c-8.925,1.21-17.826,2.611-26.767,3.681c-9.388,1.124-18.58,2.888-27.248,6.813c-0.942,0.427-1.835,0.963-2.778,1.387
		c-0.784,0.351-1.607,0.613-2.414,0.915c0-0.16,0-0.32,0-0.48c0.356-0.349,0.8-0.645,1.052-1.058
		c0.648-1.063,1.211-2.177,1.808-3.269c0.165-0.163,0.33-0.326,0.495-0.489l-0.012,0.012c1.758,0.204,3.317-0.371,4.587-1.494
		c2.688-2.376,4.583-5.338,5.968-8.634c1.249-1.553,2.535-3.078,3.736-4.667c1.22-1.617,2.088-3.411,2.225-5.476
		c0.118-1.778,1.077-3.131,2.125-4.467c7.357-9.368,14.787-18.681,22.032-28.134c14.662-19.131,27.83-39.229,38.682-60.786
		c9.471-18.813,17.319-38.244,22.117-58.817c2.894-12.411,4.521-25,4.988-37.723c0.611-16.614,1.039-33.235,1.599-49.851
		c0.407-12.066,1.23-24.103,2.655-36.099c0.556-4.68,0.896-9.391,1.155-14.097c0.479-8.683,2.481-17.05,4.965-25.332
		c8.678-28.929,15.944-58.216,21.687-87.861c3.417-17.637,6.397-35.364,9.288-53.097c2.261-13.873,4.194-27.803,6.062-41.736
		c1.37-10.214,2.187-20.506,3.663-30.703c0.794-5.494-0.068-10.833-0.274-16.24c-0.369-9.663-0.887-19.322-1.129-28.988
		c-0.204-8.151-0.097-16.31-0.139-24.465c-0.078-15.137,3.507-29.258,11.584-42.16c1.349-2.154,2.494-4.436,3.733-6.659
		c-0.292,1.391-0.378,2.867-0.91,4.16c-3.033,7.371-6.246,14.667-9.249,22.049c-2.113,5.197-3.398,10.606-3.269,16.278
		c0.25,10.935-0.313,21.87,0.374,32.814c0.329,5.238,0.78,10.469,1.1,15.708c0.097,1.582,0.351,3.156,0.604,4.723
		c0.61,3.781,0.98,7.58,0.789,11.41c-0.083,1.664-0.348,3.317-0.455,4.98c-0.2,3.097-0.321,6.199-0.521,9.296
		c-0.134,2.061-0.304,4.122-0.533,6.175c-0.422,3.783-0.902,7.56-1.354,11.34c-0.359,2.995-0.67,5.997-1.08,8.985
		c-0.56,4.085-1.206,8.159-1.79,12.24c-0.541,3.771-1.016,7.551-1.58,11.317c-0.552,3.687-1.205,7.357-1.767,11.042
		c-0.563,3.687-1.009,7.392-1.613,11.072c-1.017,6.183-2.096,12.358-3.192,18.528c-1.208,6.798-2.419,13.594-3.712,20.375
		c-1.264,6.629-2.598,13.247-3.968,19.855c-1.515,7.309-2.954,14.64-4.702,21.895c-2.273,9.433-4.715,18.831-7.275,28.191
		c-3.444,12.588-7.034,25.136-10.635,37.68c-1.518,5.287-2.555,10.663-3.265,16.099c-0.472,3.619-0.656,7.275-0.986,10.912
		c-0.474,5.22-1.066,10.431-1.416,15.658c-0.309,4.609-0.396,9.234-0.511,13.854c-0.301,12.054,0.439,24.115-0.435,36.171
		c-0.433,5.959-0.346,11.954-0.542,17.932c-0.089,2.701-0.272,5.402-0.457,8.1c-0.304,4.439-0.565,8.885-0.992,13.313
		c-0.404,4.186-0.807,8.387-1.546,12.521c-1.824,10.197-4.65,20.149-7.918,29.969c-1.988,5.972-4.119,11.902-6.381,17.776
		c-3.791,9.84-8.097,19.468-13.455,28.555c-5.909,10.02-12.036,19.916-18.242,29.756c-3.655,5.795-7.682,11.354-11.478,17.062
		c-4.16,6.256-9.292,11.716-14.108,17.436c-2.408,2.859-4.848,5.693-7.209,8.591c-2.614,3.207-5.138,6.488-7.737,9.707
		c-0.734,0.909-1.271,1.852-1.15,3.043c0.361,3.602-1.218,6.435-3.316,9.191c-2.045,2.688-3.809,5.588-5.914,8.72
		c1.658,0.152,2.947,0.175,4.285-0.043c2.896-0.472,5.799-0.929,8.715-1.24c3.869-0.411,7.785-0.479,11.626-1.055
		c5.804-0.869,11.556-2.085,17.343-3.079c3.596-0.619,7.2-1.346,10.829-1.581c4.221-0.274,8.473-0.07,12.711-0.058
		c0.937,0.003,1.788,0.276,2.901,1.183c-1.047,0.118-1.636,0.237-2.225,0.242c-2.399,0.022-4.798-0.022-7.197,0.021
		C768.938,921.752,767.354,921.974,766.387,923.547z"/>
	<path style="fill-rule:evenodd;clip-rule:evenodd;fill:#212536;" d="M1108.086,1043.595c-8.694-0.404-17.39-0.808-26.084-1.214
		c-14.757-0.688-29.502-1.765-44.294-1.135c-2.783,0.118-5.581,0.18-8.36,0.039c-2.78-0.141-5.359-1.227-7.429-3.022
		c-2.74-2.379-5.955-3.257-9.379-3.829c-4.325-0.723-8.641-1.51-12.955-2.3c-0.859-0.157-1.705-0.419-2.538-0.688
		c-7.035-2.266-10.776-7.282-11.366-14.463c-0.472-5.722-0.445-11.487-0.535-17.235c-0.146-9.275-0.94-18.494-2.184-27.681
		c-0.085-0.629-0.077-1.271-0.112-1.905c0.299-0.154,0.597-0.309,0.896-0.463c0.181,0.932,0.454,1.856,0.526,2.798
		c0.342,4.463,1.556,8.583,4.264,12.244c2.745,3.711,6.097,6.716,9.927,9.244c0.614,0.406,1.072,1.049,1.602,1.582
		c-3.999-1.284-7.245-3.592-9.744-6.992c-0.865-1.177-1.957-2.187-3.264-3.621c0,1.049-0.011,1.588,0.002,2.126
		c0.142,6.141,0.254,12.282,0.441,18.422c0.116,3.824,0.297,7.647,0.54,11.467c0.396,6.227,4.86,11.158,10.21,12.428
		c5.302,1.258,10.676,1.788,16.071,2.229c2.202,0.18,2.792-0.446,2.99-2.706c0.514-5.872,1.002-11.747,1.538-17.617
		c0.202-2.214,0.507-4.419,0.765-6.628c0.32-3.499,0.633-6.998,0.97-10.494c0.044-0.461,0.062-1.161,0.34-1.323
		c1.618-0.94,0.642-1.99,0.184-2.973c-0.228-0.491-0.685-0.877-1.045-1.304c-7.982-9.465-15.956-18.938-23.954-28.39
		c-3.146-3.718-6.351-7.388-9.528-11.077c-0.179-0.142-0.357-0.284-0.536-0.424c-0.75-2.096-2.566-3.177-4.212-4.42
		c-0.651-1.267-1.302-2.534-1.954-3.801c0.193-0.19,0.388-0.381,0.583-0.57c0.438,0.459,0.895,0.902,1.31,1.38
		c12.823,14.754,25.642,29.511,38.465,44.266c0.54,0.62,1.116,1.208,1.719,1.858c1.45-2.876,2.244-3.143,4.932-1.811
		c0.285,0.141,0.57,0.286,0.839,0.456c4.791,3.016,9.581,6.03,14.356,9.068c0.308,0.195,0.492,0.582,0.734,0.879
		c-0.169,0.486-0.337,0.973-0.506,1.459c-0.688-0.398-1.405-0.757-2.063-1.201c-3.708-2.503-7.401-5.025-11.1-7.544
		c-1.354-0.921-2.788-1.482-4.792-1.102c-0.125,1.512-0.195,2.999-0.396,4.468c-0.075,0.554-0.311,1.338-0.715,1.545
		c-1.188,0.611-1.167,1.585-1.171,2.646c-0.008,1.836,0.063,3.685-0.105,5.509c-0.354,3.809-0.868,7.604-1.265,11.408
		c-0.473,4.52-0.893,9.045-1.331,13.568c-0.226,2.338-0.025,4.632,0.864,6.821c2.029,4.991,7.204,6.377,11.448,6.074
		c6.126-0.438,12.251-0.935,18.385-1.219c2.617-0.121,5.255,0.275,7.886,0.361c2.557,0.083,5.121-0.029,7.673,0.119
		c6.37,0.371,12.733,0.854,19.102,1.27c5.097,0.333,10.199,0.57,15.29,0.966c8.109,0.631,16.213,1.358,24.318,2.044
		c-1.122,0.133-2.246,0.241-3.363,0.405c-0.803,0.118-1.595,0.312-2.392,0.473c-0.64,0-1.279,0-1.919,0
		c-0.265-0.141-0.527-0.399-0.796-0.404C1113.275,1043.615,1110.68,1043.611,1108.086,1043.595z"/>
	<path style="fill-rule:evenodd;clip-rule:evenodd;fill:#1F2435;" d="M1067.221,965.323c-3.604,4.44-5.383,9.672-6.656,15.145
		c-0.972,4.182-1.931,8.372-3.135,12.489c-1.331,4.558-1.013,8.79,1.624,12.796c0.829,1.259,1.6,2.559,2.397,3.839
		c0.51,0.779,1.02,1.559,1.527,2.338c0.146,0.162,0.29,0.324,0.435,0.486l-0.033-0.027c1.428,1.118,2.753,2.413,4.304,3.32
		c4.205,2.464,8.94,3.087,13.847,3.721c0-0.501,0-0.871,0-1.242c0.399-0.036,0.799-0.073,1.197-0.109
		c1.263,0.673,2.593,1.244,3.774,2.036c13.469,9.027,28.515,14.195,44.067,18.177c4.155,1.064,8.366,1.242,12.6,1.273
		c3.528,0.025,7.028,0.221,10.455,1.125c0.467,0.123,0.889,0.416,1.331,0.631c0.012,0.181,0.022,0.361,0.034,0.542
		c-0.686,0.28-1.374,0.552-2.056,0.841c-1.056,0.447-2.107,0.907-3.16,1.362c-0.319,0-0.64,0-0.96,0
		c-0.96-0.733-1.919-0.708-2.879,0c-6.718,0-13.436,0-20.153,0c0.002-0.257,0.004-0.514,0.006-0.771
		c5.918,0.642,9.75,0.438,11.581-0.752c-0.759-0.309-1.363-0.631-2.007-0.806c-4.31-1.167-8.644-2.245-12.939-3.458
		c-11.705-3.304-23.085-7.473-33.858-13.159c-3.355-1.771-6.845-2.965-10.55-3.724c-2.881-0.592-5.779-1.293-8.517-2.344
		c-6.287-2.412-10.707-6.797-12.983-13.222c-0.397-1.122-0.827-2.231-1.241-3.347c-0.004-2.691-0.007-5.383-0.011-8.074
		c0.1-0.12,0.255-0.227,0.289-0.363c1.305-5.214,2.613-10.425,3.866-15.649c0.104-0.432-0.182-0.957-0.287-1.438l0.024,0.059
		c-0.025-0.279-0.175-0.632-0.059-0.825c2.296-3.826,4.622-7.634,6.941-11.444C1066.432,964.939,1066.826,965.132,1067.221,965.323z
		 M1147.324,1041.382c-1.663-0.011-3.4-0.506-4.879,0.619C1144.159,1042.434,1145.774,1042.118,1147.324,1041.382z"/>
	<path style="fill-rule:evenodd;clip-rule:evenodd;fill:#242833;" d="M1272.598,125.675c4.661,1.817,9.373,3.516,13.958,5.509
		c2.043,0.887,3.829,2.365,5.731,3.576c0,0.64,0,1.28,0,1.919c-3.742,1.492-7.713,1.917-11.659,2.323
		c-7.601,0.781-15.155,0.341-22.661-1.146c-6.455-1.279-12.905-0.774-19.294,0.507c-7.593,1.523-15.154,3.201-22.731,4.802
		c-0.78,0.165-1.574,0.265-2.361,0.394l0.05-0.176c0.804-0.437,1.561-1.061,2.419-1.276c4.255-1.068,8.537-2.024,12.807-3.026
		c3.588-0.843,7.173-1.696,11.123-2.63c-0.653-0.315-0.92-0.51-1.214-0.574c-7.342-1.593-14.763-2.645-22.269-2.979
		c-10.167-0.453-20.246,0.428-30.246,2.279c-0.001-0.288-0.001-0.576-0.002-0.863c4.763-0.957,9.486-2.353,14.295-2.771
		c8.286-0.722,16.586,0.067,24.85,0.953c7.293,0.782,14.588,1.533,21.876,2.359c4.038,0.458,8.135,0.727,12.077,1.635
		c9.57,2.207,19.035,1.147,28.526-0.311c0.696-0.107,1.399-0.326,1.354-1.475c-0.744,0.05-1.463,0.004-2.13,0.165
		c-2.123,0.513-4.165,0.104-6.073-0.707c-1.037-0.441-2.307-1.243-2.67-2.189c-1.076-2.808-3.142-4.323-5.736-5.391
		C1272.611,126.281,1272.605,125.978,1272.598,125.675z"/>
	<path style="fill-rule:evenodd;clip-rule:evenodd;fill:#242B3C;" d="M1125.787,1043.295c-0.002,0.257-0.004,0.514-0.006,0.771
		c-2.399,0-4.799,0-7.198,0c0.797-0.161,1.589-0.354,2.392-0.473c1.117-0.164,2.241-0.272,3.363-0.405
		C1124.821,1043.224,1125.305,1043.259,1125.787,1043.295z"/>
	<path style="fill-rule:evenodd;clip-rule:evenodd;fill:#8E5B6E;" d="M1108.086,1043.595c2.594,0.017,5.189,0.021,7.782,0.066
		c0.269,0.005,0.531,0.264,0.796,0.404c-2.879,0-5.758,0-8.638,0c0.048-0.101,0.11-0.197,0.137-0.303
		C1108.175,1043.716,1108.113,1043.651,1108.086,1043.595z"/>
	<path style="fill-rule:evenodd;clip-rule:evenodd;fill:#62626E;" d="M1049.931,56.568c-2.228-0.168-4.456-0.336-6.683-0.503
		c2.238,0,4.479,0,6.718,0c-0.053,0.108-0.123,0.213-0.149,0.328C1049.806,56.44,1049.89,56.51,1049.931,56.568z"/>
	<path style="fill-rule:evenodd;clip-rule:evenodd;fill:#8E5B6E;" d="M1032.691,56.065c-1.889,0.166-3.776,0.333-5.664,0.5
		c-0.031-0.167-0.063-0.334-0.094-0.5C1028.853,56.065,1030.771,56.065,1032.691,56.065z"/>
	<path style="fill-rule:evenodd;clip-rule:evenodd;fill:#242B3C;" d="M1145.935,1044.065c0.96-0.708,1.919-0.733,2.879,0
		C1147.854,1044.065,1146.895,1044.065,1145.935,1044.065z"/>
	<path style="fill-rule:evenodd;clip-rule:evenodd;fill:#162855;" d="M766.387,923.547c0.968-1.573,2.551-1.795,4.174-1.825
		c2.399-0.044,4.798,0.001,7.197-0.021c0.589-0.005,1.178-0.124,2.225-0.242c-1.113-0.906-1.964-1.18-2.901-1.183
		c-4.238-0.013-8.49-0.217-12.711,0.058c-3.629,0.235-7.232,0.962-10.829,1.581c-5.787,0.994-11.539,2.21-17.343,3.079
		c-3.841,0.575-7.757,0.644-11.626,1.055c-2.917,0.312-5.819,0.769-8.715,1.24c-1.338,0.218-2.627,0.195-4.285,0.043
		c2.105-3.132,3.869-6.032,5.914-8.72c2.098-2.757,3.678-5.59,3.316-9.191c-0.12-1.191,0.417-2.134,1.15-3.043
		c2.599-3.219,5.123-6.5,7.737-9.707c2.361-2.897,4.801-5.731,7.209-8.591c4.816-5.72,9.948-11.18,14.108-17.436
		c3.796-5.708,7.823-11.267,11.478-17.062c6.206-9.84,12.333-19.736,18.242-29.756c5.358-9.087,9.664-18.715,13.455-28.555
		c2.262-5.874,4.393-11.805,6.381-17.776c3.268-9.819,6.094-19.771,7.918-29.969c0.74-4.135,1.143-8.336,1.546-12.521
		c0.427-4.429,0.688-8.874,0.992-13.313c0.185-2.697,0.368-5.398,0.457-8.1c0.197-5.978,0.11-11.973,0.542-17.932
		c0.875-12.056,0.134-24.117,0.435-36.171c0.116-4.62,0.202-9.245,0.511-13.854c0.35-5.228,0.942-10.438,1.416-15.658
		c0.331-3.637,0.515-7.293,0.986-10.912c0.71-5.436,1.747-10.812,3.265-16.099c3.602-12.544,7.191-25.092,10.635-37.68
		c2.561-9.36,5.002-18.758,7.275-28.191c1.749-7.254,3.187-14.585,4.702-21.895c1.37-6.609,2.704-13.226,3.968-19.855
		c1.293-6.781,2.505-13.578,3.712-20.375c1.096-6.17,2.175-12.345,3.192-18.528c0.604-3.68,1.05-7.385,1.613-11.072
		c0.562-3.685,1.215-7.355,1.767-11.042c0.564-3.766,1.04-7.546,1.58-11.317c0.584-4.082,1.23-8.155,1.79-12.24
		c0.41-2.988,0.721-5.99,1.08-8.985c0.453-3.78,0.932-7.557,1.354-11.34c0.229-2.053,0.399-4.114,0.533-6.175
		c0.2-3.097,0.321-6.199,0.521-9.296c0.107-1.663,0.372-3.316,0.455-4.98c0.191-3.831-0.178-7.629-0.789-11.41
		c-0.253-1.567-0.507-3.142-0.604-4.723c-0.32-5.238-0.771-10.469-1.1-15.708c-0.688-10.945-0.125-21.88-0.374-32.814
		c-0.13-5.672,1.156-11.082,3.269-16.278c3.002-7.382,6.216-14.679,9.249-22.049c0.532-1.292,0.618-2.769,0.91-4.16
		c0.116-0.321,0.232-0.642,0.347-0.962c0.477-0.228,1.153-0.325,1.398-0.702c2.084-3.206,4.114-6.448,6.113-9.708
		c1.662-2.709,2.204-5.78,2.688-8.852c0.829-5.249,1.545-10.518,2.46-15.751c0.971-5.548,2.003-11.092,3.221-16.589
		c1.443-6.518,3.027-13.005,4.708-19.465c2.44-9.388,4.571-18.844,6.32-28.376c1.074-5.847,1.751-11.769,2.519-17.668
		c1.13-8.688,3.599-16.967,7.624-24.742c4.317-8.34,9.507-16.085,16.695-22.257c3.677-3.157,7.599-6.035,11.468-8.964
		c4.913-3.72,10.203-6.833,15.824-9.359c3.708-1.666,7.444-3.269,11.181-4.867c5.129-2.192,10.233-4.447,15.418-6.5
		c5.856-2.317,11.911-4.035,18.083-5.298c4.04-0.828,8.079-1.723,12.161-2.276c4.166-0.564,8.396-0.656,12.579-1.113
		c8.607-0.94,17.233-0.334,25.85-0.398c3.557-0.026,7.125,0.475,10.676,0.863c3.784,0.414,7.572,0.862,11.322,1.503
		c7.439,1.274,14.249,3.899,19.765,9.353c2.143,2.12,4.604,3.917,6.913,5.868c2.855,2.414,5.791,4.741,8.531,7.277
		c2.915,2.7,5.673,5.571,8.441,8.422c1.942,2,3.737,4.145,5.694,6.13c1.339,1.357,2.877,2.515,4.267,3.825
		c2.07,1.951,3.193,4.298,3.047,7.234c-0.151,3.029,0.283,5.998,0.759,9.008c0.648,4.098,0.251,8.268-0.971,12.3
		c-1.637,5.397-4.223,10.288-7.514,14.868c-3.307,4.601-6.979,8.876-10.731,13.107c-3.853,4.344-7.773,8.661-10.792,13.658
		c-1.433,2.374-2.597,4.912-3.867,7.347c0.781,0.829,1.429,0.477,2.101,0.269c4.143-1.282,7.888-3.372,11.656-5.47
		c3.472-1.933,7.059-3.688,10.708-5.254c1.559-0.667,3.396-0.793,5.127-0.934c10.841-0.884,21.706-0.415,32.561-0.472
		c2.207-0.011,4.415,0.307,6.878,0.491c-0.251,0.578-0.333,0.953-0.545,1.226c-2.482,3.209-4.96,6.424-7.491,9.595
		c-1.983,2.485-4.04,4.913-6.068,7.364c-2.838,3.432-5.681,6.86-8.518,10.292c-2.483,3.005-4.956,6.019-7.44,9.021
		c-3.042,3.677-5.984,7.443-9.171,10.99c-2.774,3.089-5.83,5.925-8.761,8.874c-7.62,7.668-16.144,14.17-25.316,19.873
		c-2.473,1.538-4.678,3.504-6.822,5.7c0.527-0.165,1.087-0.267,1.578-0.507c5.46-2.668,10.557-5.907,15.257-9.769
		c5.347-4.393,10.702-8.775,16.06-13.155c0.616-0.502,1.26-0.975,1.912-1.431c1.17-0.818,2.081-0.502,2.136,0.872
		c0.069,1.744-0.085,3.5-0.177,5.249c-0.037,0.711-0.237,1.417-0.235,2.126c0.015,5.148-1.089,10.109-2.579,14.987
		c-2.239,7.333-5.254,14.366-8.453,21.324c-0.933,2.027-1.77,4.099-2.588,6.173c-0.203,0.515-0.169,1.123-0.243,1.687
		c0.182,0.064,0.363,0.129,0.546,0.193c2.233-3.777,4.468-7.555,6.964-11.775c0.604,1.099,1.075,1.792,1.386,2.55
		c2.685,6.563,5.242,13.177,8.057,19.683c0.903,2.086,2.396,3.933,3.738,5.807c0.896,1.252,1.674,2.474,1.839,4.067
		c0.131,1.277,0.646,2.425,1.655,3.348c2.052,1.876,3.303,4.264,4.189,6.871c0.462,1.358,1.074,2.668,1.468,4.042
		c0.176,0.613-0.021,1.332-0.05,2.003c-0.441-0.662-0.924-1.3-1.317-1.99c-3.193-5.582-7.208-10.547-11.516-15.284
		c-2.866-3.152-6.096-5.888-9.905-7.856c-2.703-1.397-5.486-2.594-8.585-2.799c-1.574-1.22-2.571-1.22-3.937-0.048
		c-1.138,0.979-2.204,2.09-3.477,2.848c-1.921,1.143-2.755,0.814-3.782-1.204c-0.646-1.271-1.084-2.651-1.763-3.903
		c-0.868-1.6-2.28-2.179-4.021-1.781c-1.003,0.23-2.003,0.496-2.974,0.835c-5.094,1.782-10.199,3.533-15.256,5.414
		c-2.997,1.114-4.498,2.624-4.105,6.107c-0.482,0.911-0.981,1.814-1.448,2.735c-2.304,4.537-4.355,9.224-6.954,13.585
		c-4.352,7.302-9.051,14.397-13.604,21.58c-0.171,0.188-0.342,0.377-0.513,0.565l0.061-0.044c-0.985-0.21-1.737,0.171-2.258,0.98
		c-0.603,0.938-1.188,1.891-1.71,2.876c-1.871,3.524-3.578,7.144-5.604,10.575c-1.928,3.262-3.426,6.624-4.194,10.347
		c-0.439,2.124-1.425,4.023-3.041,5.587c-0.593,0.572-0.954,1.438-1.269,2.229c-0.351,0.882-0.506,1.838-0.783,2.751
		c-2.173,7.161-4.376,14.312-6.529,21.479c-3.274,10.9-6.528,21.807-9.757,32.721c-0.426,1.439-0.646,2.938-0.963,4.411l-0.01,0.02
		c-0.14,0.199-0.278,0.399-0.417,0.6c-0.318,0.448-0.637,0.897-0.955,1.345c-1.624-0.016-2.906,0.766-4.021,1.829
		c-4.148,3.955-8.279,7.928-12.399,11.91c-1.434,1.384-2.771,2.873-4.25,4.207c-1.542,1.39-2.586,3.002-2.883,5.07
		c-3.31,4.027-6.669,8.015-9.408,12.474c-0.449,0.733-1.027,1.388-1.544,2.08c-1.968-5.693-2.185-11.683-2.956-17.577
		c-0.247-1.89-0.392-3.793-0.59-5.69c-0.281-2.682-0.722-5.358-0.807-8.046c-0.072-2.292,0.283-4.595,0.409-6.896
		c0.245-4.48,1.307-8.8,2.58-13.07c1.318-4.422,2.594-8.849,3.244-13.431c0.1-0.707,0.294-1.4,0.446-2.099
		c-2.876,5.915-5.652,11.817-7.201,18.18c-0.544,2.237-1.199,4.483-1.394,6.76c-0.346,4.043-0.38,8.113-0.543,12.172
		c-0.01,0.24,0.049,0.5-0.025,0.716c-1.162,3.411,0.046,6.818,0.174,10.198c0.195,5.135,1.203,10.234,1.741,15.362
		c0.431,4.107,0.688,8.234,1.003,12.354c0.188,2.457,0.337,4.917,0.514,7.376c0.302,4.2,0.67,8.396,0.902,12.6
		c0.238,4.294,0.347,8.597,0.513,12.895c0.007,0.16,0.021,0.319,0.033,0.479c0.304,3.879,0.626,7.758,0.905,11.641
		c0.2,2.776,0.324,5.559,0.52,8.336c0.146,2.06,0.335,4.118,0.534,6.174c0.275,2.843,0.624,5.679,0.858,8.525
		c0.228,2.774,0.331,5.559,0.526,8.335c0.146,2.061,0.327,4.12,0.537,6.175c0.267,2.604,0.607,5.198,0.86,7.804
		c0.222,2.294,0.308,4.603,0.559,6.893c0.579,5.283,1.287,10.553,1.818,15.841c0.423,4.188,0.754,8.392,0.96,12.596
		c0.257,5.255,0.432,10.516,0.471,15.775c0.023,3.178-0.347,6.356-0.416,9.538c-0.2,9.256-0.327,18.514-0.513,27.77
		c-0.025,1.261-0.563,2.601-0.283,3.763c0.833,3.461,0.076,6.84-0.291,10.209c-0.583,5.357-1.574,10.67-2.252,16.019
		c-0.861,6.798-2.268,13.47-4.265,20.02c-3.085,10.115-7.428,19.69-12.593,28.895c-1.123,2.002-2.56,3.832-3.917,5.694
		c-1.875,2.57-3.963,4.996-5.693,7.658c-4.119,6.337-8.965,12.004-14.893,16.695c-2.054,1.626-4.232,3.139-6.51,4.428
		c-2.512,1.421-5.438,0.851-7.441-1.188c-0.889-0.903-1.649-1.937-2.47-2.91c-4.371-5.182-8.387-10.621-11.869-16.445
		c-0.624-1.043-1.316-2.044-2.079-3.224c-0.14,0.445-0.255,0.612-0.219,0.734c0.2,0.686,0.384,1.386,0.672,2.038
		c3.678,8.327,8.482,15.875,15.28,22.048c2.393,2.173,5.486,2.677,8.418,1.247c5.668-2.764,10.665-6.365,14.45-11.506
		c0.545-0.741,1.328-1.308,2.223-2.168c0.057,0.653,0.149,0.955,0.097,1.231c-0.954,5.149-1.881,10.305-2.905,15.439
		c-1.001,5.017-0.968,10.118-1.317,15.184c-0.213,3.104,0.054,6.24-0.092,9.353c-0.208,4.443-0.532,8.885-0.926,13.316
		c-0.323,3.634-0.751,7.262-1.262,10.873c-0.434,3.063-1.007,6.108-1.6,9.146c-1.033,5.295-2.141,10.575-3.188,15.866
		c-0.416,2.101-0.955,4.202-1.085,6.324c-0.264,4.264-1.185,8.305-2.907,12.227c-2.108,4.799-5.789,8.35-9.135,12.185
		c-2.471,2.833-4.054,6.07-4.301,9.881c-0.059,0.145-0.117,0.29-0.176,0.435c-0.721,0.468-1.501,0.863-2.149,1.415
		c-2.168,1.852-4.411,3.642-6.382,5.688c-1.214,1.259-2.487,2.655-2.691,4.587l0.026-0.065c-0.212,0.125-0.424,0.251-0.637,0.376
		c-1.961,1.194-3.901,2.43-5.896,3.567c-0.945,0.539-1.997,0.895-2.999,1.333c-2.203-0.409-4.245,0.346-6.338,0.824
		c-9.906,2.264-19.818,4.505-29.735,6.723c-5.973,1.335-11.977,2.479-18.138,2.432c-0.398-0.003-0.804,0.01-1.192,0.084
		c-3.243,0.619-6.468,0.538-9.726,0.017c-1.221-0.195-2.575-0.112-3.775,0.202c-7.764,2.036-15.478,4.268-23.258,6.236
		c-4.225,1.068-8.539,1.801-12.831,2.581c-4.6,0.836-9.214,1.601-13.837,2.296c-2.24,0.337-4.554,0.479-5.913-1.931
		c-0.503-0.894-1.237-0.876-2.046-0.848C767.097,924.244,766.742,923.896,766.387,923.547z M1048.611,117.597l0.046-0.021
		c-1.473-0.124-2.172,1.044-2.763,1.975c-2.666,4.2-3.048,11.314-0.289,15.961c3.187,5.365,11.326,8.028,17.162,6.08
		c2.782-0.928,5.333-2.312,7.112-4.612c2.328-3.009,2.566-6.621,1.94-10.25c-0.606-3.524-2.374-6.55-4.408-9.446
		c-2.121-3.019-4.896-4.693-8.65-4.61c-1.517,0.033-3.035,0.04-4.552,0.001c-1.9-0.049-3.265,0.612-3.724,2.601
		c-0.416,0.43-0.832,0.859-1.248,1.289C1049.029,116.909,1048.82,117.253,1048.611,117.597z M923.014,315.067
		c-0.203,0.306-0.443,0.593-0.604,0.919c-2.227,4.518-4.187,9.174-5.292,14.076c-0.877,3.898-2.604,7.806-1.14,11.966
		c0.044,0.124-0.084,0.302-0.107,0.459c-0.561,3.684-1.134,7.367-1.676,11.055c-1.087,7.41-2.718,14.686-5.115,21.793
		c-2.013,5.966-4.134,11.91-5.794,17.978c-1.465,5.351-2.439,10.842-3.482,16.3c-0.64,3.348-1,6.748-1.489,10.124
		c-0.522,3.612-0.997,7.233-1.584,10.834c-0.857,5.245-1.836,10.471-2.689,15.717c-0.87,5.341-1.85,10.648-3.632,15.78
		c-0.651,1.876-1.255,3.785-1.664,5.724c-0.916,4.349-1.68,8.73-2.536,13.092c-1.901,9.691-4.829,19.115-7.459,28.619
		c-2.397,8.66-4.611,17.372-6.921,26.056c-2.456,9.229-3.747,18.675-5.098,28.099c-0.855,5.968-1.395,11.983-1.944,17.989
		c-0.434,4.75-0.765,9.513-0.965,14.277c-0.261,6.214-0.403,12.435-0.493,18.653c-0.081,5.597,0.037,11.195-0.045,16.792
		c-0.071,4.814,0.614,9.541,1.838,14.146c1.861,6.999,3.879,13.964,6.121,20.85c3.949,12.127,7.94,24.241,12.611,36.124
		c3.415,8.688,6.953,17.309,11.04,25.705c1.64,3.368,3.111,6.819,4.671,10.228c0.543,1.186,1.119,2.355,1.875,3.945
		c0.56-2.318-0.14-3.941-0.772-5.523c-2.102-5.252-4.384-10.433-6.399-15.715c-3.237-8.487-6.329-17.031-9.458-25.561
		c-2.142-5.836-4.275-11.675-6.355-17.533c-3.065-8.634-6.256-17.229-9.038-25.953c-1.343-4.211-1.948-8.666-2.743-13.038
		c-0.383-2.102-0.468-4.261-0.621-6.399c-0.147-2.06-0.373-4.135-0.269-6.188c0.157-3.088,0.667-6.156,0.85-9.244
		c0.253-4.294,0.383-8.597,0.493-12.896c0.193-7.577,0.521-15.156,0.433-22.73c-0.067-5.857,0.875-11.576,1.626-17.322
		c0.74-5.659,1.753-11.286,2.757-16.907c1.145-6.406,2.341-12.805,3.646-19.179c1.115-5.449,2.398-10.863,3.651-16.282
		c0.252-1.092,0.706-2.137,1.066-3.203c0.163,0.026,0.326,0.054,0.489,0.08c0.153,0.582,0.307,1.164,0.605,2.292
		c0.481-1.456,0.829-2.338,1.064-3.249c1.554-6.007,3.197-11.993,4.595-18.036c2.076-8.976,4.061-17.976,5.917-26.999
		c1.553-7.54,2.908-15.12,4.267-22.696c0.771-4.296,1.434-8.612,2.032-12.935c0.446-3.223,0.385-6.547,1.116-9.694
		c2.375-10.22,4.973-20.387,7.566-30.554c0.983-3.854,2.379-7.609,3.251-11.484c2.023-8.986,3.908-18.005,5.716-27.036
		c1.106-5.525,2.614-11.014,2.059-16.759c-0.253-2.611,0.456-5.024,1.65-7.36C922.087,321.414,922.695,318.296,923.014,315.067z
		 M1106.923,280.259c0.011-0.061,0.021-0.12,0.033-0.181c-0.082,0.017-0.165,0.032-0.248,0.049c0.021,0.054,0.03,0.123,0.069,0.158
		C1106.801,280.305,1106.872,280.269,1106.923,280.259z"/>
	<path style="fill-rule:evenodd;clip-rule:evenodd;fill:#1F2F5A;" d="M702.074,930.324c-0.165,0.163-0.33,0.326-0.495,0.489
		C701.744,930.65,701.909,930.487,702.074,930.324z"/>
	<path style="fill-rule:evenodd;clip-rule:evenodd;fill:#263660;" d="M1152.47,860.987c0.349,0.238,0.699,0.476,1.05,0.714
		c-1.914,2.748-3.793,5.521-5.748,8.24c-6.075,8.446-11.07,17.553-16.248,26.548c-0.116,0.201-0.174,0.436-0.323,0.819
		c0.386,0.32,0.812,0.643,1.201,1.006c0.641,0.598,0.666,1.299,0.065,1.894c-3.662,3.629-5.995,8.248-9.166,12.244
		c-1.934,2.437-3.794,4.932-5.688,7.401c-0.892-0.923-1.48-0.318-2.128,0.367c-3.444,3.648-6.896,7.292-10.378,10.904
		c-1.101,1.143-1.716,2.462-1.868,4.02c-1.083,0.562-2.165,1.123-3.248,1.684c-0.059-0.769-0.118-1.537-0.177-2.306
		c3.21-3.536,6.391-7.099,9.646-10.594c1.066-1.146,2.322-2.113,3.492-3.163c0.111-0.179,0.222-0.357,0.333-0.535l-0.018,0.024
		c2.589-1.264,4.004-3.573,5.323-5.97c3.713-4.906,7.119-9.98,9.584-15.67c1.58-3.65,3.251-7.31,5.336-10.684
		c3.341-5.405,6.698-10.808,10.806-15.724C1147.274,868.67,1149.768,864.742,1152.47,860.987z"/>
	<path style="fill-rule:evenodd;clip-rule:evenodd;fill:#242833;" d="M1199.647,147.064c-3.315,1.124-6.624,2.265-9.946,3.367
		c-4.375,1.452-8.269,3.708-11.694,6.799c-1.177,1.063-2.46,2.005-3.695,3.003c-0.182-0.173-0.363-0.346-0.544-0.519
		c2.161-3.363,5.046-5.977,8.468-7.985c5.389-3.162,11.254-4.869,17.45-5.497C1199.673,146.51,1199.66,146.787,1199.647,147.064z"/>
	<path style="fill-rule:evenodd;clip-rule:evenodd;fill:#242B3C;" d="M1099.813,934.522c0.059,0.769,0.118,1.537,0.177,2.306
		c-4.964,3.771-9.93,7.54-14.894,11.311c-0.188,0.161-0.375,0.322-0.563,0.484l0.023-0.019c-0.812-0.42-1.688,0.939-2.479-0.088
		c5.014-4.018,10.023-8.04,15.047-12.045C1097.99,935.782,1098.916,935.17,1099.813,934.522z"/>
	<path style="fill-rule:evenodd;clip-rule:evenodd;fill:#2A3B64;" d="M1082.079,948.517c0.791,1.027,1.667-0.332,2.478,0.088
		c-2.326,2.164-4.689,4.291-6.972,6.502c-3.484,3.376-6.912,6.809-10.364,10.217c-0.395-0.191-0.789-0.384-1.182-0.575
		c3.688-3.824,7.357-7.669,11.075-11.466C1078.718,951.644,1080.422,950.102,1082.079,948.517z"/>
	<path style="fill-rule:evenodd;clip-rule:evenodd;fill:#2A3B64;" d="M1062.979,1011.93c-0.508-0.779-1.018-1.559-1.527-2.338
		c7.093,2.83,14.185,5.658,21.276,8.486c-0.398,0.036-0.798,0.073-1.196,0.109c-3.843-1.303-7.675-2.643-11.535-3.895
		c-2.182-0.708-4.409-1.274-6.616-1.904c0,0,0.033,0.027,0.033,0.026C1063.269,1012.254,1063.124,1012.092,1062.979,1011.93z"/>
	<path style="fill-rule:evenodd;clip-rule:evenodd;fill:#3C4B72;" d="M1199.647,147.064c0.013-0.277,0.025-0.554,0.038-0.832
		c4.647-0.95,9.296-1.9,13.944-2.85l-0.05,0.176C1208.936,144.727,1204.291,145.896,1199.647,147.064z"/>
	<path style="fill-rule:evenodd;clip-rule:evenodd;fill:#383331;" d="M1173.768,159.714c0.181,0.173,0.362,0.346,0.544,0.519
		c-0.733,0.865-1.465,1.729-2.197,2.594c-0.088-0.081-0.177-0.159-0.268-0.236C1172.136,161.398,1172.634,160.344,1173.768,159.714z
		"/>
	<path style="fill-rule:evenodd;clip-rule:evenodd;fill:#383331;" d="M1169.92,165.43c-0.022-0.232-0.045-0.466-0.066-0.697
		c0.665-0.712,1.329-1.427,1.993-2.142c0.091,0.077,0.18,0.155,0.268,0.236C1171.382,163.695,1170.65,164.563,1169.92,165.43z"/>
	<path style="fill-rule:evenodd;clip-rule:evenodd;fill:#2A3B64;" d="M1084.534,948.623c0.188-0.162,0.375-0.323,0.563-0.484
		C1084.909,948.3,1084.722,948.461,1084.534,948.623z"/>
	<path style="fill-rule:evenodd;clip-rule:evenodd;fill:#1C2335;" d="M767.452,924.593c0.809-0.028,1.543-0.046,2.046,0.848
		c1.358,2.41,3.673,2.268,5.913,1.931c4.623-0.695,9.237-1.46,13.837-2.296c4.292-0.78,8.606-1.513,12.831-2.581
		c7.781-1.969,15.495-4.2,23.258-6.236c1.2-0.314,2.554-0.397,3.775-0.202c3.258,0.521,6.483,0.603,9.726-0.017
		c0.389-0.074,0.794-0.087,1.192-0.084c6.162,0.047,12.165-1.097,18.138-2.432c9.917-2.218,19.829-4.459,29.735-6.723
		c2.093-0.479,4.135-1.233,6.338-0.824c-1.043,1.378-2.518,1.972-4.145,2.293c-0.433,0.148-0.868,0.297-1.302,0.445l-0.145,0.061
		c-3.381,0.41-6.535,1.486-9.463,3.227c-8.436,1.777-16.892,3.378-25.512,4.038c-8.836,0.678-17.67,1.432-26.477,2.41
		c-3.625,0.403-7.173,1.491-10.761,2.249c-9.207,1.946-18.41,3.906-27.626,5.81c-4.53,0.937-9.084,1.761-13.627,2.635
		c-0.078,0.016-0.154,0.045-0.232,0.061C770.291,930.141,768.771,929.205,767.452,924.593z"/>
	<path style="fill-rule:evenodd;clip-rule:evenodd;fill:#333F66;" d="M879.187,912.002c2.928-1.74,6.083-2.816,9.464-3.228
		c-1.286,0.674-2.574,1.347-3.861,2.021c1.074,0.755,2.11,1.122,3.177,1.334c2.263,0.448,4.615,0.606,6.611,1.923
		c2.303,1.521,4.844,2.388,7.511,2.988c8.242,1.858,16.513,3.603,24.707,5.653c11.009,2.754,21.645,6.605,31.837,11.633
		c-0.179,0.251-0.357,0.502-0.535,0.752c-5.373-2.019-10.72-4.107-16.124-6.041c-10.305-3.688-20.788-6.736-31.621-8.476
		c-7.061-1.133-13.755-3.481-20.272-6.346c-2.513-1.104-5.014-1.979-7.814-1.846C881.248,912.419,880.214,912.135,879.187,912.002z"
		/>
	<path style="fill-rule:evenodd;clip-rule:evenodd;fill:#2A3B64;" d="M983.745,969.699c-0.299,0.154-0.597,0.309-0.896,0.463
		c-3.159-8.122-6.318-16.244-9.477-24.365c0.239-0.027,0.478-0.056,0.717-0.083c1.351,2.343,2.851,4.614,4.024,7.042
		C980.72,958.15,982.712,963.771,983.745,969.699z"/>
	<path style="fill-rule:evenodd;clip-rule:evenodd;fill:#3C4B72;" d="M974.09,945.714c-0.239,0.027-0.478,0.056-0.717,0.083
		c-0.38-0.402-0.842-0.754-1.126-1.214c-2.8-4.508-7.151-6.825-11.939-8.548c-0.588-0.211-1.137-0.527-1.703-0.795
		c0.224-0.198,0.448-0.395,0.672-0.593c6.889,3.173,13.776,6.346,20.664,9.519c-0.029,0.362-0.06,0.726-0.09,1.088
		c-2.505-1.194-5.01-2.387-7.639-3.64C971.948,943.613,973.547,944.405,974.09,945.714z"/>
	<path style="fill-rule:evenodd;clip-rule:evenodd;fill:#333F66;" d="M959.276,934.647c-0.225,0.198-0.448,0.395-0.672,0.593
		c-0.169-0.055-0.338-0.108-0.506-0.163c0.178-0.249,0.356-0.5,0.535-0.751C958.847,934.434,959.062,934.54,959.276,934.647z"/>
	<path style="fill-rule:evenodd;clip-rule:evenodd;fill:#1C2230;" d="M1139.399,108.205c7.282,3.646,15.043,5.073,23.13,5.042
		c10.283-0.04,20.565-0.027,30.848-0.09c1.667-0.01,3.344-0.217,4.996-0.461c8.766-1.299,17.511-0.317,26.26,0.188
		c1.433,0.083,2.861,0.227,4.291,0.343c0.025,0.171,0.051,0.342,0.076,0.513c-5.031-0.166-10.065-0.263-15.09-0.525
		c-2.969-0.155-5.224,0.799-7.048,3.201c-2.073,2.732-4.289,5.37-6.6,7.906c-2.583,2.834-5.81,3.523-9.396,2.134
		c-3.548-1.374-5.171-4.031-5.165-7.82c0.004-2.5-0.59-3.006-3.16-3.107c-4.631-0.185-9.267-0.275-13.891-0.561
		c-5.896-0.366-11.799-0.737-17.668-1.39c-4.483-0.498-8.729-1.919-12.337-4.818
		C1138.896,108.574,1139.147,108.389,1139.399,108.205z"/>
	<path style="fill-rule:evenodd;clip-rule:evenodd;fill:#62626E;" d="M1229,113.739c-0.025-0.172-0.051-0.343-0.076-0.514
		c1.74,0.135,3.534,0.04,5.208,0.444c6.809,1.645,13.581,3.441,20.362,5.192c0.292,0.075,0.558,0.253,0.835,0.383l0.121,0.087
		c0,0-0.029,0.146-0.03,0.146c-3.558-0.805-7.111-1.616-10.67-2.412c-5.018-1.122-9.852-3.169-15.127-3.018
		C1229.419,114.054,1229.208,113.847,1229,113.739z"/>
	<path style="fill-rule:evenodd;clip-rule:evenodd;fill:#383331;" d="M1272.598,125.675c0.008,0.303,0.014,0.606,0.02,0.909
		c-2.982-1.126-5.994-2.186-8.941-3.4c-2.787-1.149-5.506-2.463-8.255-3.705l0.029-0.146l-0.121-0.087
		c0.542,0.106,1.114,0.136,1.622,0.331C1262.173,121.594,1267.384,123.638,1272.598,125.675z"/>
	<path style="fill-rule:evenodd;clip-rule:evenodd;fill:#3C4B72;" d="M1139.399,108.205c-0.252,0.185-0.503,0.369-0.753,0.555
		c-1.263-1.07-2.529-2.142-3.795-3.213c0.102-0.101,0.201-0.201,0.301-0.303C1136.568,106.231,1137.983,107.218,1139.399,108.205z"
		/>
	<path style="fill-rule:evenodd;clip-rule:evenodd;fill:#3C4B72;" d="M1132.506,104.424c-0.005-0.281-0.01-0.563-0.014-0.845
		c0.887,0.556,1.774,1.11,2.66,1.665c-0.1,0.102-0.199,0.202-0.301,0.302C1134.07,105.171,1133.288,104.797,1132.506,104.424z"/>
	<path style="fill-rule:evenodd;clip-rule:evenodd;fill:#DAE3F4;" d="M959.276,934.647c-0.215-0.107-0.43-0.214-0.643-0.321
		c-10.193-5.027-20.828-8.879-31.837-11.633c-8.194-2.051-16.465-3.795-24.707-5.653c-2.667-0.601-5.208-1.468-7.511-2.988
		c-1.996-1.316-4.348-1.475-6.611-1.923c-1.067-0.212-2.103-0.579-3.177-1.334c1.287-0.674,2.575-1.347,3.861-2.021
		c-0.001,0.001,0.144-0.06,0.143-0.059c0.434-0.148,0.869-0.298,1.303-0.446c1.626-0.321,3.102-0.915,4.145-2.293
		c1.002-0.438,2.054-0.794,2.999-1.333c1.994-1.138,3.934-2.373,5.896-3.567c0.213-0.125,0.425-0.251,0.637-0.376l-0.026,0.065
		c5.018-2.671,9.134-6.206,11.222-11.689c0.059-0.145,0.117-0.29,0.176-0.435c0.873-0.812,1.871-1.524,2.598-2.45
		c2.364-3.019,4.746-6.036,6.911-9.197c4.999-7.298,7.998-15.398,9.335-24.133c0.338-2.206,0.584-4.462,1.249-6.575
		c3.718-11.834,5.237-24.007,5.793-36.333c0.537-11.894,0.982-23.792,1.521-35.687c0.301-6.634,1.795-12.963,5.2-18.744
		c2.188-3.716,4.378-7.432,6.616-11.119c6.393-10.536,12.137-21.392,16.184-33.072c3.146-9.081,5.051-18.472,6.715-27.909
		c2.408-13.648,3.561-27.401,3.232-41.271c-0.174-7.349-0.354-14.7-0.413-22.05c-0.099-12.388-0.043-24.779-1.156-37.133
		c-0.552-6.126-1.151-12.248-1.803-18.364c-0.635-5.955-1.441-11.893-2.033-17.853c-0.768-7.711-1.454-15.433-2.071-23.157
		c-0.648-8.124-1.383-16.249-1.694-24.388c-0.329-8.621-0.182-17.261-0.295-25.891c-0.024-1.857,0.113-3.655,0.803-5.389
		c0.518-0.691,1.095-1.346,1.544-2.08c2.738-4.459,6.098-8.447,9.408-12.474c1.055-0.657,2.274-1.148,3.136-2
		c3.96-3.909,7.835-7.905,11.71-11.898c2.927-3.016,5.807-6.076,8.707-9.116c0.318-0.448,0.637-0.897,0.955-1.345
		c0.139-0.2,0.277-0.4,0.417-0.6l0.01-0.02c0.969-1.815,2.235-3.533,2.855-5.459c3.568-11.092,7.032-22.217,10.439-33.359
		c5.664-18.509,11.959-36.749,22.169-53.365c0.167-0.271,0.347-0.546,0.454-0.843c0.106-0.293,0.13-0.618,0.19-0.929
		c0,0-0.061,0.044-0.06,0.044c0.171-0.189,0.341-0.377,0.512-0.565c4.553-7.182,9.252-14.277,13.604-21.58
		c2.599-4.362,4.65-9.049,6.954-13.585c0.467-0.921,0.966-1.825,1.448-2.735c3.009-2.361,6.005-4.72,9.692-6.01
		c2.558-0.895,5.054-1.961,7.593-2.912c1.118-0.419,2.256-0.812,3.414-1.094c2.066-0.502,2.91-0.144,4,1.659
		c0.578,0.954,1.041,1.976,1.575,2.957c1.823,3.352,4.416,3.979,7.492,1.69c1.917-1.428,3.702-3.033,5.547-4.559
		c3.099,0.205,5.882,1.402,8.585,2.799c3.81,1.968,7.039,4.704,9.905,7.856c4.308,4.737,8.322,9.702,11.516,15.284
		c0.394,0.689,0.876,1.328,1.317,1.99c2.311,4.994,4.508,10.046,6.959,14.972c4.146,8.33,6.894,17.183,9.94,25.923
		c7.282,20.885,14.453,41.808,20.588,63.066c4.02,13.928,6.551,28.14,8.069,42.555c1.771,16.826,1.569,33.677,1.099,50.55
		c-0.248,8.869-0.127,17.749-0.191,26.624c-0.137,18.868-0.328,37.737-0.405,56.606c-0.025,6.23,0.153,12.466,0.396,18.693
		c0.1,2.545,0.794,5.064,0.914,7.609c0.399,8.458,0.778,16.921,0.952,25.386c0.433,21.181,0.657,42.366,1.161,63.545
		c0.205,8.626,0.876,17.243,1.404,25.861c0.676,11.034,0.546,22.046-0.518,33.057c-1.488,15.427-4.779,30.434-10.132,44.986
		c-4.625,12.58-10.691,24.425-18.094,35.597c-2.25,3.394-4.402,6.853-6.6,10.281c-2.702,3.755-5.195,7.683-8.154,11.221
		c-4.107,4.916-7.465,10.318-10.806,15.724c-2.085,3.374-3.756,7.033-5.336,10.684c-2.465,5.689-5.871,10.764-9.584,15.67
		c-0.333-0.586-0.76-1.152-1.432-0.502c-1.861,1.807-3.49,3.776-3.892,6.472l0.018-0.024c-0.111,0.178-0.222,0.356-0.333,0.535
		c-1.17,1.05-2.426,2.018-3.492,3.163c-3.255,3.495-6.436,7.058-9.646,10.594c-0.897,0.647-1.823,1.26-2.688,1.949
		c-5.023,4.005-10.033,8.027-15.047,12.045c-1.657,1.585-3.361,3.127-4.965,4.766c-3.718,3.797-7.387,7.642-11.075,11.466
		c-2.321,3.811-4.647,7.618-6.943,11.444c-0.116,0.193,0.033,0.546,0.058,0.821c-0.102-0.053-0.201-0.102-0.301-0.149
		c-0.025,0.061-0.051,0.121-0.076,0.182c0.117-0.029,0.235-0.059,0.354-0.087c0.105,0.481,0.391,1.007,0.287,1.438
		c-1.253,5.225-2.562,10.436-3.866,15.649c-0.034,0.137-0.189,0.243-0.289,0.363c-0.58-0.919-1.16-1.837-1.738-2.754
		c-0.142,0.02-0.282,0.039-0.423,0.059c0,3.175,0,6.351,0,9.968c-2.927-1.755-5.406-3.278-7.926-4.732
		c-0.727-0.42-1.568-0.643-2.358-0.955c-0.242-0.297-0.427-0.684-0.734-0.879c-4.775-3.038-9.565-6.053-14.356-9.068
		c-0.269-0.17-0.554-0.315-0.839-0.456c-2.688-1.332-3.481-1.065-4.932,1.811c-0.603-0.65-1.179-1.238-1.719-1.858
		c-12.823-14.755-25.643-29.512-38.465-44.266c-0.416-0.478-0.873-0.921-1.31-1.38c-2.274-3.57-5.924-7.661-7.23-8.104
		c0.302,1.447,3.174,5.195,6.647,8.674c0.651,1.267,1.303,2.534,1.954,3.8c-0.629-0.034-1.26-0.068-1.891-0.103
		C973.052,940.993,966.165,937.82,959.276,934.647z"/>
	<path style="fill-rule:evenodd;clip-rule:evenodd;fill:#162855;" d="M1210.381,486.557c0.307-0.909,0.424-1.255,0.695-2.058
		c3.726,11.336,7.332,22.231,10.883,33.145c2.295,7.046,4.561,14.103,6.747,21.183c3.805,12.322,8.228,24.468,10.894,37.116
		c1.112,5.273,2.003,10.603,2.752,15.939c0.539,3.848,0.695,7.749,0.993,11.63c0.341,4.438,0.659,8.876,0.971,13.315
		c0.328,4.678,0.557,9.364,0.973,14.034c0.579,6.508,0.593,13.046,1.03,19.549c0.662,9.825,0.238,19.639,0.326,29.454
		c0.029,3.238-0.541,6.479-0.837,9.721c-0.181,1.979-0.335,3.959-0.541,5.934c-0.458,4.34-0.945,8.677-1.415,13.015
		c-0.495,4.577-0.907,9.163-1.497,13.729c-0.671,5.189-1.454,10.365-2.271,15.534c-0.778,4.938-1.701,9.854-2.489,14.789
		c-0.467,2.928-1.957,5.193-4.21,7.004c-1.56,1.255-2.495,1.111-3.949-0.272c-1.432-1.361-1.719-3.227-2.265-4.945
		c-1.713-5.388-3.259-10.828-4.953-16.222c-3.962-12.618-7.866-25.256-12.021-37.812c-1.622-4.907-3.755-9.653-5.822-14.399
		c-2.831-6.507-5.814-12.948-8.747-19.411c-1.78-3.922-3.655-7.802-5.367-11.753c-1.882-4.343-2.992-8.875-3.084-13.648
		c-0.066-3.501-0.217-7.005-0.48-10.496c-0.39-5.145-0.923-10.278-1.375-15.419c-0.194-2.216-0.42-4.435-0.49-6.656
		c-0.206-6.456-0.785-12.942-0.386-19.364c0.466-7.512-0.004-15.011,0.397-22.497c0.95-17.729-0.016-35.472,0.54-53.195
		c0.213-6.861,0.387-13.716,0.346-20.575c-0.051-9.097-0.145-18.198-0.516-27.286c-0.168-4.102-0.894-8.204-1.641-12.256
		c-1.567-8.509-3.2-17.01-5.031-25.465c-1.396-6.445-2.901-12.885-4.781-19.202c-2.84-9.545-5.91-19.03-9.135-28.454
		c-3.638-10.631-7.556-21.167-11.351-31.744c-0.698-1.95-1.404-3.898-2.076-5.857c-0.192-0.56-0.274-1.157-0.406-1.738
		c0.152-0.103,0.306-0.205,0.459-0.308c0.543,0.499,1.193,0.922,1.612,1.51c3.788,5.316,7.708,10.551,11.258,16.025
		c5.526,8.522,9.993,17.6,13.455,27.168c3.253,8.992,6.623,17.941,9.9,26.924c2.978,8.159,5.623,16.42,7.904,24.809
		c3.425,12.59,6.937,25.16,10.584,37.688C1207.095,478.617,1208.785,482.335,1210.381,486.557z"/>
	<path style="fill-rule:evenodd;clip-rule:evenodd;fill:#B78745;" d="M1132.506,104.424c0.782,0.374,1.564,0.748,2.346,1.122
		c1.266,1.072,2.532,2.144,3.795,3.214c3.606,2.897,7.853,4.319,12.336,4.817c5.869,0.653,11.771,1.024,17.668,1.39
		c4.624,0.286,9.26,0.376,13.891,0.561c2.57,0.102,3.164,0.607,3.16,3.107c-0.006,3.789,1.617,6.446,5.165,7.82
		c3.587,1.389,6.813,0.7,9.396-2.134c2.311-2.536,4.526-5.174,6.6-7.906c1.824-2.402,4.079-3.356,7.048-3.201
		c5.024,0.263,10.059,0.359,15.09,0.525c0.208,0.109,0.419,0.316,0.623,0.31c5.275-0.151,10.109,1.896,15.127,3.018
		c3.559,0.796,7.112,1.607,10.67,2.412c2.75,1.243,5.469,2.557,8.256,3.706c2.947,1.214,5.959,2.274,8.941,3.4
		c2.595,1.068,4.66,2.583,5.736,5.391c0.363,0.946,1.633,1.748,2.67,2.189c1.908,0.811,3.95,1.219,6.073,0.707
		c0.667-0.161,1.386-0.114,2.13-0.165c0.045,1.149-0.658,1.368-1.354,1.475c-9.491,1.458-18.956,2.518-28.526,0.311
		c-3.942-0.909-8.039-1.177-12.077-1.635c-7.288-0.827-14.583-1.578-21.876-2.359c-8.264-0.885-16.563-1.674-24.85-0.953
		c-4.809,0.417-9.532,1.813-14.295,2.77c-0.315,0.027-0.646,0-0.943,0.088c-7.625,2.248-15.278,4.407-22.855,6.805
		c-4.559,1.443-8.784,3.678-12.664,6.515c-0.039,0.059-0.076,0.116-0.115,0.175c0.031-0.065,0.063-0.131,0.094-0.197
		c0.966-0.341,1.973-0.597,2.891-1.037c6.982-3.345,14.146-6.228,21.591-8.359c3.975-1.137,8.002-2.09,12.005-3.126
		c10-1.851,20.079-2.732,30.246-2.279c7.506,0.333,14.927,1.385,22.269,2.979c0.294,0.063,0.561,0.259,1.214,0.574
		c-3.95,0.935-7.535,1.788-11.123,2.63c-4.27,1.002-8.552,1.958-12.807,3.026c-0.858,0.215-1.615,0.839-2.419,1.276
		c-4.648,0.95-9.297,1.899-13.944,2.85c-6.196,0.628-12.062,2.335-17.45,5.497c-3.422,2.008-6.307,4.622-8.468,7.985
		c-1.134,0.629-1.632,1.684-1.921,2.877c-0.664,0.714-1.328,1.429-1.993,2.142c-2.596,1.737-5.522,1.929-8.514,1.819
		c-5.346-0.196-10.688-0.488-16.035-0.566c-6.309-0.093-12.624-0.12-18.929,0.079c-2.18,0.069-4.448,0.621-6.479,1.44
		c-5.771,2.329-11.438,4.914-17.151,7.384c-0.637,0.274-1.316,0.449-2.278,0.335c2.119-2.933,4.082-5.995,6.394-8.768
		c3.525-4.228,7.264-8.278,10.967-12.355c1.492-1.642,3.286-2.689,5.664-2.64c3.874,0.079,7.651-3.425,8.03-7.37
		c0.289-3.019,0.348-5.988-0.634-8.981c-0.499-1.519-0.206-3.312-0.203-4.979c0.01-7.498,0.047-14.995,0.064-22.493
		c0.002-0.798-0.072-1.595-0.075-2.393c-0.001-0.306,0.099-0.611,0.177-1.057C1131.453,104.274,1131.979,104.349,1132.506,104.424z"
		/>
	<path style="fill-rule:evenodd;clip-rule:evenodd;fill:#8E5A6D;" d="M1125.787,1043.295c-0.482-0.036-0.966-0.071-1.449-0.107
		c-8.105-0.686-16.209-1.413-24.318-2.044c-5.091-0.396-10.193-0.633-15.29-0.966c-6.368-0.416-12.731-0.898-19.102-1.27
		c-2.552-0.148-5.116-0.036-7.673-0.119c-2.631-0.086-5.269-0.482-7.886-0.361c-6.134,0.284-12.259,0.781-18.385,1.219
		c-4.244,0.303-9.419-1.083-11.448-6.074c-0.89-2.189-1.09-4.483-0.864-6.821c0.438-4.523,0.858-9.049,1.331-13.568
		c0.396-3.805,0.911-7.6,1.265-11.408c0.169-1.824,0.098-3.673,0.105-5.509c0.004-1.061-0.018-2.034,1.171-2.646
		c0.404-0.207,0.64-0.991,0.715-1.545c0.201-1.469,0.271-2.956,0.396-4.468c2.004-0.381,3.438,0.181,4.792,1.102
		c3.698,2.519,7.392,5.041,11.1,7.544c0.658,0.444,1.375,0.803,2.063,1.201c3.063,1.854,6.093,3.768,9.206,5.534
		c1.26,0.715,2.627,0.582,3.756-0.504c0.414,1.115,0.844,2.225,1.241,3.347c2.276,6.425,6.696,10.81,12.983,13.222
		c2.737,1.051,5.636,1.752,8.517,2.344c3.705,0.759,7.194,1.953,10.55,3.724c10.773,5.687,22.153,9.855,33.858,13.159
		c4.296,1.213,8.63,2.291,12.939,3.458c0.644,0.175,1.248,0.497,2.007,0.806C1135.537,1043.732,1131.705,1043.937,1125.787,1043.295
		z"/>
	<path style="fill-rule:evenodd;clip-rule:evenodd;fill:#8E5B6E;" d="M1019.614,1004.674c-0.258,2.209-0.563,4.414-0.765,6.628
		c-0.536,5.87-1.024,11.745-1.538,17.617c-0.198,2.26-0.788,2.886-2.99,2.706c-5.396-0.44-10.77-0.971-16.071-2.229
		c-5.351-1.27-9.815-6.201-10.21-12.428c-0.243-3.819-0.424-7.643-0.54-11.467c-0.187-6.14-0.299-12.281-0.441-18.422
		c-0.013-0.538-0.002-1.077-0.002-2.126c1.307,1.435,2.398,2.444,3.264,3.621c2.499,3.4,5.745,5.708,9.744,6.992
		c0.795-0.491,1.34,0.096,1.917,0.465c0.703,0.451,1.318,0.496,1.844-0.251c1.153-0.401,2.308-0.803,3.462-1.203
		c0.489,0.388,0.998,0.754,1.464,1.169c2.888,2.578,5.743,5.193,8.664,7.732C1018.029,1004.014,1018.875,1004.282,1019.614,1004.674
		z"/>
	<path style="fill-rule:evenodd;clip-rule:evenodd;fill:#D8E0F2;" d="M1019.614,1004.674c-0.739-0.392-1.585-0.66-2.199-1.194
		c-2.921-2.539-5.776-5.154-8.664-7.732c-0.466-0.415-0.975-0.781-1.464-1.169c-0.629-0.642-1.258-1.284-1.885-1.927
		c-0.604-0.827-1.169-1.686-1.823-2.471c-0.782-0.943-1.746-1.211-3.03-0.504c0.407,0.75,0.771,1.418,1.133,2.086
		c-0.501,2.217-0.503,2.22,1.138,3.373c0.324,0.229,0.67,0.432,1.006,0.646c-0.525,0.746-1.141,0.701-1.844,0.25
		c-0.577-0.369-1.122-0.956-1.917-0.465c-0.529-0.533-0.987-1.176-1.602-1.582c-3.83-2.528-7.183-5.533-9.927-9.244
		c-2.708-3.661-3.922-7.781-4.264-12.244c-0.072-0.941-0.346-1.866-0.526-2.798c-1.033-5.928-3.025-11.549-5.631-16.943
		c-1.174-2.428-2.673-4.699-4.024-7.042c-0.542-1.309-2.142-2.101-1.878-4.1c2.629,1.253,5.134,2.445,7.64,3.64
		c2.065,1.146,4.129,2.291,6.192,3.436c0.179,0.14,0.357,0.282,0.536,0.424c3.178,3.689,6.382,7.359,9.528,11.077
		c7.998,9.451,15.972,18.925,23.954,28.39c0.36,0.427,0.817,0.813,1.045,1.304c0.458,0.982,1.435,2.032-0.184,2.973
		c-0.278,0.162-0.296,0.862-0.34,1.323C1020.247,997.676,1019.935,1001.175,1019.614,1004.674z M997.232,986.297
		c1.014,1.342,1.89,2.734,3.325,3.568c0.132-0.107,0.265-0.215,0.397-0.322c-0.895-1.355-1.787-2.711-2.741-4.158
		C997.736,985.828,997.513,986.036,997.232,986.297z"/>
	<path style="fill-rule:evenodd;clip-rule:evenodd;fill:#1F2F5A;" d="M1055.272,1002.484c-1.129,1.086-2.496,1.219-3.756,0.504
		c-3.113-1.767-6.143-3.68-9.206-5.534c0.169-0.486,0.337-0.973,0.506-1.459c0.79,0.313,1.632,0.535,2.358,0.955
		c2.52,1.454,4.999,2.978,7.926,4.732c0-3.617,0-6.793,0-9.968c0.141-0.02,0.281-0.039,0.423-0.059
		c0.578,0.917,1.158,1.835,1.738,2.754C1055.266,997.102,1055.269,999.793,1055.272,1002.484z"/>
	<path style="fill-rule:evenodd;clip-rule:evenodd;fill:#333F66;" d="M979.878,940.469c-3.473-3.479-6.345-7.227-6.647-8.674
		c1.306,0.442,4.956,4.533,7.23,8.104C980.266,940.088,980.071,940.278,979.878,940.469z"/>
	<path style="fill-rule:evenodd;clip-rule:evenodd;fill:#8E5B6E;" d="M986.044,948.69c-2.063-1.146-4.127-2.291-6.192-3.437
		c0.029-0.362,0.06-0.726,0.089-1.088c0.631,0.034,1.262,0.068,1.891,0.103C983.478,945.513,985.294,946.594,986.044,948.69z"/>
	<path style="fill-rule:evenodd;clip-rule:evenodd;fill:#8E5B6E;" d="M986.58,949.113c-0.179-0.142-0.357-0.284-0.536-0.426
		C986.223,948.829,986.401,948.972,986.58,949.113z"/>
	<path style="fill-rule:evenodd;clip-rule:evenodd;fill:#8E5A6D;" d="M1063.38,1012.389c2.207,0.63,4.435,1.196,6.616,1.904
		c3.86,1.252,7.692,2.592,11.535,3.895c-0.001,0.371-0.001,0.741-0.001,1.242c-4.906-0.634-9.642-1.257-13.847-3.721
		C1066.133,1014.802,1064.808,1013.507,1063.38,1012.389z"/>
	<path style="fill-rule:evenodd;clip-rule:evenodd;fill:#62626E;" d="M1147.324,1041.382c-1.55,0.736-3.165,1.052-4.879,0.619
		C1143.924,1040.876,1145.661,1041.371,1147.324,1041.382z"/>
	<path style="fill-rule:evenodd;clip-rule:evenodd;fill:#8E5A6D;" d="M1062.979,1011.93c0.146,0.162,0.29,0.324,0.435,0.485
		C1063.269,1012.254,1063.124,1012.092,1062.979,1011.93z"/>
	<path style="fill-rule:evenodd;clip-rule:evenodd;fill:#383331;" d="M1149.785,147.72c3.88-2.836,8.105-5.071,12.664-6.514
		c7.577-2.398,15.23-4.557,22.855-6.805c0.297-0.088,0.628-0.061,0.943-0.088c0.001,0.288,0.001,0.576,0.002,0.864
		c-4.003,1.036-8.03,1.989-12.005,3.126c-7.444,2.131-14.608,5.014-21.591,8.359c-0.918,0.44-1.925,0.696-2.891,1.037
		L1149.785,147.72z"/>
	<path style="fill-rule:evenodd;clip-rule:evenodd;fill:#181F31;" d="M971.836,467.927c-0.689,1.734-0.827,3.532-0.803,5.389
		c0.113,8.63-0.034,17.27,0.295,25.891c0.311,8.139,1.046,16.264,1.694,24.388c0.617,7.725,1.303,15.446,2.071,23.157
		c0.592,5.96,1.398,11.897,2.033,17.853c0.652,6.116,1.251,12.238,1.803,18.364c1.113,12.354,1.057,24.745,1.156,37.133
		c0.06,7.35,0.239,14.701,0.413,22.05c0.328,13.869-0.825,27.622-3.232,41.271c-1.665,9.438-3.569,18.828-6.715,27.909
		c-4.047,11.681-9.791,22.536-16.184,33.072c-2.238,3.688-4.428,7.403-6.616,11.119c-3.404,5.781-4.899,12.11-5.2,18.744
		c-0.539,11.895-0.984,23.793-1.521,35.687c-0.556,12.326-2.075,24.499-5.793,36.333c-0.665,2.113-0.911,4.369-1.249,6.575
		c-1.337,8.734-4.336,16.835-9.335,24.133c-2.165,3.161-4.546,6.179-6.911,9.197c-0.727,0.926-1.725,1.639-2.598,2.45
		c0.247-3.811,1.83-7.048,4.301-9.881c3.346-3.835,7.027-7.386,9.135-12.185c1.722-3.922,2.644-7.963,2.907-12.227
		c0.131-2.122,0.669-4.224,1.085-6.324c1.046-5.291,2.155-10.571,3.188-15.866c0.593-3.038,1.167-6.083,1.6-9.146
		c0.511-3.611,0.939-7.239,1.262-10.873c0.395-4.432,0.719-8.873,0.926-13.316c0.146-3.112-0.122-6.248,0.092-9.353
		c0.349-5.065,0.315-10.167,1.317-15.184c1.024-5.135,1.952-10.29,2.905-15.439c0.052-0.276-0.04-0.578-0.097-1.231
		c-0.896,0.86-1.678,1.427-2.223,2.168c-3.786,5.141-8.782,8.742-14.45,11.506c-2.933,1.43-6.025,0.926-8.418-1.247
		c-6.797-6.173-11.602-13.721-15.28-22.048c-0.288-0.652-0.472-1.353-0.672-2.038c-0.036-0.122,0.079-0.289,0.219-0.734
		c0.763,1.18,1.456,2.181,2.079,3.224c3.482,5.824,7.498,11.264,11.869,16.445c0.821,0.974,1.581,2.007,2.47,2.91
		c2.002,2.039,4.929,2.609,7.441,1.188c2.277-1.289,4.456-2.802,6.51-4.428c5.928-4.691,10.773-10.358,14.893-16.695
		c1.73-2.662,3.819-5.088,5.693-7.658c1.358-1.862,2.795-3.692,3.917-5.694c5.165-9.204,9.508-18.779,12.593-28.895
		c1.998-6.55,3.404-13.222,4.265-20.02c0.678-5.349,1.668-10.661,2.252-16.019c0.367-3.369,1.124-6.748,0.291-10.209
		c-0.28-1.162,0.258-2.502,0.283-3.763c0.186-9.256,0.313-18.514,0.513-27.77c0.068-3.182,0.439-6.36,0.416-9.538
		c-0.04-5.26-0.214-10.521-0.471-15.775c-0.206-4.204-0.537-8.407-0.96-12.596c-0.532-5.288-1.24-10.558-1.818-15.841
		c-0.251-2.29-0.337-4.599-0.559-6.893c-0.253-2.605-0.594-5.2-0.86-7.804c-0.209-2.055-0.391-4.114-0.537-6.175
		c-0.195-2.776-0.299-5.561-0.526-8.335c-0.234-2.846-0.583-5.682-0.858-8.525c-0.199-2.056-0.389-4.114-0.534-6.174
		c-0.195-2.777-0.319-5.56-0.52-8.336c-0.279-3.882-0.601-7.761-0.905-11.641c-0.013-0.159-0.026-0.318-0.033-0.479
		c-0.166-4.298-0.275-8.601-0.513-12.895c-0.232-4.204-0.601-8.4-0.902-12.6c-0.177-2.459-0.325-4.919-0.514-7.376
		c-0.316-4.12-0.573-8.247-1.003-12.354c-0.538-5.128-1.545-10.227-1.741-15.362c-0.128-3.379-1.335-6.787-0.174-10.198
		c0.074-0.216,0.016-0.476,0.025-0.716c0.163-4.059,0.197-8.128,0.543-12.172c0.195-2.277,0.85-4.523,1.394-6.76
		c1.548-6.363,4.325-12.265,7.201-18.18c-0.151,0.699-0.346,1.392-0.446,2.099c-0.65,4.583-1.926,9.009-3.244,13.431
		c-1.273,4.27-2.334,8.59-2.58,13.07c-0.126,2.301-0.481,4.604-0.409,6.896c0.085,2.688,0.526,5.364,0.807,8.046
		c0.198,1.897,0.343,3.8,0.59,5.69C969.651,456.245,969.868,462.234,971.836,467.927z"/>
	<path style="fill-rule:evenodd;clip-rule:evenodd;fill:#131B2D;" d="M923.014,315.067c-0.319,3.229-0.926,6.347-2.381,9.193
		c-1.194,2.336-1.903,4.749-1.65,7.36c0.555,5.745-0.953,11.234-2.059,16.759c-1.808,9.031-3.693,18.05-5.716,27.036
		c-0.872,3.875-2.268,7.63-3.251,11.484c-2.594,10.167-5.191,20.334-7.566,30.554c-0.731,3.147-0.67,6.471-1.116,9.694
		c-0.598,4.323-1.261,8.639-2.032,12.935c-1.359,7.576-2.714,15.157-4.267,22.696c-1.856,9.023-3.841,18.023-5.917,26.999
		c-1.398,6.043-3.041,12.029-4.595,18.036c-0.235,0.911-0.583,1.793-1.064,3.249c-0.298-1.128-0.452-1.71-0.605-2.292
		c-0.163-0.026-0.326-0.054-0.489-0.08c-0.361,1.066-0.814,2.111-1.066,3.203c-1.253,5.419-2.536,10.833-3.651,16.282
		c-1.305,6.375-2.501,12.773-3.646,19.179c-1.004,5.621-2.018,11.248-2.757,16.907c-0.751,5.746-1.694,11.465-1.626,17.322
		c0.088,7.574-0.239,15.153-0.433,22.73c-0.11,4.3-0.239,8.603-0.493,12.896c-0.183,3.088-0.693,6.156-0.85,9.244
		c-0.104,2.054,0.122,4.129,0.269,6.188c0.153,2.139,0.238,4.298,0.621,6.399c0.795,4.372,1.4,8.827,2.743,13.038
		c2.782,8.725,5.973,17.319,9.038,25.953c2.08,5.858,4.213,11.697,6.355,17.533c3.13,8.529,6.221,17.073,9.458,25.561
		c2.015,5.282,4.297,10.463,6.399,15.715c0.633,1.582,1.333,3.205,0.772,5.523c-0.757-1.59-1.333-2.76-1.875-3.945
		c-1.56-3.408-3.031-6.859-4.671-10.228c-4.087-8.396-7.625-17.018-11.04-25.705c-4.671-11.883-8.663-23.997-12.611-36.124
		c-2.242-6.886-4.26-13.851-6.121-20.85c-1.224-4.604-1.909-9.331-1.838-14.146c0.083-5.597-0.036-11.195,0.045-16.792
		c0.09-6.219,0.232-12.439,0.493-18.653c0.2-4.765,0.531-9.527,0.965-14.277c0.549-6.006,1.089-12.021,1.944-17.989
		c1.351-9.424,2.642-18.869,5.098-28.099c2.31-8.685,4.524-17.396,6.921-26.056c2.631-9.504,5.558-18.927,7.459-28.619
		c0.855-4.362,1.62-8.743,2.536-13.092c0.409-1.939,1.013-3.847,1.664-5.724c1.782-5.132,2.762-10.439,3.632-15.78
		c0.853-5.246,1.833-10.472,2.689-15.717c0.588-3.602,1.062-7.222,1.584-10.834c0.489-3.376,0.849-6.776,1.489-10.124
		c1.043-5.458,2.017-10.95,3.482-16.3c1.66-6.067,3.781-12.012,5.794-17.978c2.397-7.107,4.028-14.383,5.115-21.793
		c0.542-3.688,1.115-7.371,1.676-11.055c0.023-0.157,0.151-0.335,0.107-0.459c-1.463-4.16,0.263-8.068,1.14-11.966
		c1.104-4.902,3.064-9.558,5.292-14.076C922.571,315.66,922.811,315.373,923.014,315.067z"/>
	<path style="fill-rule:evenodd;clip-rule:evenodd;fill:#D1DAEB;" d="M1049.238,116.565c0.416-0.43,0.832-0.859,1.248-1.289
		c1.149-0.324,2.281-0.77,3.453-0.951c6.176-0.955,10.025,0.822,12.889,5.528c1.728,2.84,2.779,5.911,3.171,9.197
		c0.512,4.293-1.026,7.33-4.829,9.285c-5.086,2.615-10.15,2.328-15.073-0.495c-2.038-1.167-3.375-2.98-3.828-5.265
		c-0.322-1.624-0.374-3.32-0.375-4.985c0-3.579,0.977-6.917,2.764-10.016c0,0-0.046,0.021-0.046,0.021
		C1048.82,117.252,1049.029,116.909,1049.238,116.565z M1048.908,126.227c0.063,2.322,0.673,4.447,2.068,6.285
		c2.265,2.985,5.368,3.857,8.934,3.252c3.279-0.557,5.176-2.696,5.979-5.79c0.377-1.448,0.575-2.984,0.572-4.48
		c-0.01-4.675-3.083-8.021-7.682-8.539c-4.822-0.542-8.232,1.769-9.436,6.453C1049.107,124.325,1049.049,125.287,1048.908,126.227z"
		/>
	<path style="fill-rule:evenodd;clip-rule:evenodd;fill:#1B2234;" d="M1043.831,334.438c-0.061,0.312-0.084,0.636-0.19,0.929
		c-0.107,0.297-0.287,0.571-0.454,0.843c-10.21,16.617-16.505,34.856-22.169,53.365c-3.407,11.142-6.871,22.267-10.439,33.359
		c-0.62,1.926-1.887,3.644-2.855,5.459c0.316-1.472,0.537-2.972,0.963-4.411c3.229-10.914,6.482-21.821,9.757-32.721
		c2.153-7.167,4.356-14.317,6.529-21.479c0.277-0.913,0.433-1.869,0.783-2.751c0.314-0.792,0.676-1.658,1.269-2.229
		c1.616-1.564,2.602-3.463,3.041-5.587c0.769-3.723,2.267-7.085,4.194-10.347c2.026-3.431,3.733-7.051,5.604-10.575
		c0.522-0.985,1.107-1.939,1.71-2.876C1042.094,334.609,1042.846,334.229,1043.831,334.438z"/>
	<path style="fill-rule:evenodd;clip-rule:evenodd;fill:#1B2234;" d="M1048.657,117.576c-1.787,3.1-2.764,6.438-2.764,10.016
		c0.001,1.665,0.053,3.361,0.375,4.985c0.453,2.284,1.79,4.098,3.828,5.265c4.923,2.823,9.987,3.11,15.073,0.495
		c3.803-1.956,5.341-4.992,4.829-9.285c-0.392-3.286-1.443-6.357-3.171-9.197c-2.863-4.706-6.713-6.483-12.889-5.528
		c-1.172,0.181-2.304,0.627-3.453,0.951c0.459-1.988,1.823-2.649,3.724-2.601c1.517,0.039,3.035,0.032,4.552-0.001
		c3.754-0.083,6.529,1.591,8.65,4.61c2.034,2.896,3.802,5.922,4.408,9.446c0.626,3.628,0.388,7.241-1.94,10.25
		c-1.779,2.3-4.33,3.684-7.112,4.612c-5.836,1.948-13.976-0.715-17.162-6.08c-2.759-4.647-2.377-11.762,0.289-15.961
		C1046.485,118.62,1047.185,117.452,1048.657,117.576z"/>
	<path style="fill-rule:evenodd;clip-rule:evenodd;fill:#1B2233;" d="M1105.603,287.748c-1.845,1.526-3.63,3.131-5.547,4.559
		c-3.076,2.29-5.669,1.662-7.492-1.69c-0.534-0.981-0.997-2.003-1.575-2.957c-1.09-1.802-1.934-2.161-4-1.659
		c-1.158,0.282-2.296,0.675-3.414,1.094c-2.539,0.951-5.035,2.018-7.593,2.912c-3.688,1.29-6.684,3.649-9.692,6.01
		c-0.393-3.483,1.108-4.994,4.105-6.107c5.057-1.88,10.162-3.632,15.256-5.414c0.971-0.339,1.971-0.605,2.974-0.835
		c1.74-0.398,3.152,0.181,4.021,1.781c0.679,1.251,1.116,2.632,1.763,3.903c1.027,2.018,1.861,2.346,3.782,1.204
		c1.272-0.757,2.339-1.869,3.477-2.848C1103.031,286.527,1104.028,286.527,1105.603,287.748z"/>
	<path style="fill-rule:evenodd;clip-rule:evenodd;fill:#1B2234;" d="M1006.341,430.358c-2.9,3.04-5.78,6.101-8.707,9.116
		c-3.875,3.994-7.75,7.99-11.71,11.898c-0.862,0.852-2.081,1.343-3.136,2c0.297-2.068,1.342-3.68,2.883-5.07
		c1.479-1.333,2.815-2.822,4.25-4.207c4.12-3.982,8.251-7.956,12.399-11.91C1003.435,431.124,1004.717,430.343,1006.341,430.358z"/>
	<path style="fill-rule:evenodd;clip-rule:evenodd;fill:#1B2234;" d="M914.969,889.076c-2.088,5.483-6.204,9.019-11.222,11.689
		c0.204-1.932,1.477-3.328,2.691-4.587c1.972-2.046,4.214-3.836,6.382-5.688C913.467,889.939,914.248,889.544,914.969,889.076z"/>
	<path style="fill-rule:evenodd;clip-rule:evenodd;fill:#1B2234;" d="M1049.238,116.565c-0.209,0.343-0.418,0.687-0.627,1.031
		C1048.82,117.253,1049.029,116.909,1049.238,116.565z"/>
	<path style="fill-rule:evenodd;clip-rule:evenodd;fill:#1B2233;" d="M1106.923,280.259c-0.051,0.01-0.122,0.046-0.146,0.026
		c-0.039-0.035-0.048-0.104-0.069-0.158c0.083-0.017,0.166-0.032,0.248-0.049C1106.944,280.139,1106.934,280.198,1106.923,280.259z"
		/>
	<path style="fill-rule:evenodd;clip-rule:evenodd;fill:#1B2234;" d="M903.773,900.7c-0.212,0.125-0.424,0.251-0.637,0.376
		C903.349,900.951,903.561,900.825,903.773,900.7z"/>
	<path style="fill-rule:evenodd;clip-rule:evenodd;fill:#1B2234;" d="M1007.713,428.414c-0.14,0.199-0.278,0.399-0.417,0.6
		C1007.435,428.813,1007.573,428.613,1007.713,428.414z"/>
	<path style="fill-rule:evenodd;clip-rule:evenodd;fill:#1B2234;" d="M1044.283,333.917c-0.171,0.188-0.341,0.376-0.512,0.565
		C1043.941,334.294,1044.112,334.105,1044.283,333.917z"/>
	<path style="fill-rule:evenodd;clip-rule:evenodd;fill:#8E5B6E;" d="M1113.267,920.255c0.401-2.695,2.03-4.665,3.892-6.472
		c0.672-0.65,1.099-0.084,1.432,0.502C1117.271,916.682,1115.855,918.991,1113.267,920.255z"/>
	<path style="fill-rule:evenodd;clip-rule:evenodd;fill:#8E5B6E;" d="M1112.951,920.766c0.111-0.179,0.222-0.357,0.333-0.535
		C1113.173,920.408,1113.063,920.587,1112.951,920.766z"/>
	<path style="fill-rule:evenodd;clip-rule:evenodd;fill:#333F66;" d="M890.097,908.27c-0.434,0.148-0.869,0.298-1.303,0.446
		C889.229,908.566,889.664,908.418,890.097,908.27z"/>
	<path style="fill-rule:evenodd;clip-rule:evenodd;fill:#1F2435;" d="M1059.13,976.959c-0.118,0.028-0.236,0.058-0.354,0.087
		c0.025-0.061,0.051-0.121,0.076-0.182c0.1,0.048,0.199,0.097,0.301,0.149C1059.154,977.018,1059.13,976.959,1059.13,976.959z"/>
	<path style="fill-rule:evenodd;clip-rule:evenodd;fill:#383331;" d="M1149.764,147.699c-0.031,0.066-0.063,0.132-0.094,0.197
		c0.039-0.059,0.076-0.116,0.115-0.175C1149.785,147.72,1149.764,147.699,1149.764,147.699z"/>
	<path style="fill-rule:evenodd;clip-rule:evenodd;fill:#1F2F5A;" d="M1005.402,992.651c0.627,0.643,1.256,1.285,1.885,1.927
		c-1.154,0.4-2.309,0.802-3.462,1.203c-0.336-0.214-0.682-0.416-1.006-0.646c-1.641-1.153-1.639-1.156-1.138-3.372
		c0.572,0.376,1.146,0.753,1.719,1.128C1004.135,993.373,1004.827,993.493,1005.402,992.651z"/>
	<path style="fill-rule:evenodd;clip-rule:evenodd;fill:#8E5B6E;" d="M1005.402,992.651c-0.575,0.842-1.268,0.722-2.002,0.24
		c-0.573-0.375-1.146-0.752-1.719-1.128c-0.362-0.669-0.726-1.337-1.133-2.087c1.284-0.707,2.248-0.439,3.03,0.504
		C1004.233,990.966,1004.798,991.824,1005.402,992.651z"/>
	<path style="fill-rule:evenodd;clip-rule:evenodd;fill:#3C4B72;" d="M997.232,986.297c0.28-0.261,0.504-0.469,0.981-0.912
		c0.954,1.447,1.847,2.803,2.741,4.158c-0.133,0.107-0.266,0.215-0.397,0.322C999.122,989.031,998.246,987.639,997.232,986.297z"/>
	<path style="fill-rule:evenodd;clip-rule:evenodd;fill:#161D2E;" d="M1048.908,126.227c0.141-0.94,0.199-1.902,0.436-2.818
		c1.203-4.684,4.613-6.996,9.436-6.453c4.599,0.518,7.672,3.863,7.682,8.539c0.003,1.496-0.195,3.032-0.572,4.48
		c-0.803,3.094-2.699,5.233-5.979,5.79c-3.565,0.605-6.669-0.267-8.934-3.252C1049.581,130.674,1048.971,128.549,1048.908,126.227z"
		/>
</g>
</svg>
