<?xml version="1.0" encoding="iso-8859-1"?>
<!-- Generator: Adobe Illustrator 16.0.0, SVG Export Plug-In . SVG Version: 6.00 Build 0)  -->
<!DOCTYPE svg PUBLIC "-//W3C//DTD SVG 1.1//EN" "http://www.w3.org/Graphics/SVG/1.1/DTD/svg11.dtd">
<svg version="1.1" id="Layer_1" xmlns="http://www.w3.org/2000/svg" xmlns:xlink="http://www.w3.org/1999/xlink" x="0px" y="0px"
	 width="1980px" height="1080px" viewBox="0 0 1980 1080" style="enable-background:new 0 0 1980 1080;" xml:space="preserve">
<g>
	<path style="fill-rule:evenodd;clip-rule:evenodd;fill:#18152F;" d="M1239.867,635.477c-9.22-1.406-16.723-6.037-23.308-12.4
		c-1.552-1.498-3.151-2.949-4.685-4.469c-3.579-3.547-7.181-7.074-10.675-10.705c-1.579-1.641-3.227-2.184-5.548-1.924
		c-7.542,0.842-15.118,1.381-22.674,2.109c-9.067,0.875-18.125,1.844-27.19,2.74c-13.993,1.385-27.973,2.961-41.989,4.035
		c-8.594,0.658-17.251,0.813-25.873,0.695c-13.302-0.18-26.412-2.162-39.351-5.252c-1.707-0.408-3.452-0.719-5.104-1.293
		c-4.289-1.494-8.632-1.279-13.025-0.73c-12.633,1.578-24.955,4.637-37.282,7.701c-12.55,3.119-25.092,6.297-37.715,9.098
		c-9.897,2.195-19.945,2.656-30.008,0.865c-12.428-2.213-22.238-8.525-29.437-18.875c-5.114-7.354-9.906-14.92-14.002-22.889
		c-4.276-8.316-9.803-15.715-15.949-22.697c-1.585-1.799-3.262-3.525-4.757-5.395c-2.038-2.549-4.703-3.623-7.854-4.051
		c-7.277-0.988-14.53-2.148-21.798-3.205c-10.673-1.553-21.332-3.215-32.03-4.57c-11.018-1.395-22.064-2.58-33.117-3.662
		c-7.234-0.708-14.501-1.077-21.754-1.591c-2.47-0.175-4.954-0.232-7.41-0.526c-2.56-0.307-4.388,0.562-6.024,2.559
		c-4.395,5.363-9.571,9.848-15.688,13.197c-4.812,2.637-9.943,4.318-15.326,5.285c-0.392,0.07-0.794,0.111-1.193,0.113
		c-2.241,0.014-4.475-0.389-5.742-2.342c-1.371-2.111-0.914-4.486,0.215-6.631c0.59-1.121,1.361-2.178,2.205-3.127
		c2.431-2.734,4.94-5.4,7.52-8.202c-2.044-0.988-4.397-0.953-6.719-0.938c-3.566,0.023-6.967,0.941-10.217,2.33
		c-11.449,4.891-22.848,9.898-34.312,14.752c-13.08,5.537-26.2,10.982-39.324,16.414c-4.436,1.836-9.02,3.254-13.806,3.828
		c-3.177,0.381-6.384,0.578-9.537-0.238c-3.374-0.871-4.472-2.863-3.257-6.105c0.556-1.482,1.354-2.895,2.181-4.254
		c6.036-9.924,12.601-19.455,20.725-27.825c0.586-0.604,1.108-1.269,1.66-1.904c-0.118-0.174-0.237-0.347-0.355-0.52
		c-1.173,0.533-2.378,1.007-3.514,1.61c-6.98,3.708-13.914,7.505-20.919,11.166c-28.879,15.092-58.308,29.037-88.337,41.682
		c-14.708,6.195-29.498,12.217-44.418,17.875c-17.417,6.605-35.458,11.182-53.612,15.271c-11.371,2.563-22.765,5.02-34.163,7.461
		c-6.843,1.465-13.743,2.039-20.688,0.729c-1.087-0.205-2.183-0.527-3.184-0.992c-3.278-1.523-4.692-4.627-3.847-8.135
		c0.519-2.152,1.668-3.953,3-5.676c8.555-11.057,18.436-20.807,29.213-29.68c8.963-7.379,18.622-13.789,28.139-20.404
		c12.928-8.988,25.758-18.117,38.622-27.199c5.396-3.809,9.921-8.554,14.255-13.484c2.017-2.293,1.857-3.692-0.672-5.579
		c-3.202-2.389-6.51-4.637-9.774-6.943c-21.539-15.226-43.063-30.473-64.626-45.664c-9.903-6.977-18.897-15.003-27.581-23.409
		c-2.642-2.558-5.304-5.097-8.026-7.567c-2.394-2.173-4.48-4.548-5.837-7.518c-0.147-0.323-0.539-0.535-0.817-0.798
		c0-1.12,0-2.24,0-3.36c0.078,0.02,0.204,0.078,0.226,0.052c2.046-2.498,4.971-3.203,7.897-4.021
		c6.004-1.681,12.008-3.399,18.237-3.945c5.25-0.46,10.523-0.777,15.792-0.868c10.387-0.181,20.782-0.355,31.167-0.167
		c10.552,0.19,21.058,1.261,31.467,3.045c28.509,4.886,56.71,11.218,84.731,18.353c16.147,4.111,31.523,10.328,46.521,17.523
		c12.898,6.188,25.438,13.036,37.653,20.479c2.623,1.598,5.33,2.881,8.466,2.856c0.822-0.827,0.529-1.424-0.278-1.964
		c-1.528-1.022-3.042-2.064-4.564-3.094c-7.63-5.162-14.889-10.785-21.446-17.278c-0.623-0.617-1.232-1.262-1.758-1.962
		c-2.884-3.835-2.298-8.425,1.437-11.484c1.915-1.568,4.163-2.306,6.572-2.667c7.653-1.146,15.173-0.187,22.558,1.746
		c13.512,3.538,26.967,7.291,40.458,10.913c4.314,1.158,8.654,2.222,12.998,3.267c2.905,0.698,5.708,0.191,8.426-0.954
		c1.449-0.611,2.912-1.19,4.662-1.903c-0.525-0.484-0.782-0.868-1.139-1.027c-1.821-0.814-3.742-1.437-5.484-2.39
		c-1.589-0.869-3.161-1.908-4.439-3.176c-1.761-1.746-1.792-4.081-0.37-6.132c0.494-0.712,1.097-1.393,1.78-1.921
		c3.896-3.018,8.26-4.932,13.252-4.789c8.144,0.232,16.284,0.616,24.423,1.005c3.28,0.156,6.312-0.418,9.204-2.062
		c10.343-5.88,20.714-11.711,31.11-17.496c2.617-1.457,4.564-3.459,5.898-6.099c2.666-5.273,5.305-10.562,7.982-15.829
		c2.575-5.064,5.313-10.028,9.03-14.379c6.503-7.611,14.611-12.914,24.06-15.965c6.137-1.982,12.455-3.482,18.771-4.822
		c15.234-3.231,30.482-6.418,45.789-9.279c9.9-1.85,19.197-5.34,28.442-9.113c3.248-1.326,6.512-2.623,9.812-3.814
		c2.595-0.938,4.504-2.733,6.216-4.739c1.688-1.977,3.666-3.501,5.856-4.873c16.792-10.514,33.386-21.351,50.674-31.056
		c10.665-5.987,21.185-12.224,31.085-19.416c5.883-4.272,11.51-8.896,17.265-13.345c17.204-13.304,36.534-21.795,57.971-25.42
		c4.878-0.825,9.818-1.282,14.729-1.909c1.297-0.015,2.595-0.029,3.893-0.044c0.938-0.132,1.875-0.264,2.813-0.395
		c4.32,0,8.64,0,12.96,0c2.076,0.144,4.152,0.288,6.229,0.433c5.377,0.75,10.786,1.325,16.125,2.288
		c9.702,1.749,18.981,4.908,28.013,8.852c14.134,6.171,28.812,10.859,43.416,15.736c12.888,4.304,24.578,10.647,34.741,19.748
		c1.646,1.473,3.584,2.697,5.553,3.717c5.718,2.964,11.966,4.418,18.18,5.848c2.774,0.639,5.699,0.904,8.551,0.873
		c12.403-0.135,24.775,0.318,37.109,1.612c9.695,1.018,19.395,2.015,29.058,3.283c9.656,1.269,19.348,2.479,28.886,4.398
		c18.932,3.808,35.636,12.227,50.205,25.038c8.518,7.489,17.514,14.435,26.294,21.626c5.935,4.86,11.97,9.604,17.765,14.626
		c4.102,3.555,7.908,7.455,11.789,11.259c6.966,6.829,13.992,13.601,20.803,20.581c8.387,8.596,15.662,18.151,23.141,27.522
		c2.671,3.347,4.587,7.104,5.686,11.26c0.256,0.967,0.52,1.934,0.779,2.899c0,4.641,0,9.28,0,13.92
		c-1.221,2.18-2.246,4.5-3.698,6.514c-4.984,6.906-10.795,12.969-17.76,18.011c-8.689,6.289-10.996,18.31-5.576,27.45
		c3.015,5.084,6.222,10.056,9.418,15.029c1.411,2.196,2.349,4.537,2.72,7.099c0.531,3.679,0.354,7.341-0.517,10.953
		c-1.994,8.286-6.813,13.938-15.225,16.211c-1.155,0.313-2.311,0.631-3.455,0.98c-8.408,2.557-16.691,5.381-24.436,9.67
		c-7.894,4.373-15.998,8.373-24.563,11.268c-18.063,6.105-36.195,12.008-54.266,18.094c-5.528,1.861-11.178,2.555-16.96,2.689
		c-11.98,0.279-23.96,0.666-35.941,0.918c-3.08,0.064-5.804,1-8.327,2.629c-4.772,3.082-9.415,6.344-13.5,10.326
		c-6.905,6.732-14.508,12.566-22.937,17.238c-8.439,4.678-16.822,9.572-26.569,11.174
		C1244.678,635.477,1242.272,635.477,1239.867,635.477z M835.778,357.574c3.666-0.862,3.73-0.895,4.247-2.431
		c-1.588,0.535-2.964,0.999-4.338,1.463c-1.069,0.203-2.146,0.378-3.208,0.613c-11.376,2.515-22.775,4.932-34.119,7.589
		c-16.067,3.764-28.456,12.588-36.521,27.168c-2.319,4.191-4.644,8.38-6.958,12.575c-0.299,0.542-0.545,1.114-0.784,1.607
		c0.83,1.334,1.527,0.547,2.236,0.064c7.397-5.033,14.796-10.062,22.188-15.103c0.476-0.325,0.888-0.743,1.421-1.195
		c-1.427-0.685-2.678-1.219-3.863-1.871c-1.11-0.611-2.637-0.734-3.079-2.224c0.907-1.042,1.876-0.599,2.768-0.362
		c1.928,0.509,3.811,1.215,5.758,1.61c1.033,0.21,2.402,0.325,3.211-0.176c4.805-2.978,9.49-6.147,14.516-9.45
		c-1.046-0.314-1.697-0.53-2.359-0.704c-2.006-0.528-4.02-1.029-6.024-1.563c-0.805-0.213-1.018-0.678-0.402-1.528
		c1.202,0.147,2.457,0.304,3.712,0.455c2.22,0.267,4.439,0.54,6.66,0.792c1.551,0.176,2.964-0.136,4.363-0.911
		c3.419-1.897,6.919-3.646,10.363-5.496C822.313,364.872,829.042,361.216,835.778,357.574z M413.734,602.818
		c-0.497-0.143-0.994-0.287-1.492-0.43c10.583-4.49,21.181-8.945,31.745-13.477c27.879-11.957,56.068-23.211,83.354-36.52
		c8.757-4.271,17.466-8.643,26.188-12.986c0.863-0.43,1.831-0.803,2.307-1.938c-0.585-0.035-0.982-0.078-1.378-0.078
		c-9.28-0.004-18.56-0.035-27.838,0.035c-1.23,0.01-2.527,0.379-3.675,0.861c-13.689,5.754-27.33,11.627-41.039,17.336
		c-9.65,4.018-19.105,8.541-29.149,11.572c-0.601,0.182-1.216,0.318-1.824,0.477c-0.057-0.146-0.113-0.291-0.17-0.438
		c1.076-0.652,2.116-1.373,3.236-1.938c1.353-0.682,2.771-1.234,4.166-1.832c18.341-7.871,36.684-15.736,55.024-23.61
		c1.298-0.557,2.667-1.031,3.558-2.626c-1.208-0.405-2.287-0.852-3.408-1.128c-5.271-1.304-10.562-2.525-15.829-3.846
		c-3.482-0.873-6.991-1.697-10.387-2.843c-3.728-1.257-5.126-4.44-3.667-8.062c1.241-3.077,3.074-5.697,6.032-7.524
		c7.495-4.628,15.173-8.857,23.51-11.795c0.797-0.28,1.565-0.644,2.734-1.129c-1.141-0.334-1.801-0.547-2.472-0.719
		c-13.922-3.572-27.865-7.062-41.759-10.738c-7.889-2.088-15.82-3.896-23.933-4.794c-6.352-0.703-12.72-1.269-19.082-1.877
		c-2.501-0.238-5.007-0.428-7.896-0.672c1.515-1.32,3.055-1.395,4.48-1.59c8.782-1.208,17.586-1.102,26.25,0.677
		c8.83,1.812,17.589,4.004,26.311,6.292c12.664,3.323,25.267,6.881,37.895,10.343c3.727,1.021,7.412,0.868,11.101-0.248
		c4.736-1.432,9.488-2.814,14.243-4.187c4.603-1.328,9.225-2.592,13.817-3.955c0.509-0.151,0.881-0.769,1.316-1.17
		c-0.428-0.374-0.824-0.798-1.295-1.106c-0.322-0.211-0.749-0.265-1.13-0.384c-11.73-3.681-23.462-7.356-35.191-11.041
		c-20.18-6.34-40.32-12.809-60.549-18.986c-14.512-4.431-29.239-8.092-44.129-11.052c-6.019-1.196-12.056-2.305-18.084-3.453
		c1.719-0.27,3.446-0.424,5.17-0.399c10.675,0.15,21.229,1.427,31.5,4.323c10.218,2.881,20.347,6.09,30.468,9.303
		c27.544,8.742,55.072,17.534,82.583,26.378c4.556,1.465,9.005,3.266,13.482,4.967c1.78,0.676,3.496,0.796,5.373,0.331
		c9.919-2.459,19.861-4.827,29.79-7.249c0.784-0.191,1.526-0.557,2.84-1.048c-4.043-2.947-7.335-6.005-11.175-8.02
		c-10.248-5.377-20.568-10.673-31.151-15.339c-27.46-12.107-56.271-19.856-85.686-25.44c-18.997-3.607-38.07-6.769-57.312-8.817
		c-9.303-0.991-18.628-1.758-27.98-1.692c-8.146,0.057-16.291,0.483-24.432,0.853c-7.199,0.326-14.315,1.363-21.323,3.038
		c-2.401,0.573-4.774,1.323-7.085,2.193c-1.691,0.637-1.854,1.542-0.793,2.957c0.428,0.57,0.958,1.068,1.474,1.567
		c3.733,3.616,7.455,7.244,11.216,10.83c5.846,5.575,11.729,11.12,18.323,15.818c20.053,14.289,40.142,28.528,60.219,42.782
		c6.322,4.488,12.78,8.798,18.945,13.492c6.784,5.164,12.319,11.614,17.498,18.354c0.408,0.531,0.593,1.234,0.882,1.858
		c-0.123,0.06-0.245,0.119-0.368,0.18c-4.292-3.403-8.584-6.807-12.958-10.276c-0.454,0.731-0.844,1.242-1.111,1.811
		c-3.116,6.635-8.149,11.655-13.909,15.917c-12.79,9.461-25.636,18.85-38.615,28.049c-8.542,6.055-17.504,11.529-25.409,18.447
		c-10.828,9.475-21.586,19.031-32.338,28.596c-0.68,0.604-1.313,1.5-1.517,2.365c-1.624,6.896-1.309,8.08,5.819,9.438
		c4.266,0.813,8.445,0.123,12.597-0.76c14.686-3.121,29.384-6.188,44.038-9.455c13.567-3.025,27.023-6.514,40.052-11.422
		c31.533-11.879,62.866-24.256,93.609-38.078c21.132-9.502,41.929-19.686,62.173-30.972c0.871-0.485,1.701-1.043,3.032-1.865
		c-1.88-0.255-3.131-0.586-4.377-0.567c-8.071,0.119-16.14,0.313-24.21,0.486c-1.2,0.026-2.162,0.476-2.755,1.587
		c-1.812,3.4-4.772,5.572-8.088,7.253c-11.964,6.064-23.775,12.482-35.995,17.988c-21.979,9.902-44.191,19.293-66.353,28.787
		c-6.304,2.701-12.667,5.352-19.194,7.422C426.424,600.162,420.023,601.314,413.734,602.818z M1247.604,502.449
		c-1.285-4.36-2.581-8.717-3.853-13.081c-3.363-11.544-5.21-23.363-5.691-35.344c-0.484-12.054-0.349-24.129,1.335-36.112
		c0.886-6.309,1.806-12.632,3.157-18.852c2.754-12.674,7.83-24.466,14.397-35.624c5.999-10.189,12.014-20.37,18.041-30.542
		c5.95-10.041,12.177-19.898,19.325-29.147c1.106-1.433,2.084-2.966,3.421-4.882c-2.122-0.188-3.76-0.351-5.399-0.475
		c-5.882-0.445-11.758-1.094-17.646-1.252c-5.74-0.155-11.494,0.209-17.242,0.323c-8.626,0.171-17.253,0.304-25.879,0.492
		c-5.508,0.119-11.014,0.309-16.521,0.469c-5.507,0.16-11.014,0.306-16.521,0.492c-3.589,0.122-7.176,0.304-10.763,0.465
		c-7.415,0.334-14.829,0.68-22.244,1.006c-4.706,0.207-9.414,0.37-14.12,0.585c-2.868,0.13-5.736,0.302-8.602,0.488
		c-6.604,0.429-13.206,0.895-19.812,1.313c-5.254,0.333-10.508,0.649-15.766,0.918c-6.934,0.354-13.868,0.679-20.805,0.969
		c-4.865,0.203-9.733,0.342-14.601,0.48c-7.187,0.206-14.373,0.387-21.56,0.579c-0.64,0.017-1.281,0.01-1.918,0.057
		c-6.044,0.439-12.09,0.853-18.128,1.348c-3.575,0.293-7.173,0.521-10.701,1.126c-8.246,1.414-16.466,2.987-24.678,4.588
		c-17.457,3.402-34.745,7.537-51.993,11.875c-16.534,4.158-32.517,9.904-48.343,16.143c-11.661,4.596-23.316,9.21-34.921,13.945
		c-9.313,3.8-18.687,7.497-27.786,11.766c-16.742,7.855-32.516,17.428-47.751,27.913c-8.486,5.841-17.005,11.661-25.78,17.049
		c-12.049,7.396-24.289,14.489-36.57,21.497c-11.726,6.691-23.541,13.235-35.441,19.61c-12.342,6.612-25.166,12.162-38.474,16.571
		c-5.304,1.758-10.569,3.639-15.825,5.535c-8.862,3.196-17.746,6.329-26.905,8.577c-13.167,3.23-26.375,6.296-39.524,9.598
		c-11.139,2.796-22.267,5.658-33.311,8.803c-10.992,3.129-21.611,7.36-32.105,11.875c-3.08,1.325-6.086,2.858-8.087,5.749
		c-0.691,0.659-1.455,1.26-2.059,1.991c-1.511,1.829-1.226,2.681,1.035,3.379c0.153,0.047,0.302,0.106,0.457,0.147
		c4.781,1.287,9.552,2.61,14.345,3.849c6.672,1.724,13.429,2.973,20.352,2.841c6.869-0.131,13.745-0.256,20.601-0.665
		c7.653-0.455,15.288-1.215,22.929-1.864c7.401-0.629,14.792-1.676,22.203-1.841c11.102-0.246,22.221-0.035,33.326,0.261
		c13.577,0.36,27.146,1.02,40.719,1.531c10.618,0.4,21.236,0.84,31.857,1.138c9.188,0.258,18.39,0.132,27.568,0.554
		c11.491,0.529,22.985,1.209,34.438,2.26c11.852,1.088,23.672,2.565,35.475,4.114c15.288,2.006,30.548,4.215,45.811,6.405
		c16.132,2.316,32.261,4.658,48.374,7.096c9.804,1.482,19.508,3.488,28.795,7.063c27.644,10.635,55.342,21.139,82.861,32.086
		c20.887,8.309,42.169,14.855,64.6,17.217c9.391,0.988,18.822,1.65,28.242,0.918c13.461-1.045,26.892-2.477,40.338-3.711
		c11.856-1.086,23.715-2.152,35.577-3.186c10.351-0.902,20.69-1.895,30.94-3.641c8.978-1.529,17.926-3.254,26.933-4.576
		c8.219-1.205,16.488-2.09,24.755-2.924c10.415-1.051,20.85-1.896,31.275-2.85c3.24-0.295,6.477-0.646,9.719-0.973
		c0.106-1.66-0.852-2.568-1.604-3.568c-4.666-6.193-9.415-12.326-13.985-18.588c-10.994-15.061-20.098-31.132-25.887-48.959
		C1250.649,510.676,1249.076,506.579,1247.604,502.449z M1345.012,585.555c0-0.008,0-0.014,0-0.02c1.119,0,2.24-0.035,3.358,0.006
		c7.978,0.285,15.792-0.68,23.434-3.014c15.432-4.717,30.804-9.6,45.972-15.129c11.282-4.113,22.385-8.553,32.671-14.854
		c2.302-1.41,4.85-2.443,7.346-3.504c5.108-2.172,10.506-3.293,15.957-4.195c2.994-0.496,5.592-1.82,7.871-3.826
		c5.908-5.2,7.592-15.13,2.898-22.081c-3.131-4.636-5.982-9.46-8.921-14.224c-2.812-4.559-4.095-9.576-3.772-14.884
		c0.514-8.446,3.876-15.709,10.35-21.176c5.342-4.511,10.152-9.492,14.827-14.648c5.27-5.814,5.288-5.794,4.999-13.681
		c-0.174-4.741-1.418-9.105-4.179-13.045c-7.821-11.16-16.407-21.673-26.134-31.234c-6.787-6.672-13.52-13.4-20.394-19.981
		c-6.41-6.136-12.771-12.35-19.515-18.104c-12.469-10.638-25.132-21.05-37.844-31.397c-13.137-10.693-28.062-17.722-44.75-20.793
		c-15.179-2.793-30.541-4.275-45.844-6.181c-1.359-0.17-2.328,0.445-3.183,1.312c-0.497,0.504-0.868,1.146-1.234,1.763
		c-12.386,20.819-24.778,41.635-37.139,62.47c-4.33,7.299-8.182,14.828-10.911,22.902c-4.597,13.604-6.461,27.671-7.044,41.927
		c-0.431,10.548-0.322,21.098,0.754,31.627c0.97,9.481,2.414,18.887,5.191,27.999c2.606,8.554,5.643,16.978,8.587,25.425
		c2.58,7.399,5.338,14.737,9.211,21.584c6.39,11.294,13.621,22.039,21.527,32.32c3.801,4.943,7.814,9.721,11.734,14.574
		c1.39,1.721,3.143,2.662,5.406,2.57c0.877-0.035,1.761,0.074,2.638,0.043c8.442-0.297,16.894,0.516,25.341-0.482
		C1337.771,585.205,1341.412,585.555,1345.012,585.555z M1135.762,294.997c-0.223-0.462-0.29-0.687-0.423-0.862
		c-4.729-6.246-9.522-12.442-14.182-18.739c-5.955-8.051-12.129-15.893-19.776-22.448c-0.208-0.178-0.294-0.499-0.752-1.317
		c1.639,0.469,2.783,0.687,3.836,1.125c1.397,0.583,2.712,1.36,4.081,2.015c2.652,1.266,4.831,3.052,6.537,5.475
		c6.214,8.823,12.492,17.601,18.708,26.423c1.72,2.441,3.81,4.715,3.899,8.038c4.071-0.143,7.898-0.306,11.727-0.404
		c12.861-0.334,25.723-0.659,38.585-0.961c11.985-0.281,23.972-0.523,35.956-0.793c3.035-0.068,6.068-0.181,9.102-0.264
		c0.748-0.021,1.511,0.01,1.317-1.289c-0.67-0.218-1.425-0.424-2.15-0.707c-3.951-1.544-7.839-3.211-11.139-5.974
		c-9.493-7.947-20.2-13.661-31.951-17.507c-16.235-5.313-32.447-10.67-48.241-17.247c-17.144-7.141-35.122-9.824-53.64-9.316
		c-6.56,0.18-13.083,0.617-19.581,1.544c-16.665,2.379-32.19,7.959-46.684,16.477c-7.469,4.389-14.272,9.684-20.961,15.162
		c-12.964,10.618-27.102,19.512-41.596,27.854c-11.772,6.775-23.584,13.481-35.371,20.23c-0.998,0.571-1.94,1.238-2.838,1.816
		c0.148,0.389,0.168,0.469,0.208,0.536c0.039,0.066,0.095,0.126,0.152,0.178c0.058,0.051,0.142,0.139,0.19,0.125
		c33.921-9.519,68.063-18.04,103.014-22.928c0.392-0.055,0.773-0.189,1.158-0.294c0.075-0.021,0.166-0.056,0.206-0.113
		c0.036-0.055,0.015-0.149,0.026-0.403c-5.954-6.896-11.992-13.891-18.332-21.232c1.026,0.168,1.576,0.206,2.096,0.351
		c3.333,0.932,5.714,3.16,7.635,5.885c3.039,4.31,6.012,8.669,8.922,13.068c1.124,1.699,2.454,2.611,4.561,2.396
		c2.063-0.212,4.144-0.287,6.219-0.354c13.578-0.435,27.156-0.848,40.734-1.281c0.521-0.017,1.04-0.165,1.979-0.323
		c-0.556-0.964-0.877-1.732-1.378-2.356c-4.76-5.921-9.55-11.816-14.331-17.72c-2.064-2.547-4.128-5.095-6.195-7.639
		c-0.485-0.598-0.972-1.182,0.173-1.699c4.012,2.741,7.832,5.714,10.616,9.847c1.519,2.253,3.213,4.386,4.77,6.613
		c2.29,3.276,4.55,6.574,6.777,9.893c1.484,2.211,3.404,3.018,6.122,2.79c11.546-0.968,23.105-1.774,34.662-2.618
		C1125.298,295.675,1130.391,295.358,1135.762,294.997z M908.551,565.998c0.239,0.043,0.479,0.088,0.72,0.131
		c-0.107,0.908-0.186,1.82-0.327,2.723c-0.892,5.68-1.894,11.344-2.673,17.039c-1.138,8.313-2.111,16.645-3.168,24.967
		c-0.59,4.639-0.38,5.582,4.227,7.424c9.586,3.832,19.403,5.307,29.574,3.084c7.801-1.703,15.558-3.604,23.327-5.445
		c17.559-4.164,34.904-9.242,52.731-12.252c0.232-0.039,0.431-0.275,0.867-0.568c-2.043-0.814-3.811-1.535-5.59-2.227
		c-16.898-6.543-33.835-12.99-50.687-19.65c-13.512-5.342-26.865-11.09-40.675-15.65c-11.932-3.939-24.063-7.012-36.571-8.52
		c-7.771-0.938-15.514-2.096-23.271-3.152c-1.361-0.186-2.727-0.354-4.09-0.529c-0.082,0.158-0.162,0.316-0.244,0.475
		c0.603,0.502,1.234,0.971,1.799,1.512c0.635,0.605,1.194,1.289,1.811,1.916c9.196,9.363,16.811,19.871,22.908,31.496
		c3.54,6.748,7.893,12.969,12.681,18.885c2.024,2.502,4.399,4.641,7.157,6.324c0.655,0.398,1.354,0.725,2.089,1.115
		c0.107-0.412,0.195-0.568,0.18-0.713c-0.786-7.371-0.433-14.713,1.035-21.953c1.696-8.373,3.678-16.688,5.558-25.021
		C908.03,566.914,908.336,566.467,908.551,565.998z M1202.956,605.721c3.01,2.611,5.592,4.988,8.319,7.184
		c5.164,4.158,10.182,8.557,15.678,12.23c9.443,6.313,19.5,6.973,29.76,1.75c3.061-1.557,6.162-3.043,9.155-4.721
		c3.06-1.717,6.188-3.395,8.974-5.502c9.055-6.848,17.964-13.885,26.939-20.838c0.3-0.232,0.702-0.334,1.057-0.496
		c-0.123-0.207-0.247-0.412-0.37-0.619c-1.241-0.068-2.485-0.227-3.724-0.189c-5.91,0.182-11.828,0.264-17.724,0.668
		c-7.81,0.535-15.613,1.225-23.397,2.055c-8.817,0.941-17.631,1.977-26.409,3.225c-7.826,1.111-15.607,2.541-23.397,3.896
		C1206.292,604.629,1204.819,605.191,1202.956,605.721z M602.408,561.713c-0.155-0.184-0.31-0.367-0.464-0.549
		c0.835-0.727,1.648-1.48,2.509-2.176c9.142-7.391,18.291-14.771,27.438-22.153c0.187-0.15,0.416-0.259,0.573-0.433
		c0.604-0.67,0.378-1.415-0.502-1.574c-0.466-0.085-0.957-0.042-1.437-0.042c-7.679-0.002-15.359,0.027-23.038-0.021
		c-2.1-0.013-3.66,0.717-4.889,2.444c-1.808,2.539-3.829,4.928-5.608,7.487c-5.066,7.281-10.068,14.607-15.059,21.941
		c-0.623,0.916-1.163,1.934-1.51,2.98c-0.517,1.561,0.039,2.279,1.641,2.414c0.396,0.033,0.806,0.035,1.197-0.025
		c6.401-0.982,12.781-2.076,18.826-4.518c14.952-6.039,29.897-12.094,44.833-18.174c7.987-3.25,15.951-6.555,23.917-9.856
		c0.72-0.298,1.655-0.393,2.004-1.471c-0.865-0.122-1.568-0.271-2.276-0.313c-9.093-0.526-18.19-0.986-27.279-1.584
		c-2.885-0.189-5.286,0.63-7.578,2.319c-9.076,6.687-18.176,13.343-27.332,19.919C606.53,559.658,604.404,560.596,602.408,561.713z
		 M660.255,458.313c-0.232-1.286-1.112-1.25-1.871-1.413c-3.277-0.706-6.569-1.35-9.826-2.138
		c-14.507-3.51-29.02-6.998-43.498-10.626c-6.704-1.681-13.386-2.143-20.154-0.634c-1.161,0.259-2.36,0.531-3.408,1.062
		c-1.761,0.892-2.381,2.568-1.75,4.45c0.3,0.894,0.679,1.856,1.302,2.528c2.166,2.336,4.222,4.867,6.741,6.765
		c7.019,5.286,14.27,10.264,21.38,15.43c1.652,1.201,3.29,1.453,5.17,0.801c3.541-1.229,7.095-2.424,10.643-3.634
		c1.67-0.57,3.339-1.144,5.417-1.854c-8.914-5.361-17.55-10.225-26.282-15.571c2.312-1.079,4.231-1.263,6.168-0.432
		c1.242,0.532,2.471,1.124,3.629,1.817c6.032,3.607,12.053,7.234,18.047,10.904c1.905,1.166,3.729,1.385,5.893,0.593
		c6.818-2.495,13.698-4.818,20.549-7.223C659.051,458.913,659.659,458.583,660.255,458.313z M705.429,538.179
		c-2.935-0.24-6.122,0.589-8.244,2.401c-3.595,3.068-6.835,6.49-9.592,10.342c-0.554,0.775-1.057,1.617-1.41,2.496
		c-0.58,1.447,0.025,2.48,1.539,2.439c3.112-0.084,6.28-0.174,9.06-1.826c6.041-3.586,12.05-7.229,18.044-10.895
		c1.77-1.084,2.99-2.705,4.251-4.797c-1.791,0-3.221,0.053-4.646-0.013c-2.294-0.104-4.226,0.638-5.851,2.248
		c-1.305,1.295-2.608,2.592-3.961,3.836c-1.764,1.621-3.525,3.252-5.387,4.756c-0.998,0.805-2.117,1.629-3.935,1.207
		c0.584-0.727,0.981-1.287,1.444-1.787c2.657-2.873,5.329-5.734,7.998-8.597C705.213,539.478,705.893,539.047,705.429,538.179z
		 M701.743,437.432c-1.365-0.194-2.296-0.34-3.231-0.459c-6.511-0.825-13.027-1.321-19.56-0.237
		c-3.65,0.605-7.203,1.46-10.107,3.973c-1.415,1.225-1.518,2.053-0.064,3.047c3.919,2.682,8.155,4.436,13.036,3.528
		c2.98-0.554,5.651-1.825,8.195-4.122c-3.118-0.417-5.856-0.794-8.598-1.145c-1.028-0.132-2.075-0.182-2.625-1.593
		c0.553-0.252,1.11-0.736,1.636-0.705c2.938,0.179,6,0.031,8.771,0.843C693.959,441.959,697.768,440.626,701.743,437.432z"/>
	<path style="fill-rule:evenodd;clip-rule:evenodd;fill:#B7BAD6;" d="M1247.083,635.477c-0.013,0.156-0.015,0.313-0.008,0.467
		c-2.4,0-4.801,0-7.2,0c0.007-0.154,0.004-0.311-0.008-0.467C1242.272,635.477,1244.678,635.477,1247.083,635.477z"/>
	<path style="fill-rule:evenodd;clip-rule:evenodd;fill:#B7BAD6;" d="M1102.595,233.704c-0.044,0.143-0.048,0.287-0.012,0.433
		c-2.076-0.145-4.152-0.289-6.229-0.433C1098.435,233.704,1100.515,233.704,1102.595,233.704z"/>
	<path style="fill-rule:evenodd;clip-rule:evenodd;fill:#BCBEDA;" d="M1080.581,234.098c-1.298,0.015-2.596,0.029-3.893,0.044
		c0.041-0.148,0.036-0.294-0.014-0.438c1.279,0,2.56,0,3.84,0C1080.562,233.831,1080.583,233.962,1080.581,234.098z"/>
	<path style="fill-rule:evenodd;clip-rule:evenodd;fill:#494DA2;" d="M1080.581,234.098c0.002-0.136-0.02-0.268-0.066-0.395
		c0.96,0,1.92,0,2.88,0C1082.456,233.834,1081.519,233.966,1080.581,234.098z"/>
	<path style="fill-rule:evenodd;clip-rule:evenodd;fill:#494DA2;" d="M492.014,519.342c2.002-2.891,5.008-4.424,8.088-5.749
		c10.494-4.515,21.113-8.746,32.105-11.875c11.044-3.145,22.172-6.007,33.311-8.803c13.149-3.302,26.357-6.367,39.524-9.598
		c9.159-2.248,18.043-5.381,26.905-8.577c5.256-1.896,10.521-3.777,15.825-5.535c13.308-4.409,26.132-9.959,38.474-16.571
		c11.9-6.375,23.716-12.919,35.441-19.61c12.281-7.008,24.521-14.101,36.57-21.497c8.775-5.388,17.294-11.208,25.78-17.049
		c15.235-10.485,31.009-20.058,47.751-27.913c9.1-4.269,18.473-7.966,27.786-11.766c11.604-4.735,23.26-9.35,34.921-13.945
		c15.826-6.238,31.809-11.984,48.343-16.143c17.248-4.338,34.536-8.473,51.993-11.875c8.212-1.601,16.432-3.174,24.678-4.588
		c3.528-0.605,7.126-0.833,10.701-1.126c6.038-0.495,12.084-0.908,18.128-1.348c0.637-0.047,1.278-0.04,1.918-0.057
		c7.187-0.192,14.373-0.373,21.56-0.579c4.867-0.139,9.735-0.277,14.601-0.48c6.937-0.29,13.871-0.615,20.805-0.969
		c5.258-0.269,10.512-0.585,15.766-0.918c6.605-0.419,13.207-0.885,19.812-1.313c2.865-0.187,5.733-0.358,8.602-0.488
		c4.706-0.215,9.414-0.378,14.12-0.585c7.415-0.326,14.829-0.672,22.244-1.006c3.587-0.161,7.174-0.343,10.763-0.465
		c5.507-0.187,11.014-0.332,16.521-0.492c5.508-0.16,11.014-0.35,16.521-0.469c8.626-0.188,17.253-0.321,25.879-0.492
		c5.748-0.114,11.502-0.479,17.242-0.323c5.889,0.158,11.765,0.807,17.646,1.252c1.64,0.124,3.277,0.287,5.399,0.475
		c-1.337,1.916-2.314,3.449-3.421,4.882c-7.148,9.249-13.375,19.106-19.325,29.147c-6.027,10.172-12.042,20.353-18.041,30.542
		c-6.567,11.158-11.644,22.95-14.397,35.624c-1.352,6.22-2.271,12.543-3.157,18.852c-1.684,11.983-1.819,24.059-1.335,36.112
		c0.481,11.98,2.328,23.8,5.691,35.344c1.271,4.364,2.567,8.721,3.853,13.081c-2.069-0.151-4.136-0.358-6.207-0.443
		c-5.886-0.239-11.524,1.529-17.303,2.189c-5.705,0.651-11.388,1.506-17.093,2.146c-4.122,0.463-8.267,0.723-12.402,1.068
		c-7.645,0.64-15.298,1.005-22.972,0.747c-0.122-0.945-0.341-1.891-0.344-2.837c-0.005-1.475-0.467-2.569-1.771-3.405
		c-1.433-0.919-1.995-2.417-2.144-4.086c-0.134-1.504-0.323-3.004-0.462-4.508c-0.235-2.543-1.404-4.523-3.504-5.974
		c-0.721-0.498-1.411-1.04-2.115-1.563c-0.872-0.647-1.191-1.44-0.73-2.497c0.667-1.531,1.176-3.146,1.971-4.605
		c1.261-2.313,1.566-4.826,1.859-7.352c0.086-0.743,0.209-1.666-1.11-1.867c-0.232,0.442-0.502,0.903-0.724,1.386
		c-0.964,2.099-1.865,4.229-2.883,6.301c-0.877,1.787-1.963,3.474-2.807,5.275c-1.107,2.367-0.782,3.81,1.072,5.583
		c0.574,0.549,1.171,1.102,1.842,1.518c2.966,1.837,3.992,4.481,3.175,7.793c-0.756,3.063,0.356,5.386,2.79,7.023
		c1.678,1.129,2.761,2.584,3.601,4.324c-3.405,0.354-6.813,0.698-10.217,1.063c-4.829,0.517-9.657,1.048-14.485,1.574
		c-5.382,0.586-10.762,1.181-16.145,1.759c-4.115,0.441-8.229,0.907-12.352,1.279c-3.089,0.279-6.19,0.427-9.285,0.633
		c2.97-2.139,5.939-4.276,9.351-6.732c-1.476-0.181-2.398-0.294-3.321-0.407c-0.503-1.343-0.891-2.743-1.527-4.019
		c-4.598-9.219-9.233-18.418-13.9-27.602c-0.375-0.739-1.07-1.317-1.616-1.97c0.913-1.31-0.214-1.892-0.992-2.423
		c-2.438-1.667-4.926-3.266-7.429-4.835c-8.693-5.451-17.797-10.042-27.658-13.012c-11.454-3.449-22.993-6.569-34.664-9.218
		c-13.557-3.077-27.266-5.039-41.12-5.963c-5.57-0.371-11.173-0.24-16.75-0.543c-6.582-0.358-12.397,1.887-17.985,4.949
		c-3.54,1.94-4.111,5.181-1.648,8.43c0.384,0.506,0.792,1.035,1.299,1.4c2.977,2.138,5.811,4.554,9.013,6.283
		c15.599,8.425,31.297,16.666,46.966,24.962c2.293,1.214,2.668,1.936,2.088,4.394c-0.109,0.465-0.291,0.913-0.414,1.375
		c-1.023,3.852-2.143,7.681-3.032,11.563c-0.972,4.236-1.259,8.572-0.215,12.816c0.718,2.919,1.944,5.714,2.943,8.564
		c-4.058-0.236-8.115-0.473-12.173-0.709c-8.608-0.502-17.217-0.99-25.823-1.512c-5.419-0.328-10.841-0.638-16.252-1.077
		c-8.511-0.693-17.011-1.515-25.52-2.234c-7.953-0.672-15.909-1.307-23.868-1.911c-7.402-0.563-14.811-1.061-22.216-1.593
		c-2.39-0.172-4.777-0.353-7.165-0.545c-5.249-0.423-10.496-0.875-15.746-1.276c-5.096-0.39-10.195-0.707-15.29-1.098
		c-7.4-0.567-14.794-1.208-22.195-1.751c-7.006-0.514-14.017-0.953-21.026-1.407c-7.647-0.495-15.293-1.005-22.944-1.441
		c-6.457-0.369-12.916-0.712-19.378-0.941c-6.867-0.244-13.738-0.443-20.607-0.483c-19.597-0.113-39.195-0.117-58.792-0.211
		c-3.349-0.016-6.696-0.26-10.044-0.397c-0.083-0.471-0.133-0.949-0.254-1.409c-0.599-2.284-1.346-2.863-3.696-2.883
		c-0.719-0.006-1.441,0.068-2.156,0.018c-1.303-0.092-1.704-0.565-1.542-1.852c0.068-0.543,0.35-1.056,0.47-1.596
		c0.481-2.173,0.977-4.344,1.386-6.53c0.184-0.982,0.023-1.921-1.266-2.338c-0.239,0.38-0.572,0.741-0.716,1.166
		c-0.718,2.114-1.369,4.25-2.076,6.368c-0.48,1.438-1.087,2.836-1.506,4.29c-0.607,2.109-0.08,2.9,2.049,3.414
		c1.691,0.408,3.375,0.842,5.063,1.264c-0.637,0.028-1.274,0.093-1.911,0.08c-5.429-0.113-10.856-0.295-16.286-0.351
		c-9.816-0.101-19.634-0.225-29.451-0.156c-7.587,0.054-15.173,0.357-22.757,0.612c-2.311,0.077-4.62,0.306-6.919,0.563
		c-4.834,0.541-9.666,1.115-14.491,1.733c-6.408,0.822-12.817,1.643-19.21,2.568c-6.945,1.006-13.882,2.075-20.805,3.222
		c-8.967,1.484-17.918,3.069-26.875,4.618C500.175,517.906,496.095,518.627,492.014,519.342z M1165.269,356.087
		c-0.696,0.762-1.155,1.19-1.528,1.685c-2.305,3.061-4.616,6.117-6.874,9.212c-1.936,2.652-3.692,5.404-4.528,8.647
		c-0.88,3.42-0.437,6.492,2.192,9.041c0.917,0.889,1.832,1.785,2.813,2.602c2.441,2.035,2.535,2.921,0.887,5.683
		c-1.551,2.598-3.092,5.223-4.364,7.963c-1.589,3.422-1.167,4.814,1.602,7.246c1.636,1.438,1.818,2.521,0.724,4.412
		c-0.199,0.345-0.428,0.677-0.676,0.989c-1.64,2.063-2.569,4.444-2.756,7.033c-0.279,3.87,1.369,7.653,4.93,9.346
		c0.792,0.376,1.746,0.413,2.737,0.63c0.266-1.971-0.279-3.265-1.408-4.427c-1.994-2.052-2.687-4.47-1.815-7.264
		c0.332-1.065,0.596-2.152,0.952-3.209c0.534-1.588,1.177-3.142,1.675-4.74c0.595-1.91,0.753-3.643-1.21-5.117
		c-1.572-1.181-1.638-2.41-0.764-4.284c0.572-1.228,1.243-2.413,1.926-3.586c1.205-2.07,2.523-4.077,3.661-6.182
		c1.167-2.159,0.93-3.428-0.84-5.124c-1.556-1.489-3.229-2.855-4.779-4.35c-1.516-1.461-2.151-3.272-2.053-5.414
		c0.105-2.282,1.266-4.104,2.373-5.935c1.943-3.21,4.004-6.349,6.008-9.521C1165.098,359.925,1165.863,358.377,1165.269,356.087z
		 M854.117,421.788c-0.332,1.554-0.706,2.695-0.794,3.858c-0.129,1.729-0.384,3.548,0,5.192c0.733,3.14,3.432,4.184,6.237,4.887
		c1.376,0.345,2.766,0.63,4.149,0.942c0.092,1.485,0.308,2.976,0.254,4.456c-0.222,6.098,4.442,7.385,8.281,7.097
		c0.488-0.036,0.941-0.55,1.587-0.951c-0.584-0.518-0.843-0.835-1.175-1.024c-0.62-0.352-1.273-0.65-1.929-0.934
		c-2.759-1.193-4.037-3.249-3.809-6.249c0.054-0.71,0.285-1.403,0.388-2.111c0.348-2.392-0.372-3.435-2.738-3.911
		c-0.62-0.125-1.283-0.036-1.904-0.158c-1.323-0.261-2.69-0.446-3.933-0.935c-2.204-0.866-3.103-2.66-2.577-5.001
		c0.364-1.625,0.942-3.202,1.403-4.807c0.721-2.511-0.45-4.088-3.045-4.111c-0.479-0.004-0.958,0.039-1.437,0.067
		c-2.544,0.148-5.086,0.386-7.632,0.428c-4.12,0.069-4.471-0.438-3.22-4.446c1.401-4.493,2.864-8.967,4.29-13.452
		c0.208-0.655,0.356-1.329,0.55-2.06c-1.259-0.423-1.495,0.339-1.789,1.104c-1.057,2.757-2.18,5.488-3.203,8.257
		c-1.136,3.067-2.257,6.144-3.256,9.258c-0.748,2.33,0.085,3.692,2.457,4.234c1,0.229,2.046,0.339,3.072,0.354
		C847.449,421.816,850.552,421.788,854.117,421.788z M864.205,493.418c-0.353,0.408-0.593,0.623-0.75,0.887
		c-0.159,0.268-0.32,0.579-0.337,0.879c-0.18,3.25-0.48,6.503-0.436,9.751c0.027,2.045,1.387,3.431,3.461,3.67
		c2.756,0.316,5.354,0.757,7.116,3.189c0.045,0.062,0.123,0.102,0.189,0.146c1.345,0.889,2.763,0.313,3.051-1.261
		c0.395-2.162-1.04-5.644-4.273-5.35c-0.869,0.079-1.753,0.023-2.629,0.005c-2.589-0.053-3.419-0.824-3.579-3.41
		c-0.084-1.351,0.031-2.719-0.124-4.059C865.718,496.337,865.835,494.647,864.205,493.418z M1238.888,318.819
		c-0.121-0.125-0.242-0.249-0.363-0.374c-1.29,1.273-2.585,2.542-3.869,3.82c-2.942,2.927-5.929,5.812-8.802,8.805
		c-1.875,1.954-1.646,3.938,0.616,5.426c1.112,0.731,2.424,1.192,3.691,1.649c1.329,0.479,2.702,0.852,4.08,1.17
		c0.465,0.108,1.184,0.098,1.472-0.183c0.892-0.865,0.405-2.685-0.783-3.142c-0.589-0.228-1.224-0.375-1.852-0.458
		c-1.871-0.249-3.49-1.021-5.07-2.251C1230.677,327.699,1235.707,323.933,1238.888,318.819z M1230.909,357.343
		c1.362-2.78,1.247-3.91-0.238-5.79c-1.723-2.177-1.705-2.545,0.015-4.737c1.081-1.378,2.128-2.786,3.132-4.222
		c0.179-0.256,0.07-0.712,0.095-1.076c-0.422,0.011-1.015-0.155-1.238,0.061c-1.896,1.825-3.762,3.685-5.553,5.612
		c-0.738,0.795-1.058,1.918-0.515,2.905C1227.899,352.445,1229.335,354.714,1230.909,357.343z M1227.085,379.969
		c0.572-0.914,0.317-1.791-0.138-2.661c-0.707-1.353-0.694-2.732-0.199-4.147c0.313-0.898,0.646-1.798,0.859-2.722
		c0.349-1.509,0.534-3.036,0.001-4.644c-0.392,0.158-0.719,0.186-0.788,0.334c-1.245,2.647-2.737,5.223-3.606,7.991
		C1222.282,377.092,1224.044,379.438,1227.085,379.969z"/>
	<path style="fill-rule:evenodd;clip-rule:evenodd;fill:#9698C3;" d="M1345.012,585.555c-3.6,0-7.24-0.35-10.79,0.068
		c-8.447,0.998-16.898,0.186-25.341,0.482c-0.877,0.031-1.761-0.078-2.638-0.043c-2.264,0.092-4.017-0.85-5.406-2.57
		c-3.92-4.854-7.934-9.631-11.734-14.574c-7.906-10.281-15.138-21.025-21.527-32.32c-3.873-6.847-6.631-14.185-9.211-21.584
		c-2.944-8.447-5.98-16.871-8.587-25.425c-2.777-9.112-4.222-18.518-5.191-27.999c-1.076-10.529-1.185-21.079-0.754-31.627
		c0.583-14.256,2.447-28.322,7.044-41.927c2.729-8.074,6.581-15.604,10.911-22.902c12.36-20.835,24.753-41.65,37.139-62.47
		c0.366-0.616,0.737-1.259,1.234-1.763c0.854-0.866,1.823-1.481,3.183-1.312c15.303,1.905,30.665,3.388,45.844,6.181
		c16.688,3.071,31.613,10.1,44.75,20.793c12.712,10.348,25.375,20.76,37.844,31.397c6.744,5.755,13.104,11.969,19.515,18.104
		c6.874,6.581,13.606,13.31,20.394,19.981c9.727,9.562,18.313,20.074,26.134,31.234c2.761,3.939,4.005,8.304,4.179,13.045
		c0.289,7.887,0.271,7.866-4.999,13.681c-4.675,5.156-9.485,10.138-14.827,14.648c-6.474,5.467-9.836,12.729-10.35,21.176
		c-0.322,5.308,0.961,10.325,3.772,14.884c2.938,4.764,5.79,9.588,8.921,14.224c4.693,6.95,3.01,16.881-2.898,22.081
		c-2.279,2.006-4.877,3.33-7.871,3.826c-5.451,0.902-10.849,2.023-15.957,4.195c-2.496,1.061-5.044,2.094-7.346,3.504
		c-10.286,6.301-21.389,10.74-32.671,14.854c-15.168,5.529-30.54,10.412-45.972,15.129c-7.642,2.334-15.456,3.299-23.434,3.014
		c-1.118-0.041-2.239-0.006-3.358-0.006C1345.012,585.541,1345.012,585.547,1345.012,585.555z M1343.379,397.598
		c-9.507-0.014-17.448,3.5-22.935,10.268c-8.865,10.936-9.107,27.085,2.033,37.541c7.021,6.589,15.431,8.66,24.839,6.893
		c8.224-1.544,14.05-6.189,17.594-13.714c1.714-3.64,2.769-7.497,3.102-11.503c0.218-2.608,0.644-5.345,0.116-7.843
		c-1.893-8.963-7.639-15.063-15.461-19.381C1349.747,398.247,1346.567,397.53,1343.379,397.598z"/>
	<path style="fill-rule:evenodd;clip-rule:evenodd;fill:#BCBEDA;" d="M1171.627,508.156c7.674,0.258,15.327-0.107,22.972-0.747
		c4.136-0.346,8.28-0.605,12.402-1.068c5.705-0.64,11.388-1.494,17.093-2.146c5.778-0.66,11.417-2.429,17.303-2.189
		c2.071,0.085,4.138,0.292,6.207,0.443c1.473,4.13,3.046,8.228,4.399,12.396c5.789,17.827,14.893,33.899,25.887,48.959
		c4.57,6.262,9.319,12.395,13.985,18.588c0.753,1,1.711,1.908,1.604,3.568c-3.242,0.326-6.479,0.678-9.719,0.973
		c-10.426,0.953-20.86,1.799-31.275,2.85c-8.267,0.834-16.536,1.719-24.755,2.924c-9.007,1.322-17.955,3.047-26.933,4.576
		c-10.25,1.746-20.59,2.738-30.94,3.641c-11.862,1.033-23.721,2.1-35.577,3.186c-13.446,1.234-26.877,2.666-40.338,3.711
		c-9.42,0.732-18.852,0.07-28.242-0.918c-22.431-2.361-43.713-8.908-64.6-17.217c-27.52-10.947-55.218-21.451-82.861-32.086
		c-9.287-3.574-18.991-5.58-28.795-7.063c-16.113-2.438-32.242-4.779-48.374-7.096c-15.263-2.189-30.523-4.399-45.811-6.405
		c-11.803-1.549-23.624-3.026-35.475-4.114c-11.453-1.051-22.948-1.73-34.438-2.26c-9.178-0.422-18.38-0.296-27.568-0.554
		c-10.621-0.298-21.239-0.737-31.857-1.138c-13.573-0.512-27.142-1.171-40.719-1.531c-11.105-0.296-22.224-0.507-33.326-0.261
		c-7.411,0.165-14.801,1.212-22.203,1.841c-7.641,0.649-15.276,1.409-22.929,1.864c-6.856,0.409-13.731,0.534-20.601,0.665
		c-6.923,0.132-13.68-1.117-20.352-2.841c-4.793-1.238-9.564-2.562-14.345-3.849c-0.154-0.041-0.304-0.101-0.457-0.147
		c-2.261-0.698-2.546-1.55-1.035-3.379c0.604-0.731,1.368-1.332,2.059-1.991c4.081-0.715,8.161-1.437,12.244-2.143
		c8.957-1.549,17.908-3.134,26.875-4.618c6.923-1.146,13.86-2.216,20.805-3.222c6.393-0.926,12.802-1.746,19.21-2.568
		c4.825-0.618,9.657-1.192,14.491-1.733c2.299-0.257,4.608-0.485,6.919-0.563c7.584-0.255,15.17-0.559,22.757-0.612
		c9.816-0.068,19.634,0.056,29.451,0.156c5.429,0.056,10.857,0.237,16.286,0.351c0.636,0.013,1.274-0.052,1.911-0.08
		c0.462,0.057,0.924,0.113,1.386,0.17c0.97,0.416,1.938,0.779,2.872-0.084l-0.014,0.002c3.348,0.138,6.695,0.382,10.044,0.397
		c19.597,0.094,39.195,0.098,58.792,0.211c6.87,0.04,13.741,0.239,20.607,0.483c6.462,0.229,12.922,0.572,19.378,0.941
		c7.65,0.437,15.297,0.946,22.944,1.441c7.01,0.454,14.021,0.894,21.026,1.407c7.401,0.543,14.795,1.184,22.195,1.751
		c5.095,0.391,10.194,0.708,15.29,1.098c5.25,0.401,10.497,0.854,15.746,1.276c2.388,0.192,4.775,0.373,7.165,0.545
		c7.405,0.532,14.813,1.03,22.216,1.593c7.959,0.604,15.915,1.239,23.868,1.911c8.509,0.72,17.009,1.541,25.52,2.234
		c5.411,0.439,10.833,0.749,16.252,1.077c8.606,0.521,17.215,1.01,25.823,1.512c4.058,0.236,8.115,0.473,12.173,0.709
		c0.627,0.614,1.298,1.19,1.874,1.85c2.425,2.777,4.891,5.464,8.359,7.041c1.562,0.71,2.323,2.127,2.191,3.935
		c-0.139,1.91-0.35,3.826-0.319,5.736c0.057,3.688,1.512,6.725,4.831,8.537c3.877,2.119,8.075,2.877,12.489,2.541
		c3.218-0.244,5.929-1.818,8.713-3.189c13.829-6.813,27.642-13.66,40.924-21.511c7.215-4.265,14.369-8.632,21.551-12.952
		c3.096-0.206,6.197-0.354,9.286-0.633c4.122-0.372,8.236-0.838,12.352-1.279c5.383-0.578,10.763-1.173,16.145-1.759
		c4.828-0.526,9.656-1.058,14.485-1.574c3.404-0.364,6.812-0.709,10.217-1.063C1170.104,508.496,1170.865,508.326,1171.627,508.156z
		"/>
	<path style="fill-rule:evenodd;clip-rule:evenodd;fill:#D2D3E4;" d="M413.734,602.818c6.29-1.504,12.69-2.656,18.838-4.605
		c6.527-2.07,12.89-4.721,19.194-7.422c22.162-9.494,44.374-18.885,66.353-28.787c12.22-5.506,24.03-11.924,35.995-17.988
		c3.316-1.682,6.277-3.854,8.088-7.253c0.593-1.111,1.555-1.561,2.755-1.587c8.07-0.174,16.139-0.367,24.21-0.486
		c1.246-0.019,2.497,0.313,4.377,0.567c-1.332,0.822-2.162,1.38-3.032,1.865c-20.244,11.287-41.041,21.47-62.173,30.972
		c-30.743,13.822-62.076,26.199-93.609,38.078c-13.029,4.908-26.485,8.396-40.052,11.422c-14.653,3.268-29.352,6.334-44.038,9.455
		c-4.152,0.883-8.331,1.572-12.597,0.76c-7.128-1.357-7.443-2.541-5.819-9.438c0.204-0.865,0.837-1.762,1.517-2.365
		c10.752-9.564,21.51-19.121,32.338-28.596c7.904-6.918,16.867-12.393,25.409-18.447c12.979-9.199,25.825-18.588,38.615-28.049
		c5.759-4.261,10.793-9.282,13.909-15.917c0.267-0.568,0.658-1.079,1.111-1.811c4.375,3.47,8.667,6.873,12.958,10.276
		c0.123-0.061,0.245-0.12,0.368-0.18c-0.289-0.624-0.474-1.327-0.882-1.858c-5.179-6.74-10.714-13.19-17.498-18.354
		c-6.166-4.694-12.623-9.004-18.945-13.492c-20.077-14.254-40.166-28.493-60.219-42.782c-6.594-4.698-12.477-10.243-18.323-15.818
		c-3.761-3.586-7.483-7.214-11.216-10.83c-0.515-0.499-1.046-0.997-1.474-1.567c-1.062-1.415-0.898-2.32,0.793-2.957
		c2.311-0.87,4.684-1.62,7.085-2.193c7.008-1.675,14.124-2.712,21.323-3.038c8.141-0.369,16.286-0.796,24.432-0.853
		c9.352-0.065,18.677,0.701,27.98,1.692c19.242,2.049,38.315,5.21,57.312,8.817c29.415,5.584,58.225,13.333,85.686,25.44
		c10.583,4.666,20.904,9.962,31.151,15.339c3.839,2.015,7.132,5.072,11.175,8.02c-1.314,0.491-2.056,0.856-2.84,1.048
		c-9.929,2.422-19.871,4.79-29.79,7.249c-1.876,0.465-3.593,0.345-5.373-0.331c-4.477-1.701-8.926-3.502-13.482-4.967
		c-27.511-8.844-55.04-17.636-82.583-26.378c-10.121-3.213-20.25-6.422-30.468-9.303c-10.271-2.896-20.824-4.173-31.5-4.323
		c-1.724-0.024-3.451,0.13-5.17,0.399c6.028,1.148,12.065,2.257,18.084,3.453c14.89,2.96,29.617,6.621,44.129,11.052
		c20.229,6.178,40.369,12.646,60.549,18.986c11.729,3.685,23.461,7.36,35.191,11.041c0.381,0.119,0.808,0.173,1.13,0.384
		c0.471,0.309,0.867,0.732,1.295,1.106c-0.435,0.401-0.807,1.019-1.316,1.17c-4.593,1.363-9.214,2.627-13.817,3.955
		c-4.755,1.372-9.507,2.755-14.243,4.187c-3.688,1.116-7.374,1.27-11.101,0.248c-12.628-3.462-25.231-7.02-37.895-10.343
		c-8.721-2.288-17.481-4.48-26.311-6.292c-8.663-1.778-17.467-1.885-26.25-0.677c-1.425,0.195-2.966,0.27-4.48,1.59
		c2.888,0.244,5.394,0.434,7.896,0.672c6.362,0.608,12.73,1.174,19.082,1.877c8.113,0.898,16.044,2.706,23.933,4.794
		c13.894,3.677,27.837,7.166,41.759,10.738c0.671,0.172,1.331,0.385,2.472,0.719c-1.169,0.485-1.937,0.849-2.734,1.129
		c-8.337,2.938-16.015,7.167-23.51,11.795c-2.958,1.827-4.791,4.447-6.032,7.524c-1.46,3.621-0.061,6.805,3.667,8.062
		c3.396,1.146,6.905,1.97,10.387,2.843c5.267,1.32,10.558,2.542,15.829,3.846c1.121,0.276,2.199,0.723,3.408,1.128
		c-0.891,1.595-2.26,2.069-3.558,2.626c-18.34,7.874-36.683,15.739-55.024,23.61c-1.395,0.598-2.813,1.15-4.166,1.832
		c-1.12,0.564-2.161,1.285-3.236,1.938c0.057,0.146,0.113,0.291,0.17,0.438c0.608-0.158,1.223-0.295,1.824-0.477
		c10.044-3.031,19.499-7.555,29.149-11.572c13.709-5.709,27.35-11.582,41.039-17.336c1.148-0.482,2.445-0.852,3.675-0.861
		c9.279-0.07,18.559-0.039,27.838-0.035c0.396,0,0.793,0.043,1.378,0.078c-0.476,1.136-1.444,1.509-2.307,1.938
		c-8.722,4.343-17.43,8.714-26.188,12.986c-27.287,13.309-55.476,24.563-83.354,36.52c-10.564,4.531-21.162,8.986-31.744,13.477
		c-0.503,0.25-1.008,0.502-1.513,0.752c0.063,0.162,0.125,0.324,0.188,0.488C411.857,603.357,412.795,603.088,413.734,602.818z"/>
	<path style="fill-rule:evenodd;clip-rule:evenodd;fill:#D2D3E4;" d="M1135.762,294.997c-5.371,0.361-10.464,0.679-15.553,1.05
		c-11.557,0.844-23.116,1.65-34.662,2.618c-2.718,0.228-4.638-0.579-6.122-2.79c-2.228-3.318-4.487-6.616-6.777-9.893
		c-1.557-2.228-3.251-4.36-4.77-6.613c-2.784-4.133-6.604-7.105-10.616-9.847c-1.145,0.518-0.658,1.102-0.173,1.699
		c2.067,2.544,4.131,5.092,6.195,7.639c4.781,5.903,9.571,11.799,14.331,17.72c0.501,0.624,0.822,1.393,1.378,2.356
		c-0.938,0.158-1.457,0.307-1.979,0.323c-13.578,0.434-27.156,0.847-40.734,1.281c-2.075,0.066-4.155,0.142-6.219,0.354
		c-2.106,0.216-3.437-0.696-4.561-2.396c-2.91-4.399-5.883-8.759-8.922-13.068c-1.921-2.725-4.302-4.953-7.635-5.885
		c-0.52-0.145-1.069-0.183-2.096-0.351c6.34,7.342,12.378,14.336,18.332,21.232c-0.012,0.254,0.01,0.349-0.026,0.403
		c-0.04,0.058-0.131,0.093-0.206,0.113c-0.385,0.104-0.767,0.239-1.158,0.294c-34.951,4.888-69.093,13.409-103.014,22.928
		c-0.049,0.014-0.133-0.074-0.19-0.125c-0.058-0.052-0.113-0.111-0.152-0.178c-0.04-0.067-0.06-0.147-0.208-0.536
		c0.897-0.578,1.84-1.245,2.838-1.816c11.787-6.749,23.599-13.455,35.371-20.23c14.494-8.343,28.632-17.236,41.596-27.854
		c6.688-5.479,13.492-10.773,20.961-15.162c14.493-8.518,30.019-14.098,46.684-16.477c6.498-0.927,13.021-1.364,19.581-1.544
		c18.518-0.508,36.496,2.176,53.64,9.316c15.794,6.577,32.006,11.935,48.241,17.247c11.751,3.846,22.458,9.56,31.951,17.507
		c3.3,2.763,7.188,4.43,11.139,5.974c0.726,0.283,1.48,0.489,2.15,0.707c0.193,1.299-0.569,1.269-1.317,1.289
		c-3.033,0.083-6.066,0.195-9.102,0.264c-11.984,0.27-23.971,0.512-35.956,0.793c-12.862,0.302-25.724,0.627-38.585,0.961
		c-3.828,0.099-7.655,0.262-11.727,0.404c-0.09-3.323-2.18-5.597-3.899-8.038c-6.216-8.822-12.494-17.6-18.708-26.423
		c-1.706-2.423-3.885-4.209-6.537-5.475c-1.369-0.654-2.684-1.432-4.081-2.015c-1.053-0.438-2.197-0.656-3.836-1.125
		c0.458,0.818,0.544,1.14,0.752,1.317c7.647,6.556,13.821,14.397,19.776,22.448c4.659,6.297,9.453,12.493,14.182,18.739
		C1135.472,294.31,1135.539,294.535,1135.762,294.997z"/>
	<path style="fill-rule:evenodd;clip-rule:evenodd;fill:#D1D3E4;" d="M908.551,565.998c-0.215,0.469-0.521,0.916-0.632,1.408
		c-1.88,8.334-3.861,16.648-5.558,25.021c-1.468,7.24-1.821,14.582-1.035,21.953c0.016,0.145-0.072,0.301-0.18,0.713
		c-0.734-0.391-1.434-0.717-2.089-1.115c-2.758-1.684-5.133-3.822-7.157-6.324c-4.788-5.916-9.141-12.137-12.681-18.885
		c-6.098-11.625-13.712-22.133-22.908-31.496c-0.616-0.627-1.176-1.311-1.811-1.916c-0.564-0.541-1.196-1.01-1.799-1.512
		c0.082-0.158,0.162-0.316,0.244-0.475c1.363,0.176,2.729,0.344,4.09,0.529c7.757,1.057,15.5,2.215,23.271,3.152
		c12.509,1.508,24.64,4.58,36.571,8.52c13.81,4.561,27.163,10.309,40.675,15.65c16.852,6.66,33.788,13.107,50.687,19.65
		c1.779,0.691,3.547,1.412,5.59,2.227c-0.437,0.293-0.635,0.529-0.867,0.568c-17.827,3.01-35.173,8.088-52.731,12.252
		c-7.77,1.842-15.526,3.742-23.327,5.445c-10.171,2.223-19.988,0.748-29.574-3.084c-4.606-1.842-4.816-2.785-4.227-7.424
		c1.057-8.322,2.03-16.654,3.168-24.967c0.779-5.695,1.781-11.359,2.673-17.039c0.142-0.902,0.22-1.814,0.327-2.723
		C909.03,566.086,908.79,566.041,908.551,565.998z M927.694,619.492c0.729-0.32,1.174-0.375,1.356-0.621
		c0.611-0.834,1.229-1.689,1.668-2.619c4.998-10.613,9.981-21.232,14.906-31.879c0.434-0.938,0.431-2.078,0.663-3.297
		c-1.683,0.209-2.535,0.91-3.109,2.074c-4.456,9.018-8.975,18.004-13.367,27.051C928.457,612.992,928.144,616.082,927.694,619.492z"
		/>
	<path style="fill-rule:evenodd;clip-rule:evenodd;fill:#D1D2E3;" d="M1202.956,605.721c1.863-0.529,3.336-1.092,4.86-1.357
		c7.79-1.355,15.571-2.785,23.397-3.896c8.778-1.248,17.592-2.283,26.409-3.225c7.784-0.83,15.588-1.52,23.397-2.055
		c5.896-0.404,11.813-0.486,17.724-0.668c1.238-0.037,2.482,0.121,3.724,0.189c0.123,0.207,0.247,0.412,0.37,0.619
		c-0.354,0.162-0.757,0.264-1.057,0.496c-8.976,6.953-17.885,13.99-26.939,20.838c-2.786,2.107-5.914,3.785-8.974,5.502
		c-2.993,1.678-6.095,3.164-9.155,4.721c-10.26,5.223-20.316,4.563-29.76-1.75c-5.496-3.674-10.514-8.072-15.678-12.23
		C1208.548,610.709,1205.966,608.332,1202.956,605.721z M1260.634,600c-0.986,2.77-1.912,4.971-2.557,7.252
		c-1.492,5.291-2.85,10.619-4.261,15.932c-0.163,0.615-0.395,1.227-0.448,1.852c-0.027,0.309,0.202,0.805,0.454,0.926
		c0.248,0.117,0.843-0.018,0.989-0.238c0.741-1.115,1.613-2.219,2.023-3.463c1.695-5.145,3.19-10.355,4.866-15.508
		C1262.428,604.518,1261.999,602.551,1260.634,600z M1230.009,602.324c-1.119,1-1.276,1.76-1,2.707
		c1.389,4.744,2.729,9.502,4.12,14.244c0.601,2.045,2.147,3.354,4.037,5.094c-0.138-1.391-0.073-2.291-0.33-3.086
		c-1.815-5.613-3.682-11.211-5.577-16.799C1231.023,603.791,1230.519,603.188,1230.009,602.324z"/>
	<path style="fill-rule:evenodd;clip-rule:evenodd;fill:#D0D1E2;" d="M602.408,561.713c1.996-1.117,4.122-2.055,5.967-3.381
		c9.155-6.576,18.256-13.232,27.332-19.919c2.292-1.689,4.693-2.509,7.578-2.319c9.089,0.598,18.186,1.058,27.279,1.584
		c0.708,0.041,1.411,0.19,2.276,0.313c-0.349,1.078-1.285,1.173-2.004,1.471c-7.966,3.301-15.93,6.606-23.917,9.856
		c-14.936,6.08-29.882,12.135-44.833,18.174c-6.045,2.441-12.425,3.535-18.826,4.518c-0.392,0.061-0.801,0.059-1.197,0.025
		c-1.602-0.135-2.157-0.854-1.641-2.414c0.347-1.047,0.887-2.064,1.51-2.98c4.991-7.334,9.993-14.66,15.059-21.941
		c1.779-2.559,3.801-4.948,5.608-7.487c1.229-1.728,2.789-2.457,4.889-2.444c7.679,0.048,15.359,0.019,23.038,0.021
		c0.479,0,0.97-0.043,1.437,0.042c0.88,0.159,1.105,0.904,0.502,1.574c-0.157,0.174-0.387,0.282-0.573,0.433
		c-9.148,7.381-18.297,14.762-27.438,22.153c-0.86,0.695-1.674,1.449-2.509,2.176C602.099,561.346,602.253,561.529,602.408,561.713z
		"/>
	<path style="fill-rule:evenodd;clip-rule:evenodd;fill:#D0D2E3;" d="M660.255,458.313c-0.596,0.27-1.204,0.6-1.849,0.825
		c-6.851,2.404-13.731,4.728-20.549,7.223c-2.164,0.792-3.988,0.573-5.893-0.593c-5.994-3.67-12.015-7.297-18.047-10.904
		c-1.158-0.693-2.388-1.285-3.629-1.817c-1.937-0.831-3.856-0.647-6.168,0.432c8.732,5.347,17.369,10.21,26.282,15.571
		c-2.078,0.711-3.747,1.284-5.417,1.854c-3.548,1.21-7.102,2.404-10.643,3.634c-1.881,0.652-3.518,0.4-5.17-0.801
		c-7.111-5.166-14.362-10.144-21.38-15.43c-2.519-1.897-4.575-4.429-6.741-6.765c-0.623-0.672-1.002-1.635-1.302-2.528
		c-0.631-1.882-0.011-3.559,1.75-4.45c1.047-0.53,2.247-0.803,3.408-1.062c6.768-1.509,13.45-1.047,20.154,0.634
		c14.478,3.628,28.991,7.116,43.498,10.626c3.257,0.788,6.549,1.432,9.826,2.138C659.143,457.063,660.023,457.027,660.255,458.313z"
		/>
	<path style="fill-rule:evenodd;clip-rule:evenodd;fill:#CFD1E2;" d="M835.778,357.574c-6.736,3.643-13.466,7.298-20.212,10.924
		c-3.444,1.851-6.944,3.599-10.363,5.496c-1.399,0.775-2.813,1.087-4.363,0.911c-2.221-0.252-4.44-0.525-6.66-0.792
		c-1.255-0.151-2.51-0.308-3.712-0.455c-0.615,0.851-0.403,1.315,0.402,1.528c2.005,0.533,4.019,1.034,6.024,1.563
		c0.662,0.174,1.313,0.39,2.359,0.704c-5.026,3.303-9.711,6.473-14.516,9.45c-0.809,0.501-2.178,0.386-3.211,0.176
		c-1.948-0.396-3.831-1.102-5.758-1.61c-0.892-0.236-1.861-0.68-2.768,0.362c0.442,1.489,1.969,1.612,3.079,2.224
		c1.185,0.652,2.436,1.187,3.863,1.871c-0.533,0.452-0.945,0.87-1.421,1.195c-7.392,5.041-14.791,10.069-22.188,15.103
		c-0.709,0.482-1.406,1.27-2.236-0.064c0.239-0.493,0.485-1.065,0.784-1.607c2.314-4.195,4.639-8.384,6.958-12.575
		c8.065-14.58,20.454-23.404,36.521-27.168c11.344-2.657,22.743-5.074,34.119-7.589c1.063-0.235,2.139-0.41,3.208-0.613
		C835.718,356.928,835.748,357.251,835.778,357.574z"/>
	<path style="fill-rule:evenodd;clip-rule:evenodd;fill:#CDCFE0;" d="M705.429,538.179c0.464,0.868-0.216,1.299-0.692,1.81
		c-2.668,2.863-5.34,5.724-7.998,8.597c-0.462,0.5-0.86,1.061-1.444,1.787c1.817,0.422,2.937-0.402,3.935-1.207
		c1.862-1.504,3.624-3.135,5.387-4.756c1.353-1.244,2.656-2.541,3.961-3.836c1.625-1.61,3.557-2.351,5.851-2.248
		c1.425,0.065,2.855,0.013,4.646,0.013c-1.261,2.092-2.481,3.713-4.251,4.797c-5.994,3.666-12.003,7.309-18.044,10.895
		c-2.78,1.652-5.947,1.742-9.06,1.826c-1.513,0.041-2.119-0.992-1.539-2.439c0.353-0.879,0.855-1.721,1.41-2.496
		c2.757-3.852,5.998-7.273,9.592-10.342C699.307,538.768,702.494,537.939,705.429,538.179z"/>
	<path style="fill-rule:evenodd;clip-rule:evenodd;fill:#B7BAD6;" d="M701.743,437.432c-3.975,3.194-7.784,4.527-12.549,3.13
		c-2.771-0.812-5.833-0.664-8.771-0.843c-0.526-0.031-1.083,0.453-1.636,0.705c0.551,1.411,1.598,1.461,2.625,1.593
		c2.742,0.351,5.48,0.728,8.598,1.145c-2.544,2.297-5.215,3.568-8.195,4.122c-4.881,0.907-9.117-0.847-13.036-3.528
		c-1.453-0.994-1.35-1.822,0.064-3.047c2.904-2.513,6.457-3.367,10.107-3.973c6.533-1.084,13.049-0.588,19.56,0.237
		C699.446,437.092,700.378,437.238,701.743,437.432z"/>
	<path style="fill-rule:evenodd;clip-rule:evenodd;fill:#7D85AC;" d="M835.778,357.574c-0.03-0.322-0.061-0.646-0.091-0.968
		c1.374-0.464,2.75-0.928,4.338-1.463C839.509,356.679,839.444,356.711,835.778,357.574z"/>
	<path style="fill-rule:evenodd;clip-rule:evenodd;fill:#494DA2;" d="M413.734,602.818c-0.938,0.27-1.876,0.539-2.815,0.811
		c-0.063-0.164-0.125-0.326-0.188-0.488c0.505-0.25,1.009-0.502,1.513-0.752C412.74,602.531,413.237,602.676,413.734,602.818z"/>
	<path style="fill-rule:evenodd;clip-rule:evenodd;fill:#D2D3E4;" d="M1095.846,474.243c0.546,0.652,1.241,1.23,1.616,1.97
		c4.667,9.184,9.303,18.383,13.9,27.602c0.637,1.275,1.024,2.676,1.527,4.019c-2.335,0.787-4.779,1.346-6.982,2.406
		c-4.817,2.32-9.606,4.732-14.235,7.403c-7.816,4.512-15.493,9.265-23.241,13.896c-8.991,5.375-18.193,10.324-28.109,13.824
		c-3.855,1.361-7.819,1.607-11.819,1.051c-3.002-0.418-4.553-2.17-4.576-5.205c-0.015-1.982,0.201-3.998,0.586-5.945
		c1.022-5.177,0.761-5.779-4.105-7.704c-4.551-1.8-8.146-4.679-10.372-9.119c-1.995-3.979-1.865-8.187-1.3-12.428
		c0.804-6.038,2.384-11.885,4.311-17.654c1.249-3.74,0.618-5.234-2.81-7.02c-7.365-3.836-14.752-7.631-22.123-11.455
		c-11.274-5.849-22.484-11.813-33.22-18.624c-1.134-0.719-2.629-1.378-2.388-2.959c0.219-1.432,1.775-1.64,2.952-2.121
		c6.772-2.767,13.878-2.854,21.007-2.559c11.268,0.468,22.462,1.685,33.561,3.695c14.693,2.663,29.33,5.612,43.72,9.649
		c11.653,3.27,22.891,7.6,33.195,14.042C1089.728,472.75,1092.635,473.829,1095.846,474.243z M1093.351,490.184
		c-1.29-0.438-2.291-0.879-3.338-1.114c-12.225-2.747-24.581-4.764-36.969-6.6c-2.584-0.382-5.174-0.731-7.756-1.096
		c-0.284,1.895-0.279,1.924,1.676,2.39c5.119,1.221,10.246,2.409,15.362,3.639c9.101,2.188,18.353,3.334,27.661,4.124
		C1091.142,491.625,1092.214,491.644,1093.351,490.184z M1090.092,498.833c-0.62,0.278-0.991,0.417-1.337,0.604
		c-12.214,6.599-24.426,13.202-36.638,19.807c-0.28,0.151-0.637,0.247-0.817,0.479c-0.247,0.315-0.359,0.737-0.53,1.113
		c0.341,0.126,0.72,0.417,1.017,0.349c1.006-0.233,1.992-0.569,2.972-0.906c13.109-4.517,24.592-12.042,36.242-19.508
		C1090.703,500.136,1090.443,499.583,1090.092,498.833z"/>
	<path style="fill-rule:evenodd;clip-rule:evenodd;fill:#17142F;" d="M1095.846,474.243c-3.211-0.414-6.118-1.493-8.906-3.236
		c-10.305-6.442-21.542-10.772-33.195-14.042c-14.39-4.037-29.026-6.986-43.72-9.649c-11.099-2.011-22.293-3.228-33.561-3.695
		c-7.129-0.296-14.234-0.208-21.007,2.559c-1.177,0.481-2.733,0.689-2.952,2.121c-0.241,1.581,1.254,2.24,2.388,2.959
		c10.735,6.811,21.945,12.775,33.22,18.624c7.371,3.824,14.758,7.619,22.123,11.455c3.428,1.785,4.059,3.279,2.81,7.02
		c-1.927,5.77-3.507,11.616-4.311,17.654c-0.565,4.241-0.695,8.448,1.3,12.428c2.227,4.44,5.821,7.319,10.372,9.119
		c4.866,1.925,5.128,2.527,4.105,7.704c-0.385,1.947-0.601,3.963-0.586,5.945c0.023,3.035,1.574,4.787,4.576,5.205
		c4,0.557,7.964,0.311,11.819-1.051c9.916-3.5,19.118-8.449,28.109-13.824c7.748-4.631,15.425-9.384,23.241-13.896
		c4.629-2.671,9.418-5.083,14.235-7.403c2.203-1.061,4.647-1.619,6.982-2.405c0.923,0.112,1.846,0.226,3.321,0.406
		c-3.411,2.456-6.381,4.594-9.351,6.732c-7.183,4.32-14.337,8.688-21.552,12.952c-13.282,7.852-27.095,14.699-40.924,21.511
		c-2.784,1.371-5.495,2.945-8.713,3.189c-4.414,0.336-8.612-0.422-12.489-2.541c-3.319-1.813-4.774-4.85-4.831-8.537
		c-0.03-1.91,0.181-3.826,0.319-5.736c0.132-1.808-0.63-3.225-2.191-3.935c-3.469-1.577-5.935-4.264-8.359-7.041
		c-0.576-0.659-1.247-1.235-1.874-1.85c-0.999-2.851-2.226-5.646-2.943-8.564c-1.044-4.244-0.757-8.58,0.215-12.816
		c0.89-3.882,2.009-7.711,3.032-11.563c0.123-0.462,0.305-0.91,0.414-1.375c0.58-2.458,0.205-3.18-2.088-4.394
		c-15.669-8.296-31.367-16.537-46.966-24.962c-3.202-1.729-6.036-4.146-9.013-6.283c-0.507-0.365-0.915-0.895-1.299-1.4
		c-2.463-3.249-1.892-6.489,1.648-8.43c5.588-3.063,11.403-5.308,17.985-4.949c5.577,0.303,11.18,0.172,16.75,0.543
		c13.854,0.924,27.563,2.886,41.12,5.963c11.671,2.648,23.21,5.769,34.664,9.218c9.861,2.97,18.965,7.561,27.658,13.012
		c2.503,1.569,4.99,3.168,7.429,4.835C1095.632,472.351,1096.759,472.933,1095.846,474.243z"/>
	<path style="fill-rule:evenodd;clip-rule:evenodd;fill:#151330;" d="M1165.269,356.087c0.595,2.29-0.171,3.838-1.117,5.336
		c-2.004,3.173-4.064,6.312-6.008,9.521c-1.107,1.83-2.268,3.652-2.373,5.935c-0.099,2.142,0.537,3.953,2.053,5.414
		c1.551,1.494,3.224,2.86,4.779,4.35c1.77,1.696,2.007,2.965,0.84,5.124c-1.138,2.104-2.456,4.111-3.661,6.182
		c-0.683,1.173-1.354,2.358-1.926,3.586c-0.874,1.874-0.809,3.104,0.764,4.284c1.963,1.475,1.805,3.207,1.21,5.117
		c-0.498,1.599-1.141,3.152-1.675,4.74c-0.356,1.057-0.62,2.144-0.952,3.209c-0.871,2.794-0.179,5.212,1.815,7.264
		c1.129,1.162,1.674,2.456,1.408,4.427c-0.991-0.217-1.945-0.254-2.737-0.63c-3.561-1.692-5.209-5.476-4.93-9.346
		c0.187-2.589,1.116-4.97,2.756-7.033c0.248-0.313,0.477-0.645,0.676-0.989c1.095-1.891,0.912-2.975-0.724-4.412
		c-2.769-2.432-3.19-3.824-1.602-7.246c1.272-2.74,2.813-5.365,4.364-7.963c1.648-2.762,1.555-3.647-0.887-5.683
		c-0.98-0.816-1.896-1.713-2.813-2.602c-2.629-2.549-3.072-5.621-2.192-9.041c0.836-3.243,2.593-5.995,4.528-8.647
		c2.258-3.095,4.569-6.151,6.874-9.212C1164.113,357.278,1164.572,356.849,1165.269,356.087z"/>
	<path style="fill-rule:evenodd;clip-rule:evenodd;fill:#161432;" d="M854.117,421.788c-3.565,0-6.668,0.028-9.771-0.016
		c-1.026-0.016-2.072-0.126-3.072-0.354c-2.372-0.542-3.205-1.904-2.457-4.234c0.999-3.114,2.12-6.19,3.256-9.258
		c1.023-2.769,2.146-5.5,3.203-8.257c0.294-0.765,0.53-1.526,1.789-1.104c-0.193,0.73-0.342,1.404-0.55,2.06
		c-1.426,4.485-2.889,8.959-4.29,13.452c-1.251,4.008-0.9,4.516,3.22,4.446c2.546-0.042,5.088-0.279,7.632-0.428
		c0.479-0.028,0.958-0.071,1.437-0.067c2.595,0.023,3.766,1.601,3.045,4.111c-0.461,1.604-1.039,3.182-1.403,4.807
		c-0.525,2.341,0.373,4.135,2.577,5.001c1.242,0.488,2.609,0.674,3.933,0.935c0.621,0.122,1.284,0.033,1.904,0.158
		c2.366,0.477,3.086,1.52,2.738,3.911c-0.103,0.708-0.334,1.401-0.388,2.111c-0.229,3,1.05,5.056,3.809,6.249
		c0.655,0.283,1.309,0.582,1.929,0.934c0.332,0.189,0.591,0.507,1.175,1.024c-0.646,0.401-1.099,0.915-1.587,0.951
		c-3.839,0.288-8.503-0.999-8.281-7.097c0.054-1.48-0.162-2.971-0.254-4.456c-1.384-0.313-2.773-0.598-4.149-0.942
		c-2.806-0.703-5.504-1.747-6.237-4.887c-0.384-1.645-0.129-3.464,0-5.192C853.411,424.483,853.785,423.341,854.117,421.788z"/>
	<path style="fill-rule:evenodd;clip-rule:evenodd;fill:#15132F;" d="M1171.627,508.156c-0.762,0.17-1.522,0.34-2.283,0.509
		c-0.84-1.74-1.923-3.195-3.601-4.324c-2.434-1.638-3.546-3.961-2.79-7.023c0.817-3.312-0.209-5.956-3.175-7.793
		c-0.671-0.416-1.268-0.969-1.842-1.518c-1.854-1.773-2.18-3.216-1.072-5.583c0.844-1.802,1.93-3.488,2.807-5.275
		c1.018-2.072,1.919-4.202,2.883-6.301c0.222-0.482,0.491-0.943,0.724-1.386c1.319,0.201,1.196,1.124,1.11,1.867
		c-0.293,2.525-0.599,5.039-1.859,7.352c-0.795,1.459-1.304,3.074-1.971,4.605c-0.461,1.057-0.142,1.85,0.73,2.497
		c0.704,0.523,1.395,1.065,2.115,1.563c2.1,1.45,3.269,3.431,3.504,5.974c0.139,1.504,0.328,3.004,0.462,4.508
		c0.148,1.669,0.711,3.167,2.144,4.086c1.304,0.836,1.766,1.931,1.771,3.405C1171.286,506.265,1171.505,507.21,1171.627,508.156z"/>
	<path style="fill-rule:evenodd;clip-rule:evenodd;fill:#15132F;" d="M864.205,493.418c1.63,1.229,1.513,2.919,1.689,4.447
		c0.155,1.34,0.04,2.708,0.124,4.059c0.16,2.586,0.99,3.357,3.579,3.41c0.876,0.019,1.76,0.074,2.629-0.005
		c3.233-0.294,4.668,3.188,4.273,5.35c-0.288,1.573-1.706,2.149-3.051,1.261c-0.066-0.044-0.145-0.084-0.189-0.146
		c-1.763-2.433-4.36-2.873-7.116-3.189c-2.074-0.239-3.434-1.625-3.461-3.67c-0.045-3.248,0.256-6.501,0.436-9.751
		c0.017-0.3,0.178-0.611,0.337-0.879C863.612,494.042,863.853,493.827,864.205,493.418z"/>
	<path style="fill-rule:evenodd;clip-rule:evenodd;fill:#151330;" d="M664.349,504.48c-0.462-0.057-0.924-0.113-1.386-0.17
		c-1.687-0.422-3.372-0.855-5.063-1.264c-2.129-0.514-2.657-1.305-2.049-3.414c0.419-1.454,1.026-2.853,1.506-4.29
		c0.707-2.118,1.358-4.254,2.076-6.368c0.144-0.425,0.477-0.786,0.716-1.166c1.289,0.417,1.45,1.355,1.266,2.338
		c-0.409,2.187-0.904,4.357-1.386,6.53c-0.12,0.54-0.402,1.053-0.47,1.596c-0.162,1.286,0.239,1.76,1.542,1.852
		c0.715,0.051,1.438-0.023,2.156-0.018c2.35,0.02,3.097,0.599,3.696,2.883c0.121,0.46,0.171,0.938,0.254,1.409
		c0,0,0.014-0.002,0.014-0.002C666.263,504.424,665.306,504.453,664.349,504.48z"/>
	<path style="fill-rule:evenodd;clip-rule:evenodd;fill:#171432;" d="M1238.888,318.819c-3.181,5.114-8.211,8.88-10.88,14.463
		c1.58,1.23,3.199,2.002,5.07,2.251c0.628,0.083,1.263,0.23,1.852,0.458c1.188,0.457,1.675,2.276,0.783,3.142
		c-0.288,0.28-1.007,0.291-1.472,0.183c-1.378-0.318-2.751-0.691-4.08-1.17c-1.268-0.457-2.579-0.918-3.691-1.649
		c-2.262-1.487-2.491-3.472-0.616-5.426c2.873-2.993,5.859-5.878,8.802-8.805c1.284-1.278,2.579-2.547,3.869-3.82
		C1238.646,318.57,1238.767,318.694,1238.888,318.819z"/>
	<path style="fill-rule:evenodd;clip-rule:evenodd;fill:#171432;" d="M1230.909,357.343c-1.574-2.629-3.01-4.898-4.303-7.247
		c-0.543-0.987-0.224-2.11,0.515-2.905c1.791-1.928,3.657-3.787,5.553-5.612c0.224-0.216,0.816-0.05,1.238-0.061
		c-0.024,0.364,0.084,0.82-0.095,1.076c-1.004,1.436-2.051,2.844-3.132,4.222c-1.72,2.192-1.737,2.561-0.015,4.737
		C1232.156,353.433,1232.271,354.563,1230.909,357.343z"/>
	<path style="fill-rule:evenodd;clip-rule:evenodd;fill:#161432;" d="M1227.085,379.969c-3.041-0.531-4.803-2.877-3.871-5.849
		c0.869-2.769,2.361-5.344,3.606-7.991c0.069-0.148,0.396-0.176,0.788-0.334c0.533,1.607,0.348,3.135-0.001,4.644
		c-0.213,0.924-0.546,1.823-0.859,2.722c-0.495,1.415-0.508,2.795,0.199,4.147C1227.402,378.178,1227.657,379.055,1227.085,379.969z
		"/>
	<path style="fill-rule:evenodd;clip-rule:evenodd;fill:#191630;" d="M1343.379,397.598c3.188-0.068,6.368,0.648,9.288,2.261
		c7.822,4.317,13.568,10.418,15.461,19.381c0.527,2.498,0.102,5.234-0.116,7.843c-0.333,4.006-1.388,7.863-3.102,11.503
		c-3.544,7.524-9.37,12.17-17.594,13.714c-9.408,1.768-17.818-0.304-24.839-6.893c-11.141-10.456-10.898-26.605-2.033-37.541
		C1325.931,401.098,1333.872,397.584,1343.379,397.598z M1340.381,448.292c0.958,0,1.924,0.078,2.874-0.013
		c7.909-0.751,16.176-5.247,18.519-15.734c0.659-2.953,0.891-6,1.472-8.975c0.765-3.912-0.589-7.211-2.646-10.381
		c-2.935-4.521-6.851-7.995-11.45-10.713c-2.101-1.241-4.428-1.742-6.894-1.644c-6.898,0.276-12.731,2.854-17.287,8.073
		c-5.309,6.08-8.095,12.953-6.364,21.179C1320.881,440.903,1330.375,449.042,1340.381,448.292z"/>
	<path style="fill-rule:evenodd;clip-rule:evenodd;fill:#494DA2;" d="M664.349,504.48c0.957-0.027,1.914-0.056,2.871-0.084
		C666.287,505.259,665.318,504.896,664.349,504.48z"/>
	<path style="fill-rule:evenodd;clip-rule:evenodd;fill:#1B1933;" d="M927.694,619.492c0.449-3.41,0.763-6.5,2.117-9.291
		c4.393-9.047,8.911-18.033,13.367-27.051c0.574-1.164,1.427-1.865,3.109-2.074c-0.232,1.219-0.229,2.359-0.663,3.297
		c-4.925,10.646-9.908,21.266-14.906,31.879c-0.438,0.93-1.057,1.785-1.668,2.619C928.868,619.117,928.424,619.172,927.694,619.492z
		"/>
	<path style="fill-rule:evenodd;clip-rule:evenodd;fill:#1E1B35;" d="M1260.634,600c1.365,2.551,1.794,4.518,1.067,6.752
		c-1.676,5.152-3.171,10.363-4.866,15.508c-0.41,1.244-1.282,2.348-2.023,3.463c-0.146,0.221-0.741,0.355-0.989,0.238
		c-0.252-0.121-0.481-0.617-0.454-0.926c0.054-0.625,0.285-1.236,0.448-1.852c1.411-5.313,2.769-10.641,4.261-15.932
		C1258.722,604.971,1259.647,602.77,1260.634,600z"/>
	<path style="fill-rule:evenodd;clip-rule:evenodd;fill:#1E1B35;" d="M1230.009,602.324c0.51,0.863,1.015,1.467,1.25,2.16
		c1.896,5.588,3.762,11.186,5.577,16.799c0.257,0.795,0.192,1.695,0.33,3.086c-1.89-1.74-3.437-3.049-4.037-5.094
		c-1.392-4.742-2.731-9.5-4.12-14.244C1228.732,604.084,1228.89,603.324,1230.009,602.324z"/>
	<path style="fill-rule:evenodd;clip-rule:evenodd;fill:#1D1933;" d="M1093.351,490.184c-1.137,1.46-2.209,1.44-3.363,1.343
		c-9.309-0.79-18.561-1.937-27.661-4.124c-5.116-1.229-10.243-2.418-15.362-3.639c-1.955-0.466-1.96-0.495-1.676-2.39
		c2.582,0.364,5.172,0.714,7.756,1.096c12.388,1.836,24.744,3.853,36.969,6.6C1091.06,489.305,1092.061,489.747,1093.351,490.184z"
		/>
	<path style="fill-rule:evenodd;clip-rule:evenodd;fill:#1E1933;" d="M1090.092,498.833c0.352,0.751,0.611,1.304,0.908,1.937
		c-11.65,7.466-23.133,14.991-36.242,19.508c-0.979,0.337-1.966,0.673-2.972,0.906c-0.297,0.068-0.676-0.223-1.017-0.349
		c0.171-0.376,0.283-0.798,0.53-1.113c0.181-0.231,0.537-0.327,0.817-0.479c12.212-6.604,24.424-13.208,36.638-19.807
		C1089.101,499.25,1089.472,499.111,1090.092,498.833z"/>
	<path style="fill-rule:evenodd;clip-rule:evenodd;fill:#CDCFE0;" d="M1340.381,448.292c-10.006,0.749-19.5-7.39-21.776-18.207
		c-1.73-8.226,1.056-15.099,6.364-21.179c4.556-5.219,10.389-7.797,17.287-8.073c2.466-0.099,4.793,0.402,6.894,1.644
		c4.6,2.718,8.516,6.192,11.45,10.713c2.057,3.17,3.41,6.469,2.646,10.381c-0.581,2.975-0.813,6.021-1.472,8.975
		c-2.343,10.487-10.609,14.983-18.519,15.734C1342.305,448.371,1341.339,448.292,1340.381,448.292z M1358.51,423.34
		c0.194-3.027-0.953-5.876-2.93-8.403c-3.029-3.875-7.025-6.136-11.851-7.089c-3.551-0.701-6.844-0.131-9.935,1.618
		c-5.094,2.883-8.548,7.188-10.29,12.741c-2.249,7.167,0.139,14.615,5.943,18.229c5.231,3.258,10.935,3.964,16.773,1.814
		C1353.506,439.57,1358.411,431.984,1358.51,423.34z"/>
	<path style="fill-rule:evenodd;clip-rule:evenodd;fill:#15122C;" d="M1358.51,423.34c-0.099,8.644-5.004,16.229-12.288,18.911
		c-5.839,2.149-11.542,1.443-16.773-1.814c-5.805-3.614-8.192-11.063-5.943-18.229c1.742-5.553,5.196-9.858,10.29-12.741
		c3.091-1.749,6.384-2.319,9.935-1.618c4.825,0.953,8.821,3.214,11.851,7.089C1357.557,417.464,1358.704,420.313,1358.51,423.34z"/>
</g>
</svg>
