<?xml version="1.0" encoding="iso-8859-1"?>
<!-- Generator: Adobe Illustrator 16.0.0, SVG Export Plug-In . SVG Version: 6.00 Build 0)  -->
<!DOCTYPE svg PUBLIC "-//W3C//DTD SVG 1.1//EN" "http://www.w3.org/Graphics/SVG/1.1/DTD/svg11.dtd">
<svg version="1.1" id="Layer_1" xmlns="http://www.w3.org/2000/svg" xmlns:xlink="http://www.w3.org/1999/xlink" x="0px" y="0px"
	 width="1980px" height="1080px" viewBox="0 0 1980 1080" style="enable-background:new 0 0 1980 1080;" xml:space="preserve">
<g>
	<path style="fill-rule:evenodd;clip-rule:evenodd;fill:#15142D;" d="M901.938,658.265c-8.997-0.768-17.618-2.824-25.727-6.97
		c-2.524-1.29-3.714-3.122-4.015-5.744c-0.155-1.347-0.271-2.707-0.277-4.063c-0.068-16.791-0.14-33.582-0.147-50.373
		c-0.002-4.792,0.248-9.584,0.27-14.376c0.006-1.329-0.219-2.719-0.64-3.979c-1.388-4.157-1.949-8.356-1.439-12.737
		c1.274-10.941,0.727-21.857-0.654-32.752c-0.241-1.904-0.795-2.479-2.813-2.432c-5.911,0.138-11.819,0.37-17.729,0.523
		c-1.361,0.035-2.138,0.823-2.955,1.757c-1.891,2.159-3.708,4.422-5.838,6.324c-5.847,5.221-12.776,8.166-20.592,8.691
		c-10.04,0.675-20.094,1.153-30.145,1.647c-15.078,0.741-30.16,1.406-45.239,2.132c-12.766,0.614-25.527,1.338-38.297,1.879
		c-7.982,0.338-15.976,0.389-23.963,0.636c-12.694,0.394-25.387,0.851-38.081,1.264c-7.188,0.234-14.376,0.437-21.564,0.646
		c-9.582,0.28-19.163,0.616-28.747,0.814c-7.682,0.158-15.354-0.337-22.937-1.49c-3.096-0.471-6.056-1.944-9.018-3.111
		c-0.734-0.289-1.399-1.07-1.819-1.787c-1.696-2.892-4.269-3.966-7.466-3.785c-7.814,0.442-15.626,0.922-23.44,1.385
		c-0.796,0.048-1.594,0.13-2.391,0.131c-21.674,0.034-43.349,0.068-65.023,0.081c-8.078,0.004-16.155-0.018-24.232-0.082
		c-17.587-0.139-35.175-0.326-52.762-0.468c-9.834-0.08-19.673-0.325-29.501-0.102c-10.697,0.244-21.385,0.917-32.074,1.457
		c-6.302,0.318-12.597,0.784-18.898,1.106c-5.888,0.302-11.387-1.203-16.642-3.776c-4.159-2.037-8.344-4.022-12.525-6.013
		c-2.915-1.388-5.922-1.627-9.104-0.985c-17.142,3.46-34.309,6.8-51.446,10.28c-16.511,3.354-32.999,6.822-49.495,10.249
		c-18.214,3.783-36.425,7.586-54.641,11.364c-18.999,3.941-38,7.871-57.003,11.792c-12.982,2.678-25.965,5.354-38.958,7.98
		c-3.639,0.735-6.243-0.846-6.936-4.453c-1.341-6.976-2.604-13.975-3.611-21.005c-0.94-6.561-1.527-13.173-2.228-19.767
		c-0.313-2.936-0.514-5.883-0.795-8.822c-0.025-0.264-0.264-0.506-0.403-0.759c0-7.52,0-15.04,0-22.56
		c0.252-3.216,0.504-6.431,0.757-9.646c0.058-1.045,0.115-2.089,0.19-3.474c-0.519,0.35-0.733,0.494-0.947,0.639
		c0-0.64,0-1.28,0-1.92c0.599,0.741,0.922,0.426,1.001-0.313c0.145-1.35,0.224-2.706,0.321-4.06
		c0.704-9.803,1.372-19.608,2.116-29.407c1.182-15.58,3.891-30.911,8.141-45.933c1.048-3.706,3.114-7.154,4.943-10.599
		c1.017-1.915,2.965-2.284,5.028-1.794c4.35,1.035,8.733,1.95,13.04,3.142c29.932,8.281,59.853,16.603,89.768,24.945
		c32.221,8.986,64.451,17.94,96.637,27.048c15.129,4.28,30.183,8.832,45.234,13.383c4.386,1.327,8.464,1.016,12.53-0.993
		c4.367-2.156,8.771-4.243,13.187-6.297c9.21-4.281,18.825-6.985,29.014-7.642c12.675-0.815,25.336-1.845,38.009-2.699
		c16.202-1.093,32.429-1.124,48.659-1.137c11.75-0.01,23.5-0.284,35.25-0.454c10.31-0.148,20.62-0.319,30.93-0.476
		c7.272-0.11,14.548-0.412,21.815-0.272c9.582,0.185,19.158,0.679,28.734,1.114c7.819,0.355,15.63,1.012,23.451,1.149
		c3.474,0.061,6.964-0.834,10.448-1.285c1.063-0.138,1.744-0.609,1.96-1.749c0.746-3.935,3.441-6.05,7.055-7.029
		c4.62-1.252,9.27-2.432,13.96-3.374c13.983-2.812,28.151-3.914,42.386-4.411c14.69-0.514,29.374-1.202,44.064-1.722
		c8.226-0.291,16.458-0.511,24.688-0.556c13.117-0.073,26.237-0.087,39.353,0.084c13.982,0.184,27.972,0.39,41.94,0.993
		c14.523,0.626,29.021,1.82,43.539,2.593c4.747,0.253,9.353,1.009,13.921,2.238c5.345,1.438,10.775,1.121,16.199,0.595
		c9.227-0.896,18.45-1.819,27.675-2.727c2.067-0.203,4.147-0.314,6.204-0.599c2.469-0.342,3.175-1.188,3.107-3.673
		c-0.271-9.823-0.651-19.645-0.842-29.47c-0.104-5.354,0.171-10.713,0.125-16.067c-0.049-5.671-0.247-11.341-0.445-17.01
		c-0.065-1.884-0.464-2.04-2.393-1.958c-3.113,0.132-6.232,0.142-9.349,0.185c-13.749,0.19-27.498,0.37-41.246,0.564
		c-8.711,0.123-17.422,0.291-26.134,0.372c-1.503,0.015-3.031-0.201-4.511-0.494c-2.003-0.396-3.235-1.748-3.611-3.721
		c-0.283-1.483-0.438-3.013-0.446-4.522c-0.041-8.398-0.011-16.798-0.022-25.197c-0.02-14.638-0.019-29.275-0.102-43.912
		c-0.02-3.512-0.29-7.024-0.522-10.531c-0.485-7.319,1.654-14.071,4.522-20.631c1.183-2.704,3.717-3.615,6.5-3.759
		c2.074-0.107,4.156-0.069,6.235-0.101c10.63-0.159,21.261-0.295,31.891-0.486c10.148-0.184,20.294-0.43,30.441-0.639
		c8.15-0.167,16.3-0.314,24.45-0.482c11.424-0.234,22.848-0.479,34.271-0.721c4.477-0.045,8.954-0.091,13.432-0.136
		c2.248,0.004,4.524,0.564,6.729-0.329c4.32,0,8.641,0,12.96,0c1.122,0.317,2.235,0.677,3.368,0.948
		c9.395,2.249,14.854,11.782,15.012,18.439c0.283,11.979,0.999,23.948,1.355,35.927c0.264,8.866,0.328,17.74,0.32,26.611
		c-0.006,5.992-0.18,11.989-0.51,17.972c-0.12,2.188-0.572,4.491-1.467,6.475c-1.594,3.536-4.535,5.418-8.532,5.565
		c-10.617,0.391-21.232,0.841-31.849,1.259c-1.278,0.051-2.561,0.002-3.837,0.076c-2.428,0.14-3.072,0.787-3.04,3.278
		c0.043,3.274,0.222,6.547,0.309,9.82c0.222,8.309,0.408,16.618,0.64,24.927c0.249,8.946,0.52,17.891,0.81,26.835
		c0.089,2.752,1.117,3.702,3.888,3.693c14.557-0.048,29.114-0.223,43.669-0.111c7.986,0.061,15.968,0.615,23.953,0.91
		c2.068,0.076,4.143,0.012,6.371,0.012c0.326-1.692-0.202-3.278-1.309-4.524c-1.149-1.295-2.548-2.392-3.936-3.444
		c-0.897-0.681-1.851-1.233-2.125-2.406c0.826-1.245,1.932-1.587,3.327-1.431c6.274,0.7,12.56,1.306,18.828,2.052
		c2.875,0.343,4.46,2.293,5.293,4.924c1.302,4.113,1.513,4.204,5.775,4.631c17.688,1.771,35.427,1.992,53.178,1.865
		c16.712-0.119,33.423-0.43,50.134-0.432c13.35-0.001,26.7,0.319,40.05,0.529c7.991,0.126,15.982,0.322,23.974,0.467
		c1.944,0.035,3.682,0.271,5.25,1.761c0.796,0.757,2.338,0.969,3.554,1.001c4.876,0.132,9.757,0.09,14.636,0.126
		c5.996,0.044,11.994,0.047,17.988,0.166c7.75,0.154,15.497,0.407,23.246,0.612c0.398,0.011,0.801,0.002,1.195-0.043
		c3.111-0.354,3.986-1.18,3.809-4.306c-0.51-8.992,1.116-17.836,1.71-26.749c0.218-3.272,1.05-3.726,4.44-3.942
		c15.891-1.013,31.804-0.797,47.71-0.943c12.152-0.112,24.304-0.268,36.456-0.389c1.117-0.012,2.249-0.004,3.352,0.153
		c2.437,0.348,3.38,1.347,3.385,3.821c0.006,3.195-0.097,6.395-0.277,9.585c-0.326,5.743-0.746,11.48-1.125,17.22
		c-0.025,0.398-0.056,0.799-0.05,1.198c0.028,2.018,0.646,2.788,2.674,2.921c1.507,0.099,3.031-0.072,4.547-0.11
		c3.676-0.093,7.351-0.184,11.026-0.265c14.303-0.313,28.606-0.628,42.91-0.925c2.383-0.049,4.768-0.007,7.33-0.007
		c0.121-0.549,0.252-1.14,0.401-1.819c1.836-0.614,3.78-1.639,5.726-0.924c1.809,0.664,3.387,1.954,5.184,3.04
		c0.176-1.692,0.339-3.257,0.504-4.84c2.977-0.563,5.271,0.144,6.9,2.722c0.72,1.141,1.585,2.212,2.516,3.189
		c0.874,0.917,1.895,1.16,3.253,0.659c8.015-2.958,16.079-5.781,24.108-8.699c4.04-1.469,7.174-4.089,9.521-7.701
		c2.572-3.96,5.304-7.805,8.682-11.143c3.414-3.372,7.363-5.807,11.968-7.267c6.675-2.116,13.513-3.188,20.476-3.618
		c10.698-0.661,21.396-0.84,32.111-0.312c5.373,0.266,10.652-0.779,15.901-1.84c3.366-0.68,6.744-1.322,10.071-2.162
		c1.428-0.36,2.909-0.957,4.066-1.84c2.002-1.527,4.149-2.642,6.488-3.522c14.719-5.545,29.436-11.094,44.122-16.722
		c7.913-3.032,15.505-6.771,23.064-10.604c13.282-6.737,27.44-10.059,42.347-9.518c18.056,0.655,35.019,5.109,50.258,15.238
		c4.789,3.184,9.732,6.141,14.671,9.089c4.39,2.621,8.857,5.112,13.316,7.615c6.769,3.798,12.673,8.601,17.583,14.645
		c5.471,6.732,12.603,10.703,21.104,12.235c16.001,2.885,31.511,7.569,46.854,12.844c5.206,1.79,10.455,3.528,15.483,5.747
		c9.062,3.998,16.674,10.051,23.102,17.567c6.287,7.354,12.511,14.761,18.76,22.146c8.591,10.154,16.074,21.117,23.385,32.197
		c3.739,5.668,7.29,11.463,10.81,17.271c1.614,2.663,2.884,5.52,3.276,8.679c0.014,0.11,0.219,0.196,0.336,0.294
		c0,3.68,0,7.359,0,11.04c-0.249,0.72-0.486,1.444-0.748,2.159c-0.969,2.642-2.648,4.733-4.992,6.269
		c-4.077,2.671-8.163,5.329-12.271,7.953c-3.975,2.539-6.795,5.902-7.162,10.743c-0.147,1.938,0.104,4.018,0.685,5.873
		c1.143,3.65,2.718,7.162,3.979,10.779c2.068,5.936,1.016,11.352-3.139,16.065c-2.489,2.823-5.736,4.486-9.484,4.498
		c-5.832,0.019-11.414,1.177-16.938,2.866c-8.573,2.622-17.401,4.098-26.197,5.69c-6.208,1.124-12.447,2.078-18.677,3.082
		c-7.403,1.191-14.84,0.992-22.228,0.074c-7.603-0.944-15.159-2.26-22.731-3.448c-1.629-0.255-3.145-0.19-4.651,0.593
		c-4.248,2.206-8.589,4.24-12.788,6.535c-8.178,4.47-16.826,7.762-25.784,10.178c-6.193,1.672-12.039,0.118-17.438-3.151
		c-2.904-1.758-5.327-4.045-7.26-6.871c-2.663-3.892-5.465-7.688-8.116-11.588c-1.176-1.728-2.67-2.625-4.743-2.787
		c-4.46-0.349-8.912-0.791-13.369-1.182c-8.596-0.752-17.195-1.466-25.787-2.251c-6.923-0.632-13.834-1.38-20.755-2.016
		c-14.301-1.314-28.003-4.938-40.946-11.108c-5.071-2.416-10.177-3.562-15.724-3.288c-5.903,0.291-11.814,0.408-17.72,0.66
		c-9.258,0.395-18.509,0.962-27.77,1.227c-9.162,0.263-17.77-1.828-25.455-7.023c-4.07-2.751-7.175-6.373-8.985-10.966
		c-2.225-5.643-4.487-11.281-6.414-17.028c-2.458-7.335-5.864-14.146-10.169-20.547c-1.085-1.613-2.547-2.541-4.338-3.193
		c-21.163-7.71-42.506-14.853-64.336-20.462c-2.552-0.655-5.071-1.432-7.607-2.144c-2.678-0.751-3.318-0.422-5.142,1.719
		c-1.319,1.549-2.914,2.863-4.565,4.455c-1.34-3.199-1.499-6.173-0.993-9.735c-0.818,0.63-1.273,0.87-1.582,1.235
		c-1.753,2.077-3.442,4.209-5.211,6.273c-1.585,1.853-1.814,1.822-3.956,0.566c-0.509-0.298-1.189-0.442-1.785-0.43
		c-6.391,0.134-12.781,0.32-19.172,0.479c-3.515,0.087-7.03,0.185-10.547,0.211c-15.911,0.12-31.823,0.224-47.735,0.318
		c-19.271,0.115-38.54,0.316-57.811,0.293c-17.828-0.021-35.657-0.504-53.483-0.377c-12.376,0.088-24.747,0.863-37.12,1.332
		c-1.039,0.039-2.08,0.042-3.115,0.122c-3.542,0.271-5.733,2.039-6.2,5.535c-0.421,3.154-0.511,6.367-0.536,9.556
		c-0.092,11.373,0.916,22.664,2.772,33.882c0.73,4.412,1.56,8.81,2.23,13.231c1.092,7.19-1.426,12.867-7.436,16.952
		c-4.622,3.142-9.78,5.027-15.192,6.273c-6.254,1.44-12.629,1.947-19.008,2.327c-9.169,0.546-18.347,0.965-27.521,1.438
		c-2.738,0.142-3.535,0.9-3.453,3.719c0.285,9.822,0.64,19.643,0.963,29.465c0.037,1.118-0.033,2.245,0.075,3.355
		c0.249,2.543-0.912,4.182-3.221,4.975c-3.692,1.268-7.361,2.69-11.152,3.563c-6.95,1.598-13.946,1.411-20.9-0.304
		c-6.37-1.571-7.786-3.258-7.793-9.771c-0.015-13.758-0.004-27.516-0.005-41.273c0-0.72,0.002-1.44-0.018-2.16
		c-0.045-1.612-0.746-2.708-2.379-3.17c-5.97-1.688-9.615-5.87-11.695-11.448c-1.502-4.029-2.596-8.213-3.866-12.328
		c-0.211-0.688-0.372-1.39-0.593-2.073c-0.856-2.657-2.711-3.962-5.471-4.285c-3.088-0.361-6.193-0.745-9.221-1.429
		c-8.146-1.841-14.039-6.658-17.795-14.083c-3.014-5.959-5.227-12.17-5.844-18.884c-0.238-2.594-0.916-3.131-3.493-3.228
		c-0.877-0.032-1.753-0.12-2.63-0.154c-1.57-0.062-3.088,0.223-4.199,1.383c-0.799,0.835-1.713,1.081-2.768,1.174
		c-5.97,0.52-11.937,1.075-17.91,1.549c-1.01,0.08-2.092-0.029-3.059-0.319c-1.479-0.444-1.795-1.153-1.098-2.538
		c0.639-1.27,1.528-2.416,2.334-3.599c0.383-0.561,0.826-1.08,1.392-1.813c-2.2,0-4.071-0.06-5.938,0.01
		c-10.856,0.406-21.713,0.828-32.568,1.272c-10.694,0.438-21.387,0.913-32.081,1.358c-1.834,0.076-3.68-0.006-5.506,0.154
		c-2.402,0.21-2.959,0.71-2.993,3.133c-0.056,4.151,0.085,8.307,0.17,12.459c0.166,8.069,0.321,16.139,0.532,24.206
		c0.232,8.865,0.537,17.728,0.779,26.593c0.09,3.276,0.077,6.556,0.138,9.833c0.107,5.832,0.241,11.664,0.354,17.496
		c0.247,12.598-1.976,24.805-5.827,36.751c-0.648,2.008-1.499,3.886-3.643,4.761c-6.134,0.017-12.268,0.033-18.402,0.05
		C906.013,658.316,903.976,658.29,901.938,658.265z M1157.76,577.135c0.067,0.037,0.134,0.074,0.201,0.111
		C1157.894,577.209,1157.827,577.172,1157.76,577.135c-0.633-1.535-1.443-3.022-1.864-4.613c-1.105-4.179-0.889-8.423-0.312-12.667
		c0.176-1.29,0.198-2.601,0.3-4.025c-2.74,1.03-3.897,2.439-3.858,4.798c0.031,1.893,0.232,3.788,0.47,5.668
		c0.277,2.192,0.457,4.434,1.084,6.533C1154.186,574.857,1155.148,576.89,1157.76,577.135z M1571.522,577.626
		c0.282,0.325,0.565,0.65,0.85,0.976c1.661,1.619,3.485,2.978,5.603,3.99c4.762,2.275,9.772,3.543,15.021,3.62
		c3.985,0.059,7.978-0.198,11.965-0.37c11.966-0.516,23.932-1.056,35.896-1.6c0.741-0.033,1.477-0.187,2.214-0.284
		c0.036-0.164,0.073-0.327,0.109-0.49c-1.892-1.294-3.738-2.659-5.681-3.871c-16.605-10.357-33.194-20.744-49.873-30.982
		c-3.796-2.33-7.84-4.308-11.916-6.119c-8.625-3.833-17.724-6.332-26.732-9.066c-0.191-0.059-0.435,0.053-0.809,0.108
		c0.377,0.629,0.714,1.156,1.018,1.703c2.358,4.255,5,8.383,6.988,12.804c2.352,5.228,4.233,10.676,6.14,16.092
		C1564.197,569.478,1567.684,573.655,1571.522,577.626z M1470.378,486.988c-0.372,1.884-0.607,3.707,0.226,5.608
		c0.313,0.712-0.075,1.831-0.373,2.685c-0.384,1.102-1.14,2.078-1.486,3.187c-1.121,3.595-0.958,3.845,2.62,4.825
		c16.249,4.453,32.491,8.921,48.444,14.378c13.674,4.678,27.392,9.225,41.08,13.856c14.823,5.017,28.866,11.663,42.045,20.125
		c9.145,5.872,18.285,11.755,27.516,17.491c9.498,5.903,18.895,11.992,29.008,16.845c8.904,4.273,18.112,7.632,27.925,9.052
		c6.323,0.915,12.669,1.694,19.022,2.37c9.532,1.015,19.074,1.938,28.621,2.798c6.683,0.602,13.378,1.06,20.072,1.527
		c10.995,0.77,21.994,1.49,32.991,2.24c11.236,0.767,22.472,1.546,33.708,2.313c1.154,0.079,2.312,0.106,3.773,0.172
		c-0.67-1.393-1.174-2.46-1.695-3.519c-1.944-3.939-3.956-7.847-5.829-11.819c-4.58-9.714-8.283-19.729-10.135-30.357
		c-0.794-4.562-1.585-9.124-2.377-13.687c-0.017-1.105,0.027-2.217-0.062-3.317c-0.174-2.146-0.511-4.281-0.624-6.429
		c-0.619-11.724,0.663-23.266,3.319-34.688c1.978-8.507,4.407-16.849,8.559-24.586c3.682-6.863,8.422-13.003,13.331-19.006
		c3.337-4.081,6.807-8.052,10.232-12.059c2.958-3.461,5.861-6.975,8.93-10.336c3.342-3.659,6.821-7.191,10.828-10.16
		c0.841-0.622,1.885-1.22,1.912-2.625c-0.747-0.268-1.406-0.52-2.075-0.741c-9.818-3.255-20.044-4.584-30.184-6.28
		c-9.514-1.592-19.058-2.992-28.59-4.471c-6.932-1.076-13.856-2.2-20.799-3.197c-8.521-1.225-17.057-2.361-25.591-3.494
		c-7.19-0.954-14.389-1.844-21.583-2.772c-6.482-0.837-12.966-1.676-19.445-2.538c-7.902-1.051-15.777-2.357-23.705-3.123
		c-6.824-0.658-13.704-0.771-20.563-0.998c-2.542-0.085-5.097,0.219-7.646,0.303c-6.866,0.224-13.743,0.268-20.599,0.677
		c-6.763,0.403-13.518,1.04-20.249,1.811c-6.252,0.717-12.503,1.557-18.693,2.678c-10.119,1.833-20.181,3.979-30.28,5.921
		c-14.084,2.706-27.787,6.658-40.942,12.404c-15.751,6.878-31.829,12.901-48.063,18.523c-4.377,1.516-8.733,3.091-13.089,4.667
		c-1.87,0.677-2.146,1.03-2.057,2.992c0.08,1.749,0.329,3.492,0.512,5.237c0.35,3.331,0.738,6.658,1.05,9.992
		c0.481,5.159,1.058,10.316,1.311,15.488C1470.84,480.284,1470.496,483.642,1470.378,486.988z M5.748,518.271
		c-0.059,0.005-0.117,0.009-0.176,0.014c0.222,3.494,0.473,6.987,0.658,10.484c0.199,3.737,0.335,7.478,0.502,11.217
		c0.011,0.238,0.048,0.477,0.077,0.714c0.289,2.44,0.609,4.878,0.86,7.322c0.366,3.555,0.593,7.125,1.04,10.668
		c0.704,5.585,1.551,11.152,2.319,16.729c0.328,2.377,1.087,3.02,3.495,2.633c1.88-0.302,3.737-0.746,5.6-1.148
		c6.987-1.509,13.966-3.059,20.96-4.531c8.236-1.733,16.489-3.389,24.729-5.103c7.153-1.487,14.294-3.03,21.449-4.511
		c6.764-1.4,13.542-2.73,20.306-4.13c7.154-1.481,14.295-3.029,21.449-4.511c9.796-2.028,19.6-4.025,29.401-6.029
		c7.468-1.526,14.935-3.059,22.408-4.558c7.783-1.563,15.574-3.081,23.358-4.632c5.762-1.147,11.513-2.355,17.283-3.466
		c5.999-1.155,12.004-2.284,18.026-3.315c4.456-0.764,8.941-1.363,13.415-2.02c3.294-0.483,6.599-0.9,9.887-1.424
		c2.109-0.336,2.542-0.873,2.636-2.913c0.059-1.276-0.01-2.563,0.109-3.832c0.238-2.525,0.582-5.04,0.853-7.563
		c0.364-3.395,0.825-6.785,1.018-10.189c0.248-4.373,0.632-8.787,0.286-13.129c-0.32-4.006-1.464-7.955-2.365-11.901
		c-0.742-3.248-2.859-5.249-6.08-6.096c-1.692-0.444-3.385-0.89-5.066-1.373c-8.415-2.417-16.822-4.863-25.241-7.268
		c-8.647-2.47-17.301-4.917-25.959-7.349c-7.43-2.087-14.868-4.145-22.306-6.203c-7.361-2.037-14.728-4.053-22.089-6.089
		c-8.206-2.271-16.409-4.549-24.612-6.831c-7.513-2.091-15.023-4.188-22.534-6.286c-6.897-1.927-13.792-3.861-20.69-5.787
		c-6.667-1.861-13.333-3.726-20.004-5.571c-7.132-1.974-14.269-3.929-21.404-5.892c-7.749-2.131-15.494-4.276-23.249-6.381
		c-1.837-0.499-3.692-1.017-5.574-1.247c-2.068-0.254-2.271-0.069-2.836,2.007c-0.646,2.372-1.129,4.789-1.652,7.193
		c-1.03,4.734-2.115,9.459-3.036,14.215c-1.01,5.218-1.908,10.458-2.761,15.703c-0.472,2.896-0.813,5.817-1.1,8.737
		c-0.256,2.61-0.344,5.237-0.526,7.855c-0.303,4.358-0.623,8.717-0.93,13.076c-0.028,0.397,0.007,0.801-0.025,1.199
		c-0.307,3.799-0.675,7.595-0.92,11.397c-0.23,3.574-0.375,7.156-0.484,10.736C6.055,505.354,5.913,511.813,5.748,518.271z
		 M590.628,546.408c0.002,0.071,0.004,0.143,0.006,0.215c6.7-0.224,13.398-0.472,20.099-0.662
		c6.781-0.192,13.564-0.304,20.345-0.499c3.583-0.103,7.165-0.293,10.746-0.471c6.204-0.308,12.405-0.679,18.611-0.943
		c5.339-0.228,10.683-0.33,16.024-0.515c3.743-0.129,7.483-0.314,11.226-0.452c4.781-0.176,9.563-0.339,14.345-0.488
		c5.821-0.183,11.643-0.345,17.465-0.517c0.16-0.004,0.32-0.003,0.479-0.015c4.204-0.304,8.404-0.673,12.613-0.896
		c4.617-0.246,9.242-0.358,13.864-0.529c0.16-0.006,0.32-0.005,0.479-0.017c3.964-0.302,7.925-0.651,11.893-0.894
		c3.658-0.223,7.322-0.349,10.984-0.485c4.781-0.179,9.563-0.324,14.345-0.489c4.542-0.155,9.083-0.434,13.625-0.449
		c7.181-0.025,14.338-0.346,21.492-0.971c3.737-0.326,7.234-1.265,10.33-3.362c2.237-1.517,4.286-3.308,6.468-4.908
		c5.33-3.911,7.876-9.298,8.207-15.753c0.294-5.735,0.426-11.48,0.492-17.224c0.083-7.278,0.158-14.562-0.029-21.836
		c-0.087-3.396-0.646-6.802-1.262-10.153c-0.928-5.055-2.876-9.759-5.196-14.351c-2.683-5.311-6.874-8.273-12.716-8.897
		c-5.216-0.556-10.44-1.063-15.672-1.43c-6.037-0.422-12.085-0.673-18.13-0.983c-3.421-0.176-6.843-0.323-10.266-0.479
		c-3.582-0.163-7.164-0.323-10.746-0.481c-3.662-0.162-7.322-0.372-10.985-0.47c-7.82-0.207-15.642-0.354-23.464-0.527
		c-0.798-0.019-1.597-0.047-2.395-0.08c-2.704-0.114-5.408-0.342-8.11-0.321c-3.263,0.024-6.524,0.272-9.787,0.389
		c-0.545,0.02-1.208,0.032-1.626-0.243c-1.791-1.181-3.711-0.597-5.587-0.539c-0.948,0.029-1.888,0.259-2.837,0.309
		c-3.421,0.181-6.843,0.341-10.266,0.477c-4.621,0.183-9.244,0.32-13.864,0.505c-3.183,0.127-6.363,0.316-9.546,0.451
		c-4.221,0.18-8.444,0.325-12.666,0.497c-3.662,0.149-7.323,0.326-10.985,0.469c-4.461,0.175-8.923,0.327-13.385,0.489
		c-4.382,0.158-8.763,0.42-13.146,0.453c-7.658,0.059-15.292,0.497-22.934,0.934c-4.934,0.283-9.859,0.533-14.698,1.528
		c-5.219,1.072-10.402,2.327-15.589,3.552c-2.18,0.514-3.567,1.91-4.36,4.031c-0.771,2.063-0.183,3.879,0.604,5.744
		c1.051,2.49,2.174,4.964,3.012,7.527c2.505,7.656,3.066,15.588,3.067,23.581c0,3.76,0.065,7.521-0.026,11.278
		c-0.054,2.223-0.151,4.48-0.586,6.65c-1.077,5.378-2.263,10.737-3.584,16.061c-1.458,5.872-3.142,11.688-4.673,17.542
		c-0.67,2.563,0.626,5.462,2.979,6.392c3.263,1.29,6.588,2.349,10.196,2.281C580.547,546.337,585.588,546.408,590.628,546.408z
		 M1943.75,602.154c1.273-0.056,2.599,0.096,3.813-0.204c5.826-1.435,9.449-7.197,8.123-13.055
		c-0.471-2.078-1.412-4.058-2.215-6.052c-1.347-3.338-2.858-6.647-3.183-10.267c-0.719-8,2.778-13.856,9.455-18.043
		c3.724-2.334,7.404-4.737,11.072-7.157c4.358-2.876,5.896-7.021,5.044-12.044c-0.976-5.741-3.18-11.045-6.261-15.969
		c-2.63-4.202-5.317-8.369-8.053-12.503c-6.661-10.07-13.224-20.225-20.875-29.585c-7.084-8.666-14.333-17.201-21.658-25.665
		c-5.117-5.912-10.899-11.19-18.318-14.007c-11.276-4.28-22.7-8.167-34.048-12.262c-1.217-0.439-2.199-0.154-3.134,0.531
		c-0.575,0.422-1.097,0.938-1.571,1.474c-10.285,11.607-20.656,23.141-30.811,34.863c-8.78,10.136-14.646,21.862-18.029,34.836
		c-2.753,10.556-4.104,21.326-4.916,32.176c-0.143,1.9-0.129,3.844,0.092,5.734c0.694,5.951,1.465,11.894,2.313,17.824
		c0.949,6.643,2.036,13.261,4.045,19.694c3.695,11.829,9.441,22.702,15.461,33.454c0.756,1.352,1.904,2.109,3.387,2.434
		c2.184,0.478,4.348,1.073,6.551,1.437c7.802,1.284,15.604,2.576,23.43,3.698c4.91,0.704,9.855,0.918,14.813,0.192
		c4.979-0.729,9.978-1.336,14.973-1.955c11.588-1.438,23.089-3.276,34.258-6.833C1932.78,603.224,1938.189,602.191,1943.75,602.154z
		 M304.427,539.102c0.665,0.048,1.055,0.109,1.444,0.099c6.229-0.185,12.46-0.336,18.688-0.577
		c11.415-0.442,22.827-1.293,34.242-1.337c23.185-0.09,46.372,0.327,69.558,0.38c21.031,0.049,42.062-0.104,63.092-0.179
		c6.557-0.023,13.113-0.094,19.669-0.122c8.877-0.037,17.754-0.05,26.631-0.082c2.159-0.008,4.319-0.007,6.476-0.086
		c2.155-0.079,3.183-1.041,3.476-3.146c1.025-7.357,2.083-14.711,3.045-22.076c1.093-8.361,1.25-16.775,0.081-25.109
		c-1.308-9.325-3.106-18.583-4.748-27.861c-0.476-2.691-1.465-3.503-4.199-3.688c-3.029-0.205-6.063-0.477-9.095-0.475
		c-13.109,0.01-26.219,0.054-39.328,0.189c-16.306,0.17-32.61,0.524-48.916,0.644c-10.953,0.081-21.908-0.14-32.863-0.164
		c-7.196-0.017-14.399-0.109-21.586,0.164c-8.938,0.339-17.873,0.897-26.792,1.58c-13.063,1-26.109,2.209-39.165,3.299
		c-4.935,0.412-9.885,0.658-14.814,1.134c-4.23,0.407-4.244,0.688-3.86,4.927c0.554,6.124,1.29,12.271,1.245,18.402
		c-0.075,10.222-0.675,20.44-1.117,30.658C305.26,523.408,304.827,531.139,304.427,539.102z M938.876,361.152
		c0-0.009,0-0.017,0-0.024c3.519,0,7.038,0,10.556,0c7.357,0,14.716-0.032,22.073,0.009c6.269,0.035,10.514-4.869,10.102-10.028
		c-0.17-2.14-0.363-4.279-0.462-6.423c-0.193-4.219-0.356-8.44-0.48-12.662c-0.239-8.138,0.192-16.276-0.398-24.424
		c-0.339-4.666,0.279-9.395,0.328-14.096c0.024-2.3-0.481-4.612-0.376-6.902c0.301-6.516-0.727-12.867-2.133-19.17
		c-0.354-1.592-0.934-3.323-1.948-4.543c-4.266-5.131-9.913-6.987-16.472-6.327c-4.583,0.46-9.161,1.02-13.755,1.32
		c-4.691,0.308-9.399,0.363-14.101,0.511c-5.419,0.171-10.84,0.317-16.261,0.484c-4.94,0.152-9.881,0.305-14.821,0.482
		c-3.821,0.138-7.642,0.315-11.463,0.475c-3.821,0.16-7.641,0.355-11.463,0.472c-6.219,0.19-12.439,0.408-18.661,0.472
		c-8.556,0.087-17.114,0.01-25.671,0.072c-2.542,0.019-5.083,0.385-7.624,0.385c-2.301,0-4.603-0.281-6.904-0.438
		c-0.239-0.017-0.479-0.024-0.718-0.034c-3.662-0.14-7.323-0.384-10.984-0.384c-2.778,0.001-4.552,1.326-5.066,3.848
		c-0.729,3.574-1.64,7.125-1.571,10.839c0.246,13.337-0.028,26.672,0.391,40.017c0.467,14.86,0.114,29.747,0.119,44.622
		c0,0.64-0.048,1.286,0.025,1.918c0.2,1.727,1.277,2.483,2.982,2.288c2.76-0.317,5.522-0.682,8.293-0.814
		c6.215-0.298,12.432,0.029,18.666-0.411c8.032-0.568,16.11,0.063,24.177-0.504c7.795-0.547,15.628,0.034,23.459-0.459
		c9.234-0.581,18.508-0.083,27.776-0.466C917.269,360.811,928.08,361.152,938.876,361.152z M848.591,520.65
		c0.623,0.177,0.849,0.304,1.071,0.296c4.378-0.157,8.758-0.296,13.133-0.515c1.741-0.087,3.474-0.348,5.208-0.55
		c2.284-0.266,4.561-0.595,6.849-0.815c2.373-0.229,4.757-0.344,7.133-0.541c3.48-0.287,6.954-0.771,10.439-0.878
		c11.253-0.347,22.506,0.066,33.773-0.406c16.678-0.699,33.396,0.463,50.085-0.573c3.974-0.246,7.947,0.07,11.945-0.4
		c4.575-0.538,9.229-0.542,13.847-0.528c3.19,0.01,5.653-1.319,7.962-3.273c3.457-2.928,5.202-6.795,6.105-11.104
		c0.992-4.737,2.018-9.472,2.823-14.242c0.66-3.908,1.31-7.857,1.436-11.805c0.138-4.366,0.354-8.753-0.335-13.143
		c-0.604-3.835-0.617-7.758-1.077-11.62c-0.261-2.192-0.648-4.435-1.423-6.485c-1.017-2.688-2.772-4.863-5.98-5.162
		c-1.898-0.177-3.802-0.479-5.697-0.446c-4.859,0.084-9.719,0.258-14.571,0.528c-2.768,0.153-5.517,0.777-8.281,0.831
		c-17.654,0.342-35.314-0.433-52.97,0.475c-9.484,0.487-18.986-0.117-28.497,0.415c-10.912,0.611-21.869,0.427-32.806,0.589
		c-0.719,0.011-1.441,0-2.157,0.056c-3.72,0.291-7.437,0.628-11.159,0.895c-2.936,0.211-5.878,0.32-8.815,0.522
		c-1.343,0.092-2.683,0.269-4.016,0.466c-0.513,0.076-1.002,0.315-1.81,0.581c0.545,0.942,0.938,1.689,1.393,2.397
		c4.578,7.127,6.718,15.085,7.853,23.357c0.464,3.378,0.762,6.788,0.944,10.193c0.272,5.093-0.279,10.209,0.472,15.301
		c0.155,1.053-0.343,2.188-0.412,3.292c-0.199,3.176-0.198,6.37-0.527,9.532c-0.361,3.467-0.999,6.906-1.523,10.356
		C848.89,519.007,848.745,519.765,848.591,520.65z M1218.093,443.778c0.112,0.672,0.152,1.229,0.301,1.757
		c2.354,8.357,3.444,16.903,3.651,25.557c0.186,7.755,0.115,15.516-1.363,23.172c-0.968,5.017-2.104,10-3.158,14.999
		c-0.451,2.143-0.044,2.632,2.109,2.48c4.383-0.307,8.77-0.564,13.145-0.965c10.994-1.007,22.019-1.192,33.045-1.23
		c7.031-0.023,14.063,0.224,21.095,0.295c8.315,0.084,16.632,0.174,24.948,0.148c27.586-0.086,55.172-0.221,82.758-0.345
		c3.678-0.017,7.354-0.072,11.031-0.128c2.139-0.032,2.634-0.422,3-2.578c0.334-1.968,0.512-3.962,0.816-5.936
		c2.138-13.858,3.311-27.771,2.157-41.79c-0.326-3.975-0.948-7.931-1.604-11.868c-0.419-2.522-1.22-3.082-3.738-3.076
		c-2.075,0.005-4.15,0.132-6.226,0.186c-6.311,0.165-12.62,0.347-18.932,0.473c-9.269,0.186-18.537,0.434-27.807,0.464
		c-12.232,0.039-24.465-0.089-36.697-0.18c-19.507-0.144-39.013-0.342-58.519-0.466c-11.35-0.072-22.698-0.046-34.024-0.947
		C1222.187,443.648,1220.269,443.778,1218.093,443.778z M1040.638,470.575c0,4.879,0.001,9.758-0.001,14.637
		c0,0.56,0.016,1.121-0.023,1.679c-0.305,4.439-0.605,8.879-0.94,13.315c-0.149,1.98-0.264,3.973-0.585,5.928
		c-0.643,3.911-1.43,7.798-2.131,11.7c-0.239,1.336,0.52,2.544,1.752,2.625c3.335,0.218,6.676,0.445,10.016,0.465
		c2.617,0.016,5.236-0.397,7.855-0.408c11.438-0.05,22.875,0.013,34.313-0.045c3.1-0.017,6.198-0.292,9.296-0.484
		c2.141-0.133,4.28-0.294,6.415-0.5c4.581-0.443,9.155-0.953,13.737-1.38c3.874-0.36,7.753-0.677,11.635-0.948
		c5.155-0.36,10.312-0.802,15.475-0.949c9.494-0.271,18.994-0.354,28.491-0.51c1.279-0.021,2.56,0.002,3.84-0.004
		c2.862-0.012,4.032-1.073,4.392-3.856c0.193-1.492,0.543-2.965,0.757-4.455c0.563-3.925,1.125-7.851,1.62-11.784
		c0.257-2.049,0.37-4.114,0.555-6.172c0.296-3.32,0.734-6.635,0.859-9.96c0.151-3.994,0.101-7.999,0.018-11.996
		c-0.071-3.42-0.262-6.841-0.491-10.255c-0.256-3.803-0.657-7.595-0.92-11.396c-0.251-3.622-1.646-4.054-4.29-4.072
		c-36.131-0.263-72.267,0.649-108.394-0.46c-3.66-0.112-7.317-0.321-10.977-0.488c-0.238-0.011-0.476-0.053-0.715-0.076
		c-2.92-0.29-5.84-0.58-8.761-0.868c-2.999-0.296-6.019-0.463-8.995-0.914c-4.594-0.698-5.946,0.606-5.174,5.183
		c0.82,4.862,1.4,9.749,1.373,14.694C1040.617,462.737,1040.635,466.656,1040.638,470.575z M1143.91,598.388
		c0.833,1.074,1.871,1.378,3.044,1.308c2.701-0.164,5.407-0.29,8.101-0.539c4.429-0.411,8.848-0.935,13.275-1.359
		c3.719-0.356,7.451-0.578,11.165-0.973c3.868-0.411,7.74-0.846,11.577-1.472c6.162-1.006,11.857-3.27,16.694-7.275
		c2.249-1.862,3.861-4.333,3.73-7.435c-0.126-3.013-0.465-6.02-0.786-9.021c-0.321-3.001-0.729-5.993-1.112-8.987
		s-0.814-5.981-1.175-8.978c-0.436-3.627-0.826-7.26-1.223-10.892c-0.087-0.791-0.134-1.588-0.163-2.384
		c-0.095-2.546-0.387-5.107-0.208-7.635c0.263-3.717,0.914-7.404,1.307-11.114c0.28-2.642-0.264-3.079-2.907-2.657
		c-0.314,0.05-0.637,0.051-0.955,0.071c-4.923,0.316-9.847,0.637-14.77,0.947c-5.163,0.326-10.326,0.646-15.489,0.964
		c-5.242,0.322-10.484,0.665-15.729,0.949c-3.818,0.206-7.642,0.353-11.464,0.485c-5.261,0.183-10.523,0.312-15.783,0.493
		c-4.223,0.146-8.443,0.336-12.664,0.507c-0.239,0.01-0.479,0.023-0.718,0.043c-3.645,0.296-7.284,0.662-10.934,0.871
		c-4.297,0.246-8.602,0.356-12.902,0.525c-0.16,0.007-0.32,0.01-0.479,0.02c-4.523,0.305-9.044,0.775-13.572,0.876
		c-6.715,0.148-13.438,0.04-20.156,0.027c-0.796-0.001-1.59-0.104-2.387-0.133c-2.945-0.109-5.893-0.291-8.838-0.276
		c-1.494,0.008-2.053,0.94-1.715,2.426c0.229,1.008,0.462,2.027,0.828,2.99c1.419,3.727,2.772,7.484,4.372,11.133
		c2.354,5.37,5.718,9.885,11.015,12.835c4.303,2.397,8.96,3.111,13.71,3.706c1.228,0.153,2.625,0.414,3.565,1.126
		c2.687,2.034,5.117,4.416,6.336,7.66c1.176,3.13,2.17,6.33,3.184,9.519c1.525,4.803,3.698,9.129,8.894,10.814
		c4.28,1.39,5.902,4.553,6.362,8.632c0.286,2.547,1.108,3.606,3.587,3.915c2.286,0.285,4.6,0.525,6.899,0.504
		c3.982-0.036,7.963-0.285,11.943-0.462c0.393-0.018,0.777-0.18,1.171-0.216c0.545-0.052,1.097-0.085,1.643-0.062
		c1.907,0.084,3.813,0.29,5.719,0.27c1.759-0.019,2.726-0.78,3.068-2.468c0.565-2.79,1.25-5.616-0.241-8.377
		c-0.167-0.31-0.104-0.782-0.053-1.167c0.26-1.967,0.625-3.922,0.814-5.894c0.421-4.362,1.095-8.663,2.355-12.878
		c2.314-7.731,6.123-14.45,12.398-19.729c5.32-4.476,11.406-7.321,18.064-8.941c5.401-1.314,10.884-2.3,16.344-3.367
		c3.507-0.686,7.033-1.278,10.559-1.864c2.516-0.419,4.071,0.825,4.121,3.355c0.026,1.343-0.247,2.688-0.297,4.035
		c-0.066,1.832-0.236,3.688-0.029,5.497c0.489,4.257,1.192,8.488,1.776,12.735c0.54,3.936,0.819,7.923,1.624,11.801
		c0.659,3.172-0.097,5.923-1.725,8.407c-3.455,5.271-8.641,8.232-14.611,9.712c-7.173,1.779-14.427,3.155-21.796,3.983
		c-6.654,0.749-13.295,1.432-19.997,1.375c-0.479-0.004-0.99-0.075-1.432,0.063C1145.744,596.76,1144.428,596.824,1143.91,598.388z
		 M1759.422,402.078c-0.313-0.813-0.471-1.334-0.705-1.817c-0.839-1.724-1.677-3.449-2.562-5.149
		c-3.872-7.439-7.771-14.865-11.624-22.314c-0.324-0.627-1.003-1.251-0.553-2.198c2.729,1.349,4.787,3.145,6.05,5.942
		c3.188,7.061,6.523,14.054,9.819,21.065c0.678,1.443,1.461,2.843,0.742,4.608c20.465,3.224,40.752,6.42,61.039,9.616
		c0.068-0.165,0.137-0.33,0.205-0.495c-0.413-0.425-0.814-0.862-1.242-1.271c-2.478-2.371-5.049-4.652-7.425-7.122
		c-4.404-4.578-9.111-8.778-14.752-11.757c-10.04-5.3-19.818-11.038-29.493-16.974c-8.828-5.416-18.162-9.705-28.359-11.928
		c-11.585-2.524-23.215-3.188-34.969-1.268c-10.124,1.653-19.628,5.065-28.563,10.015c-7.783,4.311-15.873,7.864-24.269,10.779
		c-10.03,3.482-20.032,7.046-30.037,10.603c-0.907,0.322-1.957,0.463-2.883,1.574c22.804-0.805,45.264-1.597,68.021-2.398
		c-0.571-1.086-0.916-1.792-1.306-2.475c-2.06-3.608-4.138-7.207-6.189-10.82c-0.279-0.492-0.935-0.993-0.091-1.741
		c0.34,0.29,0.707,0.564,1.029,0.884c3.439,3.426,5.322,7.743,6.838,12.229c0.768,2.272,2.248,3.301,4.543,3.609
		c7.914,1.066,15.818,2.202,23.725,3.327c2.106,0.299,4.205,0.655,6.703,1.047c-0.541-1.047-0.887-1.747-1.258-2.433
		c-2.625-4.847-5.271-9.683-7.869-14.544c-0.459-0.859-0.721-1.824-1.195-3.055c1.971,0.654,2.631,1.944,3.271,3.224
		c2.393,4.785,4.802,9.563,7.123,14.384c0.874,1.813,2.067,2.843,4.16,3.076c8.812,0.987,17.609,2.096,26.413,3.151
		C1755.557,401.669,1757.357,401.852,1759.422,402.078z M928.801,593.532c0-5.199,0.02-10.399-0.01-15.599
		c-0.012-2.144-0.577-2.765-2.718-2.69c-2.378,0.084-4.748,0.4-7.122,0.607c-3.083,0.271-6.164,0.623-9.254,0.761
		c-1.49,0.066-2.995-0.307-4.498-0.43c-2.457-0.2-4.918-0.341-7.375-0.542c-1.661-0.136-3.318-0.328-4.976-0.503
		c-2.761-0.291-5.52-0.598-8.282-0.877c-1.658-0.168-3.327-0.237-4.977-0.457c-3.174-0.424-4.092,0.338-4.069,3.51
		c0.003,0.4-0.01,0.802,0.02,1.199c0.308,4.12,0.815,8.235,0.899,12.359c0.259,12.776,0.37,25.557,0.51,38.335
		c0.047,4.319,0.125,8.644-0.029,12.958c-0.118,3.289,1.256,4.684,3.977,5.798c9.69,3.971,19.808,5.815,30.252,5.967
		c2.56,0.037,5.12,0.008,7.679,0.006c3.498-0.003,5.448-1.436,6.659-4.688c1.15-3.09,1.755-6.259,1.893-9.549
		c0.076-1.822,0.329-3.639,0.55-5.452c0.431-3.542,0.913-7.078,1.339-10.62c0.332-2.756,0.699-5.513,0.879-8.28
		c0.088-1.368,0.69-2.963-0.498-4.093c-0.833-0.793-0.85-1.645-0.85-2.602C928.802,603.611,928.802,598.572,928.801,593.532z
		 M913.93,434.111c5.995,0,11.989,0.006,17.983-0.003c3.322-0.006,3.706-0.377,3.588-3.771c-0.105-3.021-0.318-6.038-0.488-9.057
		c-0.013-0.238-0.056-0.475-0.083-0.713c-0.281-2.522-0.619-5.041-0.828-7.569c-0.237-2.854-0.346-5.718-0.535-8.575
		c-0.142-2.141-0.335-4.278-0.48-6.419c-0.312-4.599-0.783-9.195-0.861-13.799c-0.078-4.534,0.297-9.073,0.382-13.612
		c0.061-3.247-0.884-4.216-4.064-4.154c-3.181,0.063-6.356,0.356-9.537,0.424c-9.413,0.199-18.826,0.328-28.239,0.501
		c-2.464,0.046-2.839,0.372-2.764,2.79c0.09,2.94,0.235,5.887,0.533,8.813c0.417,4.097,0.769,8.17,0.48,12.309
		c-0.333,4.766-0.344,9.553-0.532,14.329c-0.12,3.021-0.327,6.038-0.459,9.058c-0.188,4.297-0.332,8.596-0.52,12.893
		c-0.048,1.108-0.231,2.21-0.278,3.318c-0.088,2.058,0.372,3.184,2.324,3.484c1.014,0.155,2.062,0.177,3.089,0.132
		c1.504-0.066,3.002-0.349,4.504-0.36C902.74,434.084,908.335,434.111,913.93,434.111z M1371.751,408.483
		c-2.504,0.24-4.622,0.562-6.749,0.624c-7.258,0.216-14.518,0.17-21.781,0.388c-13.507,0.406-27.035,0.118-40.554,0.113
		c-0.799,0-1.597-0.062-2.395-0.085c-4.302-0.128-8.603-0.317-12.904-0.342c-1.573-0.01-2.12,0.697-2.424,2.358
		c-0.829,4.54-1.374,9.11-1.432,13.731c-0.008,0.635-0.14,1.267-0.158,1.901c-0.109,3.745-0.251,7.491-0.272,11.237
		c-0.007,1.197,0.833,1.852,2.045,1.911c0.639,0.031,1.279,0.022,1.92,0.014c9.739-0.127,19.477-0.132,29.219-0.371
		c16.389-0.402,32.795-0.11,49.194-0.11c0.64,0,1.284,0.043,1.919-0.017c2.037-0.188,2.968-1.203,3.02-3.245
		c0.019-0.72-0.014-1.442,0.037-2.158c0.298-4.2,0.605-8.4,0.931-12.599c0.092-1.185,0.346-2.361,0.366-3.545
		C1371.785,415.193,1371.751,412.096,1371.751,408.483z M906.463,571.368c0.001,0.024,0.001,0.05,0.002,0.075
		c6.217-0.182,12.434-0.405,18.652-0.531c4.578-0.092,5.636-1.238,5.093-5.809c-0.019-0.158-0.042-0.316-0.063-0.476
		c-0.284-2.042-0.664-4.077-0.833-6.129c-0.379-4.596-0.877-9.198-0.915-13.801c-0.049-5.976,0.216-11.958,0.522-17.929
		c0.144-2.816-0.178-3.405-2.996-3.409c-6.156-0.009-12.312,0.001-18.468-0.008c-0.716-0.001-1.627,0.198-2.114-0.155
		c-1.918-1.39-4.025-0.764-6.022-0.689c-4.207,0.157-8.402,0.601-12.607,0.849c-3.816,0.225-7.64,0.318-11.457,0.523
		c-1.711,0.093-2.189,0.538-2.129,2.191c0.112,3.102,0.354,6.198,0.563,9.295c0.124,1.822,0.304,3.642,0.431,5.465
		c0.31,4.44,0.793,8.88,0.84,13.323c0.035,3.32-0.421,6.655-0.809,9.965c-0.315,2.689,0.94,4.563,3.571,4.872
		c3.076,0.361,6.169,0.601,9.233,1.045c4.961,0.717,9.925,1.341,14.948,1.332C903.425,571.366,904.944,571.368,906.463,571.368z
		 M1147.807,567.471c-0.521,1.509-0.975,2.693-1.344,3.903c-1.774,5.828-3.145,11.733-3.089,17.874
		c0.019,2.017,0.451,2.454,2.411,2.361c1.994-0.094,3.98-0.342,5.969-0.536c9.941-0.973,19.895-1.841,29.818-2.967
		c5.784-0.655,11.181-2.599,15.959-6.062c3.559-2.578,5.07-6.082,4.746-10.389c-0.706-9.4-1.471-18.797-2.201-28.195
		c-0.192-2.48-0.438-2.685-2.974-2.266c-0.315,0.053-0.622,0.148-0.937,0.203c-6.058,1.054-12.11,2.14-18.176,3.145
		c-5.188,0.859-10.096,2.391-14.386,5.559c-2.136,1.576-3.761,3.533-4.142,6.215c-0.732,5.161-0.841,10.337,0.064,15.501
		c0.524,2.995,1.937,5.222,5.103,5.946c0.771,0.177,1.446,0.605,1.349,1.418c-0.073,0.614-0.438,1.378-0.922,1.729
		c-3.334,2.416-10.695,1.991-12.605-2.916C1151.122,574.58,1149.5,571.278,1147.807,567.471z M299.931,464.611
		c-1.604-0.579-2.55,0.105-3.559,0.569c-5,2.298-9.974,4.655-15.021,6.845c-3.346,1.451-3.765,1.936-3.417,5.564
		c0.03,0.316,0.083,0.633,0.157,0.941c1.268,5.372,1.285,10.878,1.696,16.337c0.204,2.702,0.103,5.434,0.031,8.149
		c-0.108,4.14-0.146,8.293-0.522,12.411c-0.368,4.023-1.074,8.02-1.725,12.013c-0.417,2.557,0.284,3.932,2.695,4.8
		c0.675,0.243,1.34,0.512,2.015,0.756c4.571,1.653,9.133,3.333,13.721,4.939c1.69,0.593,2.551,0.159,3.186-1.474
		c0.224-0.576,0.27-1.234,0.326-1.861c0.198-2.218,0.368-4.437,0.542-6.655c0.299-3.801,0.798-7.6,0.848-11.404
		c0.123-9.51,0.034-19.023,0.053-28.535c0.001-0.78-0.094-1.786,0.329-2.292c0.793-0.951,0.665-1.944,0.605-2.94
		c-0.108-1.823-0.351-3.638-0.535-5.456c-0.294-2.922-0.571-5.845-0.885-8.765C300.327,467.227,300.11,465.907,299.931,464.611z
		 M1105.544,603.178c-0.045,0.961-0.1,1.594-0.101,2.226c-0.005,11.422-0.004,22.844-0.002,34.265c0,0.479-0.029,0.965,0.034,1.437
		c0.312,2.301,1.081,3.218,3.4,3.701c2.013,0.418,4.061,0.886,6.099,0.914c3.251,0.045,6.513-0.186,9.76-0.427
		c4.784-0.357,9.36-1.711,13.9-3.164c2.336-0.747,2.51-1.265,2.044-3.699c-1.206-6.319-2.162-12.668-2.139-19.131
		c0.005-1.259-0.294-2.516-0.36-3.778c-0.055-1.028,0.014-2.063,0.054-3.095c0.096-2.461,0.229-4.92,0.3-7.382
		c0.027-0.958-0.543-1.433-1.496-1.5c-2.137-0.151-4.271-0.449-6.408-0.466c-7.508-0.059-15.016-0.026-22.523-0.019
		C1107.326,603.061,1106.549,603.13,1105.544,603.178z M1018.57,427.789c0.127,0.578,0.191,0.95,0.291,1.314
		c3.004,11.04,5.244,22.218,6.143,33.645c0.691,8.783,0.643,17.559-0.352,26.313c-1.322,11.65-4.23,22.907-8.665,33.767
		c-0.22,0.538-0.321,1.125-0.515,1.825c4.178-0.642,8.113-1.229,12.042-1.859c1.262-0.202,2.298-0.823,2.575-2.176
		c1.092-5.311,2.672-10.53,2.942-15.996c0.324-6.541,0.779-13.077,1.041-19.62c0.521-13.001,1.501-25.994,0.882-39.021
		c-0.183-3.829-0.352-7.66-0.601-11.485c-0.161-2.483-0.926-3.406-3.306-4.002c-3.639-0.911-7.297-1.741-10.952-2.585
		C1019.661,427.807,1019.197,427.834,1018.57,427.789z M1201.022,515.207c0.007,0.065,0.015,0.131,0.021,0.195
		c1.892-0.216,3.78-0.568,5.677-0.617c3.213-0.083,4.928-2.118,5.582-4.757c1.391-5.617,2.616-11.301,3.441-17.024
		c0.589-4.078,0.39-8.268,0.592-12.405c0.079-1.621-0.501-3.367,0.807-4.801c0.129-0.142,0.107-0.465,0.081-0.696
		c-0.177-1.577-0.371-3.151-0.563-4.727c-0.432-3.543-0.895-7.082-1.292-10.629c-0.38-3.393-0.657-6.797-1.05-10.188
		c-0.19-1.648-0.509-3.285-0.829-4.916c-0.222-1.134-0.906-1.774-2.126-1.915c-3.724-0.43-7.44-0.243-11.157,0.023
		c-1.48,0.105-1.913,0.839-1.424,2.293c0.229,0.679,0.566,1.321,0.79,2.001c1.849,5.614,2.912,11.363,3.359,17.271
		c0.372,4.918,0.982,9.814,0.914,14.761c-0.034,2.56,0.076,5.123-0.031,7.679c-0.087,2.058-0.256,4.135-0.644,6.154
		c-1.281,6.678-3.113,13.176-6.794,19.006c-0.212,0.335-0.392,0.704-0.513,1.082c-0.445,1.387,0.047,2.114,1.559,2.198
		C1198.619,515.26,1199.822,515.207,1201.022,515.207z M555.661,454.2c-0.479,0-0.96-0.029-1.438,0.005
		c-2.069,0.151-2.275,0.258-2.474,2.406c-0.169,1.822-0.289,3.691-0.084,5.5c0.934,8.253,2.084,16.481,2.971,24.738
		c0.639,5.951,1.272,11.928,1.394,17.904c0.198,9.647-1.519,19.073-4.293,28.307c-0.298,0.99-0.546,2.001-0.733,3.019
		c-0.189,1.028,0.238,1.642,1.334,1.851c3.176,0.605,7.172-1.904,7.912-5.053c1.113-4.739,2.077-9.518,3.323-14.221
		c2.505-9.455,4.367-18.987,4.189-28.825c-0.006-0.318-0.093-0.729,0.065-0.941c0.985-1.322,0.46-2.742,0.312-4.122
		c-0.223-2.063-0.494-4.122-0.793-6.177c-0.795-5.451-1.522-10.914-2.455-16.343C564.063,457.431,560.126,454.1,555.661,454.2z
		 M1764.961,608.676c2.345,2.83,4.208,5.218,6.221,7.474c2.601,2.915,5.151,5.909,8.025,8.538
		c4.685,4.284,10.274,5.669,16.457,3.986c6.699-1.823,13.331-3.84,19.43-7.296c2.637-1.493,5.369-2.816,8.057-4.219
		c1.838-0.96,3.696-1.887,5.493-2.921c0.364-0.209,0.648-0.83,0.659-1.27c0.006-0.235-0.631-0.522-1.012-0.718
		c-0.197-0.101-0.471-0.049-0.71-0.072c-10.878-1.06-21.751-2.189-32.638-3.158c-9.145-0.813-18.313-1.233-27.498-1.06
		C1766.75,607.974,1766.063,608.348,1764.961,608.676z M1438.562,508.849c2.973-0.184,5.891-0.363,8.809-0.547
		c0.077-0.005,0.152-0.045,0.229-0.069c1.545-0.485,2.263-1.271,1.947-2.819c-0.575-2.815,0.093-5.557,0.239-8.316
		c0.521-9.804,1.171-19.601,1.811-29.397c0.479-7.355-1.082-14.46-2.605-21.563c-0.602-2.809-2.395-4.006-5.242-3.783
		c-1.192,0.094-2.381,0.271-3.563,0.464c-1.87,0.307-2.252,0.838-2.072,2.772c0.036,0.397,0.105,0.791,0.169,1.185
		c1.71,10.634,3.693,21.224,4.296,32.016c0.395,7.064,0.088,14.046-1.488,20.939C1440.4,502.748,1439.442,505.705,1438.562,508.849z
		 M1419.909,508.94c2.062,0.148,3.803,0.385,5.542,0.37c2.29-0.019,2.989-0.658,3.546-2.793c0.101-0.387,0.229-0.771,0.274-1.166
		c0.678-6.024,1.594-12.036,1.956-18.081c0.624-10.39,0.099-20.755-1.784-31.017c-0.59-3.216-1.267-6.419-2.029-9.599
		c-0.561-2.341-1.932-3.424-4.052-3.309c-1.106,0.06-2.225,0.288-3.29,0.602c-1.558,0.458-1.824,1.106-1.296,2.72
		c0.298,0.909,0.7,1.788,0.939,2.712c3.883,15.036,4.843,30.215,2.265,45.58C1421.217,499.514,1420.622,504.095,1419.909,508.94z
		 M1187.989,441.953c0.104,0.901,0.139,1.447,0.234,1.982c0.719,4.009,1.576,7.997,2.151,12.025
		c1.188,8.32,1.549,16.697,1.475,25.101c-0.095,10.619-1.584,21.004-4.953,31.097c-0.226,0.678-0.56,1.395-0.508,2.066
		c0.038,0.491,0.54,1.217,0.988,1.36c2.398,0.772,6.042-1.207,6.727-3.621c3.174-11.195,4.994-22.601,5.197-34.248
		c0.121-6.961-0.229-13.901-1.252-20.789c-0.633-4.263-1.481-8.493-2.209-12.742c-0.19-1.109-0.59-2.125-1.821-2.2
		C1192.067,441.866,1190.104,441.953,1187.989,441.953z M1431.515,508.757c5.009,0.932,5.325-0.322,6.001-4.028
		c0.071-0.391,0.051-0.798,0.091-1.195c0.427-4.211,0.883-8.419,1.277-12.634c0.38-4.055,1.061-8.124,0.964-12.172
		c-0.187-7.739-0.659-15.483-2.325-23.091c-0.752-3.432-1.412-6.883-2.198-10.307c-0.45-1.961-0.945-2.264-2.808-2.168
		c-3.23,0.166-3.562,0.559-2.995,3.801c1.14,6.526,2.355,13.041,3.459,19.574c2.164,12.825,2.086,25.599-0.988,38.298
		C1431.683,506.114,1431.665,507.464,1431.515,508.757z M1410.623,509.304c0.705,0.067,1.248,0.137,1.792,0.167
		c3.907,0.218,4.536-0.245,5.533-3.986c1.692-6.354,2.5-12.837,2.772-19.39c0.557-13.397-1.398-26.589-3.369-39.773
		c-0.324-2.164-1.164-2.704-3.286-2.384c-0.686,0.104-1.365,0.24-2.362,0.418c0.18,1.592,0.291,3.079,0.533,4.545
		c0.182,1.098,0.608,2.154,0.795,3.251c1.604,9.456,2.622,18.95,2.247,28.573c-0.343,8.815-1.588,17.467-4.008,25.95
		C1411.034,507.505,1410.855,508.351,1410.623,509.304z M1529.871,411.5c0.047-0.229,0.093-0.457,0.14-0.686
		c1.356,0.335,2.829,0.441,4.044,1.057c2.015,1.021,3.978,1.059,6.031,0.419c7.165-2.233,14.324-4.48,21.479-6.743
		c0.454-0.143,0.852-0.462,1.274-0.699c-0.477-0.357-0.846-0.414-1.211-0.393c-5.021,0.292-10.048,0.534-15.063,0.91
		c-5.653,0.425-11.304,0.901-16.941,1.492c-3.844,0.402-7.491,1.553-10.856,3.52c-6.526,3.814-11.104,9.531-15.285,15.634
		c-0.137,0.198-0.018,0.572-0.018,1.299c6.02-2.259,11.537-4.927,17.442-7.42c-1.4-1.246-2.556-2.274-4.015-3.572
		c0.854-0.07,1.341-0.254,1.696-0.111c0.952,0.382,1.901,0.823,2.757,1.386c1.628,1.071,3.179,1.238,4.911,0.187
		c1.221-0.741,2.574-1.271,3.889-1.851c1.339-0.591,2.702-1.126,4.474-1.859C1532.744,413.054,1531.308,412.277,1529.871,411.5z
		 M268.218,476.424c0.276,1.7,0.398,3.197,0.773,4.627c1.507,5.739,2.382,11.576,2.629,17.49c0.267,6.389,0.079,12.773-0.799,19.123
		c-0.372,2.688-0.773,5.374-1.063,8.07c-0.199,1.853,0.255,2.304,2.059,2.423c1.783,0.117,2.475-0.374,2.848-2.147
		c0.18-0.855,0.259-1.736,0.329-2.61c0.553-6.844,1.099-13.688,1.63-20.533c0.062-0.79,0.099-1.595,0.027-2.382
		c-0.529-5.804-1.081-11.605-1.642-17.406C274.616,479.003,272.843,477.142,268.218,476.424z M1462.297,508.188
		c0.573-0.476,0.926-0.621,1.006-0.857c0.582-1.736,1.394-3.457,1.603-5.244c0.628-5.364,1.027-10.756,1.491-16.14
		c0.218-2.537,0.361-5.08,0.571-7.618c0.27-3.246,0.671-6.484,0.819-9.734c0.078-1.731-0.232-3.484-0.412-5.223
		c-0.31-3.002-0.532-6.019-1.009-8.995c-0.865-5.401-3.176-10.342-5.234-15.351c-0.163-0.397-0.86-0.913-1.187-0.839
		c-0.75,0.17-0.718,0.864-0.572,1.566c0.727,3.499,1.439,7.002,2.098,10.515c0.864,4.605,2.171,9.198,2.387,13.839
		c0.305,6.519-0.147,13.079-0.417,19.614c-0.157,3.81-0.586,7.607-0.899,11.41c-0.065,0.791-0.227,1.578-0.233,2.369
		C1462.281,500.905,1462.297,504.311,1462.297,508.188z M1454.019,503.896c1.66-1.507,2.008-3.05,2.269-4.571
		c1.046-6.104,2.172-12.199,2.986-18.335c0.518-3.905,0.997-7.792,0.579-11.845c-0.481-4.661-0.93-9.325-1.614-13.963
		c-0.868-5.885-3.572-10.847-7.702-15.066c-0.273-0.28-0.714-0.396-1.102-0.603c-0.096,0.27-0.157,0.352-0.14,0.41
		c0.092,0.301,0.17,0.612,0.313,0.891c4.499,8.786,5.804,18.302,6.187,27.977c0.274,6.931-0.057,13.858-0.875,20.763
		c-0.448,3.785-0.678,7.598-0.969,11.4C1453.887,501.776,1453.983,502.611,1454.019,503.896z M1822.249,411.863l0.109-0.133
		l-0.173-0.027L1822.249,411.863z"/>
	<path style="fill-rule:evenodd;clip-rule:evenodd;fill:#2B4546;" d="M908.051,658.342c6.134-0.017,12.268-0.033,18.402-0.05
		c-0.064,0.142-0.082,0.289-0.053,0.442c-6.08,0-12.16,0-18.24,0C908.115,658.605,908.079,658.476,908.051,658.342z"/>
	<path style="fill-rule:evenodd;clip-rule:evenodd;fill:#494DA1;" d="M1470.379,486.988c0.117-3.347,0.461-6.704,0.299-10.037
		c-0.253-5.172-0.829-10.329-1.311-15.488c-0.312-3.334-0.7-6.661-1.05-9.992c-0.183-1.745-0.432-3.488-0.512-5.237
		c-0.089-1.962,0.187-2.315,2.057-2.992c4.355-1.576,8.712-3.151,13.089-4.667c16.234-5.622,32.313-11.646,48.063-18.523
		c13.155-5.746,26.858-9.698,40.942-12.404c10.1-1.941,20.161-4.088,30.28-5.921c6.19-1.121,12.441-1.961,18.693-2.678
		c6.731-0.771,13.486-1.407,20.249-1.811c6.855-0.409,13.732-0.453,20.599-0.677c2.55-0.084,5.104-0.388,7.646-0.303
		c6.859,0.227,13.739,0.34,20.563,0.998c7.928,0.766,15.803,2.072,23.705,3.123c6.479,0.862,12.963,1.701,19.445,2.538
		c7.194,0.929,14.393,1.818,21.583,2.772c8.534,1.133,17.069,2.27,25.591,3.494c6.942,0.997,13.867,2.121,20.799,3.197
		c9.532,1.479,19.076,2.879,28.59,4.471c10.14,1.696,20.365,3.025,30.184,6.28c0.669,0.222,1.328,0.474,2.075,0.741
		c-0.027,1.405-1.071,2.003-1.912,2.625c-4.007,2.969-7.486,6.501-10.828,10.16c-3.068,3.361-5.972,6.875-8.93,10.336
		c-3.426,4.007-6.896,7.978-10.232,12.059c-4.909,6.003-9.649,12.143-13.331,19.006c-4.151,7.737-6.581,16.079-8.559,24.586
		c-2.656,11.422-3.938,22.964-3.319,34.688c0.113,2.147,0.45,4.283,0.624,6.429c0.089,1.101,0.045,2.212,0.062,3.317
		c-3.022-0.211-6.048-0.386-9.066-0.641c-3.97-0.334-7.939-0.691-11.901-1.111c-5.307-0.563-10.607-1.179-15.907-1.799
		c-3.954-0.464-7.903-0.972-11.854-1.46c-0.246-1.725-0.484-3.45-0.739-5.174c-0.231-1.568-0.707-3.142-0.66-4.7
		c0.055-1.788-0.155-3.215-1.65-4.438c-1.116-0.913-1.149-2.194-0.455-3.471c0.342-0.629,0.822-1.18,1.186-1.798
		c0.952-1.622,1.896-3.254,2.231-5.486c-0.646,0.264-1.169,0.311-1.392,0.594c-1.626,2.065-3.261,4.13-4.755,6.289
		c-1.27,1.834-1.158,3.341,0.509,4.91c1.335,1.257,1.734,2.617,1.341,4.293c-0.541,2.301,0.124,4.399,0.999,6.47
		c0.34,0.805,0.731,1.588,1.1,2.382c-1.423-0.067-2.847-0.115-4.268-0.205c-8.187-0.517-16.378-0.981-24.558-1.595
		c-3.563-0.268-7.102-0.846-10.652-1.282c1.869-0.928,3.738-1.855,5.593-2.776c-0.169-0.359-0.188-0.475-0.234-0.488
		c-0.529-0.151-1.062-0.288-1.594-0.43c0.015-0.47,0.146-0.974,0.026-1.406c-2.05-7.342-4.13-14.675-6.203-22.011
		c-0.268-0.644-0.371-1.453-0.829-1.903c-4.323-4.254-8.465-8.724-13.766-11.85c-7.159-4.223-14.45-8.175-21.998-11.683
		c-12.88-5.983-26.284-10.271-40.157-13.217c-4.457-0.946-8.733-0.299-12.97,0.934c-2.907,0.846-3.78,3.009-2.175,5.566
		c1.134,1.806,2.488,3.589,4.107,4.95c5.131,4.314,10.42,8.439,15.67,12.611c3.75,2.98,7.547,5.902,11.298,8.88
		c2.739,2.175,2.815,2.857,1.05,6.056c-0.888,1.608-1.748,3.239-2.5,4.915c-1.422,3.172-2.223,6.497-1.992,9.999
		c0.1,1.508,0.354,3.005,0.539,4.507c-0.781-0.107-1.582-0.136-2.338-0.335c-8.57-2.264-17.141-4.529-25.697-6.842
		c-17.65-4.769-35.294-9.564-52.938-14.361c-0.437-0.119-0.834-0.383-1.25-0.578c0.165-0.353,0.281-0.738,0.501-1.052
		c1.151-1.641,0.963-2.632-0.767-3.6c-0.41-0.229-0.885-0.352-1.342-0.483c-2.229-0.646-2.67-1.42-2.362-3.833
		c0.14-1.101,0.141-2.227,0.093-3.337c-0.015-0.364-0.38-0.715-0.703-1.278c-1.451,1.749-1.616,3.702-2.021,5.48
		c-0.66,2.892,0.029,4.059,2.835,5.2c1.214,0.494,1.708,1.318,1.942,2.465c-0.629-0.072-1.273-0.077-1.883-0.228
		c-12.386-3.047-24.766-6.116-37.15-9.17c-14.319-3.53-28.639-7.064-42.966-10.564
		C1478.758,487.993,1474.632,487.078,1470.379,486.988z M1820.175,431.232c-0.069,0.013-0.147,0.012-0.207,0.045
		c-0.036,0.019-0.043,0.09-0.063,0.138c0.079-0.07,0.16-0.142,0.24-0.212c0.059-0.025,0.126-0.04,0.174-0.079
		c0.027-0.021,0.022-0.082,0.031-0.124C1820.292,431.077,1820.233,431.154,1820.175,431.232z M1560.978,435.552
		c-1.506,2.035-3.019,4.066-4.516,6.107c-3.022,4.119-1.133,6.026,2.782,6.436c1.542,0.161,3.055,0.61,4.718,0.957
		c-0.323,1.277-0.519,2.29-0.837,3.262c-0.687,2.096-0.143,3.752,1.641,5.021c0.649,0.462,1.271,0.98,1.968,1.356
		c1.117,0.602,1.621,1.465,1.499,2.727c-0.054,0.556,0.044,1.132-0.061,1.673c-0.566,2.938,2.685,5.347,5.5,4.283
		c-3.152-2.251-3.776-5.184-2.184-8.703c-0.841-0.584-1.52-1.107-2.249-1.547c-0.543-0.327-1.165-0.52-1.729-0.817
		c-2.157-1.144-2.389-1.653-1.759-3.976c0.291-1.071,0.774-2.105,0.951-3.191c0.313-1.925-0.156-2.36-2.08-2.593
		c-1.894-0.229-3.783-0.526-5.651-0.905c-1.351-0.274-1.747-0.937-1.342-2.242c0.304-0.98,0.876-1.874,1.276-2.828
		c0.701-1.673,1.361-3.363,2.039-5.046c0.068-0.2,0.137-0.399,0.204-0.6C1561.092,435.134,1561.035,435.343,1560.978,435.552z
		 M1771.672,445.639c-0.723-1.157-1.385-1.198-2.106-0.463c-2.799,2.849-5.733,5.579-8.345,8.591
		c-2.65,3.059-2.517,5.214-0.071,8.354c2.146,2.756,1.997,3.814-0.422,6.374c-1.184,1.253-2.128,2.754-3.048,4.226
		c-0.618,0.989-0.744,2.195,0.044,3.156c1.443,1.758,0.862,3.178-0.441,4.661c-0.677,0.771-1.342,1.648-1.68,2.597
		c-0.415,1.168-0.724,2.473-0.652,3.693c0.146,2.498,1.767,4.019,4.247,4.073c-0.209-0.802-0.239-1.624-0.615-2.233
		c-1.097-1.778-0.908-3.513-0.039-5.244c0.714-1.425,1.532-2.797,2.309-4.189c0.781-1.399,1.188-2.813,0.147-4.267
		c-0.766-1.069-0.28-2.024,0.36-2.852c1.024-1.32,2.139-2.575,3.271-3.807c1.546-1.683,1.775-3.262,0.609-5.198
		c-0.494-0.819-1.107-1.566-1.608-2.382c-1.689-2.754-1.545-4.481,0.565-6.939c0.468-0.545,0.997-1.036,1.481-1.567
		C1767.66,450.053,1769.635,447.877,1771.672,445.639z M1819.258,432.21c-0.146-0.173-0.293-0.347-0.439-0.521
		c-2.217,1.171-4.337,2.527-6.25,4.153c-1.243,1.057-1.36,2.37-0.408,3.357c1.562,1.617,3.446,2.7,5.748,2.943
		c0.314-1.665,0.33-1.741-0.521-2.325c-0.585-0.401-1.265-0.663-1.886-1.018c-1.492-0.853-1.596-1.486-0.385-2.763
		c0.544-0.572,1.211-1.025,1.792-1.564C1817.706,433.735,1818.476,432.966,1819.258,432.21z M1815.277,444.472
		c-4.9,1.461-5.622,5.072-1.922,8.366C1813.556,449.939,1812.572,446.815,1815.277,444.472z M1807.382,467.201
		c0.307-1.349,0.509-2.504,0.841-3.62c0.359-1.21,0.861-2.377,1.257-3.577c0.284-0.861,0.195-1.582-0.921-1.718
		c-0.743,1.08-2.692,5.834-2.764,6.742C1805.718,466.023,1806.207,466.661,1807.382,467.201z"/>
	<path style="fill-rule:evenodd;clip-rule:evenodd;fill:#0E292F;" d="M5.748,518.271c0.165-6.458,0.307-12.917,0.503-19.375
		c0.109-3.58,0.254-7.162,0.484-10.736c0.246-3.803,0.613-7.599,0.92-11.397c0.032-0.398-0.003-0.802,0.025-1.199
		c0.307-4.359,0.627-8.718,0.93-13.076c0.182-2.618,0.271-5.245,0.526-7.855c0.287-2.92,0.628-5.842,1.1-8.737
		c0.853-5.245,1.751-10.485,2.761-15.703c0.921-4.756,2.005-9.48,3.036-14.215c0.523-2.404,1.007-4.821,1.652-7.193
		c0.565-2.076,0.768-2.261,2.836-2.007c1.881,0.23,3.736,0.748,5.574,1.247c7.755,2.104,15.5,4.25,23.249,6.381
		c7.135,1.963,14.272,3.918,21.404,5.892c6.671,1.846,13.337,3.71,20.004,5.571c6.897,1.926,13.793,3.86,20.69,5.787
		c7.511,2.099,15.021,4.195,22.534,6.286c8.203,2.282,16.406,4.561,24.612,6.831c7.361,2.036,14.729,4.052,22.089,6.089
		c7.438,2.059,14.876,4.116,22.306,6.203c8.658,2.432,17.312,4.879,25.959,7.349c8.419,2.404,16.826,4.851,25.241,7.268
		c1.682,0.483,3.374,0.929,5.066,1.373c3.221,0.847,5.338,2.848,6.08,6.096c0.901,3.946,2.045,7.896,2.365,11.901
		c0.347,4.342-0.038,8.756-0.286,13.129c-0.193,3.404-0.654,6.795-1.018,10.189c-0.271,2.522-0.615,5.037-0.853,7.563
		c-0.12,1.27-0.051,2.556-0.109,3.832c-0.094,2.04-0.527,2.577-2.636,2.913c-3.288,0.523-6.592,0.94-9.887,1.424
		c-4.474,0.656-8.959,1.256-13.415,2.02c-6.021,1.031-12.027,2.16-18.026,3.315c-5.77,1.11-11.521,2.318-17.283,3.466
		c-7.785,1.551-15.576,3.069-23.358,4.632c-7.473,1.499-14.94,3.031-22.408,4.558c-9.802,2.004-19.605,4.001-29.401,6.029
		c-7.154,1.481-14.295,3.029-21.449,4.511c-6.764,1.399-13.542,2.729-20.306,4.13c-7.155,1.48-14.296,3.023-21.449,4.511
		c-8.24,1.714-16.493,3.369-24.729,5.103c-6.995,1.473-13.973,3.022-20.96,4.531c-1.863,0.402-3.72,0.847-5.6,1.148
		c-2.407,0.387-3.167-0.256-3.495-2.633c-0.768-5.577-1.615-11.145-2.319-16.729c-0.447-3.543-0.674-7.113-1.04-10.668
		c-0.251-2.444-0.571-4.882-0.86-7.322c-0.028-0.237-0.066-0.476-0.077-0.714c-0.167-3.739-0.303-7.479-0.502-11.217
		c-0.186-3.497-0.437-6.99-0.658-10.484C5.63,518.28,5.689,518.276,5.748,518.271z"/>
	<path style="fill-rule:evenodd;clip-rule:evenodd;fill:#2B4546;" d="M590.628,546.408c-5.04,0-10.081-0.071-15.119,0.023
		c-3.608,0.067-6.934-0.991-10.196-2.281c-2.353-0.93-3.649-3.828-2.979-6.392c1.531-5.854,3.215-11.67,4.673-17.542
		c1.321-5.323,2.507-10.683,3.584-16.061c0.435-2.17,0.533-4.428,0.586-6.65c0.091-3.757,0.026-7.519,0.026-11.278
		c0-7.993-0.562-15.925-3.067-23.581c-0.838-2.563-1.961-5.037-3.012-7.527c-0.787-1.865-1.375-3.682-0.604-5.744
		c0.793-2.121,2.181-3.518,4.36-4.031c5.188-1.225,10.37-2.479,15.589-3.552c4.838-0.995,9.764-1.245,14.698-1.528
		c7.642-0.437,15.276-0.875,22.934-0.934c4.383-0.033,8.764-0.295,13.146-0.453c4.462-0.162,8.924-0.314,13.385-0.489
		c3.662-0.143,7.323-0.319,10.985-0.469c4.222-0.172,8.444-0.317,12.666-0.497c3.183-0.135,6.363-0.324,9.546-0.451
		c4.621-0.185,9.243-0.322,13.864-0.505c3.423-0.136,6.845-0.296,10.266-0.477c0.949-0.05,1.889-0.279,2.837-0.309
		c1.876-0.058,3.796-0.642,5.587,0.539c0.417,0.275,1.081,0.263,1.626,0.243c3.263-0.116,6.523-0.364,9.787-0.389
		c2.702-0.021,5.406,0.207,8.11,0.321c0.798,0.033,1.597,0.062,2.395,0.08c7.822,0.174,15.644,0.32,23.464,0.527
		c3.664,0.098,7.324,0.308,10.985,0.47c3.582,0.158,7.164,0.318,10.746,0.481c3.422,0.156,6.844,0.304,10.266,0.479
		c6.044,0.311,12.093,0.562,18.13,0.983c5.232,0.366,10.456,0.874,15.672,1.43c5.842,0.624,10.033,3.587,12.716,8.897
		c2.32,4.592,4.268,9.296,5.196,14.351c0.616,3.352,1.175,6.758,1.262,10.153c0.187,7.274,0.112,14.558,0.029,21.836
		c-0.066,5.743-0.198,11.488-0.492,17.224c-0.331,6.455-2.877,11.842-8.207,15.753c-2.182,1.601-4.23,3.392-6.468,4.908
		c-3.095,2.098-6.593,3.036-10.33,3.362c-7.154,0.625-14.311,0.945-21.492,0.971c-4.542,0.016-9.083,0.294-13.625,0.449
		c-4.781,0.165-9.563,0.311-14.345,0.489c-3.663,0.137-7.327,0.263-10.984,0.485c-3.968,0.242-7.929,0.592-11.893,0.894
		c-0.159,0.012-0.32,0.011-0.479,0.017c-4.622,0.171-9.247,0.283-13.864,0.529c-4.208,0.224-8.409,0.593-12.613,0.896
		c-0.159,0.012-0.32,0.011-0.479,0.015c-5.822,0.172-11.644,0.334-17.465,0.517c-4.782,0.149-9.564,0.313-14.345,0.488
		c-3.742,0.138-7.483,0.323-11.226,0.452c-5.341,0.185-10.686,0.287-16.024,0.515c-6.206,0.265-12.408,0.636-18.611,0.943
		c-3.581,0.178-7.162,0.368-10.746,0.471c-6.781,0.195-13.564,0.307-20.345,0.499c-6.7,0.19-13.399,0.438-20.099,0.662
		C590.632,546.551,590.63,546.479,590.628,546.408z"/>
	<path style="fill-rule:evenodd;clip-rule:evenodd;fill:#9698C3;" d="M1943.75,602.154c-5.561,0.037-10.97,1.069-16.243,2.748
		c-11.169,3.557-22.67,5.396-34.258,6.833c-4.995,0.619-9.993,1.227-14.973,1.955c-4.958,0.726-9.903,0.512-14.813-0.192
		c-7.826-1.122-15.628-2.414-23.43-3.698c-2.203-0.363-4.367-0.959-6.551-1.437c-1.482-0.324-2.631-1.082-3.387-2.434
		c-6.02-10.752-11.766-21.625-15.461-33.454c-2.009-6.434-3.096-13.052-4.045-19.694c-0.848-5.931-1.618-11.873-2.313-17.824
		c-0.221-1.891-0.234-3.834-0.092-5.734c0.812-10.85,2.163-21.62,4.916-32.176c3.383-12.974,9.249-24.7,18.029-34.836
		c10.154-11.723,20.525-23.256,30.811-34.863c0.475-0.536,0.996-1.052,1.571-1.474c0.935-0.686,1.917-0.971,3.134-0.531
		c11.348,4.095,22.771,7.981,34.048,12.262c7.419,2.816,13.201,8.095,18.318,14.007c7.325,8.464,14.574,16.999,21.658,25.665
		c7.651,9.36,14.214,19.515,20.875,29.585c2.735,4.134,5.423,8.301,8.053,12.503c3.081,4.924,5.285,10.228,6.261,15.969
		c0.853,5.023-0.686,9.168-5.044,12.044c-3.668,2.42-7.349,4.823-11.072,7.157c-6.677,4.187-10.174,10.043-9.455,18.043
		c0.324,3.619,1.836,6.929,3.183,10.267c0.803,1.994,1.744,3.974,2.215,6.052c1.326,5.857-2.297,11.62-8.123,13.055
		C1946.349,602.25,1945.023,602.099,1943.75,602.154z M1857.174,509.674c-0.004,9.15,5.023,15.879,13.313,17.845
		c8.48,2.012,17.826-1.602,21.001-11.642c0.574-1.816,0.847-3.727,1.272-5.59c1.037-4.531-0.409-8.419-3.382-11.714
		c-4.304-4.771-9.637-7.16-16.213-6.482C1864.019,493.033,1857.179,500.489,1857.174,509.674z"/>
	<path style="fill-rule:evenodd;clip-rule:evenodd;fill:#E5979B;" d="M304.427,539.102c0.4-7.963,0.833-15.693,1.168-23.428
		c0.442-10.218,1.042-20.437,1.117-30.658c0.045-6.132-0.69-12.278-1.245-18.402c-0.384-4.239-0.371-4.52,3.86-4.927
		c4.929-0.476,9.879-0.722,14.814-1.134c13.056-1.09,26.102-2.299,39.165-3.299c8.919-0.683,17.854-1.241,26.792-1.58
		c7.187-0.273,14.39-0.181,21.586-0.164c10.955,0.024,21.91,0.245,32.863,0.164c16.306-0.119,32.61-0.474,48.916-0.644
		c13.109-0.136,26.219-0.18,39.328-0.189c3.032-0.002,6.066,0.27,9.095,0.475c2.733,0.186,3.723,0.997,4.199,3.688
		c1.642,9.278,3.439,18.536,4.748,27.861c1.169,8.334,1.012,16.748-0.081,25.109c-0.963,7.365-2.021,14.719-3.045,22.076
		c-0.293,2.105-1.321,3.067-3.476,3.146c-2.157,0.079-4.317,0.078-6.476,0.086c-8.877,0.032-17.754,0.045-26.631,0.082
		c-6.557,0.028-13.113,0.099-19.669,0.122c-21.031,0.075-42.062,0.228-63.092,0.179c-23.187-0.053-46.373-0.47-69.558-0.38
		c-11.416,0.044-22.827,0.895-34.242,1.337c-6.228,0.241-12.459,0.393-18.688,0.577
		C305.482,539.211,305.091,539.149,304.427,539.102z"/>
	<path style="fill-rule:evenodd;clip-rule:evenodd;fill:#2B4546;" d="M938.876,361.152c-10.796,0-21.607-0.342-32.385,0.104
		c-9.268,0.383-18.542-0.115-27.776,0.466c-7.832,0.493-15.664-0.088-23.459,0.459c-8.067,0.566-16.145-0.064-24.177,0.504
		c-6.233,0.44-12.451,0.113-18.666,0.411c-2.771,0.133-5.534,0.497-8.293,0.814c-1.705,0.195-2.782-0.562-2.982-2.288
		c-0.073-0.632-0.025-1.278-0.025-1.918c-0.005-14.875,0.348-29.762-0.119-44.622c-0.419-13.345-0.145-26.68-0.391-40.017
		c-0.068-3.714,0.842-7.265,1.571-10.839c0.514-2.521,2.288-3.847,5.066-3.848c3.661,0,7.322,0.244,10.984,0.384
		c0.239,0.01,0.479,0.018,0.718,0.034c2.301,0.156,4.603,0.438,6.904,0.438c2.541,0,5.082-0.366,7.624-0.385
		c8.557-0.063,17.115,0.015,25.671-0.072c6.221-0.063,12.441-0.281,18.661-0.472c3.823-0.116,7.643-0.312,11.463-0.472
		c3.821-0.159,7.642-0.337,11.463-0.475c4.94-0.178,9.881-0.33,14.821-0.482c5.42-0.167,10.841-0.313,16.261-0.484
		c4.701-0.147,9.409-0.203,14.101-0.511c4.594-0.301,9.172-0.86,13.755-1.32c6.559-0.66,12.206,1.196,16.472,6.327
		c1.015,1.22,1.594,2.951,1.948,4.543c1.406,6.303,2.434,12.654,2.133,19.17c-0.105,2.29,0.4,4.603,0.376,6.902
		c-0.049,4.701-0.667,9.43-0.328,14.096c0.591,8.147,0.159,16.286,0.398,24.424c0.124,4.222,0.287,8.443,0.48,12.662
		c0.099,2.144,0.292,4.283,0.462,6.423c0.412,5.159-3.833,10.063-10.102,10.028c-7.357-0.041-14.716-0.009-22.073-0.009
		c-3.519,0-7.038,0-10.556,0C938.876,361.136,938.876,361.144,938.876,361.152z"/>
	<path style="fill-rule:evenodd;clip-rule:evenodd;fill:#BBBDD9;" d="M1756.805,542.067c3.951,0.488,7.9,0.996,11.854,1.46
		c5.3,0.62,10.601,1.236,15.907,1.799c3.962,0.42,7.932,0.777,11.901,1.111c3.019,0.255,6.044,0.43,9.066,0.641
		c0.792,4.563,1.583,9.125,2.377,13.687c1.852,10.628,5.555,20.644,10.135,30.357c1.873,3.973,3.885,7.88,5.829,11.819
		c0.521,1.059,1.025,2.126,1.695,3.519c-1.462-0.065-2.619-0.093-3.773-0.172c-11.236-0.767-22.472-1.546-33.708-2.313
		c-10.997-0.75-21.996-1.471-32.991-2.24c-6.694-0.468-13.39-0.926-20.072-1.527c-9.547-0.859-19.089-1.783-28.621-2.798
		c-6.354-0.676-12.699-1.455-19.022-2.37c-9.813-1.42-19.021-4.778-27.925-9.052c-10.113-4.853-19.51-10.941-29.008-16.845
		c-9.23-5.736-18.371-11.619-27.516-17.491c-13.179-8.462-27.222-15.108-42.045-20.125c-13.688-4.632-27.406-9.179-41.08-13.856
		c-15.953-5.457-32.195-9.925-48.444-14.378c-3.578-0.98-3.741-1.23-2.62-4.825c0.347-1.108,1.103-2.085,1.486-3.187
		c0.298-0.854,0.686-1.973,0.373-2.685c-0.833-1.901-0.598-3.725-0.225-5.608c4.253,0.09,8.379,1.005,12.481,2.007
		c14.327,3.5,28.646,7.034,42.966,10.564c12.385,3.054,24.765,6.123,37.15,9.17c0.609,0.15,1.254,0.155,1.882,0.228
		c0.608,0.146,1.218,0.291,1.825,0.438c0.416,0.195,0.813,0.459,1.25,0.578c17.644,4.797,35.287,9.593,52.938,14.361
		c8.557,2.313,17.127,4.578,25.697,6.842c0.756,0.199,1.557,0.228,2.337,0.335c0.161,0.176,0.343,0.338,0.481,0.531
		c1.765,2.454,3.206,5.139,5.557,7.17c0.531,0.459,0.629,1.571,0.673,2.396c0.037,0.687-0.35,1.385-0.458,2.092
		c-0.682,4.463-0.098,7.431,4.081,9.092c3.319,1.318,6.768,1.839,10.313,0.862c3.921-1.079,7.856-2.108,11.769-3.22
		c11.447-3.255,22.577-7.437,33.72-11.578c3.551,0.437,7.09,1.015,10.652,1.282c8.18,0.613,16.371,1.078,24.558,1.595
		c1.421,0.09,2.845,0.138,4.267,0.205C1755.252,542.472,1755.998,542.8,1756.805,542.067z"/>
	<path style="fill-rule:evenodd;clip-rule:evenodd;fill:#0E292F;" d="M848.591,520.65c0.153-0.886,0.298-1.644,0.414-2.405
		c0.524-3.45,1.163-6.89,1.523-10.356c0.329-3.162,0.328-6.356,0.527-9.532c0.069-1.104,0.567-2.239,0.412-3.292
		c-0.751-5.092-0.2-10.208-0.472-15.301c-0.182-3.405-0.48-6.815-0.944-10.193c-1.135-8.272-3.274-16.23-7.853-23.357
		c-0.455-0.708-0.848-1.455-1.393-2.397c0.808-0.266,1.296-0.505,1.81-0.581c1.333-0.197,2.673-0.374,4.016-0.466
		c2.937-0.202,5.88-0.312,8.815-0.522c3.722-0.267,7.439-0.604,11.159-0.895c0.716-0.056,1.438-0.045,2.157-0.056
		c10.937-0.162,21.894,0.022,32.806-0.589c9.511-0.532,19.012,0.072,28.497-0.415c17.655-0.907,35.315-0.133,52.97-0.475
		c2.765-0.054,5.514-0.678,8.281-0.831c4.853-0.271,9.712-0.444,14.571-0.528c1.896-0.033,3.799,0.27,5.697,0.446
		c3.208,0.299,4.964,2.475,5.98,5.162c0.774,2.051,1.162,4.293,1.423,6.485c0.46,3.862,0.474,7.785,1.077,11.62
		c0.689,4.39,0.473,8.776,0.335,13.143c-0.126,3.947-0.775,7.896-1.436,11.805c-0.806,4.771-1.831,9.505-2.823,14.242
		c-0.903,4.31-2.648,8.177-6.105,11.104c-2.309,1.954-4.771,3.283-7.962,3.273c-4.618-0.014-9.271-0.01-13.847,0.528
		c-3.998,0.471-7.972,0.154-11.945,0.4c-16.689,1.036-33.407-0.126-50.085,0.573c-11.268,0.473-22.521,0.06-33.773,0.406
		c-3.485,0.107-6.958,0.591-10.439,0.878c-2.376,0.197-4.76,0.312-7.133,0.541c-2.288,0.221-4.565,0.55-6.849,0.815
		c-1.734,0.202-3.467,0.463-5.208,0.55c-4.375,0.219-8.755,0.357-13.133,0.515C849.44,520.954,849.214,520.827,848.591,520.65z"/>
	<path style="fill-rule:evenodd;clip-rule:evenodd;fill:#E5979B;" d="M1218.093,443.778c2.176,0,4.094-0.13,5.989,0.021
		c11.326,0.901,22.675,0.875,34.024,0.947c19.506,0.124,39.012,0.322,58.519,0.466c12.232,0.091,24.465,0.219,36.697,0.18
		c9.27-0.03,18.538-0.278,27.807-0.464c6.312-0.126,12.621-0.308,18.932-0.473c2.075-0.054,4.15-0.181,6.226-0.186
		c2.519-0.006,3.319,0.554,3.738,3.076c0.655,3.938,1.277,7.894,1.604,11.868c1.153,14.019-0.02,27.932-2.157,41.79
		c-0.305,1.974-0.482,3.968-0.816,5.936c-0.366,2.156-0.861,2.546-3,2.578c-3.677,0.056-7.354,0.111-11.031,0.128
		c-27.586,0.124-55.172,0.259-82.758,0.345c-8.316,0.025-16.633-0.064-24.948-0.148c-7.032-0.071-14.063-0.318-21.095-0.295
		c-11.026,0.038-22.051,0.224-33.045,1.23c-4.375,0.4-8.762,0.658-13.145,0.965c-2.153,0.151-2.561-0.338-2.109-2.48
		c1.055-4.999,2.19-9.982,3.158-14.999c1.479-7.656,1.549-15.417,1.363-23.172c-0.207-8.653-1.297-17.199-3.651-25.557
		C1218.245,445.008,1218.205,444.45,1218.093,443.778z"/>
	<path style="fill-rule:evenodd;clip-rule:evenodd;fill:#0E292F;" d="M1040.637,470.575c-0.002-3.919-0.02-7.838,0.002-11.757
		c0.027-4.945-0.553-9.832-1.373-14.694c-0.772-4.576,0.58-5.881,5.174-5.183c2.977,0.451,5.996,0.618,8.995,0.914
		c2.921,0.288,5.841,0.578,8.761,0.868c0.239,0.023,0.477,0.065,0.715,0.076c3.659,0.167,7.316,0.376,10.977,0.488
		c36.127,1.109,72.263,0.197,108.394,0.46c2.644,0.019,4.039,0.45,4.29,4.072c0.263,3.802,0.664,7.594,0.92,11.396
		c0.229,3.414,0.42,6.835,0.491,10.255c0.083,3.997,0.134,8.002-0.018,11.996c-0.125,3.325-0.563,6.64-0.859,9.96
		c-0.185,2.058-0.298,4.123-0.555,6.172c-0.495,3.934-1.057,7.859-1.62,11.784c-0.214,1.49-0.563,2.963-0.757,4.455
		c-0.359,2.783-1.529,3.845-4.392,3.856c-1.28,0.006-2.561-0.018-3.84,0.004c-9.497,0.155-18.997,0.239-28.491,0.51
		c-5.163,0.147-10.319,0.589-15.475,0.949c-3.882,0.271-7.761,0.588-11.635,0.948c-4.582,0.427-9.156,0.937-13.737,1.38
		c-2.135,0.206-4.274,0.367-6.415,0.5c-3.098,0.192-6.196,0.468-9.296,0.484c-11.438,0.058-22.875-0.005-34.313,0.045
		c-2.619,0.011-5.238,0.424-7.855,0.408c-3.34-0.02-6.681-0.247-10.016-0.465c-1.232-0.081-1.991-1.289-1.752-2.625
		c0.701-3.902,1.488-7.789,2.131-11.7c0.321-1.955,0.436-3.947,0.585-5.928c0.335-4.437,0.636-8.876,0.94-13.315
		c0.039-0.558,0.023-1.119,0.023-1.679C1040.639,480.333,1040.638,475.454,1040.637,470.575z"/>
	<path style="fill-rule:evenodd;clip-rule:evenodd;fill:#2A4445;" d="M1143.91,598.388c0.518-1.563,1.834-1.628,2.936-1.973
		c0.441-0.139,0.953-0.067,1.432-0.063c6.702,0.057,13.343-0.626,19.997-1.375c7.369-0.828,14.623-2.204,21.796-3.983
		c5.971-1.479,11.156-4.44,14.611-9.712c1.628-2.484,2.384-5.235,1.725-8.407c-0.805-3.878-1.084-7.865-1.624-11.801
		c-0.584-4.247-1.287-8.479-1.776-12.735c-0.207-1.809-0.037-3.665,0.029-5.497c0.05-1.347,0.323-2.692,0.297-4.035
		c-0.05-2.53-1.605-3.774-4.121-3.355c-3.525,0.586-7.052,1.179-10.559,1.864c-5.46,1.067-10.942,2.053-16.344,3.367
		c-6.658,1.62-12.744,4.466-18.064,8.941c-6.275,5.278-10.084,11.997-12.398,19.729c-1.261,4.215-1.935,8.516-2.355,12.878
		c-0.189,1.972-0.555,3.927-0.814,5.894c-0.051,0.385-0.114,0.857,0.053,1.167c1.491,2.761,0.807,5.587,0.241,8.377
		c-0.343,1.688-1.31,2.449-3.068,2.468c-1.905,0.021-3.812-0.186-5.719-0.27c-0.546-0.023-1.098,0.01-1.643,0.062
		c-0.394,0.036-0.778,0.198-1.171,0.216c-3.98,0.177-7.961,0.426-11.943,0.462c-2.3,0.021-4.613-0.219-6.899-0.504
		c-2.479-0.309-3.301-1.368-3.587-3.915c-0.46-4.079-2.082-7.242-6.362-8.632c-5.195-1.686-7.368-6.012-8.894-10.814
		c-1.014-3.188-2.008-6.389-3.184-9.519c-1.219-3.244-3.649-5.626-6.336-7.66c-0.94-0.712-2.338-0.973-3.565-1.126
		c-4.75-0.595-9.407-1.309-13.71-3.706c-5.297-2.95-8.661-7.465-11.015-12.835c-1.6-3.648-2.953-7.406-4.372-11.133
		c-0.366-0.963-0.599-1.982-0.828-2.99c-0.338-1.485,0.221-2.418,1.715-2.426c2.945-0.015,5.893,0.167,8.838,0.276
		c0.797,0.029,1.591,0.132,2.387,0.133c6.719,0.013,13.441,0.121,20.156-0.027c4.528-0.101,9.049-0.571,13.572-0.876
		c0.159-0.01,0.319-0.013,0.479-0.02c4.301-0.169,8.605-0.279,12.902-0.525c3.649-0.209,7.289-0.575,10.934-0.871
		c0.238-0.02,0.479-0.033,0.718-0.043c4.221-0.171,8.441-0.361,12.664-0.507c5.26-0.182,10.522-0.311,15.783-0.493
		c3.822-0.133,7.646-0.279,11.464-0.485c5.245-0.284,10.487-0.627,15.729-0.949c5.163-0.318,10.326-0.638,15.489-0.964
		c4.923-0.311,9.847-0.631,14.77-0.947c0.318-0.021,0.641-0.021,0.955-0.071c2.644-0.422,3.188,0.016,2.907,2.657
		c-0.393,3.71-1.044,7.397-1.307,11.114c-0.179,2.527,0.113,5.089,0.208,7.635c0.029,0.796,0.076,1.593,0.163,2.384
		c0.396,3.632,0.787,7.265,1.223,10.892c0.36,2.996,0.791,5.983,1.175,8.978s0.791,5.986,1.112,8.987
		c0.321,3.002,0.66,6.009,0.786,9.021c0.131,3.102-1.481,5.572-3.73,7.435c-4.837,4.006-10.532,6.27-16.694,7.275
		c-3.837,0.626-7.709,1.061-11.577,1.472c-3.714,0.395-7.446,0.616-11.165,0.973c-4.428,0.425-8.847,0.948-13.275,1.359
		c-2.693,0.249-5.399,0.375-8.101,0.539C1145.781,599.766,1144.743,599.462,1143.91,598.388z"/>
	<path style="fill-rule:evenodd;clip-rule:evenodd;fill:#D0D1E2;" d="M1759.422,402.078c-2.064-0.227-3.865-0.409-5.662-0.625
		c-8.804-1.056-17.602-2.164-26.413-3.151c-2.093-0.233-3.286-1.264-4.16-3.076c-2.321-4.82-4.73-9.599-7.123-14.384
		c-0.64-1.279-1.3-2.569-3.271-3.224c0.475,1.23,0.736,2.195,1.195,3.055c2.598,4.861,5.244,9.697,7.869,14.544
		c0.371,0.686,0.717,1.386,1.258,2.433c-2.498-0.392-4.597-0.748-6.703-1.047c-7.906-1.125-15.811-2.261-23.725-3.327
		c-2.295-0.309-3.775-1.337-4.543-3.609c-1.516-4.486-3.398-8.804-6.838-12.229c-0.322-0.319-0.689-0.594-1.029-0.884
		c-0.844,0.748-0.188,1.249,0.091,1.741c2.052,3.613,4.13,7.212,6.189,10.82c0.39,0.683,0.734,1.389,1.306,2.475
		c-22.758,0.802-45.218,1.594-68.021,2.398c0.926-1.111,1.976-1.252,2.883-1.574c10.005-3.557,20.007-7.12,30.037-10.603
		c8.396-2.915,16.485-6.469,24.269-10.779c8.936-4.949,18.439-8.361,28.563-10.015c11.754-1.921,23.384-1.257,34.969,1.268
		c10.197,2.223,19.531,6.512,28.359,11.928c9.675,5.936,19.453,11.674,29.493,16.974c5.641,2.979,10.348,7.179,14.752,11.757
		c2.376,2.47,4.947,4.751,7.425,7.122c0.428,0.409,0.829,0.847,1.242,1.271c-0.068,0.165-0.137,0.33-0.205,0.495
		c-20.287-3.196-40.574-6.393-61.039-9.616c0.719-1.766-0.064-3.165-0.742-4.608c-3.296-7.012-6.632-14.005-9.819-21.065
		c-1.263-2.798-3.32-4.594-6.05-5.942c-0.45,0.947,0.229,1.571,0.553,2.198c3.854,7.449,7.752,14.875,11.624,22.314
		c0.885,1.7,1.723,3.426,2.562,5.149C1758.951,400.744,1759.109,401.265,1759.422,402.078z"/>
	<path style="fill-rule:evenodd;clip-rule:evenodd;fill:#0E292F;" d="M928.801,593.532c0,5.04,0.001,10.079,0,15.119
		c0,0.957,0.018,1.809,0.85,2.602c1.188,1.13,0.586,2.725,0.498,4.093c-0.18,2.768-0.547,5.524-0.879,8.28
		c-0.427,3.542-0.909,7.078-1.339,10.62c-0.221,1.813-0.474,3.63-0.55,5.452c-0.138,3.29-0.743,6.459-1.893,9.549
		c-1.211,3.252-3.161,4.685-6.659,4.688c-2.56,0.002-5.12,0.031-7.679-0.006c-10.445-0.151-20.562-1.996-30.252-5.967
		c-2.72-1.114-4.094-2.509-3.977-5.798c0.154-4.314,0.076-8.639,0.029-12.958c-0.14-12.778-0.251-25.559-0.51-38.335
		c-0.083-4.124-0.591-8.239-0.899-12.359c-0.03-0.397-0.017-0.799-0.02-1.199c-0.022-3.172,0.896-3.934,4.069-3.51
		c1.65,0.22,3.319,0.289,4.977,0.457c2.762,0.279,5.521,0.586,8.282,0.877c1.658,0.175,3.315,0.367,4.976,0.503
		c2.457,0.201,4.918,0.342,7.375,0.542c1.502,0.123,3.008,0.496,4.498,0.43c3.09-0.138,6.17-0.49,9.254-0.761
		c2.374-0.207,4.744-0.523,7.122-0.607c2.141-0.074,2.706,0.547,2.718,2.69C928.821,583.133,928.801,588.333,928.801,593.532z"/>
	<path style="fill-rule:evenodd;clip-rule:evenodd;fill:#2A4445;" d="M913.93,434.111c-5.595,0-11.189-0.027-16.784,0.019
		c-1.502,0.012-3,0.294-4.504,0.36c-1.027,0.045-2.076,0.023-3.089-0.132c-1.952-0.301-2.412-1.427-2.324-3.484
		c0.047-1.108,0.23-2.21,0.278-3.318c0.188-4.297,0.332-8.596,0.52-12.893c0.132-3.02,0.34-6.037,0.459-9.058
		c0.188-4.776,0.199-9.563,0.532-14.329c0.289-4.139-0.063-8.212-0.48-12.309c-0.298-2.927-0.443-5.873-0.533-8.813
		c-0.075-2.418,0.3-2.744,2.764-2.79c9.413-0.173,18.827-0.302,28.239-0.501c3.181-0.067,6.356-0.361,9.537-0.424
		c3.18-0.062,4.125,0.907,4.064,4.154c-0.085,4.539-0.46,9.078-0.382,13.612c0.078,4.604,0.549,9.2,0.861,13.799
		c0.145,2.141,0.339,4.278,0.48,6.419c0.188,2.857,0.298,5.722,0.535,8.575c0.209,2.528,0.547,5.047,0.828,7.569
		c0.027,0.238,0.069,0.475,0.083,0.713c0.169,3.019,0.383,6.036,0.488,9.057c0.118,3.394-0.266,3.765-3.588,3.771
		C925.919,434.117,919.924,434.111,913.93,434.111z"/>
	<path style="fill-rule:evenodd;clip-rule:evenodd;fill:#0E292F;" d="M1371.751,408.483c0,3.612,0.034,6.71-0.019,9.807
		c-0.021,1.184-0.274,2.36-0.366,3.545c-0.325,4.198-0.633,8.398-0.931,12.599c-0.051,0.716-0.019,1.438-0.037,2.158
		c-0.052,2.042-0.982,3.057-3.02,3.245c-0.635,0.06-1.279,0.017-1.919,0.017c-16.399,0-32.806-0.292-49.194,0.11
		c-9.742,0.239-19.479,0.244-29.219,0.371c-0.641,0.009-1.281,0.018-1.92-0.014c-1.212-0.06-2.052-0.714-2.045-1.911
		c0.021-3.746,0.163-7.492,0.272-11.237c0.019-0.635,0.15-1.267,0.158-1.901c0.058-4.621,0.603-9.191,1.432-13.731
		c0.304-1.661,0.851-2.368,2.424-2.358c4.302,0.024,8.603,0.214,12.904,0.342c0.798,0.023,1.596,0.085,2.395,0.085
		c13.519,0.005,27.047,0.293,40.554-0.113c7.264-0.218,14.523-0.172,21.781-0.388
		C1367.129,409.045,1369.247,408.724,1371.751,408.483z"/>
	<path style="fill-rule:evenodd;clip-rule:evenodd;fill:#2A4445;" d="M906.463,571.368c-1.519,0-3.038-0.002-4.557,0
		c-5.023,0.009-9.987-0.615-14.948-1.332c-3.064-0.444-6.157-0.684-9.233-1.045c-2.631-0.31-3.886-2.183-3.571-4.872
		c0.388-3.31,0.844-6.645,0.809-9.965c-0.047-4.443-0.53-8.883-0.84-13.323c-0.127-1.823-0.308-3.643-0.431-5.465
		c-0.209-3.097-0.451-6.193-0.563-9.295c-0.06-1.653,0.418-2.099,2.129-2.191c3.817-0.205,7.641-0.299,11.457-0.523
		c4.205-0.248,8.4-0.691,12.607-0.849c1.998-0.074,4.104-0.7,6.022,0.689c0.487,0.354,1.398,0.154,2.114,0.155
		c6.156,0.009,12.313-0.001,18.468,0.008c2.817,0.004,3.14,0.593,2.996,3.409c-0.306,5.971-0.571,11.953-0.522,17.929
		c0.038,4.603,0.536,9.205,0.915,13.801c0.169,2.052,0.549,4.087,0.833,6.129c0.022,0.159,0.044,0.317,0.063,0.476
		c0.543,4.57-0.516,5.717-5.093,5.809c-6.218,0.126-12.435,0.35-18.652,0.531C906.465,571.418,906.464,571.393,906.463,571.368z"/>
	<path style="fill-rule:evenodd;clip-rule:evenodd;fill:#D0D1E2;" d="M1571.522,577.626c-3.839-3.971-7.325-8.148-9.207-13.49
		c-1.906-5.416-3.788-10.864-6.14-16.092c-1.988-4.421-4.63-8.549-6.988-12.804c-0.304-0.547-0.641-1.074-1.018-1.703
		c0.374-0.056,0.617-0.167,0.809-0.108c9.009,2.734,18.107,5.233,26.732,9.066c4.076,1.812,8.12,3.789,11.916,6.119
		c16.679,10.238,33.268,20.625,49.873,30.982c1.942,1.212,3.789,2.577,5.681,3.871c-0.036,0.163-0.073,0.326-0.109,0.49
		c-0.737,0.098-1.473,0.251-2.214,0.284c-11.965,0.544-23.931,1.084-35.896,1.6c-3.987,0.172-7.979,0.429-11.965,0.37
		c-5.249-0.077-10.26-1.345-15.021-3.62c-2.117-1.013-3.941-2.371-5.603-3.99c0.14-0.841,0.173-1.716,0.438-2.516
		c2.773-8.399,5.586-16.786,8.38-25.178c0.234-0.704,0.415-1.426,0.621-2.139c-0.15-0.063-0.301-0.126-0.45-0.188
		c-0.658,1.146-1.445,2.236-1.952,3.445c-2.123,5.069-4.261,10.137-6.198,15.278C1571.969,570.599,1571.37,574.068,1571.522,577.626
		z M1603.874,561.817c-1.58-0.072-2.127,0.869-2.736,1.683c-3.545,4.73-7.132,9.431-10.579,14.23
		c-1.055,1.469-1.741,3.209-2.527,4.857c-0.151,0.316,0.019,0.786,0.074,1.818c1.067-1.179,1.819-1.866,2.403-2.676
		c4.255-5.891,8.491-11.795,12.682-17.731C1603.59,563.432,1603.636,562.614,1603.874,561.817z"/>
	<path style="fill-rule:evenodd;clip-rule:evenodd;fill:none;" d="M1147.807,567.471c1.693,3.808,3.315,7.109,4.645,10.524
		c1.91,4.907,9.271,5.332,12.605,2.916c0.484-0.352,0.849-1.115,0.922-1.729c0.098-0.813-0.577-1.241-1.349-1.418
		c-3.166-0.725-4.578-2.951-5.103-5.946c-0.905-5.164-0.797-10.34-0.064-15.501c0.381-2.682,2.006-4.639,4.142-6.215
		c4.29-3.168,9.197-4.699,14.386-5.559c6.065-1.005,12.118-2.091,18.176-3.145c0.314-0.055,0.621-0.15,0.937-0.203
		c2.535-0.419,2.781-0.215,2.974,2.266c0.73,9.398,1.495,18.795,2.201,28.195c0.324,4.307-1.188,7.811-4.746,10.389
		c-4.778,3.463-10.175,5.406-15.959,6.062c-9.924,1.126-19.877,1.994-29.818,2.967c-1.988,0.194-3.975,0.442-5.969,0.536
		c-1.96,0.093-2.393-0.345-2.411-2.361c-0.056-6.141,1.314-12.046,3.089-17.874C1146.832,570.164,1147.285,568.979,1147.807,567.471
		z"/>
	<path style="fill-rule:evenodd;clip-rule:evenodd;fill:#2A4445;" d="M299.931,464.611c0.179,1.296,0.396,2.615,0.539,3.942
		c0.314,2.92,0.591,5.843,0.885,8.765c0.184,1.818,0.426,3.633,0.535,5.456c0.06,0.996,0.188,1.989-0.605,2.94
		c-0.422,0.506-0.327,1.512-0.329,2.292c-0.019,9.512,0.07,19.025-0.053,28.535c-0.049,3.805-0.549,7.604-0.848,11.404
		c-0.174,2.219-0.345,4.438-0.542,6.655c-0.056,0.627-0.102,1.285-0.326,1.861c-0.635,1.633-1.496,2.066-3.186,1.474
		c-4.588-1.606-9.15-3.286-13.721-4.939c-0.675-0.244-1.34-0.513-2.015-0.756c-2.411-0.868-3.112-2.243-2.695-4.8
		c0.651-3.993,1.357-7.989,1.725-12.013c0.376-4.118,0.414-8.271,0.522-12.411c0.072-2.716,0.172-5.447-0.031-8.149
		c-0.411-5.459-0.428-10.965-1.696-16.337c-0.073-0.309-0.126-0.625-0.157-0.941c-0.348-3.629,0.071-4.113,3.417-5.564
		c5.047-2.189,10.021-4.547,15.021-6.845C297.381,464.717,298.327,464.032,299.931,464.611z"/>
	<path style="fill-rule:evenodd;clip-rule:evenodd;fill:#0E292F;" d="M1105.544,603.178c1.005-0.048,1.782-0.117,2.562-0.118
		c7.508-0.008,15.016-0.04,22.523,0.019c2.137,0.017,4.271,0.314,6.408,0.466c0.953,0.067,1.523,0.542,1.496,1.5
		c-0.07,2.462-0.204,4.921-0.3,7.382c-0.04,1.031-0.108,2.066-0.054,3.095c0.066,1.263,0.365,2.52,0.36,3.778
		c-0.023,6.463,0.933,12.812,2.139,19.131c0.466,2.435,0.292,2.952-2.044,3.699c-4.54,1.453-9.116,2.807-13.9,3.164
		c-3.247,0.241-6.509,0.472-9.76,0.427c-2.038-0.028-4.086-0.496-6.099-0.914c-2.319-0.483-3.089-1.4-3.4-3.701
		c-0.063-0.472-0.034-0.957-0.034-1.437c-0.002-11.421-0.003-22.843,0.002-34.265
		C1105.444,604.771,1105.499,604.139,1105.544,603.178z"/>
	<path style="fill-rule:evenodd;clip-rule:evenodd;fill:#C2D3D5;" d="M1018.57,427.789c0.627,0.045,1.091,0.018,1.526,0.118
		c3.655,0.844,7.313,1.674,10.952,2.585c2.38,0.596,3.145,1.519,3.306,4.002c0.249,3.825,0.418,7.656,0.601,11.485
		c0.619,13.027-0.361,26.021-0.882,39.021c-0.262,6.543-0.717,13.079-1.041,19.62c-0.271,5.466-1.851,10.686-2.942,15.996
		c-0.277,1.353-1.313,1.974-2.575,2.176c-3.929,0.631-7.864,1.218-12.042,1.859c0.193-0.7,0.295-1.287,0.515-1.825
		c4.435-10.859,7.343-22.116,8.665-33.767c0.994-8.754,1.043-17.529,0.352-26.313c-0.898-11.427-3.139-22.604-6.143-33.645
		C1018.762,428.739,1018.697,428.367,1018.57,427.789z"/>
	<path style="fill-rule:evenodd;clip-rule:evenodd;fill:#0E292F;" d="M1201.022,515.207c-1.2,0-2.403,0.053-3.6-0.013
		c-1.512-0.084-2.004-0.812-1.559-2.198c0.121-0.378,0.301-0.747,0.513-1.082c3.681-5.83,5.513-12.328,6.794-19.006
		c0.388-2.02,0.557-4.097,0.644-6.154c0.107-2.556-0.003-5.119,0.031-7.679c0.068-4.946-0.542-9.843-0.914-14.761
		c-0.447-5.907-1.511-11.656-3.359-17.271c-0.224-0.68-0.562-1.322-0.79-2.001c-0.489-1.454-0.057-2.188,1.424-2.293
		c3.717-0.267,7.434-0.453,11.157-0.023c1.22,0.141,1.904,0.781,2.126,1.915c0.32,1.631,0.639,3.268,0.829,4.916
		c0.393,3.392,0.67,6.796,1.05,10.188c0.397,3.547,0.86,7.086,1.292,10.629c0.192,1.575,0.387,3.149,0.563,4.727
		c0.026,0.231,0.048,0.555-0.081,0.696c-1.308,1.434-0.728,3.18-0.807,4.801c-0.202,4.138-0.003,8.327-0.592,12.405
		c-0.825,5.724-2.051,11.407-3.441,17.024c-0.654,2.639-2.369,4.674-5.582,4.757c-1.896,0.049-3.785,0.401-5.677,0.617
		C1201.037,515.338,1201.029,515.272,1201.022,515.207z"/>
	<path style="fill-rule:evenodd;clip-rule:evenodd;fill:#C2D3D5;" d="M555.661,454.2c4.465-0.101,8.402,3.23,9.23,8.048
		c0.933,5.429,1.66,10.892,2.455,16.343c0.299,2.055,0.57,4.114,0.793,6.177c0.148,1.38,0.673,2.8-0.312,4.122
		c-0.158,0.213-0.071,0.623-0.065,0.941c0.178,9.838-1.684,19.37-4.189,28.825c-1.246,4.703-2.21,9.481-3.323,14.221
		c-0.74,3.148-4.736,5.658-7.912,5.053c-1.096-0.209-1.523-0.822-1.334-1.851c0.187-1.018,0.435-2.028,0.733-3.019
		c2.774-9.233,4.491-18.659,4.293-28.307c-0.122-5.977-0.755-11.953-1.394-17.904c-0.886-8.257-2.037-16.485-2.971-24.738
		c-0.205-1.809-0.085-3.678,0.084-5.5c0.199-2.148,0.404-2.255,2.474-2.406C554.701,454.171,555.182,454.2,555.661,454.2z"/>
	<path style="fill-rule:evenodd;clip-rule:evenodd;fill:#CFD0E1;" d="M1764.961,608.676c1.102-0.328,1.789-0.702,2.484-0.715
		c9.185-0.174,18.354,0.246,27.498,1.06c10.887,0.969,21.76,2.099,32.638,3.158c0.239,0.023,0.513-0.028,0.71,0.072
		c0.381,0.195,1.018,0.482,1.012,0.718c-0.011,0.439-0.295,1.061-0.659,1.27c-1.797,1.034-3.655,1.961-5.493,2.921
		c-2.688,1.402-5.42,2.726-8.057,4.219c-6.099,3.456-12.73,5.473-19.43,7.296c-6.183,1.683-11.772,0.298-16.457-3.986
		c-2.874-2.629-5.425-5.623-8.025-8.538C1769.169,613.894,1767.306,611.506,1764.961,608.676z M1802.416,612.234
		c-2.253,2.697-6.758,12.02-6.973,14.29C1799.996,623.555,1803.549,616.446,1802.416,612.234z M1785.187,624.21
		c-0.794-5.215-1.513-9.938-2.302-15.129C1780.54,613.724,1781.533,620.219,1785.187,624.21z"/>
	<path style="fill-rule:evenodd;clip-rule:evenodd;fill:#E19499;" d="M1438.562,508.849c0.881-3.144,1.839-6.101,2.528-9.119
		c1.576-6.894,1.883-13.875,1.488-20.939c-0.603-10.792-2.586-21.382-4.296-32.016c-0.063-0.394-0.133-0.787-0.169-1.185
		c-0.18-1.935,0.202-2.466,2.072-2.772c1.182-0.193,2.37-0.37,3.563-0.464c2.848-0.223,4.641,0.975,5.242,3.783
		c1.523,7.103,3.085,14.207,2.605,21.563c-0.64,9.797-1.29,19.594-1.811,29.397c-0.146,2.76-0.814,5.501-0.239,8.316
		c0.315,1.548-0.402,2.334-1.947,2.819c-0.076,0.024-0.151,0.064-0.229,0.069C1444.452,508.485,1441.534,508.665,1438.562,508.849z"
		/>
	<path style="fill-rule:evenodd;clip-rule:evenodd;fill:#E19499;" d="M1419.909,508.94c0.713-4.846,1.308-9.427,2.071-13.98
		c2.578-15.365,1.618-30.544-2.265-45.58c-0.239-0.924-0.642-1.803-0.939-2.712c-0.528-1.613-0.262-2.262,1.296-2.72
		c1.065-0.313,2.184-0.542,3.29-0.602c2.12-0.115,3.491,0.968,4.052,3.309c0.763,3.18,1.439,6.383,2.029,9.599
		c1.883,10.262,2.408,20.627,1.784,31.017c-0.362,6.045-1.278,12.057-1.956,18.081c-0.045,0.395-0.174,0.779-0.274,1.166
		c-0.557,2.135-1.256,2.774-3.546,2.793C1423.712,509.325,1421.971,509.089,1419.909,508.94z"/>
	<path style="fill-rule:evenodd;clip-rule:evenodd;fill:#BCCED0;" d="M1187.989,441.953c2.114,0,4.078-0.087,6.029,0.031
		c1.231,0.075,1.631,1.091,1.821,2.2c0.728,4.249,1.576,8.479,2.209,12.742c1.023,6.888,1.373,13.828,1.252,20.789
		c-0.203,11.647-2.023,23.053-5.197,34.248c-0.685,2.414-4.328,4.394-6.727,3.621c-0.448-0.144-0.95-0.869-0.988-1.36
		c-0.052-0.672,0.282-1.389,0.508-2.066c3.369-10.093,4.858-20.478,4.953-31.097c0.074-8.403-0.286-16.78-1.475-25.101
		c-0.575-4.028-1.433-8.017-2.151-12.025C1188.128,443.4,1188.094,442.854,1187.989,441.953z"/>
	<path style="fill-rule:evenodd;clip-rule:evenodd;fill:#BBCCCE;" d="M1431.515,508.757c0.15-1.293,0.168-2.643,0.478-3.922
		c3.074-12.699,3.152-25.473,0.988-38.298c-1.104-6.533-2.319-13.048-3.459-19.574c-0.566-3.242-0.235-3.635,2.995-3.801
		c1.862-0.096,2.357,0.207,2.808,2.168c0.786,3.424,1.446,6.875,2.198,10.307c1.666,7.607,2.139,15.352,2.325,23.091
		c0.097,4.048-0.584,8.117-0.964,12.172c-0.395,4.215-0.851,8.423-1.277,12.634c-0.04,0.397-0.02,0.805-0.091,1.195
		C1436.84,508.435,1436.523,509.688,1431.515,508.757z"/>
	<path style="fill-rule:evenodd;clip-rule:evenodd;fill:#BBCCCE;" d="M1410.623,509.304c0.232-0.953,0.411-1.799,0.647-2.629
		c2.42-8.483,3.665-17.135,4.008-25.95c0.375-9.623-0.643-19.117-2.247-28.573c-0.187-1.097-0.613-2.153-0.795-3.251
		c-0.242-1.466-0.354-2.953-0.533-4.545c0.997-0.178,1.677-0.314,2.362-0.418c2.122-0.32,2.962,0.22,3.286,2.384
		c1.971,13.185,3.926,26.376,3.369,39.773c-0.272,6.553-1.08,13.035-2.772,19.39c-0.997,3.741-1.626,4.204-5.533,3.986
		C1411.871,509.44,1411.328,509.371,1410.623,509.304z"/>
	<path style="fill-rule:evenodd;clip-rule:evenodd;fill:#CDCEDF;" d="M1529.871,411.5c1.437,0.777,2.873,1.554,4.748,2.568
		c-1.771,0.733-3.135,1.269-4.474,1.859c-1.314,0.579-2.668,1.109-3.889,1.851c-1.732,1.052-3.283,0.885-4.911-0.187
		c-0.855-0.563-1.805-1.004-2.757-1.386c-0.355-0.143-0.843,0.041-1.696,0.111c1.459,1.298,2.614,2.326,4.015,3.572
		c-5.905,2.493-11.423,5.161-17.442,7.42c0-0.727-0.119-1.101,0.018-1.299c4.181-6.103,8.759-11.819,15.285-15.634
		c3.365-1.967,7.013-3.117,10.856-3.52c5.638-0.591,11.288-1.067,16.941-1.492c5.016-0.376,10.042-0.618,15.063-0.91
		c0.365-0.021,0.734,0.035,1.211,0.393c-0.423,0.237-0.82,0.557-1.274,0.699c-7.155,2.263-14.314,4.51-21.479,6.743
		c-2.054,0.64-4.017,0.603-6.031-0.419c-1.215-0.615-2.688-0.722-4.044-1.057C1529.964,411.043,1529.918,411.271,1529.871,411.5z"/>
	<path style="fill-rule:evenodd;clip-rule:evenodd;fill:#BBCCCE;" d="M268.218,476.424c4.625,0.718,6.398,2.579,6.792,6.654
		c0.561,5.801,1.113,11.603,1.642,17.406c0.072,0.787,0.035,1.592-0.027,2.382c-0.532,6.846-1.077,13.689-1.63,20.533
		c-0.07,0.874-0.149,1.755-0.329,2.61c-0.373,1.773-1.065,2.265-2.848,2.147c-1.803-0.119-2.258-0.57-2.059-2.423
		c0.29-2.696,0.692-5.382,1.063-8.07c0.877-6.35,1.066-12.734,0.799-19.123c-0.247-5.914-1.123-11.751-2.629-17.49
		C268.616,479.621,268.494,478.124,268.218,476.424z"/>
	<path style="fill-rule:evenodd;clip-rule:evenodd;fill:#294244;" d="M1462.297,508.188c0-3.877-0.016-7.282,0.011-10.688
		c0.007-0.791,0.168-1.578,0.233-2.369c0.313-3.803,0.742-7.601,0.899-11.41c0.27-6.535,0.722-13.096,0.417-19.614
		c-0.216-4.641-1.522-9.233-2.387-13.839c-0.658-3.513-1.371-7.016-2.098-10.515c-0.146-0.702-0.178-1.396,0.572-1.566
		c0.326-0.074,1.023,0.441,1.187,0.839c2.059,5.009,4.369,9.949,5.234,15.351c0.477,2.977,0.699,5.993,1.009,8.995
		c0.18,1.738,0.49,3.491,0.412,5.223c-0.148,3.25-0.55,6.488-0.819,9.734c-0.21,2.538-0.354,5.081-0.571,7.618
		c-0.464,5.384-0.863,10.775-1.491,16.14c-0.209,1.787-1.021,3.508-1.603,5.244C1463.223,507.566,1462.87,507.712,1462.297,508.188z
		"/>
	<path style="fill-rule:evenodd;clip-rule:evenodd;fill:#294244;" d="M1454.019,503.896c-0.035-1.285-0.132-2.12-0.068-2.942
		c0.291-3.803,0.521-7.615,0.969-11.4c0.818-6.904,1.149-13.832,0.875-20.763c-0.383-9.675-1.688-19.19-6.187-27.977
		c-0.143-0.278-0.221-0.59-0.313-0.891c-0.018-0.059,0.044-0.141,0.14-0.41c0.388,0.206,0.828,0.322,1.102,0.603
		c4.13,4.22,6.834,9.182,7.702,15.066c0.685,4.638,1.133,9.302,1.614,13.963c0.418,4.053-0.062,7.939-0.579,11.845
		c-0.814,6.136-1.94,12.231-2.986,18.335C1456.026,500.847,1455.679,502.39,1454.019,503.896z"/>
	<path style="fill-rule:evenodd;clip-rule:evenodd;fill:#2B4546;" d="M1571.522,577.626c-0.152-3.558,0.446-7.027,1.688-10.321
		c1.938-5.142,4.075-10.209,6.198-15.278c0.507-1.209,1.294-2.3,1.952-3.445c0.149,0.063,0.3,0.126,0.45,0.188
		c-0.206,0.713-0.387,1.435-0.621,2.139c-2.794,8.392-5.606,16.778-8.38,25.178c-0.265,0.8-0.298,1.675-0.438,2.516
		C1572.088,578.276,1571.805,577.951,1571.522,577.626z"/>
	<path style="fill-rule:evenodd;clip-rule:evenodd;fill:#0E292F;" d="M1157.76,577.135c-2.611-0.245-3.574-2.277-4.181-4.307
		c-0.627-2.1-0.807-4.341-1.084-6.533c-0.237-1.88-0.438-3.775-0.47-5.668c-0.039-2.358,1.118-3.768,3.858-4.798
		c-0.102,1.425-0.124,2.735-0.3,4.025c-0.577,4.244-0.794,8.488,0.312,12.667C1156.316,574.112,1157.127,575.6,1157.76,577.135
		L1157.76,577.135z"/>
	<polygon style="fill-rule:evenodd;clip-rule:evenodd;fill:#D0D1E2;" points="1822.249,411.863 1822.186,411.703 1822.358,411.73 	
		"/>
	<path style="fill-rule:evenodd;clip-rule:evenodd;fill:#0E292F;" d="M1157.76,577.135c0.067,0.037,0.134,0.074,0.201,0.111
		C1157.894,577.209,1157.827,577.172,1157.76,577.135L1157.76,577.135z"/>
	<path style="fill-rule:evenodd;clip-rule:evenodd;fill:#D6D7E5;" d="M1712.629,511.745c2.073,7.336,4.153,14.669,6.203,22.011
		c0.12,0.433-0.012,0.937-0.026,1.407c-4.113,0.149-8.034,1.164-11.907,2.5c-7.396,2.552-14.805,5.063-22.239,7.5
		c-5.538,1.814-11.113,3.521-16.694,5.202c-3.036,0.914-5.841,0.413-8.26-1.767c-1.346-1.214-1.715-2.651-1.039-4.33
		c0.388-0.963,0.856-1.893,1.244-2.855c0.872-2.168,0.572-3.216-1.274-4.542c-0.648-0.466-1.344-0.87-1.971-1.362
		c-3.912-3.072-5.379-7.002-4.135-11.878c1.075-4.209,2.864-8.122,4.882-11.946c1.918-3.637,1.73-4.191-1.477-6.773
		c-9.713-7.822-19.391-15.687-29.078-23.54c-1.107-0.898-2.174-1.839-2.39-3.599c0.973-0.391,1.899-1.021,2.87-1.099
		c2.215-0.177,4.497-0.374,6.668-0.031c3.697,0.586,7.367,1.448,10.984,2.428c15.323,4.15,29.919,10.199,44.096,17.274
		c6.456,3.222,12.506,7.127,17.854,12.011C1708.63,509.899,1710.431,511.12,1712.629,511.745z M1679.551,511.347
		c1.845,0.908,3.68,1.839,5.535,2.723c7.005,3.336,14.156,6.264,21.841,7.658c0.55,0.1,1.134,0.014,1.85,0.014
		c-0.227-0.438-0.281-0.754-0.442-0.823c-2.922-1.263-5.817-2.604-8.799-3.714C1693.058,514.794,1686.865,511.438,1679.551,511.347z
		 M1678.043,535.546c0.058,0.195,0.114,0.392,0.171,0.587c1.64,0.449,3.245-0.18,4.812-0.474c7.558-1.419,14.674-4.238,21.77-7.099
		c0.295-0.119,0.648-0.212,0.84-0.434c0.171-0.198,0.269-0.595,0.189-0.834c-0.079-0.24-0.409-0.537-0.646-0.552
		c-0.374-0.023-0.767,0.15-1.142,0.27c-8.119,2.597-16.238,5.192-24.353,7.805C1679.118,534.997,1678.59,535.3,1678.043,535.546z"/>
	<path style="fill-rule:evenodd;clip-rule:evenodd;fill:#1C1A35;" d="M1712.629,511.745c-2.198-0.625-3.999-1.846-5.689-3.39
		c-5.348-4.884-11.397-8.789-17.854-12.011c-14.177-7.075-28.772-13.124-44.096-17.274c-3.617-0.979-7.287-1.842-10.984-2.428
		c-2.171-0.343-4.453-0.146-6.668,0.031c-0.971,0.077-1.897,0.708-2.87,1.099c0.216,1.76,1.282,2.7,2.39,3.599
		c9.688,7.854,19.365,15.718,29.078,23.54c3.207,2.582,3.395,3.137,1.477,6.773c-2.018,3.824-3.807,7.737-4.882,11.946
		c-1.244,4.876,0.223,8.806,4.135,11.878c0.627,0.492,1.322,0.896,1.971,1.362c1.847,1.326,2.146,2.374,1.274,4.542
		c-0.388,0.963-0.856,1.893-1.244,2.855c-0.676,1.679-0.307,3.116,1.039,4.33c2.419,2.18,5.224,2.681,8.26,1.767
		c5.581-1.681,11.156-3.388,16.694-5.202c7.435-2.437,14.844-4.948,22.239-7.5c3.873-1.336,7.794-2.351,11.907-2.5
		c0.532,0.141,1.064,0.277,1.594,0.429c0.047,0.014,0.065,0.129,0.234,0.488c-1.854,0.921-3.724,1.849-5.593,2.776
		c-11.143,4.142-22.272,8.323-33.72,11.578c-3.912,1.111-7.848,2.141-11.769,3.22c-3.546,0.977-6.994,0.456-10.313-0.862
		c-4.179-1.661-4.763-4.629-4.081-9.092c0.108-0.707,0.495-1.405,0.458-2.092c-0.044-0.825-0.142-1.938-0.673-2.396
		c-2.351-2.031-3.792-4.716-5.557-7.17c-0.139-0.193-0.32-0.355-0.481-0.531c-0.184-1.502-0.438-2.999-0.538-4.507
		c-0.23-3.502,0.57-6.827,1.992-9.999c0.752-1.676,1.612-3.307,2.5-4.915c1.766-3.198,1.689-3.881-1.05-6.056
		c-3.751-2.978-7.548-5.899-11.298-8.88c-5.25-4.172-10.539-8.297-15.67-12.611c-1.619-1.361-2.974-3.145-4.107-4.95
		c-1.605-2.558-0.732-4.721,2.175-5.566c4.236-1.232,8.513-1.88,12.97-0.934c13.873,2.945,27.277,7.233,40.157,13.217
		c7.548,3.508,14.839,7.46,21.998,11.683c5.301,3.126,9.442,7.596,13.766,11.85C1712.258,510.292,1712.361,511.102,1712.629,511.745
		z"/>
	<path style="fill-rule:evenodd;clip-rule:evenodd;fill:#191837;" d="M1771.672,445.639c-2.037,2.238-4.012,4.414-5.994,6.584
		c-0.484,0.531-1.014,1.022-1.481,1.567c-2.11,2.458-2.255,4.186-0.565,6.939c0.501,0.815,1.114,1.563,1.608,2.382
		c1.166,1.937,0.937,3.516-0.609,5.198c-1.132,1.231-2.246,2.486-3.271,3.807c-0.641,0.827-1.126,1.782-0.36,2.852
		c1.04,1.453,0.634,2.867-0.147,4.267c-0.776,1.393-1.595,2.765-2.309,4.189c-0.869,1.731-1.058,3.466,0.039,5.244
		c0.376,0.609,0.406,1.432,0.615,2.233c-2.48-0.055-4.101-1.575-4.247-4.073c-0.071-1.221,0.237-2.525,0.652-3.693
		c0.338-0.948,1.003-1.826,1.68-2.597c1.304-1.483,1.885-2.903,0.441-4.661c-0.788-0.961-0.662-2.167-0.044-3.156
		c0.92-1.472,1.864-2.973,3.048-4.226c2.419-2.56,2.567-3.618,0.422-6.374c-2.445-3.141-2.579-5.296,0.071-8.354
		c2.611-3.012,5.546-5.742,8.345-8.591C1770.287,444.44,1770.949,444.481,1771.672,445.639z"/>
	<path style="fill-rule:evenodd;clip-rule:evenodd;fill:#191837;" d="M1560.945,435.524c-0.678,1.683-1.338,3.373-2.039,5.046
		c-0.4,0.954-0.973,1.848-1.276,2.828c-0.405,1.306-0.009,1.968,1.342,2.242c1.868,0.379,3.758,0.676,5.651,0.905
		c1.924,0.232,2.393,0.668,2.08,2.593c-0.177,1.086-0.66,2.12-0.951,3.191c-0.63,2.322-0.398,2.832,1.759,3.976
		c0.563,0.298,1.186,0.49,1.729,0.817c0.729,0.439,1.408,0.963,2.249,1.547c-1.593,3.52-0.969,6.452,2.184,8.703
		c-2.815,1.063-6.066-1.346-5.5-4.283c0.104-0.541,0.007-1.117,0.061-1.673c0.122-1.262-0.382-2.125-1.499-2.727
		c-0.697-0.376-1.318-0.895-1.968-1.356c-1.783-1.269-2.327-2.925-1.641-5.021c0.318-0.972,0.514-1.984,0.837-3.262
		c-1.663-0.347-3.176-0.796-4.718-0.957c-3.915-0.409-5.805-2.316-2.782-6.436c1.497-2.041,3.01-4.072,4.516-6.107L1560.945,435.524
		z"/>
	<path style="fill-rule:evenodd;clip-rule:evenodd;fill:#191837;" d="M1756.805,542.067c-0.807,0.732-1.553,0.404-2.287-0.129
		c-0.367-0.794-0.759-1.577-1.099-2.382c-0.875-2.07-1.54-4.169-0.999-6.47c0.394-1.676-0.006-3.036-1.341-4.293
		c-1.667-1.569-1.778-3.076-0.509-4.91c1.494-2.159,3.129-4.224,4.755-6.289c0.223-0.283,0.746-0.33,1.392-0.594
		c-0.336,2.232-1.279,3.864-2.231,5.486c-0.363,0.618-0.844,1.169-1.186,1.798c-0.694,1.276-0.661,2.558,0.455,3.471
		c1.495,1.223,1.705,2.649,1.65,4.438c-0.047,1.559,0.429,3.132,0.66,4.7C1756.32,538.617,1756.559,540.343,1756.805,542.067z"/>
	<path style="fill-rule:evenodd;clip-rule:evenodd;fill:#191837;" d="M1566.684,509.395c-0.607-0.146-1.217-0.292-1.825-0.438
		c-0.233-1.146-0.728-1.971-1.941-2.465c-2.806-1.142-3.495-2.309-2.835-5.2c0.405-1.778,0.57-3.731,2.021-5.48
		c0.323,0.563,0.688,0.914,0.703,1.278c0.048,1.11,0.047,2.236-0.093,3.337c-0.308,2.413,0.134,3.187,2.362,3.833
		c0.457,0.132,0.932,0.254,1.342,0.483c1.729,0.968,1.918,1.959,0.767,3.6C1566.965,508.656,1566.849,509.042,1566.684,509.395z"/>
	<path style="fill-rule:evenodd;clip-rule:evenodd;fill:#191837;" d="M1819.258,432.21c-0.782,0.756-1.552,1.525-2.35,2.264
		c-0.581,0.539-1.248,0.992-1.792,1.564c-1.211,1.276-1.107,1.91,0.385,2.763c0.621,0.354,1.301,0.616,1.886,1.018
		c0.852,0.584,0.836,0.66,0.521,2.325c-2.302-0.243-4.187-1.326-5.748-2.943c-0.952-0.987-0.835-2.301,0.408-3.357
		c1.913-1.626,4.033-2.982,6.25-4.153C1818.965,431.863,1819.111,432.037,1819.258,432.21z"/>
	<path style="fill-rule:evenodd;clip-rule:evenodd;fill:#1E1D38;" d="M1815.277,444.472c-2.705,2.344-1.722,5.468-1.922,8.366
		C1809.655,449.544,1810.377,445.933,1815.277,444.472z"/>
	<path style="fill-rule:evenodd;clip-rule:evenodd;fill:#191837;" d="M1807.382,467.201c-1.175-0.54-1.664-1.178-1.587-2.173
		c0.071-0.908,2.021-5.662,2.764-6.742c1.116,0.136,1.205,0.856,0.921,1.718c-0.396,1.2-0.897,2.367-1.257,3.577
		C1807.891,464.697,1807.688,465.853,1807.382,467.201z"/>
	<path style="fill-rule:evenodd;clip-rule:evenodd;fill:#191837;" d="M1560.978,435.552c0.058-0.209,0.114-0.418,0.172-0.627
		c-0.067,0.2-0.136,0.399-0.204,0.6L1560.978,435.552z"/>
	<path style="fill-rule:evenodd;clip-rule:evenodd;fill:#191837;" d="M1820.146,431.203c-0.08,0.07-0.161,0.142-0.24,0.212
		c0.02-0.048,0.026-0.119,0.063-0.138c0.06-0.033,0.138-0.032,0.207-0.045L1820.146,431.203z"/>
	<path style="fill-rule:evenodd;clip-rule:evenodd;fill:#191837;" d="M1820.175,431.232c0.059-0.078,0.117-0.155,0.176-0.232
		c-0.009,0.042-0.004,0.103-0.031,0.124c-0.048,0.039-0.115,0.054-0.174,0.079L1820.175,431.232z"/>
	<path style="fill-rule:evenodd;clip-rule:evenodd;fill:#1E1D38;" d="M1857.174,509.674c0.005-9.185,6.845-16.641,15.992-17.583
		c6.576-0.678,11.909,1.711,16.213,6.482c2.973,3.295,4.419,7.183,3.382,11.714c-0.426,1.863-0.698,3.773-1.272,5.59
		c-3.175,10.04-12.521,13.653-21.001,11.642C1862.197,525.553,1857.17,518.824,1857.174,509.674z M1874.186,524.871
		c6.846,0.088,13.122-4.716,15.04-11.568c0.86-3.074,0.997-6.147-0.4-9.137c-1.782-3.813-4.486-6.779-8.192-8.791
		c-2.181-1.184-4.493-1.554-6.956-1.037c-5.706,1.198-9.922,4.412-12.435,9.611C1856.084,514.622,1864.941,524.855,1874.186,524.871
		z"/>
	<path style="fill-rule:evenodd;clip-rule:evenodd;fill:#25233D;" d="M1603.874,561.817c-0.238,0.797-0.284,1.614-0.684,2.182
		c-4.19,5.937-8.427,11.841-12.682,17.731c-0.584,0.81-1.336,1.497-2.403,2.676c-0.056-1.032-0.226-1.502-0.074-1.818
		c0.786-1.648,1.473-3.389,2.527-4.857c3.447-4.8,7.034-9.5,10.579-14.23C1601.747,562.687,1602.294,561.745,1603.874,561.817z"/>
	<path style="fill-rule:evenodd;clip-rule:evenodd;fill:#25233D;" d="M1802.416,612.234c1.133,4.212-2.42,11.32-6.973,14.29
		C1795.658,624.254,1800.163,614.932,1802.416,612.234z"/>
	<path style="fill-rule:evenodd;clip-rule:evenodd;fill:#25233D;" d="M1785.187,624.21c-3.653-3.991-4.646-10.486-2.302-15.129
		C1783.674,614.271,1784.393,618.995,1785.187,624.21z"/>
	<path style="fill-rule:evenodd;clip-rule:evenodd;fill:#25233D;" d="M1679.551,511.347c7.314,0.091,13.507,3.447,19.984,5.857
		c2.981,1.109,5.877,2.451,8.799,3.714c0.161,0.069,0.216,0.385,0.442,0.823c-0.716,0-1.3,0.086-1.85-0.014
		c-7.685-1.395-14.836-4.322-21.841-7.658C1683.23,513.186,1681.396,512.255,1679.551,511.347z"/>
	<path style="fill-rule:evenodd;clip-rule:evenodd;fill:#25233D;" d="M1678.043,535.546c0.547-0.246,1.075-0.549,1.642-0.73
		c8.114-2.612,16.233-5.208,24.353-7.805c0.375-0.119,0.768-0.293,1.142-0.27c0.236,0.015,0.566,0.312,0.646,0.552
		c0.079,0.239-0.019,0.636-0.189,0.834c-0.191,0.222-0.545,0.314-0.84,0.434c-7.096,2.86-14.212,5.68-21.77,7.099
		c-1.566,0.294-3.172,0.923-4.812,0.474C1678.157,535.938,1678.101,535.741,1678.043,535.546z"/>
	<path style="fill-rule:evenodd;clip-rule:evenodd;fill:#D0D1E2;" d="M1874.186,524.871c-9.244-0.016-18.102-10.249-12.943-20.922
		c2.513-5.199,6.729-8.413,12.435-9.611c2.463-0.517,4.775-0.146,6.956,1.037c3.706,2.012,6.41,4.978,8.192,8.791
		c1.397,2.989,1.261,6.063,0.4,9.137C1887.308,520.155,1881.031,524.959,1874.186,524.871z M1873.892,521.501
		c5.443,0.094,10.478-3.872,12.067-9.508c0.528-1.876,0.709-3.757,0.073-5.649c-1.845-5.499-8.271-9.055-13.811-7.424
		c-5.113,1.506-8.316,5.037-9.258,10.271C1861.741,515.994,1866.635,521.375,1873.892,521.501z"/>
	<path style="fill-rule:evenodd;clip-rule:evenodd;fill:#14132B;" d="M1873.892,521.501c-7.257-0.126-12.15-5.507-10.928-12.311
		c0.941-5.233,4.145-8.765,9.258-10.271c5.539-1.631,11.966,1.925,13.811,7.424c0.636,1.893,0.455,3.773-0.073,5.649
		C1884.369,517.629,1879.335,521.595,1873.892,521.501z"/>
</g>
</svg>
