<?xml version="1.0" encoding="iso-8859-1"?>
<!-- Generator: Adobe Illustrator 16.0.0, SVG Export Plug-In . SVG Version: 6.00 Build 0)  -->
<!DOCTYPE svg PUBLIC "-//W3C//DTD SVG 1.1//EN" "http://www.w3.org/Graphics/SVG/1.1/DTD/svg11.dtd">
<svg version="1.1" id="Layer_1" xmlns="http://www.w3.org/2000/svg" xmlns:xlink="http://www.w3.org/1999/xlink" x="0px" y="0px"
	 width="1980px" height="1080px" viewBox="0 0 1980 1080" style="enable-background:new 0 0 1980 1080;" xml:space="preserve">
<g>
	<path style="fill-rule:evenodd;clip-rule:evenodd;fill:#1C1932;" d="M1256.413,768.203c-5.883-0.609-11.769-1.197-17.646-1.85
		c-1.262-0.139-2.498-0.514-3.744-0.787c-5.302-1.162-8.205-4.621-9.324-9.77c-1.3-5.977-1.686-12.063-1.407-18.129
		c0.482-10.541,1.363-21.064,1.973-31.6c1.191-20.605,1.966-41.229,1.063-61.861c-1.176-26.895-4.893-53.473-10.576-79.773
		c-1.078-4.986-0.765-7.26-8.586-8.373c-3.644-0.52-7.122-1.84-10.377-3.582c-4.067-2.178-8.435-2.879-12.958-2.893
		c-3.357-0.008-6.716,0.123-10.074,0.125c-22.875,0.012-45.752-0.119-68.627,0.043c-22.547,0.158-45.095,0.523-67.639,0.975
		c-7.825,0.158-15.622,0.834-23.369,2.232c-7.891,1.426-15.916,1.525-23.92,1.164c-10.267-0.467-20.443,0.588-30.643,1.471
		c-2.959,0.256-4.946,1.41-6.768,3.742c-8.413,10.771-15.322,22.426-20.927,34.863c-2.588,5.74-6.059,10.859-10.133,15.633
		c-4.505,5.281-10.119,8.725-16.736,10.645c-5.713,1.658-11.58,2.539-17.485,2.756c-14.062,0.516-28.132,0.801-42.201,1.107
		c-6.259,0.135-12.448-0.666-18.581-1.861c-7.372-1.438-12.88-5.512-16.321-12.154c-1.385-2.672-2.386-5.574-3.311-8.451
		c-2.002-6.234-3.834-12.523-5.758-18.781c-0.321-1.045-0.754-2.055-1.199-3.252c-0.959,0.107-1.76,0.061-2.467,0.297
		c-10.459,3.484-20.764,7.328-30.604,12.375c-13.696,7.023-24.821,16.787-32.942,29.93c-4.789,7.75-9.547,15.527-14.613,23.096
		c-3.908,5.84-8.269,11.377-12.434,17.045c-4.985,6.785-11.932,9.961-20.104,10.641c-16.283,1.355-32.604,1.172-48.914,0.766
		c-3.962-0.1-7.919-0.975-11.847-1.668c-5.103-0.9-8.638-3.947-10.863-8.549c-1.112-2.299-2.079-4.67-3.158-6.988
		c-5.142-11.045-11.028-21.654-18.778-31.115c-2.426-2.963-4.982-5.861-7.778-8.467c-3.656-3.408-8.091-4.508-12.895-2.76
		c-18.058,6.572-36.819,10.543-55.406,15.178c-27.428,6.838-54.564,14.727-81.589,23.002c-30.23,9.256-60.219,19.248-90.109,29.537
		c-11.936,4.111-24.146,7.271-36.266,10.75c-12.428,3.564-24.748,7.512-37.191,11.018c-15.83,4.459-31.741,8.627-47.609,12.949
		c-17.876,4.873-35.418,10.818-53.067,16.428c-13.395,4.258-26.706,8.721-39.767,13.926c-11.021,4.391-22.514,7.172-34.113,9.48
		c-11.123,2.213-22.261,4.383-33.453,6.201c-11.834,1.924-23.735,3.469-35.772,3.377c-6.282-0.047-12.428-1.025-18.357-3.098
		c-4.16-1.451-7.867-3.584-9.723-7.938c-0.298-0.697-0.898-0.803-1.562-0.428c0-2.24,0-4.48,0-6.721
		c0.286,0.084,0.687,0.324,0.835,0.217c0.362-0.262,0.728-0.639,0.882-1.049c13.511-36.055,26.457-72.313,38.53-108.875
		C46.167,619.74,52.08,601,56.846,581.922c3.49-13.973,6.193-28.098,7.858-42.4c0.516-4.436,0.561-8.943,0.57-13.418
		c0.032-15.679-0.025-31.358-0.104-47.037c-0.013-2.532,0.161-5.072-0.804-7.572c-0.728-1.886-0.017-3.529,1.775-4.444
		c1.231-0.629,2.697-0.983,4.085-1.087c4.506-0.334,8.921,0.518,13.328,1.328c5.026,0.925,10.04,1.925,15.081,2.765
		c2.201,0.367,4.451,0.451,6.683,0.606c12.443,0.871,24.885,1.778,37.334,2.563c7.818,0.493,15.646,1.014,23.476,1.14
		c22.231,0.359,44.464,0.565,66.698,0.74c8.636,0.068,17.276-0.271,25.91-0.14c23.188,0.353,46.379,0.688,69.56,1.351
		c24.94,0.714,49.867,1.841,74.804,2.682c7.512,0.253,15.036,0.16,22.555,0.207c20.317,0.128,40.637,0.095,60.951,0.42
		c14.39,0.23,28.773,0.885,43.156,1.453c11.691,0.462,23.233,2.252,34.708,4.413c7.69,1.448,15.31,3.269,22.97,4.878
		c7.111,1.493,13.729,4.233,19.955,7.916c4.4,2.604,8.745,5.309,13.036,8.089c13.344,8.645,27.444,15.672,42.665,20.404
		c16.271,5.059,32.81,6.509,49.763,4.675c17.781-1.923,34.746-6.86,51.469-12.885c5.706-2.056,11.402-4.138,17.138-6.107
		c6.207-2.131,9.598-6.69,11.064-12.806c0.63-2.626,0.783-5.372,1.093-8.07c0.655-5.718,1.14-11.458,1.932-17.156
		c1.196-8.598,5.584-15.177,13.046-19.674c6.644-4.005,13.831-6.634,21.412-8.078c7.533-1.436,15.113-2.634,22.69-3.819
		c6.001-0.939,12.01-1.903,18.051-2.49c6.519-0.635,13.074-0.974,19.622-1.214c17.262-0.631,34.536-0.954,51.79-1.739
		c23.647-1.075,47.273-2.504,70.96-2.646c24.632-0.146,49.265-0.471,73.891-0.967c16.147-0.324,32.294-0.907,48.423-1.72
		c12.938-0.65,25.853-1.761,38.768-2.789c4.929-0.393,9.829-1.126,14.766-1.707c0.268-0.452,0.655-0.828,0.715-1.252
		c0.652-4.579,3.752-6.913,7.748-8.26c8.497-2.862,17.17-4.985,26.104-6.014c10.695-1.231,21.38-1.296,32.08-0.113
		c1.876,0.207,3.773,0.221,6.024,0.344c-0.154-1.242-0.343-2.129-0.362-3.02c-0.071-3.349-0.199-6.702-0.093-10.047
		c0.087-2.726,1.457-4.898,3.767-6.346c1.618-1.016,3.283-2.036,5.06-2.707c5.223-1.972,10.436-4.041,15.795-5.57
		c7.215-2.059,14.543-3.736,21.86-5.413c6.198-1.42,12.443-1.317,18.425,0.921c2.971,1.111,5.494,0.749,8.284-0.375
		c15.702-6.323,31.451-12.527,47.172-18.802c83.499-33.327,166.979-66.701,250.498-99.976
		c33.822-13.476,67.736-26.721,101.58-40.141c3.104-1.231,6.054-2.886,8.983-4.507c4.367-2.418,8.849-4.434,13.874-5.016
		c0.37-0.044,0.69-0.517,1.034-0.789c4.16,0,8.32,0,12.48,0c0.332,0.28,0.633,0.751,1.001,0.812
		c4.353,0.71,8.175,2.666,11.839,4.979c6.247,3.945,11.912,8.61,17.02,13.948c9.478,9.907,16.791,21.301,23.028,33.443
		c6.804,13.244,12.088,27.12,17.116,41.096c5.859,16.287,10.124,32.972,11.749,50.25c0.265,2.815,1.485,4.432,4.229,4.949
		c0.47,0.089,0.934,0.219,1.392,0.359c10.221,3.14,20.463,6.211,30.654,9.444c16.495,5.232,30.055,14.553,40.156,28.792
		c2.764,3.897,6.089,7.4,9.206,11.043c3.638,4.25,7.556,8.279,10.955,12.71c9.149,11.925,17.669,24.294,25.373,37.214
		c2.44,4.092,4.92,8.156,6.099,12.847c0.023,0.094,0.277,0.131,0.424,0.194c0,4.801,0,9.601,0,14.4
		c-0.159,0.017-0.439-0.007-0.46,0.056c-1.209,3.639-3.727,6.174-6.865,8.189c-3.358,2.156-6.656,4.417-10.095,6.438
		c-7.082,4.162-9.575,10.392-6.975,18.363c0.988,3.029,2.344,5.94,3.564,8.892c1.394,3.364,1.641,6.771,0.756,10.325
		c-1.563,6.28-6.875,10.963-12.729,11.389c-0.637,0.047-1.271,0.209-1.906,0.201c-5.994-0.078-11.724,1.271-17.373,3.125
		c-10.826,3.555-22.014,5.416-33.261,6.951c-6.81,0.93-13.633,1.75-20.452,2.602c-5.627,0.703-11.175-0.076-16.699-1.016
		c-6.143-1.043-12.276-2.15-18.402-3.293c-2.443-0.455-4.805-0.32-7.02,0.779c-3.285,1.633-6.593,3.244-9.747,5.109
		c-7.601,4.492-15.549,8.139-24.03,10.643c-5.076,1.498-10.242,2.521-15.48,3.137c-5.818,0.684-11.538-0.021-16.907-2.383
		c-7.099-3.121-14.591-4.615-22.157-5.91c-12.126-2.078-24.247-4.186-36.371-6.277s-24.249-4.176-36.373-6.266
		c-13.856-2.391-27.712-4.785-41.567-7.18c-13.855-2.396-27.71-4.799-41.564-7.195c-13.855-2.398-27.713-4.787-41.567-7.186
		s-27.707-4.812-41.562-7.209c-13.855-2.397-27.712-4.782-41.568-7.176c-14.013-2.422-28.024-4.845-42.036-7.273
		c-15.743-2.728-31.49-5.439-47.227-8.203c-9.285-1.63-18.551-3.366-27.834-5c-1.407-0.247-2.869-0.303-4.302-0.266
		c-8.311,0.212-16.618,0.497-24.929,0.718c-4.316,0.114-8.643,0.325-12.95,0.155c-3.009-0.119-6.012-0.723-8.988-1.268
		c-2.752-0.504-3.823,0.1-4.33,2.879c-0.917,5.03-1.783,10.069-2.7,15.099c-1.632,8.96-3.281,17.916-4.938,26.871
		c-0.174,0.941-0.421,1.869-0.679,2.791c-0.506,1.803-1.572,3.104-3.385,3.752c-0.873,0.313-1.713,0.717-2.829,1.191
		c0.156,1.838,0.215,3.578,0.467,5.291c1.742,11.859,3.563,23.709,5.265,35.576c0.384,2.684,0.396,5.42,0.578,8.133
		c0.719,10.688,1.436,21.377,2.156,32.066c0.323,4.787,0.607,9.576,0.992,14.359c1.592,19.793,2.118,39.615,1.1,59.445
		c-0.764,14.857-2.573,29.621-5.428,44.236c-0.396,2.023-1.04,4.023-1.793,5.947c-1.485,3.793-3.672,7.088-7.287,9.232
		c-0.503,0.299-1.148,0.615-0.593,1.398c-2.24,0-4.479,0-6.72,0C1262.315,767.621,1259.351,768.023,1256.413,768.203z
		 M1358.273,442.819c-0.059,5.884-0.119,11.769-0.17,17.652c-0.004,0.476-0.088,1.042,0.131,1.407
		c0.384,0.643,0.87,1.455,1.496,1.673c1.316,0.458,2.758,0.625,4.212-0.519c-0.341-1.165-0.742-2.343-1.027-3.548
		c-0.951-4.016-1.877-8.037-2.778-12.064c-0.343-1.53-0.595-3.081-0.888-4.623c-0.093-7.022,0.106-14.029,0.991-21.006
		c0.153-1.212,0.222-2.435,0.34-3.767c-2.452-0.438-4.196,0.797-6.285,1.053c-0.148,4.357,1.823,7.995,2.269,11.915
		C1357.013,434.949,1357.693,438.878,1358.273,442.819z M1806.306,567.389c-0.331,0.295-0.76,0.533-0.959,0.898
		c-0.149,0.275-0.005,0.711,0.009,1.074c0.369-0.162,0.739-0.322,1.108-0.484c6.083-2.092,17.369-8.445,20.672-11.689
		c-3.071-0.553-6.063-1-9.008-1.656c-2.021-0.449-3.355,0.26-4.491,1.84C1811.221,560.73,1808.752,564.053,1806.306,567.389z
		 M1802.749,489.772l0.02-0.055c-0.014-10.688-0.683-21.376,0.741-32.054c0.909-6.821,2.219-13.521,4.205-20.094
		c3.305-10.938,8.168-21.134,14.871-30.404c1.578-2.182,2.323-4.448,2.183-7.139c-0.367-7.008-0.101-14.02-0.722-21.048
		c-0.562-6.354-1.169-12.681-2.026-19.002c-0.35-2.583-1.559-3.665-3.877-3.988c-3.783-0.528-7.564-1.081-11.358-1.528
		c-0.888-0.104-1.82,0.175-2.786,0.283c-0.801,2.282-0.426,4.349-0.178,6.37c0.813,6.646,1.669,13.281,1.637,19.996
		c-0.026,5.436,0.076,10.873-0.05,16.305c-0.039,1.733,0.8,2.924,1.635,3.98c-0.575,1.892-1.283,3.525-1.551,5.229
		c-0.936,5.981-1.963,11.96-1.975,18.048c-0.002,0.956-0.038,1.925-0.187,2.867c-0.867,5.503-1.34,11.056-2.509,16.525
		c-1.964,9.189-3.527,18.464-5.485,27.653c-1.229,5.762-2.872,11.435-4.33,17.146c-2.097,2.369-2.349,5.494-3.341,8.306
		c-0.744,2.109-0.143,2.954,2.014,3.274c4.078,0.606,8.157,1.205,12.248,1.716c0.858,0.107,1.767-0.181,2.487-0.268
		c0.897-1.859,0.353-3.45,0.188-4.985c-0.217-2.037-0.716-4.044-1.095-6.063C1803.256,490.487,1803.002,490.129,1802.749,489.772z
		 M68.25,468.947c-0.097,1.161-0.318,1.823-0.175,2.396c1.481,5.918,1.992,11.918,1.795,18.006c-0.062,1.905,0.116,3.825,0.276,5.73
		c0.147,1.736,0.596,3.461,0.607,5.192c0.066,9.759,0.046,19.518,0.039,29.276c-0.001,1.438,0.217,2.977-0.211,4.291
		c-0.871,2.673-0.675,5.368-0.74,8.072c-0.035,1.438,0.079,2.904-0.161,4.309c-0.8,4.691-1.733,9.361-2.609,14.041
		c-2.636,14.068-5.61,28.045-9.445,41.859c-3.496,12.598-7.538,25.016-11.368,37.504c-2.01,6.551-4.491,12.957-6.748,19.436
		c-2.676,7.682-5.31,15.377-8.015,23.049c-3.181,9.023-6.372,18.043-9.644,27.035c-4.093,11.246-8.499,22.365-13.847,33.09
		c-0.78,1.564-1.447,3.207-1.961,4.877c-1.547,5.02-0.308,8.115,4.018,11.057c1.905,1.295,3.947,2.02,6.164,2.41
		c0.939,0.164,1.885,0.301,2.81,0.525c3.163,0.771,6.424,0.789,9.512,0.154c2.553-0.525,5.052-0.6,7.596-0.664
		c2.237-0.057,4.564,0.262,6.687-0.258c2.224-0.545,4.402-0.66,6.633-0.725c0.794-0.023,1.597-0.084,2.378-0.227
		c4.685-0.848,9.354-1.791,14.049-2.578c8.299-1.393,16.65-2.506,24.911-4.092c7.955-1.527,15.797-3.635,23.737-5.254
		c10.203-2.082,19.957-5.572,29.626-9.273c10.43-3.992,20.989-7.527,31.729-10.572c4.139-1.172,8.173-2.721,12.246-4.123
		c7.541-2.598,14.99-5.506,22.633-7.754c11.755-3.457,23.612-6.582,35.48-9.633c13.431-3.455,26.541-7.971,39.882-11.715
		c9.198-2.58,18.397-5.152,27.596-7.729c7.666-2.145,15.449-3.875,22.958-6.572c5.553-1.994,11.104-4,16.707-5.848
		c14.237-4.695,28.491-9.344,42.761-13.939c14.113-4.545,28.245-9.031,42.386-13.49c9.119-2.877,18.225-5.805,27.412-8.449
		c13.309-3.83,26.661-7.516,40.042-11.088c9.988-2.668,20.051-5.053,30.078-7.576c6.946-1.748,13.95-3.303,20.81-5.342
		c5.334-1.586,10.82-2.766,15.885-5.244c1.393-0.682,3.116-1.242,4.599-1.076c3.739,0.42,5.247-1.494,5.904-4.707
		c0.096-0.469,0.207-0.939,0.354-1.395c2.855-8.816,6.053-17.496,10.409-25.703c1.346-2.535,2.778-5.025,4.227-7.504
		c3.38-5.781,6.82-11.527,10.958-16.814c3.629-4.637,7.385-9.18,10.899-13.903c3.437-4.616,7.037-9.064,11.234-13.014
		c0.464-0.438,0.914-0.901,1.304-1.405c1.021-1.317,0.744-2.69-0.714-3.659c-0.264-0.176-0.57-0.288-0.843-0.454
		c-6.812-4.141-13.671-8.205-20.417-12.45c-7.617-4.794-15.565-8.726-24.438-10.633c-11.024-2.369-21.924-5.293-33.154-6.71
		c-4.72-0.596-9.372-1.734-14.168-1.767c-0.633-0.004-1.322-0.019-1.887-0.259c-1.997-0.852-4.085-0.628-6.154-0.666
		c-2.877-0.053-5.842,0.318-8.608-0.261c-2.871-0.602-5.69-0.678-8.554-0.69c-6.879-0.03-13.759-0.012-20.638-0.036
		c-1.276-0.004-2.656,0.177-3.807-0.234c-2.353-0.841-4.732-0.685-7.116-0.687c-26.396-0.021-52.793-0.021-79.19-0.034
		c-1.438-0.001-2.975,0.258-4.296-0.15c-3.302-1.021-6.647-0.742-9.987-0.778c-3.999-0.044-7.999-0.001-11.999-0.039
		c-1.272-0.012-2.63,0.093-3.797-0.303c-2.043-0.694-4.096-0.608-6.166-0.62c-4-0.024-8-0.009-11.999-0.029
		c-1.118-0.005-2.325,0.178-3.335-0.174c-2.812-0.978-5.683-0.749-8.547-0.758c-7.999-0.026-15.998-0.009-23.998-0.03
		c-1.436-0.004-2.98,0.201-4.285-0.244c-2.362-0.806-4.731-0.681-7.116-0.685c-13.439-0.024-26.877-0.018-40.316-0.036
		c-1.437-0.002-2.978,0.216-4.288-0.22c-2.519-0.837-5.051-0.692-7.596-0.694c-29.757-0.021-59.514-0.024-89.271-0.038
		c-1.439,0-2.978,0.276-4.298-0.133c-3.616-1.12-7.29-0.672-10.944-0.829c-1.588-0.068-3.174-0.218-4.756-0.376
		c-1.578-0.158-3.148-0.399-4.726-0.556c-1.112-0.109-2.284,0.054-3.338-0.236c-4.808-1.324-9.798-0.776-14.682-1.558
		c-4.359-0.696-8.926,0.241-13.308-1.038c-0.592-0.173-1.273-0.057-1.913-0.05c-5.448,0.058-10.765-0.974-16.047-2.106
		c-6.371-1.365-12.686-2.991-19.052-4.38C71.565,468.697,70.104,468.947,68.25,468.947z M658.761,667.467
		c5.599,0,11.199,0.055,16.798-0.016c4.93-0.061,9.831,0.117,14.778-0.783c3.655-0.666,6.709-1.852,9.241-4.467
		c2.327-2.402,4.516-4.93,6.725-7.438c4.896-5.559,8.481-11.945,12.474-18.072c4.871-7.477,9.402-15.178,14.312-22.627
		c2.531-3.84,5.425-7.471,8.426-10.961c1.637-1.904,3.916-3.242,5.773-4.977c3.765-3.516,8.105-6.256,12.558-8.686
		c10.52-5.74,21.383-10.771,32.896-14.268c4.421-1.342,8.867-2.619,13.225-4.145c8.284-2.898,16.737-5.15,25.343-6.809
		c5.609-1.082,11.206-2.32,16.966-2.369c0.792-0.006,1.657,0.02,2.362-0.273c1.849-0.771,3.759-0.637,5.672-0.68
		c0.955-0.023,1.917-0.076,2.861-0.217c3.605-0.537,7.193-1.209,10.81-1.652c3.783-0.461,7.624-0.514,11.38-1.113
		c5.18-0.826,10.339-1.705,15.597-1.834c0.478-0.012,1.004,0.016,1.42-0.17c2.133-0.957,4.386-0.695,6.614-0.783
		c1.265-0.049,2.523-0.281,3.785-0.422c1.576-0.178,3.15-0.406,4.731-0.51c5.556-0.361,11.167-0.33,16.653-1.15
		c3.181-0.475,6.313-0.725,9.496-0.793c0.637-0.014,1.341,0.055,1.897-0.188c2.144-0.926,4.387-0.727,6.618-0.766
		c0.957-0.018,2.006,0.141,2.853-0.191c2.482-0.971,5.037-0.709,7.582-0.766c0.958-0.021,2,0.145,2.856-0.174
		c2.64-0.984,5.354-0.738,8.059-0.785c1.118-0.021,2.333,0.197,3.335-0.162c3.123-1.119,6.323-0.699,9.5-0.795
		c1.278-0.037,2.655,0.232,3.816-0.152c3.289-1.094,6.642-0.713,9.979-0.811c1.277-0.037,2.662,0.203,3.809-0.209
		c2.662-0.955,5.364-0.711,8.066-0.74c3.04-0.035,6.08,0.012,9.119-0.02c1.114-0.012,2.318,0.104,3.321-0.27
		c2.028-0.758,4.084-0.67,6.155-0.676c3.999-0.012,7.999,0.012,11.998-0.012c1.276-0.008,2.661,0.18,3.805-0.242
		c2.35-0.867,4.728-0.699,7.111-0.701c30.557-0.012,61.113-0.004,91.67-0.021c1.749,0,3.502-0.146,5.247-0.301
		c1.894-0.168,3.778-0.607,5.669-0.615c11.998-0.059,23.997-0.029,35.996-0.031c1.119,0,2.241,0.037,3.358-0.02
		c2.435-0.121,2.734-0.41,3.499-3.02c0.223-0.76,0.477-1.514,0.744-2.261c2.313-6.439,5.222-12.664,6.964-19.312
		c0.968-3.695,1.976-7.371,1.904-11.249c-0.02-1.1,0.248-2.206,0.388-3.309c0.18-1.415,0.539-2.834,0.513-4.245
		c-0.073-3.971,0.547-7.991-0.817-11.89c-0.252-0.72-0.147-1.591-0.097-2.385c0.252-3.872-0.739-7.6-1.473-11.324
		c-0.982-4.985-2.19-9.942-3.618-14.82c-2.022-6.911-4.892-13.509-8.392-19.805c-1.163-2.092-2.71-4.245-5.169-4.674
		c-2.953-0.516-5.867-1.468-8.975-1.175c-2.379,0.224-4.812,0.227-7.191,0.009c-6.104-0.558-12.045,1.307-18.117,1.054
		c-0.463-0.019-0.931,0.211-1.402,0.277c-1.569,0.22-3.139,0.452-4.714,0.613c-1.11,0.114-2.334-0.148-3.327,0.229
		c-2.18,0.829-4.396,0.705-6.626,0.747c-0.958,0.019-2.004-0.142-2.854,0.184c-2.641,1.009-5.357,0.743-8.061,0.765
		c-3.68,0.027-7.359-0.009-11.039,0.018c-1.114,0.008-2.325-0.121-3.322,0.259c-2.185,0.831-4.407,0.682-6.634,0.683
		c-25.597,0.011-51.194-0.003-76.791,0.02c-3.337,0.003-6.696-0.321-9.978,0.802c-1.011,0.347-2.22,0.137-3.338,0.142
		c-3.359,0.012-6.72-0.008-10.079,0.013c-1.117,0.007-2.336-0.172-3.33,0.204c-2.494,0.943-5.041,0.721-7.585,0.74
		c-3.68,0.028-7.359-0.014-11.039,0.02c-1.273,0.011-2.639-0.111-3.797,0.296c-2.04,0.718-4.09,0.603-6.159,0.655
		c-3.496,0.089-7.024-0.371-10.454,0.835c-0.861,0.303-1.903,0.114-2.861,0.117c-3.2,0.011-6.399-0.01-9.599,0.014
		c-1.117,0.008-2.336-0.161-3.328,0.22c-2.338,0.896-4.722,0.711-7.107,0.724c-4.479,0.024-8.959-0.002-13.439,0.016
		c-1.117,0.004-2.335-0.174-3.33,0.201c-2.494,0.94-5.041,0.725-7.585,0.744c-3.359,0.026-6.719-0.015-10.079,0.019
		c-1.273,0.012-2.595-0.044-3.809,0.267c-3.954,1.011-7.832,0.802-11.825,0.086c-2.458-0.441-5.066-0.137-7.601-0.023
		c-1.736,0.078-3.458,0.427-5.191,0.61c-0.952,0.101-1.925,0.03-2.868,0.173c-3.604,0.545-7.192,1.204-10.801,1.712
		c-5.344,0.75-10.718,1.299-16.048,2.137c-5.014,0.789-10.017,1.711-14.972,2.81c-7.364,1.634-14.368,4.24-20.647,8.534
		c-2.391,1.635-4.695,3.492-5.893,6.154c-2.1,4.666-3.654,9.603-3.656,14.734c-0.003,7.393-1.055,14.604-3.03,21.664
		c-1.808,6.461-5.572,11.465-12.119,13.872c-6.581,2.421-13.18,4.794-19.791,7.136c-11.267,3.99-22.625,7.688-34.396,9.919
		c-5.455,1.034-10.856,2.491-16.482,2.386c-0.631-0.012-1.329-0.003-1.888,0.242c-1.991,0.875-4.077,0.686-6.146,0.691
		c-4.64,0.015-9.279,0.012-13.918-0.001c-1.118-0.003-2.333,0.197-3.334-0.166c-2.492-0.902-5.032-0.757-7.581-0.797
		c-0.797-0.013-1.62,0.011-2.386-0.172c-7.27-1.738-14.651-3.076-21.698-5.641c-4.042-1.471-7.982-3.216-11.987-4.788
		c-5.094-2-7.531-1.049-10.204,2.248c-1.102,1.359-2.055,2.848-3.238,4.129c-2.269,2.458-4.535,4.894-6.668,7.494
		c-4.857,5.92-9.233,12.172-13.643,18.404c-6.196,8.756-11.164,18.225-15.863,27.844c-2.671,5.467-4.817,11.148-6.432,16.984
		c-1.133,4.092-1.011,7.965,2.771,11.289c5.882,5.174,10.735,11.268,14.652,18.15c3.927,6.902,12.025,20.365,14.747,28.395
		c0.778,2.293,2.468,3.693,4.564,4.625c2.343,1.043,4.768,1.67,7.404,1.643C642.122,667.412,650.442,667.467,658.761,667.467z
		 M1799.525,395.51c0.723-21.368-0.705-38.542-3.455-55.636c-2.851-17.72-7.367-34.993-13.521-51.845
		c-0.438-1.2-0.861-2.414-1.421-3.559c-0.872-1.783-1.872-2.309-3.894-1.924c-1.561,0.297-3.092,0.785-4.607,1.277
		c-67.257,21.832-134.495,43.725-201.771,65.501c-60.138,19.467-120.316,38.809-180.478,58.202
		c-7.293,2.352-14.614,4.617-21.881,7.048c-4.282,1.433-5.318,2.908-5.443,7.359c-0.095,3.354-0.066,6.717,0.022,10.072
		c0.194,7.368,0.906,14.685,2.854,21.816c0.712,2.608,1.772,5.124,2.717,7.665c0.679,1.825,2.08,2.79,3.977,3.012
		c1.269,0.147,2.549,0.204,3.824,0.288c2.713,0.179,5.429,0.302,8.137,0.528c9.719,0.811,19.435,1.657,29.151,2.485
		c8.92,0.761,17.842,1.515,26.763,2.271c10.036,0.851,20.071,1.717,30.108,2.544c9.561,0.788,19.126,1.521,28.687,2.304
		c9.879,0.809,19.757,1.644,29.634,2.477c9.08,0.766,18.161,1.529,27.24,2.322c9.237,0.806,18.471,1.652,27.707,2.47
		c8.918,0.788,17.838,1.559,26.756,2.342c9.237,0.812,18.473,1.642,27.711,2.439c8.92,0.77,17.844,1.498,26.764,2.265
		c10.034,0.863,20.067,1.746,30.101,2.626c8.6,0.755,17.199,1.513,25.799,2.277c9.076,0.808,18.153,1.62,27.229,2.438
		c8.916,0.804,17.831,1.618,26.747,2.428c1.113,0.102,2.226,0.262,3.342,0.286c1.422,0.032,2.422-0.708,3.001-1.984
		c0.263-0.58,0.44-1.199,0.638-1.808c3.449-10.639,6.623-21.355,9.154-32.255C1796.599,439.629,1798.755,415.621,1799.525,395.51z
		 M1854.014,399.168c-0.38,6.065-0.825,14.364-1.437,22.651c-0.636,8.61-1.551,17.216-3.559,25.616
		c-4.565,19.108-9.26,38.188-14.127,57.221c-2.85,11.146-6.519,22.057-10.476,32.866c-0.476,1.3-0.837,2.844-0.613,4.167
		c1.127,6.643,6.734,11.561,13.497,12.389c5.86,0.719,11.72,1.529,17.525,2.59c7.916,1.445,15.836,2.164,23.847,1.139
		c6.18-0.791,12.343-1.705,18.52-2.521c9.672-1.277,19.279-2.896,28.603-5.836c6.132-1.934,12.284-3.543,18.792-3.098
		c0.159,0.01,0.32,0.002,0.48-0.008c5.857-0.43,9.797-3.963,10.888-9.697c0.474-2.491-0.262-4.715-1.215-6.958
		c-1.249-2.937-2.623-5.856-3.492-8.911c-3.024-10.633,0.856-18.524,9.326-23.204c0.839-0.463,1.756-0.805,2.544-1.339
		c2.643-1.791,5.435-3.425,7.82-5.518c5.035-4.416,6.779-9.917,4.503-16.427c-1.641-4.691-3.651-9.21-6.316-13.419
		c-2.993-4.727-5.948-9.479-9-14.168c-6.896-10.593-14.172-20.9-22.443-30.49c-5.742-6.655-11.396-13.392-16.918-20.23
		c-7.311-9.052-16.336-15.702-27.192-19.795c-7.617-2.873-15.349-5.44-22.998-8.232c-6.513-2.377-10.748-0.076-14.208,4.573
		c-1.823,2.448-2.408,5.127-2.37,8.099C1854.063,386.061,1854.014,391.496,1854.014,399.168z M1352.601,414.121
		c1.592-0.425,2.674-0.666,3.726-1.001c9.739-3.104,19.481-6.203,29.208-9.349c22.795-7.37,45.581-14.766,68.372-22.149
		c34.491-11.174,68.981-22.348,103.474-33.519c33.58-10.875,67.16-21.746,100.741-32.616c29.176-9.444,58.353-18.882,87.527-28.328
		c13.675-4.429,27.35-8.858,41.011-13.33c1.308-0.429,2.878-0.497,3.703-1.981c0.296-1.704-0.659-3.066-1.358-4.465
		c-3.23-6.462-7.191-12.444-11.81-18.007c-4.393-5.29-4.364-5.325-10.878-2.937c-22.044,8.085-44.107,16.116-66.128,24.264
		c-39.549,14.632-79.073,29.33-118.605,44.008c-40.43,15.011-80.854,30.04-121.287,45.043
		c-35.192,13.059-70.395,26.09-105.588,39.144c-1.644,0.61-3.309,1.217-4.837,2.057c-0.551,0.303-1.147,1.394-1.008,1.942
		C1349.802,406.575,1351.07,410.155,1352.601,414.121z M1287.121,476.443c0-4,0.011-8-0.007-11.999
		c-0.005-1.117,0.02-2.254-0.166-3.348c-0.531-3.128-1.12-6.248-1.766-9.354c-1.763-8.479-4.349-16.622-9.325-23.872
		c-2.205-3.213-4.992-5.854-7.899-8.304c-2.439-2.055-5.562-3.283-8.777-3.543c-4.435-0.357-8.945,0.284-13.312-1.032
		c-10.676-0.037-21.375-0.446-31.902,1.951c-5.444,1.241-10.843,2.571-15.722,5.492c-1.547,0.926-2.4,1.98-2.329,3.8
		c0.106,2.698-0.205,5.395,0.781,8.054c1.051,2.831,1.698,5.809,2.657,8.678c3.076,9.205,6.999,18.137,8.63,27.804
		c1.138,6.741,2.603,13.425,2.358,20.331c-0.124,3.516-0.012,7.038-0.024,10.559c-0.015,3.981-0.027,7.922-0.893,11.888
		c-1.259,5.774-2.864,11.397-4.924,16.938c-1.383,3.723-3.49,7.13-4.324,11.118c-0.549,2.627,0.53,4.709,1.337,6.838
		c0.436,1.148,1.942,2.18,3.198,2.662c1.75,0.672,3.703,0.953,5.594,1.098c4.755,0.363,9.45,1.51,14.273,1.064
		c0.923-0.086,1.929,0.104,2.817,0.4c2.67,0.893,5.522,0.945,8.065,0.35c4.143-0.975,8.255-0.635,12.385-0.791
		c1.277-0.047,2.662,0.184,3.807-0.236c2.35-0.863,4.741-0.867,7.106-0.68c5.544,0.439,10.729-1.119,15.972-2.479
		c4.261-1.104,6.088-3.822,5.729-7.563c-0.258-2.687-0.161-5.451,0.139-8.14c0.368-3.302,1.181-6.552,1.678-9.844
		c0.758-5.021,1.299-10.078,2.141-15.086c0.764-4.542,1.744-9.045,1.76-13.681c0.002-0.636-0.047-1.34,0.196-1.896
		c1.006-2.302,0.72-4.714,0.74-7.099C1287.143,483.163,1287.121,479.802,1287.121,476.443z M1357.341,478.952
		c0.848,0.197,1.441,0.391,2.051,0.469c3.329,0.427,6.663,0.822,9.994,1.233c9.357,1.155,18.713,2.323,28.071,3.465
		c8.884,1.084,17.773,2.118,26.655,3.217c9.197,1.138,18.388,2.333,27.583,3.491c9.514,1.198,19.027,2.392,28.544,3.569
		c8.882,1.099,17.768,2.158,26.649,3.263c8.404,1.044,16.806,2.119,25.208,3.188c9.034,1.149,18.066,2.319,27.103,3.457
		c6.184,0.779,12.374,1.503,18.559,2.278c9.037,1.134,18.066,2.319,27.106,3.434c9.041,1.113,18.095,2.126,27.134,3.253
		c11.418,1.425,22.822,2.951,34.239,4.38c11.418,1.428,22.849,2.75,34.265,4.191c16.329,2.063,32.634,4.316,48.978,6.252
		c12.063,1.429,24.129,2.773,36.103,4.852c1.697,0.295,3.477,0.771,5.569-0.438c3.687-7.174,7.471-14.728,10.259-22.741
		c0.08-0.231-0.176-0.579-0.389-1.208c-1.688-0.276-3.549-0.541-5.395-0.892c-13.521-2.572-27.201-3.899-40.88-5.201
		c-9.389-0.894-18.808-1.453-28.202-2.284c-12.418-1.099-24.82-2.366-37.237-3.473c-12.577-1.121-25.164-2.129-37.745-3.198
		c-4.142-0.352-8.281-0.725-12.419-1.113c-8.592-0.807-17.179-1.674-25.774-2.435c-9.075-0.804-18.162-1.474-27.238-2.276
		c-8.915-0.787-17.816-1.72-26.732-2.493c-9.396-0.815-18.802-1.506-28.202-2.275c-4.143-0.34-8.28-0.733-12.419-1.112
		c-5.569-0.51-11.137-1.05-16.708-1.539c-5.097-0.447-10.2-0.802-15.295-1.271c-8.593-0.792-17.177-1.684-25.771-2.459
		c-8.755-0.79-17.525-1.417-26.276-2.249c-11.454-1.089-22.896-2.312-34.343-3.472c-12.56-1.273-25.119-2.553-37.683-3.795
		c-1.387-0.137-2.875-0.565-4.327,0.795C1358.061,471.336,1356.981,475.004,1357.341,478.952z M1770.919,570.877
		c2.652,1.084,4.715,1.113,6.784,1.033c1.438-0.057,2.872-0.23,4.311-0.25c8.869-0.125,15.479-4.018,20.359-11.447
		c9.73-14.811,17.355-30.489,21.809-47.744c4.711-18.252,10.188-36.301,14.466-54.674c4.842-20.788,7.43-41.846,8.019-63.158
		c0.363-13.122-0.196-26.208-1.601-39.272c-1.233-11.476-3.306-22.772-6.423-33.873c-4.935-17.574-11.334-34.631-18.742-51.295
		c-5.817-13.084-13.5-25.036-22.98-35.798c-6.643-7.541-14.358-13.623-23.73-17.485c-7.049-2.905-14.042-2.482-21.021,0.149
		c-0.785,0.296-1.437,0.947-2.177,1.451c0.302,0.354,0.383,0.519,0.514,0.592c0.558,0.31,1.107,0.651,1.7,0.876
		c5.772,2.188,10.687,5.69,15.267,9.761c7.199,6.396,14.119,13.07,19.145,21.363c7.882,13.006,15.022,26.39,20.009,40.837
		c3.336,9.667,6.666,19.346,10.384,28.869c8.459,21.669,13.011,44.081,13.636,67.322c0.362,13.459-0.015,26.887-2.272,40.17
		c-1.953,11.496-4.213,22.944-6.592,34.361c-3.165,15.187-7.054,30.193-12.421,44.772c-8.372,22.742-19.93,43.585-36.778,61.248
		C1772.064,569.229,1771.665,569.885,1770.919,570.877z M1281.361,677.074c0-0.801,0.011-1.602-0.002-2.4
		c-0.049-3.037,0.303-6.154-0.283-9.086c-0.51-2.553-0.612-5.047-0.677-7.59c-0.04-1.598,0.253-3.307-0.218-4.768
		c-0.862-2.68-0.681-5.365-0.743-8.068c-0.026-1.119,0.187-2.332-0.173-3.336c-1.005-2.807-0.902-5.688-0.751-8.539
		c0.383-7.201-0.633-14.32-1.014-21.477c-0.054-1.014-0.344-1.951-1.279-2.418c-1.066-0.533-1.857,0.213-2.476,0.93
		c-1.348,1.566-2.446,3.377-3.931,4.791c-7.634,7.264-14.526,15.27-22.714,22.002c-3.816,3.139-7.55,6.359-11.65,9.115
		c-1.14,0.768-1.819,1.582-2.139,2.959c-0.616,2.658-1.32,5.213-0.138,7.943c0.415,0.955,0.177,2.209,0.18,3.326
		c0.013,4.961,0.013,9.92,0,14.881c-0.003,1.117,0.193,2.332-0.167,3.334c-1.065,2.967-0.754,6.002-0.776,9.021
		c-0.038,5.119,0.001,10.24-0.019,15.359c-0.005,1.277,0.188,2.662-0.23,3.807c-0.858,2.35-0.648,4.725-0.728,7.109
		c-0.063,1.912-0.126,3.826-0.3,5.73c-0.114,1.258-0.557,2.49-0.629,3.746c-0.318,5.561-1.478,11.068-1.025,16.676
		c0.038,0.467-0.006,0.988-0.178,1.418c-1.303,3.254-0.688,6.65-0.667,9.977c0.011,1.715,0.36,3.559,1.071,5.107
		c1.071,2.334,2.691,4.395,5.476,4.908c4.681,0.863,9.329,1.906,14.137,1.961c4.609,0.051,9.249-0.49,13.813,0.836
		c1.33,0.387,2.866,0.154,4.301,0.072c2.734-0.16,4.963-1.324,6.209-3.83c0.991-1.994,1.916-4.055,2.564-6.178
		c1.722-5.643,2.421-11.514,3.115-17.328c0.563-4.717,1.612-9.443,1.104-14.264c-0.049-0.467-0.037-1,0.139-1.422
		c1.09-2.611,0.771-5.35,0.789-8.053c0.026-4.16-0.068-8.322,0.032-12.48c0.072-3.01-0.505-6.066,0.631-9.033
		c0.251-0.654-0.109-1.543-0.193-2.322c-0.152-1.42-0.404-2.836-0.441-4.26C1281.312,682.514,1281.362,679.793,1281.361,677.074z
		 M1277.497,393.454c0.635,1.326,0.942,2.419,1.588,3.25c6.59,8.488,10.392,18.235,12.892,28.549
		c2.214,9.139,3.603,18.406,3.809,27.829c0.021,0.957-0.11,1.972,0.16,2.859c0.953,3.129,0.672,6.329,0.756,9.511
		c0.079,3.032-0.17,6.117,0.313,9.083c0.419,2.575,0.662,4.977-0.017,7.539c-0.398,1.507-0.146,3.178-0.279,4.767
		c-0.146,1.737-0.313,3.481-0.626,5.195c-0.634,3.46,0.043,4.496,3.47,4.53c6.07,0.06,12.142-0.005,18.213-0.029
		c0.638-0.003,1.32,0.053,1.903-0.148c2.64-0.915,5.367-0.661,8.071-0.705c2.716-0.043,5.438,0.087,8.146-0.064
		c5.513-0.309,9.81-2.753,12.246-7.82c1.024-2.13,1.728-4.45,2.309-6.752c1.609-6.375,1.062-12.975,1.801-19.454
		c0.54-4.734,0.109-9.575,0.202-14.367c0.129-6.739-1.09-13.307-2.467-19.846c-1.88-8.925-4.913-17.491-8.664-25.78
		c-2.963-6.551-7.306-11.954-14.04-15.078c-3.241-1.503-6.692-2.01-10.194-2.207c-4.327-0.244-8.589,0.573-12.764,1.477
		c-6.06,1.312-12.035,3.031-18.012,4.702C1283.44,391.295,1280.648,392.384,1277.497,393.454z M1349.856,496.391
		c1.016,0.37,1.872,0.834,2.782,0.993c9.598,1.683,19.204,3.314,28.808,4.964c12.278,2.108,24.559,4.21,36.835,6.335
		c11.647,2.018,23.286,4.081,34.935,6.089c12.12,2.09,24.253,4.109,36.371,6.212c15.58,2.704,31.146,5.485,46.727,8.187
		c13.851,2.401,27.717,4.707,41.566,7.109c15.58,2.703,31.144,5.498,46.725,8.195c15.739,2.723,31.496,5.35,47.236,8.068
		c14.008,2.42,28.001,4.926,42.006,7.365c12.59,2.191,25.177,4.396,37.784,6.477c2.823,0.465,5.727,0.521,8.598,0.602
		c2.482,0.07,4.799-0.74,6.6-2.439c2.902-2.736,5.663-5.623,8.437-8.49c0.421-0.436,0.782-1.109,0.81-1.689
		c0.026-0.525-0.342-1.166-0.725-1.582c-0.281-0.305-0.855-0.398-1.317-0.473c-8.042-1.295-16.075-2.65-24.135-3.834
		c-7.902-1.16-15.834-2.115-23.746-3.213c-10.442-1.447-20.874-2.98-31.318-4.416c-10.604-1.457-21.223-2.806-31.827-4.263
		c-7.912-1.088-15.805-2.321-23.719-3.402c-10.605-1.447-21.227-2.771-31.832-4.221c-10.445-1.427-20.873-2.985-31.318-4.41
		c-10.605-1.446-21.229-2.754-31.833-4.205c-10.446-1.431-20.871-3.001-31.315-4.443c-10.444-1.441-20.906-2.76-31.351-4.206
		c-12.658-1.753-25.3-3.626-37.96-5.366c-12.818-1.763-25.669-3.308-38.474-5.165c-15.965-2.315-31.896-4.862-47.847-7.28
		c-1.258-0.19-2.552-0.248-3.824-0.214C1351.823,493.718,1350.568,494.515,1349.856,496.391z M1342.791,392.088
		c0.941-0.44,1.536-0.657,2.069-0.977c4.129-2.48,8.525-4.359,13.064-5.944c2.864-1,5.703-2.081,8.521-3.207
		c27.148-10.842,54.288-21.706,81.435-32.554c56.219-22.466,112.441-44.924,168.662-67.386
		c31.895-12.742,63.799-25.46,95.676-38.246c13.046-5.232,26.034-10.609,39.036-15.951c0.813-0.333,1.519-0.926,2.644-1.629
		c-0.974-0.684-1.559-1.182-2.22-1.54c-1.543-0.838-3.177-1.519-4.674-2.428c-2.372-1.441-4.864-1.487-7.401-0.794
		c-1.534,0.419-3.006,1.077-4.485,1.679c-23.085,9.386-46.137,18.854-69.256,28.153c-43.275,17.406-86.582,34.734-129.89,52.058
		c-39.155,15.662-78.333,31.268-117.495,46.912c-26.85,10.726-53.691,21.472-80.53,32.225c-0.975,0.391-2.235,0.448-2.66,2.031
		C1337.312,387.215,1340.183,389.259,1342.791,392.088z M932.999,558.744c-0.822-0.174-1.263-0.371-1.687-0.34
		c-7.335,0.563-14.671,1.121-22.001,1.75c-4.779,0.408-9.551,0.914-14.323,1.4c-7.635,0.779-15.271,1.551-22.901,2.381
		c-5.404,0.59-10.821,1.123-16.188,1.961c-4.095,0.639-8.153,1.594-12.169,2.635c-3.166,0.818-3.834,1.791-3.22,4.768
		c0.644,3.115,1.525,6.205,2.585,9.207c1.165,3.299,3.649,5.146,7.2,5.465c1.911,0.172,3.822,0.355,5.725,0.598
		c2.517,0.32,3.41,1.543,2.919,3.881c-0.88,4.193-4.386,7.348-8.641,7.795c-10.023,1.053-21.649-5.982-23.179-17.096
		c-0.393-2.85-1.01-5.643-0.819-8.555c0.085-1.299-0.979-2.301-2.101-2.014c-2.55,0.652-5.279,0.957-7.522,3.031
		c0.817,1.699,1.587,3.26,2.321,4.838c1.819,3.91,3.788,7.762,5.395,11.758c2.889,7.18,8.217,11.352,15.641,12.682
		c5.496,0.984,11.082,1.629,16.656,1.98c10.877,0.689,21.75,0.205,32.575-1.043c3.804-0.438,7.628-0.959,11.345-1.852
		c5.516-1.322,9.875-4.467,12.705-9.475c5.737-10.156,11.438-20.334,17.121-30.52C931.351,562.34,932.094,560.605,932.999,558.744z
		 M1756.525,245.325c-1.498-0.777-1.988-1.131-2.534-1.299c-3.967-1.215-7.899-2.581-11.93-3.537
		c-6.007-1.425-6.035-1.294-12.003,1.091c-47.898,19.14-95.797,38.28-143.697,57.414c-72.668,29.026-145.338,58.047-218.006,87.073
		c-1.036,0.414-2.135,0.745-3.062,1.338c-0.747,0.479-1.486,1.231-0.758,2.301c0.344,0.075,0.696,0.277,0.942,0.188
		C1495.687,342.411,1625.525,293.925,1756.525,245.325z M1218.22,558.369c0.126,1.053,0.121,1.828,0.325,2.543
		c0.435,1.521,1.057,2.99,1.462,4.518c1.548,5.832,3.161,11.65,4.518,17.529c1.177,5.098,2.124,10.254,3.015,15.412
		c0.837,4.846,1.226,9.777,2.26,14.574c0.908,4.219,0.829,8.51,1.549,12.742c0.743,4.365,0.767,8.852,1.139,13.281
		c0.108,1.285,1.44,1.939,2.457,1.178c1.398-1.051,2.646-2.307,4.07-3.316c5.597-3.971,10.654-8.592,15.6-13.299
		c4.146-3.943,7.868-8.334,11.727-12.574c2.57-2.824,5.09-5.695,7.549-8.615c1.15-1.367,1.812-2.998,1.727-4.855
		c-0.028-0.637-0.078-1.289,0.01-1.914c0.503-3.559-0.755-6.941-1.02-10.424c-0.266-3.475-0.805-6.93-1.256-10.389
		c-0.511-3.928-1.238-7.838-1.521-11.779c-0.186-2.578-0.786-4.969-1.595-7.467c-0.705-0.127-1.334-0.387-1.921-0.314
		c-1.569,0.193-3.11,0.643-4.681,0.789c-4.427,0.416-8.861,0.734-13.294,1.084c-0.795,0.063-1.663-0.098-2.375,0.172
		c-2.788,1.049-5.672,0.75-8.53,0.768c-5.751,0.035-11.503-0.006-17.254,0.027C1220.945,558.047,1219.713,558.24,1218.22,558.369z
		 M1373.001,486.25c-0.808,1.835,0.086,3.01,0.988,4.125c1.154,1.424,2.669,2.154,4.526,2.394
		c12.045,1.554,24.083,3.168,36.122,4.763c8.713,1.154,17.425,2.312,26.138,3.465c10.772,1.426,21.547,2.836,32.317,4.275
		c10.295,1.376,20.589,2.765,30.878,4.181c10.448,1.437,20.89,2.919,31.335,4.372c10.763,1.496,21.525,2.983,32.289,4.47
		c10.13,1.398,20.261,2.801,30.394,4.182c10.45,1.425,20.904,2.82,31.354,4.24c10.925,1.484,21.847,2.989,32.771,4.476
		c10.292,1.399,20.586,2.785,30.879,4.18c10.926,1.48,21.853,2.954,32.776,4.448c10.604,1.452,21.208,2.915,31.809,4.401
		c2.681,0.375,4.234-0.244,5.539-2.637c0.907-1.664,1.601-3.442,2.35-5.083c-0.346-0.408-0.526-0.831-0.756-0.86
		c-129.828-16.48-259.66-32.936-389.493-49.377C1374.458,486.167,1373.676,486.25,1373.001,486.25z M946.734,557.5
		c-1.798-0.707-3.715-0.664-5.516-0.115c-1.157,0.352-2.439,1.078-3.126,2.027c-1.67,2.311-3.496,4.506-4.747,7.148
		c-1.908,4.029-4.129,7.916-6.319,11.807c-2.11,3.748-4.356,7.418-6.531,11.129c-1.611,2.748-3.221,5.496-4.804,8.262
		c-3.256,5.686-8.614,8.605-14.61,9.932c-5.542,1.225-11.169,2.613-16.977,2.199c-0.783-0.057-1.659-0.045-2.362,0.248
		c-2.003,0.836-4.08,0.74-6.146,0.674c-8.753-0.283-17.557,0.82-26.257-0.939c-4.534,0.289-8.914-0.85-13.128-2.117
		c-7.036-2.115-12.233-6.732-15.255-13.539c-0.967-2.18-1.626-4.492-2.526-6.703c-1.082-2.654-2.302-5.254-3.402-7.904
		c-0.601-1.447-1.716-2.248-3.081-2.83c-2.106-0.9-4.681,0.729-4.758,3.072c-0.021,0.621,0.103,1.279,0.306,1.869
		c2.75,7.988,5.294,16.057,8.377,23.914c2.052,5.23,5.98,9.104,11.478,10.793c3.314,1.02,6.8,1.721,10.254,1.996
		c4.747,0.381,9.572-0.291,14.26,1.031c6.034-0.344,12.132,0.846,18.117-0.818c0.897-0.25,1.907-0.096,2.865-0.127
		c3.97-0.125,7.984,0.445,11.879-0.881c0.721-0.246,1.587-0.068,2.387-0.078c4.135-0.047,8.226-0.238,12.365-0.785
		c5.289-0.697,10.017-2.713,14.041-5.67c4.708-3.463,8.849-7.811,11.504-13.277c2.862-5.895,5.919-11.693,8.749-17.602
		c3.252-6.789,7.077-13.199,11.764-19.098C946.305,560.146,947.101,559.092,946.734,557.5z M1818.226,346.905
		c0.252-0.166,0.503-0.332,0.755-0.497c-0.074-0.608-0.056-1.245-0.236-1.82c-6.595-21.014-13.818-41.794-22.715-61.969
		c-2.931-6.646-3.758-4.812-8.761-3.735c-0.305,0.065-0.588,0.245-0.874,0.386c-1.365,0.669-1.859,1.64-1.493,3.098
		c0.233,0.927,0.544,1.837,0.862,2.739c4.718,13.395,9.22,26.855,12.37,40.726c0.522,2.302,1.711,4.038,3.691,5.354
		c5.644,3.746,10.459,8.366,14.413,13.885C1816.752,345.788,1817.556,346.297,1818.226,346.905z M1807.721,489.472
		c5.459-10.706,16.394-65.294,15.43-76.271C1811.417,429.89,1802.987,460.237,1807.721,489.472z M1289.16,444.851
		c0.235-0.089,0.471-0.179,0.707-0.268c0-0.789,0.111-1.597-0.02-2.363c-0.558-3.283-1.08-6.578-1.813-9.823
		c-1.329-5.875-2.229-11.838-4.542-17.496c-2.432-5.946-5.755-11.35-9.134-16.747c-1.165-1.861-2.912-2.94-5.059-3.277
		c-2.958-0.465-4.938,1.155-5.161,4.157c-0.25,3.36,0.233,6.65,0.847,9.95c0.531,2.859,1.731,5.14,4.502,6.29
		c2.138,0.887,3.771,2.395,5.245,4.072c4.766,5.424,8.409,11.572,11.375,18.129C1287.203,439.898,1288.146,442.39,1289.16,444.851z
		 M852.483,594.092c-0.445-0.227-0.705-0.449-0.993-0.494c-7.003-1.074-11.278-5.314-13.844-11.689
		c-1.002-2.49-0.674-5.027-0.788-7.561c-0.158-3.543-1.588-4.482-4.96-3.195c-0.563,0.215-1.021,0.707-1.374,0.961
		c-1.135,4.268-0.113,8.236,0.927,11.994c1.301,4.701,3.786,8.861,9.118,10.203c1.388,0.348,2.768,0.904,4.172,0.979
		C847.329,595.424,850.099,596.221,852.483,594.092z M1745.542,235.836c4.003,2.002,7.662,3.593,11.077,5.6
		c4.542,2.669,8.431,1.452,12.67-1.366c-3.032-4.205-6.137-7.914-10.343-10.919C1754.476,231.132,1750.25,233.289,1745.542,235.836z
		 M1787.232,538.407c-1.01-0.266-1.466-0.485-1.924-0.49c-2.871-0.027-5.71-0.129-8.532-0.874c-1.34-0.354-2.869-0.217-4.277-0.035
		c-1.969,0.254-3.612,1.308-4.808,2.88c-0.927,1.218-2.209,2.41-1.347,4.394c5.261,0.775,10.464,2.334,15.821,2.311
		C1784.144,543.971,1786.203,541.777,1787.232,538.407z M1819.87,352.593c-2.702-2.473-4.734-4.223-6.638-6.103
		c-2.039-2.014-3.914-4.19-5.943-6.214c-1.234-1.232-2.577-2.371-3.964-3.432c-0.677-0.518-1.564-0.759-3.162-1.497
		c1.549,5.418,1.126,10.42,2.954,15.156C1808.553,351.182,1813.745,351.83,1819.87,352.593z M1354.283,489.379
		c1.336,0.312,2.224,0.602,3.134,0.717c3.764,0.476,7.532,0.918,11.304,1.33c1.041,0.113,1.87-0.861,1.625-1.783
		c-0.781-2.932-2.232-4.182-5.198-4.627c-2.342-0.353-4.666-0.823-7.006-1.195c-0.728-0.115-1.479-0.081-2.413-0.125
		C1355.259,485.544,1354.844,487.174,1354.283,489.379z M1860.523,365.625c-0.286-0.293-0.46-0.604-0.719-0.712
		c-0.871-0.363-1.761-0.693-2.663-0.968c-4.164-1.265-4.405-1.08-3.787,3.061c0.196,1.314-0.159,2.756,0.815,4.464
		C1856.329,369.201,1859.219,368.335,1860.523,365.625z M1344.714,395.666c0.824,0.457,1.57,1.203,1.989,1.051
		c4.459-1.618,8.866-3.378,13.283-5.111c0.12-0.047,0.238-0.23,0.263-0.368c0.054-0.293,0.146-0.644,0.034-0.883
		c-0.108-0.233-0.482-0.535-0.687-0.499c-0.772,0.133-1.543,0.339-2.279,0.61c-3.714,1.371-7.422,2.762-11.12,4.176
		C1345.783,394.799,1345.442,395.154,1344.714,395.666z M1820.58,545.373c-0.819,1.297-1.5,2.145-1.9,3.109
		c-0.186,0.447-0.025,1.371,0.322,1.646c1.247,0.99,2.657,1.52,4.326,0.32C1822.944,548.688,1822.185,547.238,1820.58,545.373z"/>
	<path style="fill-rule:evenodd;clip-rule:evenodd;fill:#1B2A50;" d="M68.25,468.947c1.853,0,3.314-0.25,4.657,0.043
		c6.367,1.389,12.681,3.015,19.052,4.38c5.283,1.133,10.599,2.164,16.047,2.106c0.64-0.007,1.321-0.123,1.913,0.05
		c4.382,1.279,8.949,0.342,13.308,1.038c4.884,0.781,9.874,0.233,14.682,1.558c1.054,0.29,2.226,0.127,3.338,0.236
		c1.578,0.156,3.148,0.397,4.726,0.556c1.582,0.158,3.168,0.308,4.756,0.376c3.654,0.157,7.328-0.291,10.944,0.829
		c1.32,0.409,2.859,0.133,4.298,0.133c29.757,0.014,59.514,0.018,89.271,0.038c2.544,0.002,5.077-0.143,7.596,0.694
		c1.31,0.436,2.851,0.218,4.288,0.22c13.439,0.019,26.877,0.012,40.316,0.036c2.385,0.004,4.754-0.121,7.116,0.685
		c1.305,0.445,2.849,0.24,4.285,0.244c8,0.021,15.999,0.004,23.998,0.03c2.864,0.009,5.735-0.22,8.547,0.758
		c1.01,0.352,2.218,0.169,3.335,0.174c4,0.021,8,0.005,11.999,0.029c2.07,0.012,4.123-0.074,6.166,0.62
		c1.167,0.396,2.524,0.291,3.797,0.303c4,0.038,8-0.005,11.999,0.039c3.34,0.036,6.685-0.243,9.987,0.778
		c1.321,0.408,2.857,0.149,4.296,0.15c26.396,0.013,52.793,0.013,79.19,0.034c2.384,0.002,4.764-0.154,7.116,0.687
		c1.151,0.411,2.531,0.23,3.807,0.234c6.879,0.024,13.759,0.006,20.638,0.036c2.864,0.013,5.683,0.089,8.554,0.69
		c2.766,0.579,5.73,0.208,8.608,0.261c2.069,0.038,4.157-0.186,6.154,0.666c0.565,0.24,1.254,0.255,1.887,0.259
		c4.796,0.032,9.448,1.171,14.168,1.767c11.23,1.417,22.13,4.341,33.154,6.71c8.873,1.907,16.821,5.839,24.438,10.633
		c6.746,4.245,13.605,8.31,20.417,12.45c0.272,0.166,0.579,0.278,0.843,0.454c1.458,0.969,1.735,2.342,0.714,3.659
		c-0.39,0.504-0.84,0.968-1.304,1.405c-4.197,3.949-7.797,8.397-11.234,13.014c-3.515,4.723-7.27,9.266-10.899,13.903
		c-4.138,5.287-7.578,11.033-10.958,16.814c-1.449,2.479-2.881,4.969-4.227,7.504c-4.356,8.207-7.553,16.887-10.409,25.703
		c-0.147,0.455-0.258,0.926-0.354,1.395c-0.657,3.213-2.165,5.127-5.904,4.707c-1.483-0.166-3.206,0.395-4.599,1.076
		c-5.064,2.479-10.551,3.658-15.885,5.244c-6.859,2.039-13.864,3.594-20.81,5.342c-10.027,2.523-20.09,4.908-30.078,7.576
		c-13.38,3.572-26.732,7.258-40.042,11.088c-9.187,2.645-18.293,5.572-27.412,8.449c-14.141,4.459-28.273,8.945-42.386,13.49
		c-14.27,4.596-28.523,9.244-42.761,13.939c-5.603,1.848-11.154,3.854-16.707,5.848c-7.509,2.697-15.292,4.428-22.958,6.572
		c-9.199,2.576-18.398,5.148-27.596,7.729c-13.341,3.744-26.451,8.26-39.882,11.715c-11.868,3.051-23.726,6.176-35.48,9.633
		c-7.643,2.248-15.092,5.156-22.633,7.754c-4.073,1.402-8.107,2.951-12.246,4.123c-10.74,3.045-21.299,6.58-31.729,10.572
		c-9.669,3.701-19.423,7.191-29.626,9.273c-7.939,1.619-15.782,3.727-23.737,5.254c-8.261,1.586-16.611,2.699-24.911,4.092
		c-4.695,0.787-9.364,1.73-14.049,2.578c-0.781,0.143-1.584,0.203-2.378,0.227c-2.231,0.064-4.409,0.18-6.633,0.725
		c-2.123,0.52-4.45,0.201-6.687,0.258c-2.544,0.064-5.042,0.139-7.596,0.664c-3.088,0.635-6.35,0.617-9.512-0.154
		c-0.925-0.225-1.871-0.361-2.81-0.525c-2.217-0.391-4.259-1.115-6.164-2.41c-4.326-2.941-5.565-6.037-4.018-11.057
		c0.514-1.67,1.181-3.313,1.961-4.877c5.349-10.725,9.754-21.844,13.847-33.09c3.272-8.992,6.463-18.012,9.644-27.035
		c2.705-7.672,5.339-15.367,8.015-23.049c2.256-6.479,4.737-12.885,6.748-19.436c3.831-12.488,7.872-24.906,11.368-37.504
		c3.834-13.814,6.809-27.791,9.445-41.859c0.876-4.68,1.809-9.35,2.609-14.041c0.24-1.404,0.126-2.871,0.161-4.309
		c0.065-2.704-0.13-5.399,0.74-8.072c0.428-1.314,0.21-2.854,0.211-4.291c0.008-9.759,0.027-19.518-0.039-29.276
		c-0.012-1.731-0.46-3.456-0.607-5.192c-0.161-1.905-0.338-3.825-0.276-5.73c0.197-6.088-0.313-12.088-1.795-18.006
		C67.933,470.77,68.153,470.108,68.25,468.947z"/>
	<path style="fill-rule:evenodd;clip-rule:evenodd;fill:#112132;" d="M658.761,667.467c-8.319,0-16.639-0.055-24.957,0.033
		c-2.636,0.027-5.061-0.6-7.404-1.643c-2.097-0.932-3.786-2.332-4.564-4.625c-2.722-8.029-10.82-21.492-14.747-28.395
		c-3.917-6.883-8.77-12.977-14.652-18.15c-3.782-3.324-3.903-7.197-2.771-11.289c1.615-5.836,3.761-11.518,6.432-16.984
		c4.699-9.619,9.667-19.088,15.863-27.844c4.41-6.232,8.786-12.484,13.643-18.404c2.133-2.6,4.399-5.036,6.668-7.494
		c1.183-1.281,2.136-2.77,3.238-4.129c2.673-3.297,5.11-4.248,10.204-2.248c4.005,1.572,7.946,3.317,11.987,4.788
		c7.047,2.564,14.428,3.902,21.698,5.641c0.766,0.183,1.589,0.159,2.386,0.172c2.549,0.04,5.089-0.105,7.581,0.797
		c1,0.363,2.216,0.163,3.334,0.166c4.64,0.013,9.279,0.016,13.918,0.001c2.069-0.006,4.155,0.184,6.146-0.691
		c0.559-0.245,1.257-0.254,1.888-0.242c5.626,0.105,11.028-1.352,16.482-2.386c11.771-2.23,23.129-5.929,34.396-9.919
		c6.61-2.342,13.209-4.715,19.791-7.136c6.547-2.407,10.311-7.411,12.119-13.872c1.975-7.061,3.027-14.271,3.03-21.664
		c0.001-5.132,1.556-10.068,3.656-14.734c1.198-2.662,3.502-4.52,5.893-6.154c6.279-4.294,13.283-6.9,20.647-8.534
		c4.955-1.099,9.958-2.021,14.972-2.81c5.33-0.838,10.704-1.387,16.048-2.137c3.609-0.508,7.197-1.167,10.801-1.712
		c0.943-0.143,1.916-0.072,2.868-0.173c1.733-0.184,3.455-0.532,5.191-0.61c2.535-0.113,5.143-0.418,7.601,0.023
		c3.993,0.716,7.871,0.925,11.825-0.086c1.214-0.311,2.536-0.255,3.809-0.267c3.359-0.033,6.719,0.008,10.079-0.019
		c2.545-0.02,5.091,0.196,7.585-0.744c0.995-0.375,2.213-0.197,3.33-0.201c4.48-0.018,8.959,0.009,13.439-0.016
		c2.385-0.013,4.77,0.173,7.107-0.724c0.992-0.381,2.211-0.212,3.328-0.22c3.2-0.023,6.399-0.003,9.599-0.014
		c0.958-0.003,2,0.186,2.861-0.117c3.43-1.206,6.958-0.746,10.454-0.835c2.069-0.053,4.119,0.063,6.159-0.655
		c1.158-0.407,2.523-0.285,3.797-0.296c3.68-0.033,7.359,0.009,11.039-0.02c2.544-0.02,5.091,0.203,7.585-0.74
		c0.994-0.376,2.213-0.197,3.33-0.204c3.359-0.021,6.72-0.001,10.079-0.013c1.118-0.005,2.327,0.205,3.338-0.142
		c3.281-1.123,6.641-0.799,9.978-0.802c25.597-0.022,51.194-0.009,76.791-0.02c2.227-0.001,4.449,0.148,6.634-0.683
		c0.997-0.38,2.208-0.251,3.322-0.259c3.68-0.026,7.359,0.01,11.039-0.018c2.703-0.021,5.42,0.244,8.061-0.765
		c0.851-0.325,1.896-0.165,2.854-0.184c2.23-0.042,4.446,0.082,6.626-0.747c0.993-0.378,2.217-0.115,3.327-0.229
		c1.575-0.161,3.145-0.394,4.714-0.613c0.472-0.066,0.939-0.296,1.402-0.277c6.072,0.253,12.014-1.611,18.117-1.054
		c2.38,0.218,4.813,0.215,7.191-0.009c3.107-0.293,6.021,0.659,8.975,1.175c2.459,0.429,4.006,2.582,5.169,4.674
		c3.5,6.296,6.369,12.894,8.392,19.805c1.428,4.878,2.636,9.835,3.618,14.82c0.733,3.725,1.725,7.452,1.473,11.324
		c-0.051,0.794-0.155,1.665,0.097,2.385c1.364,3.898,0.744,7.919,0.817,11.89c0.026,1.411-0.333,2.83-0.513,4.245
		c-0.14,1.103-0.407,2.209-0.388,3.309c0.071,3.878-0.937,7.554-1.904,11.249c-1.742,6.647-4.65,12.872-6.964,19.312
		c-0.268,0.747-0.521,1.501-0.744,2.261c-0.765,2.609-1.064,2.898-3.499,3.02c-1.117,0.057-2.239,0.02-3.358,0.02
		c-11.999,0.002-23.998-0.027-35.996,0.031c-1.891,0.008-3.775,0.447-5.669,0.615c-1.745,0.154-3.498,0.301-5.247,0.301
		c-30.557,0.018-61.113,0.01-91.67,0.021c-2.384,0.002-4.762-0.166-7.111,0.701c-1.144,0.422-2.528,0.234-3.805,0.242
		c-3.999,0.023-7.999,0-11.998,0.012c-2.071,0.006-4.127-0.082-6.155,0.676c-1.003,0.373-2.207,0.258-3.321,0.27
		c-3.039,0.031-6.079-0.016-9.119,0.02c-2.702,0.029-5.404-0.215-8.066,0.74c-1.146,0.412-2.531,0.172-3.809,0.209
		c-3.337,0.098-6.689-0.283-9.979,0.811c-1.161,0.385-2.538,0.115-3.816,0.152c-3.177,0.096-6.377-0.324-9.5,0.795
		c-1.003,0.359-2.217,0.141-3.335,0.162c-2.705,0.047-5.418-0.199-8.059,0.785c-0.855,0.318-1.898,0.152-2.856,0.174
		c-2.545,0.057-5.1-0.205-7.582,0.766c-0.847,0.332-1.896,0.174-2.853,0.191c-2.23,0.039-4.474-0.16-6.618,0.766
		c-0.556,0.242-1.26,0.174-1.897,0.188c-3.183,0.068-6.315,0.318-9.496,0.793c-5.485,0.82-11.097,0.789-16.653,1.15
		c-1.582,0.104-3.155,0.332-4.731,0.51c-1.262,0.141-2.52,0.373-3.785,0.422c-2.228,0.088-4.48-0.174-6.614,0.783
		c-0.416,0.186-0.943,0.158-1.42,0.17c-5.257,0.129-10.417,1.008-15.597,1.834c-3.756,0.6-7.597,0.652-11.38,1.113
		c-3.616,0.443-7.204,1.115-10.81,1.652c-0.943,0.141-1.906,0.193-2.861,0.217c-1.913,0.043-3.824-0.092-5.672,0.68
		c-0.705,0.293-1.569,0.268-2.362,0.273c-5.76,0.049-11.357,1.287-16.966,2.369c-8.606,1.658-17.059,3.91-25.343,6.809
		c-4.358,1.525-8.804,2.803-13.225,4.145c-11.513,3.496-22.376,8.527-32.896,14.268c-4.453,2.43-8.792,5.17-12.558,8.686
		c-1.857,1.734-4.136,3.072-5.773,4.977c-3.001,3.49-5.896,7.121-8.426,10.961c-4.91,7.449-9.44,15.15-14.312,22.627
		c-3.992,6.127-7.578,12.514-12.474,18.072c-2.209,2.508-4.398,5.035-6.725,7.438c-2.531,2.615-5.585,3.801-9.241,4.467
		c-4.947,0.9-9.848,0.723-14.778,0.783C669.96,667.521,664.36,667.467,658.761,667.467z"/>
	<path style="fill-rule:evenodd;clip-rule:evenodd;fill:#EEEDF7;" d="M1799.525,395.51c-0.771,20.11-2.927,44.119-8.41,67.733
		c-2.531,10.899-5.705,21.616-9.154,32.255c-0.197,0.608-0.375,1.228-0.638,1.808c-0.579,1.276-1.579,2.017-3.001,1.984
		c-1.116-0.024-2.229-0.185-3.342-0.286c-8.916-0.81-17.831-1.624-26.747-2.428c-9.075-0.818-18.152-1.631-27.229-2.438
		c-8.6-0.765-17.199-1.522-25.799-2.277c-10.033-0.88-20.066-1.763-30.101-2.626c-8.92-0.767-17.844-1.495-26.764-2.265
		c-9.238-0.798-18.474-1.628-27.711-2.439c-8.918-0.783-17.838-1.554-26.756-2.342c-9.236-0.817-18.47-1.664-27.707-2.47
		c-9.079-0.793-18.16-1.557-27.24-2.322c-9.877-0.833-19.755-1.668-29.634-2.477c-9.561-0.782-19.126-1.516-28.687-2.304
		c-10.037-0.827-20.072-1.693-30.108-2.544c-8.921-0.756-17.843-1.51-26.763-2.271c-9.717-0.828-19.433-1.675-29.151-2.485
		c-2.708-0.227-5.424-0.35-8.137-0.528c-1.275-0.084-2.556-0.141-3.824-0.288c-1.896-0.222-3.298-1.187-3.977-3.012
		c-0.944-2.541-2.005-5.057-2.717-7.665c-1.948-7.132-2.66-14.448-2.854-21.816c-0.089-3.355-0.117-6.718-0.022-10.072
		c0.125-4.451,1.161-5.927,5.443-7.359c7.267-2.431,14.588-4.696,21.881-7.048c60.161-19.394,120.34-38.735,180.478-58.202
		c67.276-21.776,134.515-43.669,201.771-65.501c1.516-0.492,3.047-0.98,4.607-1.277c2.021-0.385,3.021,0.141,3.894,1.924
		c0.56,1.145,0.982,2.358,1.421,3.559c6.154,16.852,10.671,34.125,13.521,51.845C1798.82,356.968,1800.248,374.142,1799.525,395.51z
		"/>
	<path style="fill-rule:evenodd;clip-rule:evenodd;fill:#9597C1;" d="M1854.014,399.168c0-7.673,0.049-13.107-0.02-18.541
		c-0.038-2.972,0.547-5.65,2.37-8.099c3.46-4.649,7.695-6.95,14.208-4.573c7.649,2.792,15.381,5.359,22.998,8.232
		c10.856,4.093,19.882,10.743,27.192,19.795c5.522,6.839,11.176,13.575,16.918,20.23c8.271,9.59,15.548,19.897,22.443,30.49
		c3.052,4.689,6.007,9.441,9,14.168c2.665,4.209,4.676,8.728,6.316,13.419c2.276,6.51,0.532,12.011-4.503,16.427
		c-2.386,2.093-5.178,3.727-7.82,5.518c-0.788,0.534-1.705,0.876-2.544,1.339c-8.47,4.68-12.351,12.571-9.326,23.204
		c0.869,3.055,2.243,5.975,3.492,8.911c0.953,2.243,1.688,4.467,1.215,6.958c-1.091,5.734-5.03,9.267-10.888,9.697
		c-0.16,0.01-0.321,0.018-0.48,0.008c-6.508-0.445-12.66,1.164-18.792,3.098c-9.323,2.939-18.931,4.559-28.603,5.836
		c-6.177,0.816-12.34,1.73-18.52,2.521c-8.011,1.025-15.931,0.307-23.847-1.139c-5.806-1.061-11.665-1.871-17.525-2.59
		c-6.763-0.828-12.37-5.746-13.497-12.389c-0.224-1.322,0.138-2.867,0.613-4.167c3.957-10.81,7.626-21.72,10.476-32.866
		c4.867-19.033,9.562-38.112,14.127-57.221c2.008-8.4,2.923-17.006,3.559-25.616
		C1853.188,413.533,1853.634,405.234,1854.014,399.168z M1892.015,450.788c0.384-3.718-1.134-6.987-3.683-9.828
		c-2.615-2.914-5.813-4.933-9.6-6.054c-4.002-1.185-7.871-0.998-11.681,0.706c-9.55,4.271-13.6,13.385-10.362,23.346
		c2.393,7.358,8.458,11.95,16.683,12.05c7.479,0.091,13.188-3.144,16.431-10.255
		C1891.202,457.686,1892.045,454.427,1892.015,450.788z"/>
	<path style="fill-rule:evenodd;clip-rule:evenodd;fill:#8D9EB1;" d="M1352.601,414.121c-1.53-3.966-2.799-7.546-3.737-11.225
		c-0.14-0.549,0.457-1.64,1.008-1.942c1.528-0.84,3.193-1.446,4.837-2.057c35.193-13.054,70.396-26.085,105.588-39.144
		c40.434-15.003,80.857-30.032,121.287-45.043c39.532-14.678,79.057-29.376,118.605-44.008
		c22.021-8.147,44.084-16.179,66.128-24.264c6.514-2.389,6.485-2.354,10.878,2.937c4.618,5.563,8.579,11.545,11.81,18.007
		c0.699,1.398,1.654,2.761,1.358,4.465c-0.825,1.484-2.396,1.553-3.703,1.981c-13.661,4.472-27.336,8.901-41.011,13.33
		c-29.175,9.446-58.352,18.884-87.527,28.328c-33.581,10.87-67.161,21.741-100.741,32.616
		c-34.492,11.171-68.982,22.345-103.474,33.519c-22.791,7.384-45.577,14.779-68.372,22.149c-9.727,3.146-19.469,6.244-29.208,9.349
		C1355.274,413.455,1354.192,413.696,1352.601,414.121z"/>
	<path style="fill-rule:evenodd;clip-rule:evenodd;fill:#112132;" d="M1287.121,476.443c0,3.359,0.021,6.72-0.007,10.079
		c-0.021,2.385,0.266,4.797-0.74,7.099c-0.243,0.557-0.194,1.261-0.196,1.896c-0.016,4.636-0.996,9.139-1.76,13.681
		c-0.842,5.008-1.383,10.064-2.141,15.086c-0.497,3.292-1.31,6.542-1.678,9.844c-0.3,2.689-0.396,5.453-0.139,8.14
		c0.359,3.74-1.468,6.459-5.729,7.563c-5.242,1.359-10.428,2.918-15.972,2.479c-2.365-0.188-4.757-0.184-7.106,0.68
		c-1.145,0.42-2.529,0.189-3.807,0.236c-4.13,0.156-8.242-0.184-12.385,0.791c-2.543,0.596-5.396,0.543-8.065-0.35
		c-0.889-0.297-1.895-0.486-2.817-0.4c-4.823,0.445-9.519-0.701-14.273-1.064c-1.891-0.145-3.844-0.426-5.594-1.098
		c-1.256-0.482-2.763-1.514-3.198-2.662c-0.807-2.129-1.886-4.211-1.337-6.838c0.834-3.988,2.941-7.395,4.324-11.118
		c2.06-5.541,3.665-11.164,4.924-16.938c0.865-3.966,0.878-7.906,0.893-11.888c0.013-3.521-0.1-7.043,0.024-10.559
		c0.244-6.906-1.221-13.59-2.358-20.331c-1.631-9.667-5.554-18.599-8.63-27.804c-0.959-2.869-1.606-5.847-2.657-8.678
		c-0.986-2.659-0.675-5.355-0.781-8.054c-0.071-1.819,0.782-2.874,2.329-3.8c4.879-2.921,10.277-4.251,15.722-5.492
		c10.527-2.397,21.227-1.988,31.902-1.951c4.366,1.316,8.877,0.675,13.312,1.032c3.216,0.26,6.338,1.488,8.777,3.543
		c2.907,2.449,5.694,5.091,7.899,8.304c4.977,7.25,7.563,15.393,9.325,23.872c0.646,3.105,1.234,6.226,1.766,9.354
		c0.186,1.094,0.161,2.23,0.166,3.348C1287.132,468.443,1287.121,472.443,1287.121,476.443z"/>
	<path style="fill-rule:evenodd;clip-rule:evenodd;fill:#8D9EB0;" d="M1357.341,478.952c-0.359-3.947,0.72-7.615,1.033-11.14
		c1.452-1.36,2.94-0.932,4.327-0.795c12.563,1.242,25.123,2.521,37.683,3.795c11.447,1.16,22.889,2.383,34.343,3.472
		c8.751,0.832,17.521,1.459,26.276,2.249c8.595,0.775,17.179,1.667,25.771,2.459c5.095,0.47,10.198,0.824,15.295,1.271
		c5.571,0.489,11.139,1.029,16.708,1.539c4.139,0.379,8.276,0.772,12.419,1.112c9.4,0.77,18.807,1.46,28.202,2.275
		c8.916,0.773,17.817,1.706,26.732,2.493c9.076,0.803,18.163,1.473,27.238,2.276c8.596,0.761,17.183,1.628,25.774,2.435
		c4.138,0.389,8.277,0.762,12.419,1.113c12.581,1.069,25.168,2.077,37.745,3.198c12.417,1.106,24.819,2.374,37.237,3.473
		c9.395,0.831,18.813,1.391,28.202,2.284c13.679,1.302,27.359,2.629,40.88,5.201c1.846,0.351,3.707,0.615,5.395,0.892
		c0.213,0.629,0.469,0.977,0.389,1.208c-2.788,8.014-6.572,15.567-10.259,22.741c-2.093,1.21-3.872,0.733-5.569,0.438
		c-11.974-2.078-24.04-3.423-36.103-4.852c-16.344-1.936-32.648-4.188-48.978-6.252c-11.416-1.441-22.847-2.764-34.265-4.191
		c-11.417-1.429-22.821-2.955-34.239-4.38c-9.039-1.127-18.093-2.14-27.134-3.253c-9.04-1.114-18.069-2.3-27.106-3.434
		c-6.185-0.775-12.375-1.499-18.559-2.278c-9.036-1.138-18.068-2.308-27.103-3.457c-8.402-1.068-16.804-2.144-25.208-3.188
		c-8.882-1.104-17.768-2.164-26.649-3.263c-9.517-1.178-19.03-2.371-28.544-3.569c-9.195-1.158-18.386-2.354-27.583-3.491
		c-8.882-1.099-17.771-2.133-26.655-3.217c-9.358-1.142-18.714-2.31-28.071-3.465c-3.331-0.411-6.665-0.807-9.994-1.233
		C1358.782,479.342,1358.188,479.149,1357.341,478.952z"/>
	<path style="fill-rule:evenodd;clip-rule:evenodd;fill:#DE9297;" d="M1770.919,570.877c0.746-0.992,1.146-1.648,1.663-2.191
		c16.849-17.662,28.406-38.505,36.778-61.248c5.367-14.579,9.256-29.586,12.421-44.772c2.379-11.417,4.639-22.865,6.592-34.361
		c2.258-13.283,2.635-26.711,2.272-40.17c-0.625-23.241-5.177-45.653-13.636-67.322c-3.718-9.523-7.048-19.202-10.384-28.869
		c-4.986-14.447-12.127-27.831-20.009-40.837c-5.025-8.293-11.945-14.967-19.145-21.363c-4.58-4.07-9.494-7.572-15.267-9.761
		c-0.593-0.225-1.143-0.566-1.7-0.876c-0.131-0.073-0.212-0.237-0.514-0.592c0.74-0.504,1.392-1.155,2.177-1.451
		c6.979-2.632,13.972-3.055,21.021-0.149c9.372,3.862,17.088,9.944,23.73,17.485c9.48,10.762,17.163,22.714,22.98,35.798
		c7.408,16.664,13.808,33.721,18.742,51.295c3.117,11.101,5.189,22.397,6.423,33.873c1.404,13.064,1.964,26.15,1.601,39.272
		c-0.589,21.313-3.177,42.37-8.019,63.158c-4.278,18.373-9.755,36.422-14.466,54.674c-4.453,17.255-12.078,32.933-21.809,47.744
		c-4.88,7.43-11.49,11.322-20.359,11.447c-1.438,0.02-2.872,0.193-4.311,0.25C1775.634,571.99,1773.571,571.961,1770.919,570.877z"
		/>
	<path style="fill-rule:evenodd;clip-rule:evenodd;fill:#112132;" d="M1281.361,677.074c0.001,2.719-0.05,5.439,0.021,8.158
		c0.037,1.424,0.289,2.84,0.441,4.26c0.084,0.779,0.444,1.668,0.193,2.322c-1.136,2.967-0.559,6.023-0.631,9.033
		c-0.101,4.158-0.006,8.32-0.032,12.48c-0.019,2.703,0.301,5.441-0.789,8.053c-0.176,0.422-0.188,0.955-0.139,1.422
		c0.508,4.82-0.541,9.547-1.104,14.264c-0.694,5.814-1.394,11.686-3.115,17.328c-0.648,2.123-1.573,4.184-2.564,6.178
		c-1.246,2.506-3.475,3.67-6.209,3.83c-1.435,0.082-2.971,0.314-4.301-0.072c-4.564-1.326-9.204-0.785-13.813-0.836
		c-4.808-0.055-9.456-1.098-14.137-1.961c-2.784-0.514-4.404-2.574-5.476-4.908c-0.711-1.549-1.061-3.393-1.071-5.107
		c-0.021-3.326-0.636-6.723,0.667-9.977c0.172-0.43,0.216-0.951,0.178-1.418c-0.452-5.607,0.707-11.115,1.025-16.676
		c0.072-1.256,0.515-2.488,0.629-3.746c0.174-1.904,0.236-3.818,0.3-5.73c0.079-2.385-0.131-4.76,0.728-7.109
		c0.419-1.145,0.226-2.529,0.23-3.807c0.02-5.119-0.02-10.24,0.019-15.359c0.022-3.02-0.289-6.055,0.776-9.021
		c0.36-1.002,0.164-2.217,0.167-3.334c0.013-4.961,0.013-9.92,0-14.881c-0.003-1.117,0.235-2.371-0.18-3.326
		c-1.183-2.73-0.479-5.285,0.138-7.943c0.319-1.377,0.999-2.191,2.139-2.959c4.101-2.756,7.834-5.977,11.65-9.115
		c8.188-6.732,15.08-14.738,22.714-22.002c1.484-1.414,2.583-3.225,3.931-4.791c0.618-0.717,1.409-1.463,2.476-0.93
		c0.936,0.467,1.226,1.404,1.279,2.418c0.381,7.156,1.396,14.275,1.014,21.477c-0.151,2.852-0.254,5.732,0.751,8.539
		c0.359,1.004,0.146,2.217,0.173,3.336c0.063,2.703-0.119,5.389,0.743,8.068c0.471,1.461,0.178,3.17,0.218,4.768
		c0.064,2.543,0.167,5.037,0.677,7.59c0.586,2.932,0.234,6.049,0.283,9.086C1281.372,675.473,1281.361,676.273,1281.361,677.074z"/>
	<path style="fill-rule:evenodd;clip-rule:evenodd;fill:#324574;" d="M1277.497,393.454c3.151-1.069,5.943-2.158,8.815-2.961
		c5.977-1.671,11.952-3.391,18.012-4.702c4.175-0.903,8.437-1.721,12.764-1.477c3.502,0.197,6.953,0.704,10.194,2.207
		c6.734,3.124,11.077,8.527,14.04,15.078c3.751,8.289,6.784,16.855,8.664,25.78c1.377,6.539,2.596,13.106,2.467,19.846
		c-0.093,4.792,0.338,9.633-0.202,14.367c-0.739,6.479-0.191,13.079-1.801,19.454c-0.581,2.302-1.284,4.622-2.309,6.752
		c-2.437,5.067-6.733,7.512-12.246,7.82c-2.708,0.151-5.431,0.021-8.146,0.064c-2.704,0.044-5.432-0.21-8.071,0.705
		c-0.583,0.201-1.266,0.146-1.903,0.148c-6.071,0.024-12.143,0.089-18.213,0.029c-3.427-0.034-4.104-1.07-3.47-4.53
		c0.313-1.714,0.479-3.458,0.626-5.195c0.134-1.589-0.119-3.26,0.279-4.767c0.679-2.563,0.436-4.964,0.017-7.539
		c-0.482-2.966-0.233-6.051-0.313-9.083c-0.084-3.182,0.197-6.382-0.756-9.511c-0.271-0.888-0.14-1.902-0.16-2.859
		c-0.206-9.423-1.595-18.69-3.809-27.829c-2.5-10.313-6.302-20.061-12.892-28.549
		C1278.439,395.873,1278.132,394.78,1277.497,393.454z"/>
	<path style="fill-rule:evenodd;clip-rule:evenodd;fill:#899AAC;" d="M1349.856,496.391c0.712-1.876,1.967-2.673,3.677-2.718
		c1.272-0.034,2.566,0.023,3.824,0.214c15.95,2.418,31.882,4.965,47.847,7.28c12.805,1.857,25.655,3.402,38.474,5.165
		c12.66,1.74,25.302,3.613,37.96,5.366c10.444,1.446,20.906,2.765,31.351,4.206c10.444,1.442,20.869,3.013,31.315,4.443
		c10.604,1.451,21.228,2.759,31.833,4.205c10.445,1.425,20.873,2.983,31.318,4.41c10.605,1.449,21.227,2.773,31.832,4.221
		c7.914,1.081,15.807,2.314,23.719,3.402c10.604,1.457,21.223,2.807,31.827,4.263c10.444,1.436,20.876,2.969,31.318,4.416
		c7.912,1.098,15.844,2.053,23.746,3.213c8.06,1.184,16.093,2.539,24.135,3.834c0.462,0.074,1.036,0.168,1.317,0.473
		c0.383,0.416,0.751,1.057,0.725,1.582c-0.027,0.58-0.389,1.254-0.81,1.689c-2.773,2.867-5.534,5.754-8.437,8.49
		c-1.801,1.699-4.117,2.51-6.6,2.439c-2.871-0.08-5.774-0.137-8.598-0.602c-12.607-2.08-25.194-4.285-37.784-6.477
		c-14.005-2.439-27.998-4.945-42.006-7.365c-15.74-2.719-31.497-5.346-47.236-8.068c-15.581-2.697-31.145-5.492-46.725-8.195
		c-13.85-2.402-27.716-4.708-41.566-7.109c-15.58-2.701-31.146-5.482-46.727-8.187c-12.118-2.103-24.251-4.122-36.371-6.212
		c-11.648-2.008-23.287-4.071-34.935-6.089c-12.276-2.125-24.557-4.227-36.835-6.335c-9.604-1.649-19.21-3.281-28.808-4.964
		C1351.729,497.225,1350.872,496.761,1349.856,496.391z"/>
	<path style="fill-rule:evenodd;clip-rule:evenodd;fill:#8899AC;" d="M1342.791,392.088c-2.608-2.829-5.479-4.873-7.504-7.598
		c0.425-1.583,1.686-1.641,2.66-2.031c26.839-10.753,53.681-21.499,80.53-32.225c39.162-15.645,78.34-31.25,117.495-46.912
		c43.308-17.323,86.614-34.651,129.89-52.058c23.119-9.299,46.171-18.768,69.256-28.153c1.479-0.602,2.951-1.26,4.485-1.679
		c2.537-0.693,5.029-0.647,7.401,0.794c1.497,0.909,3.131,1.59,4.674,2.428c0.661,0.358,1.246,0.856,2.22,1.54
		c-1.125,0.703-1.831,1.296-2.644,1.629c-13.002,5.342-25.99,10.719-39.036,15.951c-31.877,12.786-63.781,25.504-95.676,38.246
		c-56.221,22.462-112.443,44.92-168.662,67.386c-27.146,10.848-54.286,21.712-81.435,32.554c-2.818,1.126-5.657,2.207-8.521,3.207
		c-4.539,1.585-8.936,3.464-13.064,5.944C1344.327,391.431,1343.732,391.648,1342.791,392.088z"/>
	<path style="fill-rule:evenodd;clip-rule:evenodd;fill:none;" d="M932.999,558.744c-0.905,1.861-1.647,3.596-2.562,5.236
		c-5.683,10.186-11.384,20.363-17.121,30.52c-2.83,5.008-7.189,8.152-12.705,9.475c-3.717,0.893-7.541,1.414-11.345,1.852
		c-10.825,1.248-21.698,1.732-32.575,1.043c-5.574-0.352-11.16-0.996-16.656-1.98c-7.424-1.33-12.752-5.502-15.641-12.682
		c-1.607-3.996-3.576-7.848-5.395-11.758c-0.734-1.578-1.504-3.139-2.321-4.838c2.243-2.074,4.972-2.379,7.522-3.031
		c1.122-0.287,2.186,0.715,2.101,2.014c-0.191,2.912,0.426,5.705,0.819,8.555c1.53,11.113,13.156,18.148,23.179,17.096
		c4.254-0.447,7.761-3.602,8.641-7.795c0.491-2.338-0.402-3.561-2.919-3.881c-1.903-0.242-3.814-0.426-5.725-0.598
		c-3.551-0.318-6.036-2.166-7.2-5.465c-1.06-3.002-1.941-6.092-2.585-9.207c-0.615-2.977,0.054-3.949,3.22-4.768
		c4.016-1.041,8.074-1.996,12.169-2.635c5.368-0.838,10.785-1.371,16.188-1.961c7.63-0.83,15.266-1.602,22.901-2.381
		c4.772-0.486,9.543-0.992,14.323-1.4c7.33-0.629,14.666-1.188,22.001-1.75C931.735,558.373,932.177,558.57,932.999,558.744z"/>
	<path style="fill-rule:evenodd;clip-rule:evenodd;fill:#DBDDE7;" d="M1756.525,245.325c-131,48.601-260.839,97.086-391.047,144.569
		c-0.246,0.089-0.599-0.113-0.942-0.188c-0.729-1.069,0.011-1.822,0.758-2.301c0.927-0.593,2.025-0.924,3.062-1.338
		c72.668-29.026,145.338-58.047,218.006-87.073c47.9-19.134,95.799-38.274,143.697-57.414c5.968-2.385,5.996-2.516,12.003-1.091
		c4.03,0.956,7.963,2.322,11.93,3.537C1754.537,244.194,1755.027,244.547,1756.525,245.325z"/>
	<path style="fill-rule:evenodd;clip-rule:evenodd;fill:#1B2A50;" d="M1218.22,558.369c1.493-0.129,2.726-0.322,3.959-0.33
		c5.751-0.033,11.503,0.008,17.254-0.027c2.858-0.018,5.742,0.281,8.53-0.768c0.712-0.27,1.58-0.109,2.375-0.172
		c4.433-0.35,8.867-0.668,13.294-1.084c1.57-0.146,3.111-0.596,4.681-0.789c0.587-0.072,1.216,0.188,1.921,0.314
		c0.809,2.498,1.409,4.889,1.595,7.467c0.283,3.941,1.011,7.852,1.521,11.779c0.451,3.459,0.99,6.914,1.256,10.389
		c0.265,3.482,1.522,6.865,1.02,10.424c-0.088,0.625-0.038,1.277-0.01,1.914c0.085,1.857-0.576,3.488-1.727,4.855
		c-2.459,2.92-4.979,5.791-7.549,8.615c-3.858,4.24-7.581,8.631-11.727,12.574c-4.945,4.707-10.003,9.328-15.6,13.299
		c-1.424,1.01-2.672,2.266-4.07,3.316c-1.017,0.762-2.349,0.107-2.457-1.178c-0.372-4.43-0.396-8.916-1.139-13.281
		c-0.72-4.232-0.641-8.523-1.549-12.742c-1.034-4.797-1.423-9.729-2.26-14.574c-0.891-5.158-1.838-10.314-3.015-15.412
		c-1.356-5.879-2.97-11.697-4.518-17.529c-0.405-1.527-1.027-2.996-1.462-4.518C1218.341,560.197,1218.346,559.422,1218.22,558.369z
		"/>
	<path style="fill-rule:evenodd;clip-rule:evenodd;fill:#DBDDE7;" d="M1373.001,486.25c0.675,0,1.457-0.084,2.217,0.013
		c129.833,16.441,259.665,32.896,389.493,49.377c0.229,0.029,0.41,0.452,0.756,0.86c-0.749,1.642-1.442,3.42-2.35,5.083
		c-1.305,2.393-2.858,3.012-5.539,2.637c-10.601-1.486-21.204-2.949-31.809-4.401c-10.924-1.494-21.851-2.968-32.776-4.448
		c-10.293-1.395-20.587-2.78-30.879-4.18c-10.925-1.486-21.847-2.991-32.771-4.476c-10.45-1.42-20.904-2.815-31.354-4.24
		c-10.133-1.381-20.264-2.783-30.394-4.182c-10.764-1.486-21.526-2.974-32.289-4.47c-10.445-1.453-20.887-2.936-31.335-4.372
		c-10.289-1.416-20.583-2.805-30.878-4.181c-10.771-1.439-21.545-2.85-32.317-4.275c-8.713-1.153-17.425-2.311-26.138-3.465
		c-12.039-1.595-24.077-3.209-36.122-4.763c-1.857-0.239-3.372-0.97-4.526-2.394C1373.087,489.26,1372.193,488.085,1373.001,486.25z
		"/>
	<path style="fill-rule:evenodd;clip-rule:evenodd;fill:#45499C;" d="M1791.007,488.865c1.458-5.712,3.102-11.385,4.33-17.146
		c1.958-9.189,3.521-18.464,5.485-27.653c1.169-5.47,1.642-11.022,2.509-16.525c0.148-0.942,0.185-1.911,0.187-2.867
		c0.012-6.088,1.039-12.066,1.975-18.048c0.268-1.704,0.976-3.338,1.551-5.229c-0.835-1.057-1.674-2.247-1.635-3.98
		c0.126-5.432,0.023-10.869,0.05-16.305c0.032-6.715-0.824-13.351-1.637-19.996c-0.248-2.021-0.623-4.088,0.178-6.37
		c0.966-0.108,1.898-0.388,2.786-0.283c3.794,0.447,7.575,1,11.358,1.528c2.318,0.323,3.527,1.405,3.877,3.988
		c0.857,6.321,1.465,12.647,2.026,19.002c0.621,7.028,0.354,14.04,0.722,21.048c0.141,2.69-0.604,4.957-2.183,7.139
		c-6.703,9.271-11.566,19.466-14.871,30.404c-1.986,6.573-3.296,13.272-4.205,20.094c-1.424,10.678-0.755,21.365-0.742,32.055
		c-1.26-0.005-2.526,0.072-3.777-0.033C1796.324,489.462,1793.668,489.144,1791.007,488.865z M1815.654,384.017
		c1.149-3.752-2.775-2.886-3.374-5.154c-0.307-0.929,1.505-1.652,1.124-3.199c-0.831,0.343-1.412,0.563-1.979,0.818
		c-2.545,1.146-2.611,3.688-0.301,5.235C1812.426,382.587,1813.929,383.156,1815.654,384.017z M1811.805,386.687
		c-1.86,0.454-3.128,1.203-3.25,2.843c-0.144,1.932,0.448,3.644,2.471,4.779C1811.293,391.697,1811.53,389.37,1811.805,386.687z"/>
	<path style="fill-rule:evenodd;clip-rule:evenodd;fill:#112132;" d="M946.734,557.5c0.367,1.592-0.43,2.646-1.202,3.617
		c-4.687,5.898-8.512,12.309-11.764,19.098c-2.83,5.908-5.887,11.707-8.749,17.602c-2.655,5.467-6.796,9.814-11.504,13.277
		c-4.023,2.957-8.751,4.973-14.041,5.67c-4.139,0.547-8.23,0.738-12.365,0.785c-0.799,0.01-1.666-0.168-2.387,0.078
		c-3.896,1.326-7.91,0.756-11.879,0.881c-0.958,0.031-1.967-0.123-2.865,0.127c-5.985,1.664-12.083,0.475-18.117,0.818
		c-4.688-1.322-9.513-0.65-14.26-1.031c-3.454-0.275-6.939-0.977-10.254-1.996c-5.497-1.689-9.425-5.563-11.478-10.793
		c-3.083-7.857-5.627-15.926-8.377-23.914c-0.203-0.59-0.327-1.248-0.306-1.869c0.077-2.344,2.651-3.973,4.758-3.072
		c1.364,0.582,2.479,1.383,3.081,2.83c1.1,2.65,2.32,5.25,3.402,7.904c0.9,2.211,1.56,4.523,2.526,6.703
		c3.022,6.807,8.219,11.424,15.255,13.539c4.215,1.268,8.595,2.406,13.128,2.117c8.7,1.76,17.503,0.656,26.257,0.939
		c2.066,0.066,4.143,0.162,6.146-0.674c0.703-0.293,1.579-0.305,2.362-0.248c5.807,0.414,11.434-0.975,16.977-2.199
		c5.996-1.326,11.354-4.246,14.61-9.932c1.583-2.766,3.193-5.514,4.804-8.262c2.175-3.711,4.421-7.381,6.531-11.129
		c2.19-3.891,4.411-7.777,6.319-11.807c1.251-2.643,3.077-4.838,4.747-7.148c0.687-0.949,1.969-1.676,3.126-2.027
		C943.019,556.836,944.937,556.793,946.734,557.5z"/>
	<path style="fill-rule:evenodd;clip-rule:evenodd;fill:none;" d="M1818.226,346.905c-0.67-0.607-1.474-1.117-1.987-1.835
		c-3.954-5.519-8.77-10.139-14.413-13.885c-1.98-1.315-3.169-3.052-3.691-5.354c-3.15-13.87-7.652-27.331-12.37-40.726
		c-0.318-0.902-0.629-1.813-0.862-2.739c-0.366-1.458,0.128-2.429,1.493-3.098c0.286-0.141,0.569-0.32,0.874-0.386
		c5.003-1.076,5.83-2.911,8.761,3.735c8.896,20.175,16.12,40.955,22.715,61.969c0.181,0.575,0.162,1.212,0.236,1.82
		C1818.729,346.573,1818.478,346.739,1818.226,346.905z"/>
	<path style="fill-rule:evenodd;clip-rule:evenodd;fill:#8F91BB;" d="M1807.721,489.472c-4.733-29.235,3.696-59.582,15.43-76.271
		C1824.114,424.178,1813.18,478.766,1807.721,489.472z"/>
	<path style="fill-rule:evenodd;clip-rule:evenodd;fill:#314373;" d="M1289.16,444.851c-1.014-2.461-1.957-4.953-3.053-7.376
		c-2.966-6.557-6.609-12.705-11.375-18.129c-1.475-1.678-3.107-3.186-5.245-4.072c-2.771-1.15-3.971-3.431-4.502-6.29
		c-0.613-3.3-1.097-6.59-0.847-9.95c0.223-3.002,2.203-4.622,5.161-4.157c2.146,0.337,3.894,1.416,5.059,3.277
		c3.379,5.397,6.702,10.801,9.134,16.747c2.313,5.658,3.213,11.621,4.542,17.496c0.733,3.245,1.256,6.54,1.813,9.823
		c0.131,0.767,0.02,1.574,0.02,2.363C1289.631,444.672,1289.396,444.762,1289.16,444.851z"/>
	<path style="fill-rule:evenodd;clip-rule:evenodd;fill:#1B2A50;" d="M852.483,594.092c-2.385,2.129-5.155,1.332-7.742,1.197
		c-1.404-0.074-2.784-0.631-4.172-0.979c-5.332-1.342-7.817-5.502-9.118-10.203c-1.04-3.758-2.062-7.727-0.927-11.994
		c0.354-0.254,0.811-0.746,1.374-0.961c3.372-1.287,4.802-0.348,4.96,3.195c0.114,2.533-0.214,5.07,0.788,7.561
		c2.566,6.375,6.841,10.615,13.844,11.689C851.778,593.643,852.038,593.865,852.483,594.092z"/>
	<path style="fill-rule:evenodd;clip-rule:evenodd;fill:#8F91BB;" d="M1791.007,488.865c2.661,0.279,5.317,0.598,7.983,0.82
		c1.251,0.105,2.518,0.028,3.777,0.033c0.001-0.001-0.019,0.054-0.02,0.054c0.254,0.358,0.508,0.715,0.761,1.072
		c0.379,2.02,0.878,4.026,1.095,6.063c0.164,1.535,0.709,3.126-0.188,4.985c-0.721,0.087-1.629,0.375-2.487,0.268
		c-4.091-0.511-8.17-1.109-12.248-1.716c-2.156-0.32-2.758-1.165-2.014-3.274C1788.658,494.359,1788.91,491.234,1791.007,488.865z"
		/>
	<path style="fill-rule:evenodd;clip-rule:evenodd;fill:none;" d="M1745.542,235.836c4.708-2.548,8.934-4.704,13.404-6.686
		c4.206,3.005,7.311,6.714,10.343,10.919c-4.239,2.818-8.128,4.035-12.67,1.366C1753.204,239.429,1749.545,237.838,1745.542,235.836
		z"/>
	<path style="fill-rule:evenodd;clip-rule:evenodd;fill:#8F91BB;" d="M1787.232,538.407c-1.029,3.371-3.089,5.564-5.066,8.185
		c-5.357,0.023-10.561-1.535-15.821-2.311c-0.862-1.984,0.42-3.176,1.347-4.394c1.195-1.572,2.839-2.626,4.808-2.88
		c1.408-0.182,2.938-0.318,4.277,0.035c2.822,0.745,5.661,0.847,8.532,0.874C1785.767,537.921,1786.223,538.141,1787.232,538.407z"
		/>
	<path style="fill-rule:evenodd;clip-rule:evenodd;fill:#D6D8E3;" d="M1819.87,352.593c-6.125-0.764-11.317-1.411-16.753-2.089
		c-1.828-4.736-1.405-9.738-2.954-15.156c1.598,0.738,2.485,0.979,3.162,1.497c1.387,1.061,2.729,2.199,3.964,3.432
		c2.029,2.023,3.904,4.2,5.943,6.214C1815.136,348.371,1817.168,350.121,1819.87,352.593z"/>
	<path style="fill-rule:evenodd;clip-rule:evenodd;fill:#D6D8E3;" d="M1806.306,567.391c2.446-3.338,4.915-6.66,7.331-10.02
		c1.136-1.58,2.471-2.289,4.491-1.84c2.945,0.656,5.937,1.104,9.008,1.656c-3.303,3.244-14.589,9.598-20.672,11.689
		C1806.412,568.381,1806.358,567.885,1806.306,567.391z"/>
	<path style="fill-rule:evenodd;clip-rule:evenodd;fill:#EEEDF7;" d="M1354.283,489.379c0.561-2.205,0.976-3.835,1.445-5.684
		c0.935,0.044,1.686,0.01,2.413,0.125c2.34,0.372,4.664,0.843,7.006,1.195c2.966,0.445,4.417,1.695,5.198,4.627
		c0.245,0.922-0.584,1.896-1.625,1.783c-3.771-0.412-7.54-0.854-11.304-1.33C1356.507,489.981,1355.619,489.691,1354.283,489.379z"
		/>
	<path style="fill-rule:evenodd;clip-rule:evenodd;fill:#E7E8EB;" d="M1358.273,442.819c-0.58-3.94-1.261-7.87-1.71-11.826
		c-0.445-3.92-2.417-7.558-2.269-11.915c2.089-0.256,3.833-1.491,6.285-1.053c-0.118,1.332-0.187,2.555-0.34,3.767
		c-0.885,6.977-1.084,13.983-0.991,21.006C1358.924,442.804,1358.599,442.812,1358.273,442.819z"/>
	<path style="fill-rule:evenodd;clip-rule:evenodd;fill:#D6D8E3;" d="M1358.273,442.819c0.325-0.007,0.65-0.015,0.976-0.021
		c0.293,1.542,0.545,3.093,0.888,4.623c0.901,4.027,1.827,8.049,2.778,12.064c0.285,1.205,0.687,2.383,1.027,3.548
		c-1.454,1.144-2.896,0.977-4.212,0.519c-0.626-0.218-1.112-1.03-1.496-1.673c-0.219-0.365-0.135-0.932-0.131-1.407
		C1358.154,454.587,1358.215,448.703,1358.273,442.819z"/>
	<path style="fill-rule:evenodd;clip-rule:evenodd;fill:#45499C;" d="M1860.523,365.625c-1.305,2.71-4.194,3.575-6.354,5.845
		c-0.975-1.708-0.619-3.149-0.815-4.464c-0.618-4.141-0.377-4.325,3.787-3.061c0.902,0.274,1.792,0.604,2.663,0.968
		C1860.063,365.022,1860.237,365.333,1860.523,365.625z"/>
	<path style="fill-rule:evenodd;clip-rule:evenodd;fill:#CFD2DD;" d="M1344.714,395.666c0.729-0.512,1.069-0.866,1.483-1.024
		c3.698-1.414,7.406-2.805,11.12-4.176c0.736-0.271,1.507-0.478,2.279-0.61c0.204-0.036,0.578,0.266,0.687,0.499
		c0.111,0.239,0.02,0.59-0.034,0.883c-0.024,0.138-0.143,0.321-0.263,0.368c-4.417,1.733-8.824,3.493-13.283,5.111
		C1346.284,396.869,1345.538,396.123,1344.714,395.666z"/>
	<path style="fill-rule:evenodd;clip-rule:evenodd;fill:#8899AC;" d="M1820.58,545.373c1.604,1.865,2.364,3.314,2.748,5.076
		c-1.669,1.199-3.079,0.67-4.326-0.32c-0.348-0.275-0.508-1.199-0.322-1.646C1819.08,547.518,1819.761,546.67,1820.58,545.373z"/>
	<path style="fill-rule:evenodd;clip-rule:evenodd;fill:#8D9EB1;" d="M1806.306,567.389c0.053,0.496,0.106,0.992,0.158,1.488
		c-0.369,0.162-0.739,0.322-1.108,0.484c-0.014-0.363-0.158-0.799-0.009-1.074C1805.546,567.922,1805.975,567.684,1806.306,567.389z
		"/>
	<path style="fill-rule:evenodd;clip-rule:evenodd;fill:#45499C;" d="M1803.509,490.844c-0.253-0.357-0.507-0.714-0.761-1.072
		C1803.002,490.129,1803.256,490.487,1803.509,490.844z"/>
	<path style="fill-rule:evenodd;clip-rule:evenodd;fill:#26223B;" d="M1892.015,450.788c0.03,3.64-0.813,6.898-2.212,9.965
		c-3.243,7.111-8.952,10.346-16.431,10.255c-8.225-0.1-14.29-4.691-16.683-12.05c-3.237-9.961,0.813-19.075,10.362-23.346
		c3.81-1.704,7.679-1.891,11.681-0.706c3.787,1.121,6.984,3.14,9.6,6.054C1890.881,443.8,1892.398,447.07,1892.015,450.788z
		 M1873.131,467.792c4.334-0.04,8.245-1.236,11.117-4.639c3.338-3.957,5.116-8.81,4.318-13.771
		c-1.009-6.266-5.305-10.404-11.387-12.372c-1.305-0.423-2.854-0.392-4.242-0.206c-5.81,0.775-9.971,4.036-12.781,9.046
		C1854.268,456.345,1862.99,467.805,1873.131,467.792z"/>
	<path style="fill-rule:evenodd;clip-rule:evenodd;fill:#1B2A50;" d="M1815.654,384.017c-1.726-0.861-3.229-1.43-4.529-2.3
		c-2.311-1.547-2.244-4.089,0.301-5.235c0.566-0.255,1.147-0.476,1.979-0.818c0.381,1.547-1.431,2.271-1.124,3.199
		C1812.879,381.131,1816.804,380.265,1815.654,384.017z"/>
	<path style="fill-rule:evenodd;clip-rule:evenodd;fill:#1B2A50;" d="M1811.805,386.687c-0.274,2.683-0.512,5.01-0.779,7.622
		c-2.022-1.136-2.614-2.848-2.471-4.779C1808.677,387.89,1809.944,387.141,1811.805,386.687z"/>
	<path style="fill-rule:evenodd;clip-rule:evenodd;fill:#CFD2DD;" d="M1873.131,467.792c-10.141,0.013-18.863-11.447-12.975-21.942
		c2.811-5.01,6.972-8.271,12.781-9.046c1.388-0.186,2.938-0.217,4.242,0.206c6.082,1.968,10.378,6.106,11.387,12.372
		c0.798,4.962-0.98,9.814-4.318,13.771C1881.376,466.556,1877.465,467.752,1873.131,467.792z M1885.32,450.932
		c-0.167-0.585-0.353-2.042-0.978-3.276c-3.594-7.098-12.078-8.782-18.15-3.68c-2.129,1.788-3.589,4.002-4.368,6.687
		c-1.619,5.584,1.24,11.142,6.721,12.986C1876.609,466.364,1885.183,460.289,1885.32,450.932z"/>
	<path style="fill-rule:evenodd;clip-rule:evenodd;fill:#18162E;" d="M1885.32,450.932c-0.138,9.356-8.711,15.432-16.775,12.717
		c-5.48-1.845-8.34-7.402-6.721-12.986c0.779-2.685,2.239-4.898,4.368-6.687c6.072-5.103,14.557-3.418,18.15,3.68
		C1884.968,448.89,1885.153,450.347,1885.32,450.932z"/>
</g>
</svg>
