<?xml version="1.0" encoding="iso-8859-1"?>
<!-- Generator: Adobe Illustrator 16.0.0, SVG Export Plug-In . SVG Version: 6.00 Build 0)  -->
<!DOCTYPE svg PUBLIC "-//W3C//DTD SVG 1.1//EN" "http://www.w3.org/Graphics/SVG/1.1/DTD/svg11.dtd">
<svg version="1.1" id="Layer_1" xmlns="http://www.w3.org/2000/svg" xmlns:xlink="http://www.w3.org/1999/xlink" x="0px" y="0px"
	 width="1980px" height="1080px" viewBox="0 0 1980 1080" style="enable-background:new 0 0 1980 1080;" xml:space="preserve">
<g>
	<path style="fill-rule:evenodd;clip-rule:evenodd;fill:#202B42;" d="M786.157,915.569c-6-5.494-12.021-10.967-17.997-16.488
		c-12.491-11.537-19.642-25.884-22.454-42.554c-1.743-10.334-3.49-20.668-4.33-31.121c-0.503-6.27-0.775-12.557-1.163-18.836
		c-0.464-7.533-0.939-15.067-1.409-22.601c-0.037-0.586-0.076-1.173-0.09-1.76c-0.481-19.958-0.803-39.917-0.182-59.879
		c0.229-7.378,0.226-14.767,0.648-22.132c0.714-12.474,1.503-24.946,2.603-37.391c0.851-9.617,3.257-18.977,5.62-28.326
		c2.894-11.448,5.486-22.975,8.543-34.378c3.34-12.456,6.978-24.834,10.633-37.202c8.094-27.395,16.919-54.558,26.159-81.585
		c2.444-7.152,3.464-14.505,3.68-21.981c0.254-8.803,0.258-17.613,0.352-26.419c0.007-0.71-0.124-1.422-0.64-2.26
		c-0.72,1.256-1.474,2.495-2.158,3.77c-9.65,18.029-19.266,36.077-28.944,54.091c-3.795,7.062-6.665,14.465-8.295,22.3
		c-1.314,6.313-2.53,12.659-3.433,19.041c-3.689,26.059-10.401,51.208-22.147,74.869c-1.974,3.976-3.984,7.955-6.287,11.744
		c-8.318,13.68-13.796,28.473-17.387,43.992c-1.773,7.671-3.225,15.417-4.718,23.148c-2.058,10.669-5.835,20.791-9.658,30.899
		c-1.095,2.896-2.327,5.74-3.496,8.609c0.038-0.721-0.109-1.514,0.142-2.149c3.796-9.668,6.607-19.64,9.125-29.692
		c2.471-9.863,4.329-19.856,6.151-29.86c1.912-10.496,5.471-20.502,10.145-30.08c2.385-4.888,5.151-9.588,7.664-14.417
		c3.559-6.84,7.13-13.678,10.52-20.604c1.65-3.372,3.066-6.883,4.295-10.432c2.299-6.639,4.535-13.309,6.51-20.049
		c1.568-5.355,2.901-10.8,3.987-16.274c1.263-6.365,2.09-12.816,3.206-19.213c1.073-6.15,2.257-12.282,3.421-18.417
		c1.375-7.254,3.38-14.317,6.855-20.875c2.86-5.398,5.865-10.719,8.766-16.096c2.863-5.307,5.661-10.649,8.515-15.96
		c4.521-8.406,9.06-16.801,13.601-25.196c0.676-1.25,1.384-2.484,2.107-3.709c0.581-0.982,1.42-1.602,2.839-1.763
		c0.214,0.827,0.51,1.592,0.59,2.379c0.102,0.997,0.028,2.012,0.026,3.02c-0.03,11.814,0.202,23.632-0.514,35.437
		c-0.04,0.66-0.129,1.333-0.31,1.967c-1.683,5.946-3.272,11.923-5.122,17.818c-2.853,9.1-5.866,18.15-8.857,27.207
		c-2.884,8.737-5.925,17.424-8.712,26.191c-2.833,8.918-5.466,17.9-8.143,26.867c-1.912,6.402-3.953,12.777-5.571,19.255
		c-2.082,8.327-3.661,16.78-5.715,25.116c-1.717,6.969-3.734,13.865-5.748,20.756c-3.379,11.562-5.343,23.386-6.667,35.325
		c-0.505,4.556-0.788,9.14-1.015,13.719c-0.267,5.345-0.398,10.697-0.522,16.049c-0.201,8.706-0.348,17.414-0.518,26.121
		c-0.005,0.252-0.004,0.504-0.02,0.755c-0.327,5.413-0.844,10.822-0.943,16.239c-0.188,10.206,0.098,20.399,0.88,30.595
		c0.582,7.585,0.391,15.228,0.605,22.842c0.085,3.002,0.315,6.001,0.523,8.999c0.133,1.911,0.332,3.818,0.527,5.724
		c0.475,4.639,1.021,9.27,1.434,13.912c0.414,4.65,0.44,9.35,1.11,13.959c0.849,5.843,1.985,11.661,3.35,17.406
		c1.253,5.276,2.998,10.434,4.477,15.656c1.193,4.213,2.898,8.178,5.387,11.797c5.048,7.34,10.901,13.949,17.719,19.698
		c4.596,3.874,9.064,7.908,13.774,11.638c8.271,6.551,17.28,12.031,26.275,17.512c9.497,5.784,18.993,11.573,28.573,17.22
		c6.846,4.034,13.787,7.912,20.765,11.714c4.269,2.327,8.667,4.423,13.048,6.537c2.56,1.235,5.195,2.314,7.806,3.442
		c2.071,0.896,4.31,1.509,6.208,2.681c7.257,4.479,14.404,9.135,21.597,13.719c3.737,2.382,7.501,4.722,11.218,7.135
		c6.715,4.363,12.967,9.205,16.826,16.495c0.669,1.265,1.747,1.544,2.897,0.689c2.412-1.791,4.887-3.532,7.091-5.56
		c4.561-4.197,8.99-8.538,13.421-12.872c3.781-3.698,7.483-7.472,11.228-11.205c0.534-0.532,1.054-1.101,1.672-1.519
		c9.211-6.221,18.419-12.445,27.668-18.606c2.794-1.86,5.801-3.318,9.073-4.217c3.942-1.082,7.868-2.231,11.775-3.439
		c5.115-1.58,9.471-4.507,13.62-7.809c3.525-2.805,6.979-5.745,10.743-8.199c7.795-5.081,14.687-11.294,21.982-16.999
		c4.863-3.804,9.727-7.611,14.637-11.355c3.452-2.631,7.04-5.086,10.469-7.748c3.888-3.02,7.599-6.267,11.509-9.257
		c3.819-2.919,7.157-6.235,9.807-10.26c1.377-2.093,2.896-4.091,4.36-6.124c3.902-5.417,7.869-10.79,11.702-16.256
		c4.265-6.083,6.551-12.966,7.499-20.267c0.697-5.366,1.083-10.773,1.565-16.166c0.23-2.575,0.362-5.159,0.54-7.739
		c0.325-4.742,0.942-9.484,0.924-14.225c-0.075-19.533,0.541-39.074-0.455-58.601c-0.148-2.917-0.323-5.833-0.538-8.747
		c-0.137-1.826-0.354-3.648-0.565-5.469c-0.287-2.479-0.656-4.949-0.892-7.432c-0.244-2.573-0.313-5.165-0.56-7.738
		c-0.453-4.723-0.978-9.439-1.479-14.158c-0.193-1.823-0.386-3.646-0.608-5.466c-0.455-3.716-0.947-7.427-1.39-11.144
		c-0.393-3.309-0.59-6.647-1.137-9.929c-1.055-6.322-2.13-12.649-3.498-18.909c-1.681-7.687-1.813-15.541-2.904-23.287
		c-0.464-3.297-0.689-6.627-1.09-9.934c-0.791-6.525-1.55-13.057-2.47-19.564c-0.828-5.849-1.889-11.665-2.783-17.505
		c-0.794-5.182-1.54-10.372-2.226-15.568c-0.295-2.229-0.386-4.485-0.564-6.729c-0.322-4.071-0.706-8.138-0.943-12.213
		c-0.251-4.339-0.32-8.688-0.551-13.026c-0.115-2.161-0.253-4.343-0.656-6.461c-1.491-7.859-2.851-15.73-3.361-23.727
		c-0.134-2.079-0.349-4.153-0.571-6.225c-0.282-2.647-0.659-5.284-0.905-7.935c-0.24-2.574-0.306-5.165-0.554-7.737
		c-0.447-4.641-1.087-9.265-1.436-13.911c-0.324-4.332-0.374-8.684-0.545-13.027c-0.02-0.503-0.009-1.007-0.053-1.508
		c-0.312-3.567-0.567-7.142-0.972-10.699c-0.384-3.386-0.75-6.791-1.439-10.122c-0.946-4.574-2.225-9.08-3.282-13.633
		c-0.271-1.168-0.242-2.405-0.389-4.034c1.507,0.943,2.323,1.827,2.857,2.983c0.983,2.128,1.965,4.256,2.941,6.387
		c3.118,6.814,7.431,12.876,11.763,18.942c3.3,4.621,6.643,9.245,9.484,14.147c3.492,6.021,5.925,12.535,7.528,19.35
		c1.491,6.336,3.302,12.6,4.717,18.952c1.792,8.048,3.437,16.133,4.931,24.242c0.936,5.07,1.578,10.201,2.165,15.327
		c0.493,4.304,0.703,8.64,1.063,12.959c0.16,1.909,0.376,3.815,0.582,5.721c0.295,2.729,0.683,5.451,0.887,8.188
		c0.256,3.413,0.343,6.838,0.548,10.256c0.14,2.331,0.327,4.658,0.545,6.983c0.287,3.066,0.679,6.123,0.926,9.191
		c0.243,2.995,0.33,6.002,0.548,8.998c0.127,1.744,0.32,3.487,0.58,5.216c0.605,4.031,1.254,8.056,1.915,12.078
		c0.772,4.701,1.741,9.351,3.608,13.771c3.548,8.395,7.098,16.79,10.58,25.212c1.501,3.63,3.042,7.265,4.205,11.011
		c2.476,7.975,4.688,16.031,7.062,24.039c2.99,10.087,5.437,20.304,7.238,30.667c1.419,8.16,5.119,15.356,9.244,22.371
		c1.87,3.182,4.718,5.352,8.103,6.849c1.354,0.598,2.327,0.405,3.312-0.713c3.503-3.98,6.569-8.25,8.563-13.183
		c1.219-3.016,2.139-6.15,3.257-9.208c1.75-4.781,3.918-9.437,4.672-14.522c0.659-4.446,1.045-8.934,1.707-13.379
		c0.944-6.339,2.085-12.649,3.037-18.986c0.582-3.864,1.096-7.75,1.407-11.644c0.327-4.079,0.373-8.18,0.549-12.271
		c0.022-0.499,0.108-0.996,0.146-1.495c0.116-1.579,0.392-3.168,0.299-4.733c-0.224-3.74-0.541-7.479-0.972-11.202
		c-0.506-4.379-0.948-8.786-1.825-13.098c-1.01-4.979-2.384-9.888-3.745-14.787c-1.653-5.955-3.206-11.958-5.257-17.78
		c-3.222-9.145-6.803-18.163-10.272-27.22c-2.991-7.809-6.013-15.604-9.079-23.382c-1.472-3.733-3.038-7.431-4.634-11.113
		c-1.564-3.608-3.432-7.099-4.798-10.778c-3.408-9.171-6.626-18.414-9.883-27.641c-2.116-5.996-4.224-11.995-6.232-18.027
		c-2.801-8.409-5.705-16.792-8.187-25.296c-1.946-6.667-3.721-13.409-6.807-19.622c-3.732-7.518-6.638-15.357-9.825-23.091
		c-3.217-7.809-6.265-15.688-9.62-23.437c-3.743-8.646-8.833-16.524-14.616-23.939c-8.621-11.054-15.981-22.901-22.276-35.403
		c-3.465-6.881-6.746-13.861-9.928-20.879c-2.31-5.099-4.594-10.242-6.399-15.533c-2.563-7.508-4.76-15.146-6.955-22.775
		c-1.452-5.048-2.745-10.15-3.894-15.277c-0.946-4.22-1.669-8.496-2.315-12.774c-0.584-3.871-1.292-7.747-1.049-11.698
		c0.157-2.581,0.352-5.16,0.487-7.742c0.192-3.67,0.339-7.343,0.517-11.014c0.157-3.253,0.503-6.507,0.459-9.755
		c-0.066-4.912,0.381-9.817,0.063-14.729c-0.237-3.667-0.16-7.363-0.563-11.008c-0.576-5.207-1.387-10.392-2.238-15.563
		c-0.824-5.011-1.922-9.978-2.725-14.991c-0.82-5.119-1.615-10.24-3.713-15.017c-1.68-3.822-3.501-7.587-5.401-11.306
		c-5.071-9.925-10.212-19.814-15.343-29.709c-2.211-4.264-5.096-8.07-8.479-11.44c-2.657-2.648-5.486-5.16-8.455-7.453
		c-6.076-4.69-12.867-8.111-20.13-10.582c-7.007-2.384-14.313-3.118-21.625-3.735c-3.575-0.302-7.173-0.338-10.759-0.537
		c-2.414-0.134-4.828-0.306-7.236-0.526c-1.823-0.167-3.636-0.438-5.455-0.661c-2.229-0.274-4.455-0.593-6.69-0.81
		c-2.407-0.233-4.822-0.373-7.235-0.547c-4.573-0.328-9.144-0.711-13.721-0.953c-2.511-0.132-5.034-0.024-7.553-0.025
		c-2.853,0-5.707,0.003-8.56-0.004c-0.743-0.002-1.577,0.138-1.761-0.933c1.68-0.526,3.361-1.054,5.042-1.581
		c2.014,0,4.028,0,6.042,0c2.019,0.162,4.037,0.324,6.054,0.487c14.642,1.036,29.298,1.917,43.92,3.169
		c8.26,0.708,16.552,1.592,24.68,3.17c15.261,2.963,27.392,11.334,37.347,23.083c6.344,7.487,11.08,15.958,15.358,24.719
		c3.861,7.904,7.686,15.826,11.527,23.739c2.263,4.661,3.188,9.693,4.051,14.734c1.641,9.583,3.213,19.177,4.875,28.756
		c1.296,7.464,1.858,14.946,1.452,22.536c-0.677,12.647-1.074,25.309-1.694,37.96c-0.286,5.844,0.412,11.522,1.907,17.166
		c2.745,10.363,5.324,20.771,8.043,31.142c3.009,11.474,7.337,22.454,12.765,32.989c4.912,9.536,9.962,19.003,14.939,28.508
		c2.535,4.844,5.556,9.364,8.854,13.72c7.146,9.439,13.872,19.167,19.234,29.749c2.192,4.326,3.99,8.857,5.893,13.326
		c3.514,8.247,6.88,16.558,10.473,24.77c5.821,13.302,10.408,27.007,14.62,40.903c6.534,21.559,13.468,43.004,22.43,63.735
		c3.32,7.681,6.124,15.597,8.903,23.498c4.149,11.793,9.493,23.085,14.139,34.667c6.788,16.926,11.426,34.496,14.716,52.419
		c0.468,2.541,0.476,5.167,0.696,7.754c0.004,4.724,0.008,9.448,0.012,14.174c-0.686,10.543-1.07,21.116-2.699,31.572
		c-1.523,9.771-3.074,19.54-4.88,29.262c-1.95,10.499-6.179,20.17-11.709,29.253c-1.244,2.044-3.065,3.753-4.722,5.523
		c-1.352,1.446-3.145,1.661-4.883,0.935c-4.828-2.022-8.915-4.827-11.199-9.887c-2.688-5.957-5.846-11.724-7.488-18.087
		c-1.088-4.212-1.757-8.53-2.66-12.791c-4.511-21.283-10.944-41.979-19.077-62.149c-1.816-4.508-3.614-9.027-5.585-13.469
		c-3.154-7.111-4.827-14.606-6.238-22.206c-1.458-7.855-1.938-15.797-2.607-23.737c-0.592-7.009-1.809-13.965-2.648-20.957
		c-1.142-9.489-2.39-18.972-3.225-28.488c-1.195-13.623-2.328-27.226-5.809-40.526c-1.163-4.448-1.531-9.099-2.604-13.575
		c-4.244-17.705-11.969-33.744-23.368-47.98c-1.553-1.939-3.038-3.933-4.93-6.389c-0.05,1.024-0.121,1.457-0.084,1.88
		c0.67,7.938,1.356,15.873,2.032,23.81c0.777,9.11,1.549,18.22,2.316,27.331c0.542,6.436,0.978,12.883,1.643,19.307
		c0.543,5.245,1.417,10.456,2.027,15.695c0.553,4.742,1.023,9.497,1.395,14.257c0.945,12.124,1.586,24.277,2.802,36.371
		c0.728,7.238,2.317,14.39,3.504,21.581c0.626,3.798,1.346,7.586,1.802,11.405c1.548,12.904,3.035,25.816,4.467,38.734
		c0.916,8.265,2.515,16.387,4.443,24.472c1.854,7.772,2.198,15.766,2.756,23.714c0.479,6.858,0.862,13.729,1.602,20.562
		c0.596,5.491,1.975,10.904,2.445,16.4c0.748,8.768,1.316,17.571,1.447,26.367c0.221,14.766,0.24,29.542-0.053,44.306
		c-0.176,8.878-0.991,17.751-1.733,26.609c-0.504,6.011-1.358,11.992-2.098,17.981c-0.689,5.585-2.718,10.718-5.638,15.478
		c-6.107,9.954-13.06,19.313-20.365,28.41c-1.096,1.363-2.436,2.547-3.748,3.718c-5.572,4.972-11.123,9.972-16.801,14.821
		c-1.854,1.584-3.562,3.231-4.934,5.234c-0.317-0.03-0.635-0.063-0.952-0.093c0-0.456,0-0.913,0-1.717
		c-0.763,0.559-1.292,0.928-1.8,1.323c-7.674,5.98-15.292,12.036-23.03,17.932c-9.871,7.521-19.807,14.961-29.781,22.344
		c-4.563,3.377-9.603,5.777-15.294,6.684c-1.894,0.303-3.752,0.889-5.591,1.459c-4.272,1.326-8.284,3.193-11.842,5.957
		c-1.165,0.905-2.133,1.906-2.08,3.521c-0.244,0.002-0.489,0.005-0.734,0.007c-0.525-0.85-1.148-1.106-2.059-0.478
		c-1.31,0.903-2.646,1.771-4.003,2.599c-8.333,5.085-15.935,11.097-23.001,17.822c-7.769,7.396-15.584,14.74-23.438,22.044
		c-1.52,1.413-3.237,2.652-4.998,3.756c-1.478,0.924-2.124,0.635-3.124-0.826c-0.188-0.274-0.348-0.572-0.495-0.872
		c-2.729-5.56-6.782-10.027-11.901-13.367c-12.062-7.869-24.133-15.738-36.464-23.172c-5.268-3.176-11.176-5.3-16.826-7.829
		c-1.892-0.847-2.228-0.506-2.647,2.163c-0.298-0.282-0.595-0.563-0.893-0.844c0.282-2.347-0.845-3.809-2.922-4.696
		c-0.46-0.196-0.882-0.481-1.325-0.718c-18.4-9.842-36.432-20.315-54.041-31.515c-8.27-5.26-16.6-10.424-24.904-15.631
		C787.706,916.837,786.931,916.204,786.157,915.569z"/>
	<path style="fill-rule:evenodd;clip-rule:evenodd;fill:#222D45;" d="M689.275,723.801c-1.329,3.244-2.54,6.543-4.021,9.715
		c-1.288,2.757-3.622,4.118-6.721,3.882c-1.245-0.096-2.484-0.332-3.711-0.577c-1.962-0.391-3.898-0.94-5.872-1.241
		c-1.787-0.273-2.965-1.167-3.458-2.847c-2.892-9.858-6.697-19.503-7.113-29.95c-0.145-2.859-0.282-5.719-0.448-8.577
		c-0.012-0.212-0.234-0.412-0.359-0.618c0-8.56,0-17.12,0-25.681c0.979-1.938,0.469-4.005,0.526-6.023
		c0.101-2.378,0.201-4.757,0.301-7.136c0.731-9.699,1.339-19.41,2.236-29.095c0.619-6.675,1.591-13.32,2.494-19.966
		c1.229-9.054,2.507-18.102,3.827-27.143c2.166-14.836,6.413-29.122,11.783-43.07c8.403-21.825,17.682-43.278,27.895-64.323
		c3.052-6.289,6.77-12.161,11.003-17.705c17.415-22.799,34.825-45.603,52.309-68.35c7.385-9.611,13.972-19.686,18.958-30.764
		c0.48-1.067,1.012-2.124,1.634-3.114c3.953-6.302,5.934-13.271,7.029-20.545c1.323-8.781,2.487-17.585,4.979-26.153
		c3.453-11.876,8.646-22.874,16.174-32.717c4.177-5.46,8.434-10.858,12.654-16.286c0.145,0.326,0.289,0.651,0.434,0.977
		c-1.188,1.918-2.595,3.653-4.024,5.406c-4.162,5.105-8.137,10.355-11.735,15.901c-4.816,7.427-8.482,15.369-11.532,23.632
		c-2.129,5.768-2.333,11.911-3.422,17.882c-0.881,4.831-1.581,9.698-2.598,14.499c-1.198,5.652-2.732,11.24-5.717,16.257
		c-1.64,2.759-2.992,5.598-3.864,8.68c-0.157,0.556-0.489,1.063-0.735,1.596c-2.503,5.422-5.789,10.37-9.348,15.13
		c-4.045,5.412-8.206,10.738-12.356,16.07c-3.331,4.28-6.81,8.446-10.068,12.78c-7.22,9.607-14.283,19.333-21.524,28.924
		c-5.628,7.456-11.433,14.78-17.154,22.166c-4.789,6.182-8.79,12.869-11.932,19.999c-3.64,8.257-6.832,16.712-10.321,25.037
		c-3.845,9.176-7.895,18.265-11.689,27.46c-2.804,6.799-5.483,13.657-7.949,20.583c-1.706,4.794-2.938,9.755-4.409,14.632
		c-1.547,5.134-2.071,10.448-2.763,15.729c-0.454,3.466-0.628,6.972-1.13,10.43c-0.729,5.022-1.732,10.004-2.454,15.026
		c-0.911,6.339-1.738,12.692-2.441,19.058c-0.486,4.388-0.742,8.803-1.03,13.209c-0.376,5.745-0.76,11.49-0.997,17.241
		c-0.261,6.351-0.407,12.709-0.513,19.064c-0.08,4.78-0.015,9.563-0.022,14.347c-0.001,0.754,0.021,1.517-0.083,2.26
		c-0.863,6.177-0.894,12.417,0.368,18.462c1.548,7.419,3.889,14.673,5.843,22.009c0.604,2.271,2.016,3.571,4.267,4.086
		c2.518,0.577,5.011,1.28,7.542,1.784c2.697,0.539,4.822-0.545,6.155-2.876c1.162-2.03,2.058-4.213,3.097-6.316
		c0.475-0.961,1.01-1.892,1.52-2.837C688.953,723.802,689.114,723.802,689.275,723.801z"/>
	<path style="fill-rule:evenodd;clip-rule:evenodd;fill:#393A4E;" d="M841.878,1034c-0.907-0.309-1.795-0.705-2.724-0.91
		c-7.761-1.704-14.352-5.338-19.768-11.256c-5.209-5.691-10.716-11.111-16.042-16.698c-1.326-1.391-2.491-2.94-3.652-4.478
		c-0.416-0.549-0.599-1.274-1.117-2.43c1.305,0.122,2.092,0.141,2.858,0.275c7.364,1.281,14.524,3.369,21.649,5.579
		c4.269,1.325,4.17,0.417,4.526-3.018c1.457-14.042-0.626-27.398-7.752-39.8c-1.707-2.968-3.05-6.145-4.56-9.226
		c0.309-0.043,0.617-0.086,0.925-0.129c0.386,0.627,0.791,1.243,1.155,1.881c3.691,6.474,7.334,12.944,9.45,20.185
		c2.447,8.374,6.81,15.818,11.928,22.817c2.263,3.094,3.966,2.935,5.742-0.422c1.016-1.921,1.879-3.924,2.808-5.892
		c0.52-1.101,1.035-2.203,1.718-3.659c1.869,3.159,3.49,5.889,5.086,8.633c0.092,0.158-0.025,0.441-0.046,0.665
		c-0.749-0.728-1.573-1.393-2.227-2.197c-0.909-1.114-1.689-2.332-2.701-3.755c-0.523,1.221-0.81,2.103-1.259,2.894
		c-1.11,1.956-2.051,4.082-3.509,5.746c-1.875,2.144-4.444,3.139-6.532-0.301c-1.607-2.646-3.345-5.214-5.04-7.807
		c-1.03-1.575-2.089-3.131-3.134-4.695c-0.358,0.957-0.35,1.763-0.36,2.569c-0.04,3.354,0.202,6.741-0.198,10.052
		c-0.561,4.662-0.152,9.158,1.081,13.634c0.163,0.59,0.259,1.197,0.386,1.797c-0.665-0.306-0.982-0.744-1.21-1.227
		c-0.643-1.361-1.221-2.754-1.874-4.111c-0.77-1.6-1.996-2.559-3.792-2.976c-3.581-0.832-7.113-1.871-10.683-2.751
		c-3.704-0.914-7.429-1.739-11.145-2.604c0.481,1.403,1.201,2.496,2.079,3.438c1.887,2.023,3.84,3.986,5.796,5.944
		c4.789,4.796,9.412,9.777,14.438,14.313c7.014,6.328,15.691,8.451,24.883,8.274c5.073-0.097,10.135-0.959,15.059-2.384
		c3.783-1.094,7.135-2.961,9.855-5.779c4.885-5.06,9.658-10.229,14.464-15.364c2.06-2.201,4.165-4.366,6.103-6.671
		c1.71-2.032,3.216-4.237,4.812-6.366c0.061-0.105,0.122-0.211,0.182-0.316c-0.11,0.055-0.221,0.111-0.332,0.168
		c-1.177,0.372-2.43,0.593-3.519,1.142c-7.24,3.644-14.477,7.296-21.646,11.078c-3.03,1.599-5.421,3.874-6.104,7.502
		c-0.172,0.917-0.565,1.86-1.92,2.282c1.349-6.238,2.641-12.242,3.958-18.242c0.117-0.532,0.404-1.027,0.612-1.541
		c0.046,0.169,0.147,0.293,0.304,0.37c-0.164,3.088-0.329,6.174-0.51,9.586c0.798-0.388,1.384-0.609,1.902-0.938
		c8.25-5.214,17.275-8.868,26.062-13.004c1.664-0.782,1.694-0.719,4.539,0.27c-0.523,0.794-0.924,1.613-1.513,2.263
		c-8.112,8.941-16.294,17.817-24.364,26.797c-5.004,5.568-11.42,8.309-18.538,9.819c-1.182,0.251-2.334,0.645-3.5,0.974
		C850.606,1034,846.242,1034,841.878,1034z"/>
	<path style="fill-rule:evenodd;clip-rule:evenodd;fill:#5B6273;" d="M1239.729,656.873c-0.004-4.726-0.008-9.45-0.012-14.174
		c0.16,0.009,0.322,0.018,0.483,0.028c0,4.699,0,9.399,0,14.1C1240.043,656.842,1239.885,656.857,1239.729,656.873z"/>
	<path style="fill-rule:evenodd;clip-rule:evenodd;fill:#162855;" d="M688.792,723.802c-0.509,0.945-1.045,1.876-1.52,2.837
		c-1.039,2.104-1.935,4.286-3.097,6.316c-1.333,2.331-3.458,3.415-6.155,2.876c-2.532-0.504-5.024-1.207-7.542-1.784
		c-2.251-0.515-3.663-1.815-4.267-4.086c-1.954-7.336-4.295-14.59-5.843-22.009c-1.261-6.045-1.23-12.285-0.368-18.462
		c0.103-0.743,0.082-1.506,0.083-2.26c0.007-4.783-0.058-9.566,0.022-14.347c0.106-6.355,0.252-12.714,0.513-19.064
		c0.236-5.751,0.621-11.496,0.997-17.241c0.288-4.406,0.544-8.821,1.03-13.209c0.704-6.365,1.531-12.719,2.441-19.058
		c0.721-5.022,1.724-10.004,2.454-15.026c0.502-3.458,0.676-6.964,1.13-10.43c0.692-5.28,1.216-10.595,2.763-15.729
		c1.471-4.877,2.703-9.838,4.409-14.632c2.466-6.927,5.145-13.785,7.949-20.583c3.794-9.195,7.845-18.284,11.689-27.46
		c3.489-8.325,6.681-16.779,10.321-25.037c3.142-7.13,7.143-13.817,11.932-19.999c5.722-7.386,11.526-14.71,17.154-22.166
		c7.241-9.591,14.304-19.317,21.524-28.924c3.258-4.333,6.737-8.5,10.068-12.78c4.15-5.333,8.311-10.659,12.356-16.07
		c3.559-4.76,6.845-9.708,9.348-15.13c0.246-0.533,0.578-1.04,0.735-1.596c0.873-3.082,2.224-5.921,3.864-8.68
		c2.984-5.017,4.519-10.604,5.717-16.257c1.018-4.801,1.717-9.668,2.598-14.499c1.089-5.971,1.293-12.114,3.422-17.882
		c3.05-8.264,6.716-16.206,11.532-23.632c3.598-5.546,7.573-10.796,11.735-15.901c1.429-1.753,2.836-3.488,4.024-5.406
		c0.389-0.27,0.875-0.464,1.154-0.82c1.802-2.298,3.591-4.607,5.326-6.956c3.501-4.745,6.366-9.855,8.026-15.524
		c1.577-5.387,2.271-10.938,2.088-16.563c-0.078-2.414-0.478-4.823-0.453-7.232c0.047-4.424,0.218-8.851,0.492-13.268
		c0.253-4.07,0.329-8.208,1.166-12.172c1.196-5.673,1.247-11.417,1.772-17.125c0.452-4.9-0.227-9.852,0.508-14.78
		c0.453-3.039,0.262-6.167,0.588-9.232c0.333-3.136,0.951-6.24,1.429-9.362c0.491-3.2,1.793-6.273,1.5-9.597
		c0.189-0.605,0.38-1.212,0.57-1.819c0.07-0.039,0.202-0.082,0.199-0.117c-0.008-0.132-0.06-0.261-0.095-0.392
		c0.123-0.338,0.246-0.676,0.368-1.015c0.955-0.353,1.077-1.139,1.045-2.007c0.067-0.046,0.196-0.113,0.188-0.136
		c-0.039-0.129-0.112-0.247-0.174-0.369c-0.029-0.229-0.058-0.459-0.086-0.689c0.072-0.27,0.143-0.54,0.214-0.81
		c1.067,0.137,1.418-0.632,1.817-1.394c4.935-9.395,9.919-18.764,14.809-28.182c2.482-4.781,5.464-9.181,9.365-12.902
		c1.726-1.646,3.671-3.063,5.437-4.671c0.289-0.263,0.162-0.981,0.228-1.489c0.061-0.067,0.134-0.11,0.222-0.128
		c0.48,0.012,0.96,0.023,1.439,0.036c-0.14-0.242-0.281-0.483-0.422-0.724c1.574-1.097,3.148-2.194,4.722-3.291
		c0.197,0.209,0.394,0.418,0.589,0.627c0.001-0.348,0.001-0.696,0.002-1.044l0.208-0.118c0.436,0.05,0.87,0.101,1.305,0.151
		c-0.003-0.351-0.007-0.701-0.01-1.052c0.061-0.063,0.134-0.104,0.221-0.122c1.169,0.81,2.033,0.001,2.93-0.564
		c4.911-3.09,9.809-6.201,14.731-9.274c1.336-0.834,2.749-1.544,4.109-2.339c0.657-0.383,0.439-0.771-0.078-1.107
		c1.396-0.447,2.793-0.894,4.189-1.341c0.185,1.071,1.019,0.931,1.761,0.933c2.853,0.007,5.707,0.004,8.56,0.004
		c2.519,0.001,5.042-0.107,7.553,0.025c4.578,0.242,9.148,0.625,13.721,0.953c2.413,0.174,4.829,0.313,7.235,0.547
		c2.235,0.216,4.46,0.535,6.69,0.81c1.818,0.223,3.632,0.494,5.455,0.661c2.408,0.22,4.822,0.392,7.236,0.526
		c3.586,0.199,7.184,0.234,10.759,0.537c7.313,0.618,14.618,1.352,21.625,3.735c7.263,2.471,14.054,5.892,20.13,10.582
		c2.969,2.293,5.798,4.804,8.455,7.453c3.383,3.371,6.268,7.176,8.479,11.44c5.131,9.895,10.271,19.784,15.343,29.709
		c1.9,3.719,3.722,7.484,5.401,11.306c2.098,4.776,2.893,9.898,3.713,15.017c0.803,5.014,1.9,9.98,2.725,14.991
		c0.852,5.171,1.662,10.356,2.238,15.563c0.403,3.645,0.326,7.341,0.563,11.008c0.317,4.913-0.13,9.818-0.063,14.729
		c0.044,3.249-0.302,6.502-0.459,9.755c-0.178,3.671-0.324,7.344-0.517,11.014c-0.136,2.583-0.33,5.161-0.487,7.742
		c-0.243,3.951,0.465,7.827,1.049,11.698c0.646,4.278,1.369,8.555,2.315,12.774c1.148,5.127,2.441,10.229,3.894,15.277
		c2.195,7.629,4.392,15.267,6.955,22.775c1.806,5.291,4.09,10.434,6.399,15.533c3.182,7.018,6.463,13.998,9.928,20.879
		c6.295,12.502,13.655,24.35,22.276,35.403c5.783,7.415,10.873,15.293,14.616,23.939c3.355,7.749,6.403,15.628,9.62,23.437
		c3.188,7.733,6.093,15.573,9.825,23.091c3.086,6.213,4.86,12.955,6.807,19.622c2.481,8.504,5.386,16.887,8.187,25.296
		c2.009,6.032,4.116,12.032,6.232,18.027c3.257,9.228,6.475,18.47,9.883,27.641c1.366,3.679,3.233,7.169,4.798,10.778
		c1.596,3.682,3.162,7.379,4.634,11.113c3.066,7.778,6.088,15.573,9.079,23.382c3.47,9.057,7.051,18.075,10.272,27.22
		c2.051,5.822,3.604,11.825,5.257,17.78c1.361,4.899,2.735,9.809,3.745,14.787c0.877,4.312,1.319,8.719,1.825,13.098
		c0.431,3.723,0.748,7.462,0.972,11.202c0.093,1.565-0.183,3.154-0.299,4.733c-0.037,0.499-0.123,0.996-0.146,1.495
		c-0.176,4.091-0.222,8.191-0.549,12.271c-0.312,3.894-0.825,7.779-1.407,11.644c-0.952,6.337-2.093,12.647-3.037,18.986
		c-0.662,4.445-1.048,8.933-1.707,13.379c-0.754,5.086-2.922,9.741-4.672,14.522c-1.118,3.058-2.038,6.192-3.257,9.208
		c-1.993,4.933-5.06,9.202-8.563,13.183c-0.984,1.118-1.958,1.311-3.312,0.713c-3.385-1.497-6.232-3.667-8.103-6.849
		c-4.125-7.015-7.825-14.211-9.244-22.371c-1.802-10.363-4.248-20.58-7.238-30.667c-2.374-8.008-4.586-16.064-7.062-24.039
		c-1.163-3.746-2.704-7.381-4.205-11.011c-3.482-8.422-7.032-16.817-10.58-25.212c-1.867-4.421-2.836-9.07-3.608-13.771
		c-0.661-4.022-1.31-8.047-1.915-12.078c-0.26-1.729-0.453-3.472-0.58-5.216c-0.218-2.996-0.305-6.003-0.548-8.998
		c-0.247-3.068-0.639-6.125-0.926-9.191c-0.218-2.325-0.405-4.652-0.545-6.983c-0.205-3.418-0.292-6.843-0.548-10.256
		c-0.204-2.737-0.592-5.459-0.887-8.188c-0.206-1.905-0.422-3.812-0.582-5.721c-0.36-4.319-0.57-8.655-1.063-12.959
		c-0.587-5.126-1.229-10.256-2.165-15.327c-1.494-8.109-3.139-16.194-4.931-24.242c-1.415-6.352-3.226-12.616-4.717-18.952
		c-1.604-6.815-4.036-13.329-7.528-19.35c-2.842-4.902-6.185-9.527-9.484-14.147c-4.332-6.066-8.645-12.128-11.763-18.942
		c-0.977-2.131-1.958-4.259-2.941-6.387c-0.534-1.156-1.351-2.04-2.857-2.983c0.146,1.629,0.118,2.866,0.389,4.034
		c1.058,4.553,2.336,9.059,3.282,13.633c0.689,3.332,1.056,6.736,1.439,10.122c0.404,3.557,0.66,7.132,0.972,10.699
		c0.044,0.501,0.033,1.005,0.053,1.508c0.171,4.343,0.221,8.695,0.545,13.027c0.349,4.646,0.988,9.27,1.436,13.911
		c0.248,2.572,0.313,5.164,0.554,7.737c0.246,2.65,0.623,5.287,0.905,7.935c0.223,2.072,0.438,4.146,0.571,6.225
		c0.511,7.996,1.87,15.868,3.361,23.727c0.403,2.119,0.541,4.301,0.656,6.461c0.23,4.339,0.3,8.688,0.551,13.026
		c0.237,4.075,0.621,8.142,0.943,12.213c0.179,2.243,0.27,4.499,0.564,6.729c0.686,5.196,1.432,10.387,2.226,15.568
		c0.895,5.84,1.955,11.656,2.783,17.505c0.92,6.508,1.679,13.039,2.47,19.564c0.4,3.307,0.626,6.637,1.09,9.934
		c1.092,7.746,1.224,15.601,2.904,23.287c1.368,6.26,2.443,12.587,3.498,18.909c0.547,3.281,0.744,6.62,1.137,9.929
		c0.442,3.717,0.935,7.428,1.39,11.144c0.223,1.819,0.415,3.643,0.608,5.466c0.501,4.719,1.025,9.436,1.479,14.158
		c0.247,2.573,0.315,5.165,0.56,7.738c0.235,2.482,0.604,4.952,0.892,7.432c0.211,1.82,0.429,3.643,0.565,5.469
		c0.215,2.914,0.39,5.83,0.538,8.747c0.996,19.526,0.38,39.067,0.455,58.601c0.019,4.74-0.599,9.482-0.924,14.225
		c-0.178,2.58-0.31,5.164-0.54,7.739c-0.482,5.393-0.868,10.8-1.565,16.166c-0.948,7.301-3.234,14.184-7.499,20.267
		c-3.833,5.466-7.8,10.839-11.702,16.256c-1.465,2.033-2.983,4.031-4.36,6.124c-2.649,4.024-5.987,7.341-9.807,10.26
		c-3.91,2.99-7.621,6.237-11.509,9.257c-3.429,2.662-7.017,5.117-10.469,7.748c-4.91,3.744-9.773,7.552-14.637,11.355
		c-7.296,5.705-14.188,11.918-21.982,16.999c-3.764,2.454-7.218,5.395-10.743,8.199c-4.149,3.302-8.505,6.229-13.62,7.809
		c-3.907,1.208-7.833,2.357-11.775,3.439c-3.272,0.898-6.279,2.356-9.073,4.217c-9.249,6.161-18.458,12.386-27.668,18.606
		c-0.618,0.418-1.138,0.986-1.672,1.519c-3.744,3.733-7.447,7.507-11.228,11.205c-4.431,4.334-8.86,8.675-13.421,12.872
		c-2.204,2.027-4.679,3.769-7.091,5.56c-1.15,0.854-2.228,0.575-2.897-0.689c-3.858-7.29-10.111-12.132-16.826-16.495
		c-3.717-2.413-7.481-4.753-11.218-7.135c-7.192-4.584-14.339-9.24-21.597-13.719c-1.898-1.172-4.137-1.785-6.208-2.681
		c-2.61-1.128-5.246-2.207-7.806-3.442c-4.381-2.114-8.779-4.21-13.048-6.537c-6.978-3.802-13.919-7.68-20.765-11.714
		c-9.58-5.646-19.076-11.436-28.573-17.22c-8.995-5.48-18.004-10.961-26.275-17.512c-4.71-3.729-9.179-7.764-13.774-11.638
		c-6.818-5.749-12.671-12.358-17.719-19.698c-2.488-3.619-4.193-7.584-5.387-11.797c-1.479-5.223-3.224-10.38-4.477-15.656
		c-1.365-5.745-2.501-11.563-3.35-17.406c-0.669-4.609-0.696-9.309-1.11-13.959c-0.414-4.643-0.959-9.273-1.434-13.912
		c-0.195-1.905-0.394-3.813-0.527-5.724c-0.208-2.998-0.438-5.997-0.523-8.999c-0.215-7.614-0.023-15.257-0.605-22.842
		c-0.782-10.195-1.067-20.389-0.88-30.595c0.099-5.417,0.617-10.826,0.943-16.239c0.016-0.251,0.015-0.503,0.02-0.755
		c0.17-8.707,0.316-17.415,0.518-26.121c0.124-5.352,0.256-10.704,0.522-16.049c0.228-4.579,0.51-9.163,1.015-13.719
		c1.324-11.939,3.288-23.764,6.667-35.325c2.013-6.891,4.03-13.787,5.748-20.756c2.054-8.336,3.633-16.789,5.715-25.116
		c1.619-6.478,3.659-12.853,5.571-19.255c2.677-8.967,5.309-17.949,8.143-26.867c2.788-8.767,5.829-17.454,8.712-26.191
		c2.991-9.057,6.004-18.107,8.857-27.207c1.849-5.895,3.438-11.872,5.122-17.818c0.18-0.634,0.27-1.308,0.31-1.967
		c0.716-11.804,0.484-23.622,0.514-35.437c0.002-1.007,0.076-2.022-0.026-3.02c-0.08-0.787-0.376-1.552-0.59-2.379
		c-1.419,0.161-2.258,0.781-2.839,1.763c-0.724,1.225-1.432,2.459-2.107,3.709c-4.541,8.395-9.08,16.79-13.601,25.196
		c-2.854,5.311-5.651,10.654-8.515,15.96c-2.9,5.377-5.905,10.698-8.766,16.096c-3.475,6.558-5.48,13.621-6.855,20.875
		c-1.164,6.135-2.348,12.267-3.421,18.417c-1.116,6.397-1.942,12.848-3.206,19.213c-1.086,5.475-2.419,10.919-3.987,16.274
		c-1.975,6.74-4.211,13.41-6.51,20.049c-1.229,3.549-2.645,7.06-4.295,10.432c-3.389,6.926-6.96,13.764-10.52,20.604
		c-2.512,4.829-5.278,9.529-7.664,14.417c-4.674,9.578-8.233,19.584-10.145,30.08c-1.823,10.004-3.68,19.997-6.151,29.86
		c-2.518,10.053-5.329,20.024-9.125,29.692c-0.251,0.636-0.104,1.429-0.142,2.149c0,0-0.006,0.01-0.007,0.01
		C689.332,723.354,689.062,723.578,688.792,723.802z"/>
	<path style="fill-rule:evenodd;clip-rule:evenodd;fill:#2A354D;" d="M855.406,123.863c0.294,3.323-1.009,6.397-1.5,9.597
		c-0.479,3.122-1.096,6.226-1.429,9.362c-0.326,3.064-0.135,6.193-0.588,9.232c-0.735,4.929-0.056,9.88-0.508,14.78
		c-0.525,5.708-0.576,11.452-1.772,17.125c-0.837,3.964-0.913,8.102-1.166,12.172c-0.273,4.417-0.445,8.844-0.492,13.268
		c-0.025,2.409,0.375,4.818,0.453,7.232c0.183,5.625-0.511,11.176-2.088,16.563c-1.66,5.669-4.524,10.78-8.026,15.524
		c-1.734,2.349-3.523,4.658-5.326,6.956c-0.279,0.355-0.765,0.55-1.154,0.82c-0.145-0.326-0.289-0.65-0.434-0.977
		c2.172-2.972,4.407-5.899,6.5-8.924c4.392-6.342,7.75-13.185,8.691-20.913c0.503-4.14,0.509-8.366,0.426-12.547
		c-0.242-12.091,0.364-24.122,1.725-36.142c0.812-7.156,1.241-14.363,1.627-21.558c0.505-9.39,1.386-18.719,3.624-27.873
		C854.281,126.287,854.92,125.093,855.406,123.863z"/>
	<path style="fill-rule:evenodd;clip-rule:evenodd;fill:#202B42;" d="M889.29,67.872c-0.065,0.507,0.062,1.226-0.228,1.489
		c-1.766,1.608-3.711,3.024-5.437,4.671c-3.9,3.722-6.883,8.121-9.365,12.902c-4.889,9.418-9.874,18.788-14.809,28.182
		c-0.399,0.761-0.75,1.531-1.817,1.394c1.1-2.7,1.998-5.503,3.339-8.077c4.327-8.305,8.747-16.563,13.264-24.766
		C877.853,77.102,882.757,71.691,889.29,67.872z"/>
	<path style="fill-rule:evenodd;clip-rule:evenodd;fill:#202B42;" d="M919.26,48.922c0.518,0.336,0.735,0.724,0.078,1.107
		c-1.36,0.795-2.773,1.505-4.109,2.339c-4.923,3.073-9.821,6.184-14.731,9.274c-0.897,0.565-1.761,1.374-2.93,0.564
		c5.981-3.985,11.937-8.008,17.967-11.916C916.617,49.589,918.01,49.366,919.26,48.922z"/>
	<path style="fill-rule:evenodd;clip-rule:evenodd;fill:#27324B;" d="M857.492,118.514c0.032,0.868-0.09,1.654-1.045,2.007
		c0.325-1.066,0.648-2.134,0.973-3.2c0.029,0.229,0.058,0.459,0.085,0.688C857.501,118.177,857.498,118.346,857.492,118.514z"/>
	<path style="fill-rule:evenodd;clip-rule:evenodd;fill:#202B42;" d="M890.53,67.056c0.141,0.241,0.282,0.482,0.422,0.724
		c-0.479-0.012-0.959-0.023-1.439-0.036C889.852,67.514,890.19,67.285,890.53,67.056z"/>
	<path style="fill-rule:evenodd;clip-rule:evenodd;fill:#202B42;" d="M897.346,62.329c0.003,0.352,0.007,0.702,0.01,1.052
		c-0.436-0.05-0.87-0.101-1.305-0.151C896.482,62.93,896.915,62.629,897.346,62.329z"/>
	<path style="fill-rule:evenodd;clip-rule:evenodd;fill:#202B42;" d="M895.843,63.348c-0.001,0.348-0.001,0.696-0.002,1.044
		c-0.196-0.209-0.393-0.418-0.589-0.627C895.448,63.625,895.646,63.487,895.843,63.348z"/>
	<path style="fill-rule:evenodd;clip-rule:evenodd;fill:#27324B;" d="M856.08,121.535c0.036,0.131,0.087,0.26,0.095,0.392
		c0.003,0.035-0.129,0.078-0.199,0.117C856.01,121.875,856.045,121.705,856.08,121.535z"/>
	<path style="fill-rule:evenodd;clip-rule:evenodd;fill:#8D5B6E;" d="M1044.329,984.671c0.023,0.295,0.048,0.589,0.073,0.884
		c-0.18,0.365-0.48,0.718-0.52,1.097c-0.22,2.161-0.346,4.333-0.564,6.494c-0.447,4.403-0.966,8.8-1.383,13.205
		c-0.133,1.414-0.501,2.893,0.506,4.916c0.594-1.592,1.306-2.641,1.321-3.7c0.042-3.011,1.892-4.324,4.351-5.122
		c6.621-2.15,13.411-3.509,20.338-4.167c1.113-0.106,2.246-0.016,3.369-0.016c0.079,0.205,0.158,0.41,0.236,0.614
		c-0.806,0.771-1.527,1.657-2.43,2.289c-5.282,3.7-10.628,7.31-15.909,11.011c-3.847,2.696-7.403,5.688-10.429,9.361
		c-3.626,4.404-8.35,7.049-14.084,8.037c-3.727,0.644-7.356,0.346-10.978-0.231c-3.981-0.636-7.854-1.733-11.097-4.358
		c-3.967-3.213-7.934-6.427-11.926-9.608c-4.778-3.806-9.427-7.784-14.745-10.868c-1.488-0.864-3.017-1.798-4.017-3.862
		c1.352-0.035,2.468-0.101,3.583-0.08c0.749,0.013,1.496,0.143,2.243,0.229c4.311,0.505,8.666,0.78,12.923,1.583
		c4.909,0.925,9.327,2.764,11.028,8.249c0.541,1.742,2.034,2.943,3.759,3.836c-0.21-0.982-0.556-1.891-1.016-2.734
		c-1.494-2.736-2.717-5.573-3.239-8.664c-0.431-2.553-0.824-5.113-1.158-7.681c-0.257-1.987-0.418-3.989-0.576-5.988
		c-0.075-0.945-0.004-1.88,1.11-2.272c0.252,0.42,0.535,0.822,0.752,1.258c1.68,3.372,3.696,6.487,6.702,8.854
		c1.424,1.509,1.866,1.401,2.548-0.622c0.317-0.291,0.636-0.582,0.953-0.874c0.741-0.002,1.483-0.004,2.226-0.006
		c0.279-0.137,0.558-0.274,0.838-0.412c0.346-0.197,0.692-0.396,1.039-0.594l-0.009,0.012c2.904-0.216,4.843-2.39,7.389-3.861
		c0.371,2.404-0.345,4.764,1.06,6.728c1.347,0.297,2.368-0.281,3.178-1.16c4.075-4.421,8.421-8.634,11.013-14.209
		c0.245-0.525,0.673-0.965,1.017-1.444c0.175,0.06,0.351,0.12,0.525,0.181C1044.329,982.204,1044.329,983.438,1044.329,984.671z"/>
	<path style="fill-rule:evenodd;clip-rule:evenodd;fill:#393A4D;" d="M1005.1,987.123c-1.114,0.393-1.186,1.327-1.11,2.272
		c0.158,1.999,0.319,4.001,0.576,5.988c0.334,2.567,0.728,5.128,1.158,7.681c0.522,3.091,1.745,5.928,3.239,8.664
		c0.46,0.844,0.806,1.752,1.016,2.734c-1.725-0.893-3.218-2.094-3.759-3.836c-1.701-5.485-6.119-7.324-11.028-8.249
		c-4.257-0.803-8.612-1.078-12.923-1.583c-0.747-0.087-1.494-0.217-2.243-0.229c-1.115-0.021-2.231,0.045-3.583,0.08
		c1,2.064,2.529,2.998,4.017,3.862c5.318,3.084,9.967,7.063,14.745,10.868c3.992,3.182,7.959,6.396,11.926,9.608
		c3.242,2.625,7.115,3.723,11.097,4.358c3.621,0.577,7.251,0.875,10.978,0.231c5.734-0.988,10.458-3.633,14.084-8.037
		c3.025-3.674,6.582-6.665,10.429-9.361c5.281-3.701,10.627-7.311,15.909-11.011c0.902-0.632,1.624-1.519,2.43-2.289
		c-0.078-0.204-0.157-0.409-0.236-0.614c-1.123,0-2.256-0.091-3.369,0.016c-6.927,0.658-13.717,2.017-20.338,4.167
		c-2.459,0.798-4.309,2.111-4.351,5.122c-0.016,1.06-0.728,2.108-1.321,3.7c-1.007-2.023-0.639-3.502-0.506-4.916
		c0.417-4.405,0.936-8.802,1.383-13.205c0.219-2.161,0.345-4.333,0.564-6.494c0.039-0.379,0.34-0.731,0.52-1.097
		c1.011,0.672,0.925,1.692,0.865,2.707c-0.234,4.018-0.469,8.035-0.707,12.053c-0.033,0.568-0.084,1.137-0.153,2.072
		c1.493-0.354,2.771-0.587,4.003-0.963c4.246-1.294,8.471-2.658,12.714-3.957c3.229-0.988,6.514-1.546,9.918-1.119
		c1.466,0.183,2.732,0.66,3.729,1.799c-0.325,1.482-1.465,2.22-2.551,2.994c-6.276,4.483-12.555,8.965-18.836,13.44
		c-3.154,2.249-5.996,4.806-8.513,7.78c-6.203,7.334-14.304,9.858-23.662,8.932c-1.167-0.114-2.325-0.311-3.491-0.453
		c-5.336-0.657-9.714-3.124-13.889-6.486c-8.028-6.467-16.389-12.519-24.541-18.835c-1.702-1.318-3.098-3.031-4.622-4.577
		c-0.161-0.163-0.229-0.419-0.429-0.806c1.836-0.75,3.672-1.198,5.578-1.033c4.591,0.397,9.193,0.762,13.75,1.413
		c2.116,0.303,4.152,1.206,6.201,1.907c1.245,0.425,2.445,0.983,3.913,1.584c0.11-0.828,0.285-1.369,0.237-1.891
		c-0.592-6.593-1.299-13.176-1.805-19.774c-0.339-4.425-0.404-8.871-0.593-13.307c0.245-0.002,0.49-0.005,0.734-0.007
		c-0.43,3.275,0.145,6.437,0.964,9.598C1003.947,981.433,1004.479,984.289,1005.1,987.123z"/>
	<path style="fill-rule:evenodd;clip-rule:evenodd;fill:#43495D;" d="M1044.329,984.671c0-1.233,0-2.467,0-3.699
		c-0.175-0.061-0.351-0.121-0.525-0.181c-0.344,0.479-0.771,0.919-1.017,1.444c-2.592,5.575-6.938,9.788-11.013,14.209
		c-0.81,0.879-1.831,1.457-3.178,1.16c-1.404-1.964-0.688-4.323-1.06-6.728c-2.546,1.472-4.484,3.646-7.389,3.861
		c0.02-0.149,0.025-0.301,0.019-0.451c0.044-0.065,0.131-0.137,0.124-0.195c-0.017-0.134-0.079-0.263-0.123-0.394l-0.041,0.044
		c0.348-0.168,0.695-0.336,1.043-0.504l0.02,0.055c1.715-1.396,3.591-2.635,5.109-4.218c2.76-2.878,5.308-5.958,7.945-8.955
		c0.181,0.182,0.362,0.362,0.543,0.544c-0.594,0.809-1.189,1.615-1.781,2.427c-1.537,2.108-2.877,4.319-3.543,6.879
		c-0.592,2.276-0.479,4.595,0.402,6.376c0.813-0.779,1.6-1.511,2.361-2.267c4.926-4.89,8.541-10.723,11.957-16.693
		c0.662-1.157,1.396-2.321,1.778-3.58c3.021-9.929,8.407-18.558,14.559-26.772c5.444-7.271,12.103-13.416,18.479-19.818
		c0.213,0.218,0.424,0.436,0.636,0.653c-2.604,2.943-5.219,5.875-7.805,8.832c-4.405,5.039-8.993,9.936-13.134,15.184
		c-4.588,5.813-7.676,12.502-10.341,19.42c-1.313,3.41-2.006,6.866-2.433,10.427
		C1045.777,982.957,1045.478,984.024,1044.329,984.671z"/>
	<path style="fill-rule:evenodd;clip-rule:evenodd;fill:#41465A;" d="M870.893,998.234c-0.157-0.077-0.258-0.201-0.304-0.371
		c-0.124-0.346-0.249-0.69-0.502-1.391c-2.773,3.438-4.421,7.348-8.185,9.888c-2.986-2.243-5.115-5.245-6.975-8.482
		c0.052-0.284,0.105-0.566,0.158-0.851c1.995,2.295,3.991,4.591,6.172,7.099c0.332-1.078,0.568-1.776,0.762-2.486
		c0.995-3.627,1.964-7.261,2.987-10.879c0.115-0.407,0.514-0.733,0.78-1.098c0.165,0.086,0.329,0.173,0.494,0.259
		c-0.618,4.423-2.292,8.659-2.615,13.177c0.688-0.471,1.276-0.961,1.629-1.585c2.436-4.305,4.751-8.664,5.189-13.729
		c0.195-2.25,0.461-4.494,0.604-6.747c0.233-3.667,0.393-7.338,0.583-11.007c0.297,0.281,0.594,0.562,0.893,0.844
		c-0.156,3.566-0.256,7.136-0.481,10.695C871.731,987.129,871.293,992.681,870.893,998.234z"/>
	<path style="fill-rule:evenodd;clip-rule:evenodd;fill:#5B6274;" d="M1079.636,927.868c-0.212-0.218-0.423-0.436-0.636-0.653
		c2.417-2.791,4.834-5.582,7.25-8.372c0.152,0.144,0.305,0.289,0.457,0.433C1084.351,922.14,1081.992,925.005,1079.636,927.868z"/>
	<path style="fill-rule:evenodd;clip-rule:evenodd;fill:#5B6274;" d="M1091.673,911.526c0.317,0.03,0.635,0.063,0.952,0.093
		c-1.972,2.552-3.945,5.104-5.918,7.656c-0.152-0.144-0.305-0.289-0.457-0.433C1088.059,916.403,1089.865,913.966,1091.673,911.526z
		"/>
	<path style="fill-rule:evenodd;clip-rule:evenodd;fill:#D5DEEF;" d="M871.671,970.031c-0.19,3.669-0.35,7.34-0.583,11.007
		c-0.143,2.253-0.409,4.497-0.604,6.747c-0.438,5.064-2.754,9.424-5.189,13.729c-0.353,0.624-0.941,1.114-1.629,1.585
		c0.323-4.518,1.997-8.754,2.615-13.177c-0.165-0.086-0.329-0.173-0.494-0.259c-0.266,0.364-0.665,0.69-0.78,1.098
		c-1.023,3.618-1.992,7.252-2.987,10.879c-0.194,0.71-0.43,1.408-0.762,2.486c-2.181-2.508-4.178-4.804-6.172-7.099
		c-0.364-0.288-0.727-0.575-1.089-0.864l0.067-0.043c0.021-0.225,0.138-0.508,0.046-0.666c-1.596-2.744-3.217-5.474-5.086-8.633
		c-0.683,1.456-1.198,2.559-1.718,3.659c-0.929,1.968-1.792,3.971-2.808,5.892c-1.776,3.356-3.479,3.516-5.742,0.422
		c-5.118-6.999-9.481-14.443-11.928-22.817c-2.116-7.24-5.759-13.711-9.45-20.185c-0.365-0.638-0.769-1.254-1.155-1.881
		c-4.216-7.646-9.557-14.399-16.078-20.212c-1.501-1.673-2.972-3.372-4.521-4.998c-0.416-0.436-1.066-0.647-1.608-0.961l0.021,0.018
		c-0.175-0.178-0.35-0.354-0.525-0.531l0.021,0.027c-0.174-0.348-0.35-0.695-0.523-1.042l0.031,0.034
		c-0.178-0.179-0.357-0.357-0.535-0.537l0.035,0.031c-0.236-0.182-0.472-0.363-0.708-0.546c-1.559-0.548-2.129-1.95-2.805-3.26
		c-0.184-0.257-0.366-0.511-0.549-0.765l0.028,0.042c-0.008-0.581-0.016-1.161-0.025-1.74c8.304,5.207,16.634,10.371,24.904,15.631
		c17.609,11.199,35.641,21.673,54.041,31.515c0.443,0.236,0.865,0.521,1.325,0.718C870.826,966.223,871.953,967.685,871.671,970.031
		z"/>
	<path style="fill-rule:evenodd;clip-rule:evenodd;fill:#4C5366;" d="M800.144,931.699c6.521,5.813,11.861,12.565,16.078,20.212
		c-0.309,0.043-0.617,0.086-0.925,0.129c-0.881-1.21-1.791-2.4-2.639-3.633c-3.938-5.718-8.219-11.153-13.162-16.047
		C799.711,932.141,799.927,931.92,800.144,931.699z"/>
	<path style="fill-rule:evenodd;clip-rule:evenodd;fill:#838B9B;" d="M800.144,931.699c-0.216,0.221-0.433,0.441-0.648,0.661
		c-1.827-2.207-3.654-4.413-5.48-6.62c0.542,0.313,1.192,0.525,1.608,0.961C797.171,928.327,798.643,930.026,800.144,931.699z"/>
	<path style="fill-rule:evenodd;clip-rule:evenodd;fill:#727B8C;" d="M788.48,917.472c0.009,0.579,0.017,1.159,0.025,1.74
		c-1.304-0.878-2.359-1.916-2.349-3.643C786.931,916.204,787.706,916.837,788.48,917.472z"/>
	<path style="fill-rule:evenodd;clip-rule:evenodd;fill:#838B9B;" d="M793.009,924.212c0.174,0.347,0.349,0.694,0.523,1.042
		C793.358,924.906,793.183,924.559,793.009,924.212z"/>
	<path style="fill-rule:evenodd;clip-rule:evenodd;fill:#202B42;" d="M688.792,723.802c0.27-0.224,0.539-0.447,0.808-0.671
		c-0.108,0.224-0.217,0.447-0.326,0.67C689.114,723.802,688.953,723.802,688.792,723.802z"/>
	<path style="fill-rule:evenodd;clip-rule:evenodd;fill:#838B9B;" d="M793.511,925.227c0.175,0.178,0.351,0.354,0.525,0.531
		C793.861,925.58,793.686,925.404,793.511,925.227z"/>
	<path style="fill-rule:evenodd;clip-rule:evenodd;fill:#727B8C;" d="M788.478,919.17c0.183,0.254,0.365,0.508,0.549,0.765
		C788.843,919.68,788.661,919.425,788.478,919.17z"/>
	<path style="fill-rule:evenodd;clip-rule:evenodd;fill:#838B9B;" d="M791.832,923.194c0.236,0.183,0.472,0.364,0.708,0.546
		C792.304,923.558,792.068,923.377,791.832,923.194z"/>
	<path style="fill-rule:evenodd;clip-rule:evenodd;fill:#838B9B;" d="M792.505,923.709c0.178,0.18,0.356,0.358,0.535,0.537
		C792.861,924.067,792.683,923.889,792.505,923.709z"/>
	<path style="fill-rule:evenodd;clip-rule:evenodd;fill:#D4DDEE;" d="M1091.673,911.526c-1.808,2.439-3.614,4.877-5.423,7.316
		c-2.416,2.79-4.833,5.581-7.25,8.372c-6.377,6.402-13.035,12.548-18.479,19.818c-6.151,8.215-11.537,16.844-14.559,26.772
		c-0.382,1.259-1.116,2.423-1.778,3.58c-3.416,5.971-7.031,11.804-11.957,16.693c-0.762,0.756-1.548,1.487-2.361,2.267
		c-0.881-1.781-0.994-4.1-0.402-6.376c0.666-2.56,2.006-4.771,3.543-6.879c0.592-0.812,1.188-1.618,1.781-2.427
		c0.504-0.673,1.008-1.347,1.512-2.02c0.07-0.108,0.142-0.216,0.212-0.324c-0.114,0.064-0.229,0.129-0.344,0.193
		c-0.642,0.536-1.282,1.07-1.923,1.606c-2.638,2.997-5.186,6.077-7.945,8.955c-1.519,1.583-3.395,2.822-5.109,4.218
		c0.108-0.58,0.06-1.262,0.355-1.722c1.04-1.616,2.213-3.146,3.305-4.73c0.299-0.436,0.488-0.945,0.793-1.549
		c-1.563,0.247-4.368,3.363-8.141,8.809c-0.482,0.546-0.965,1.092-1.447,1.638c-0.317,0.292-0.636,0.583-0.953,0.874
		c-0.849,0.207-1.698,0.414-2.548,0.622c-3.006-2.366-5.022-5.481-6.702-8.854c-0.217-0.436-0.5-0.838-0.752-1.258
		c-0.62-2.834-1.152-5.69-1.881-8.497c-0.819-3.161-1.394-6.322-0.964-9.598c-0.053-1.614,0.915-2.615,2.08-3.521
		c3.558-2.764,7.569-4.631,11.842-5.957c1.839-0.57,3.697-1.156,5.591-1.459c5.691-0.906,10.73-3.307,15.294-6.684
		c9.975-7.383,19.91-14.822,29.781-22.344c7.738-5.896,15.356-11.951,23.03-17.932c0.508-0.396,1.037-0.765,1.8-1.323
		C1091.673,910.613,1091.673,911.07,1091.673,911.526z"/>
	<path style="fill-rule:evenodd;clip-rule:evenodd;fill:#8D5A6D;" d="M854.927,997.878c1.86,3.237,3.989,6.239,6.975,8.482
		c3.763-2.54,5.412-6.449,8.185-9.888c0.253,0.7,0.378,1.045,0.502,1.391c-0.208,0.515-0.495,1.01-0.612,1.542
		c-1.317,6-2.609,12.004-3.958,18.242c1.355-0.422,1.748-1.365,1.92-2.282c0.682-3.628,3.073-5.903,6.104-7.502
		c7.169-3.782,14.406-7.435,21.646-11.078c1.089-0.549,2.342-0.77,3.519-1.142l0.151,0.149c-1.597,2.128-3.103,4.333-4.813,6.365
		c-1.938,2.305-4.043,4.47-6.103,6.671c-4.806,5.136-9.58,10.305-14.464,15.364c-2.721,2.818-6.072,4.686-9.855,5.779
		c-4.924,1.425-9.986,2.287-15.059,2.384c-9.192,0.177-17.869-1.946-24.883-8.274c-5.025-4.535-9.649-9.517-14.438-14.313
		c-1.956-1.958-3.909-3.921-5.796-5.944c-0.878-0.942-1.597-2.035-2.079-3.438c3.716,0.865,7.441,1.69,11.145,2.604
		c3.569,0.88,7.102,1.919,10.683,2.751c1.796,0.417,3.021,1.376,3.792,2.976c0.653,1.357,1.231,2.75,1.874,4.111
		c0.228,0.482,0.545,0.921,1.21,1.227c-0.127-0.6-0.223-1.207-0.386-1.797c-1.233-4.476-1.642-8.972-1.081-13.634
		c0.4-3.311,0.158-6.698,0.198-10.052c0.01-0.807,0.002-1.612,0.36-2.569c1.045,1.564,2.104,3.12,3.134,4.695
		c1.695,2.593,3.432,5.16,5.04,7.807c2.088,3.439,4.658,2.444,6.532,0.301c1.458-1.664,2.399-3.79,3.509-5.746
		c0.449-0.791,0.735-1.673,1.259-2.894c1.011,1.423,1.792,2.641,2.701,3.755c0.654,0.805,1.478,1.47,2.227,2.197
		c0,0.001-0.067,0.044-0.067,0.045C854.306,996.734,854.617,997.307,854.927,997.878z"/>
	<path style="fill-rule:evenodd;clip-rule:evenodd;fill:#8D5A6D;" d="M899.207,995.644c0.111-0.057,0.222-0.113,0.332-0.168
		c-0.061,0.105-0.122,0.211-0.182,0.316C899.358,995.793,899.207,995.644,899.207,995.644z"/>
	<path style="fill-rule:evenodd;clip-rule:evenodd;fill:#202B42;" d="M857.492,118.514c0.005-0.168,0.009-0.337,0.014-0.505
		c0.063,0.122,0.136,0.24,0.175,0.369C857.688,118.401,857.559,118.468,857.492,118.514z"/>
	<path style="fill-rule:evenodd;clip-rule:evenodd;fill:#646D80;" d="M1017.502,994.101c3.772-5.445,6.578-8.562,8.141-8.809
		c-0.305,0.604-0.494,1.113-0.793,1.549c-1.092,1.584-2.265,3.114-3.305,4.73c-0.296,0.46-0.247,1.142-0.355,1.722l-0.02-0.055
		c-0.348,0.168-0.695,0.336-1.043,0.504l0.041-0.044c0,0.196-0.001,0.393-0.001,0.589c0.007,0.15,0.001,0.302-0.019,0.451
		l0.009-0.012c-0.347,0.197-0.693,0.396-1.039,0.594c-0.28,0.138-0.559,0.275-0.841,0.412
		C1018.019,995.188,1017.761,994.645,1017.502,994.101z"/>
	<path style="fill-rule:evenodd;clip-rule:evenodd;fill:#3E3D51;" d="M1012.554,997.234c0.85-0.208,1.699-0.415,2.548-0.622
		C1014.42,998.636,1013.978,998.743,1012.554,997.234z"/>
	<path style="fill-rule:evenodd;clip-rule:evenodd;fill:#3E3F52;" d="M1017.502,994.101c0.259,0.544,0.517,1.088,0.775,1.632
		c-0.739,0.002-1.481,0.004-2.223,0.006C1016.537,995.192,1017.02,994.646,1017.502,994.101z"/>
	<path style="fill-rule:evenodd;clip-rule:evenodd;fill:#43495D;" d="M1019.118,995.32c0.346-0.197,0.692-0.396,1.039-0.594
		C1019.811,994.924,1019.464,995.123,1019.118,995.32z"/>
	<path style="fill-rule:evenodd;clip-rule:evenodd;fill:#747C8F;" d="M1034.244,980.12c0.641-0.536,1.281-1.07,1.923-1.606
		l0.132,0.131c-0.504,0.673-1.008,1.347-1.512,2.02C1034.606,980.482,1034.425,980.302,1034.244,980.12z"/>
	<path style="fill-rule:evenodd;clip-rule:evenodd;fill:#D4DDEE;" d="M1020.127,993.742c0.348-0.168,0.695-0.336,1.043-0.504
		C1020.822,993.406,1020.475,993.574,1020.127,993.742z"/>
	<path style="fill-rule:evenodd;clip-rule:evenodd;fill:#D4DDEE;" d="M1020.167,994.287c0-0.196,0.001-0.393,0.001-0.589
		c0.044,0.131,0.106,0.26,0.123,0.394C1020.298,994.15,1020.211,994.222,1020.167,994.287z"/>
	<path style="fill-rule:evenodd;clip-rule:evenodd;fill:#393A4E;" d="M854.927,997.878c-0.31-0.571-0.621-1.144-0.931-1.714
		c0.363,0.288,0.726,0.575,1.088,0.863C855.032,997.312,854.979,997.594,854.927,997.878z"/>
	<path style="fill-rule:evenodd;clip-rule:evenodd;fill:#747C8F;" d="M1036.167,978.514c0.114-0.064,0.229-0.129,0.344-0.193
		c-0.07,0.108-0.142,0.216-0.212,0.324L1036.167,978.514z"/>
</g>
</svg>
